<!DOCTYPE svg PUBLIC "-//W3C//DTD SVG 20010904//EN" "http://www.w3.org/TR/2001/REC-SVG-20010904/DTD/svg10.dtd">
<svg version="1.0" xmlns="http://www.w3.org/2000/svg" width="122px" height="106px" viewBox="0 0 1220 1060" preserveAspectRatio="xMidYMid meet">
<g id="layer101" fill="#9465ff" stroke="none">
 <path d="M0 530 l0 -530 610 0 610 0 0 530 0 530 -610 0 -610 0 0 -530z"/>
 </g>
<g id="layer102" fill="#a47cff" stroke="none">
 <path d="M0 530 l0 -530 610 0 610 0 0 530 0 530 -610 0 -610 0 0 -530z m825 484 c39 -13 75 -31 81 -39 6 -8 17 -15 23 -15 32 0 145 -118 181 -189 47 -95 63 -171 56 -271 -3 -47 -8 -97 -12 -112 -5 -23 -3 -27 22 -30 23 -2 29 -8 29 -28 0 -24 -2 -25 -85 -28 -93 -3 -112 -13 -108 -51 3 -26 5 -26 98 -31 82 -4 95 -7 98 -24 7 -35 -12 -39 -176 -37 -171 2 -187 -2 -180 -51 3 -20 10 -24 63 -28 48 -4 61 -9 63 -24 2 -10 0 -22 -5 -27 -4 -4 -96 -9 -203 -10 -210 -2 -260 6 -362 57 -115 58 -230 206 -256 329 -22 105 -22 105 9 105 16 0 29 5 29 10 0 6 -11 10 -25 10 -24 0 -30 9 -26 38 1 6 -7 12 -17 12 -25 0 -46 25 -38 45 4 11 21 15 64 15 65 0 86 13 80 52 -4 28 -32 35 -140 37 -75 1 -78 2 -78 25 0 29 16 36 86 36 52 0 54 1 44 21 -21 38 2 48 113 51 l102 3 3 29 c4 34 -10 46 -59 46 -39 0 -65 21 -55 45 4 12 25 15 99 15 60 0 110 6 138 16 108 38 228 37 344 -2z m-565 -119 c0 -12 -20 -15 -119 -15 -109 0 -142 6 -124 24 3 3 60 6 125 6 98 0 118 -3 118 -15z m-210 -279 c0 -8 -5 -18 -11 -22 -14 -8 -33 11 -25 25 10 16 36 13 36 -3z m1048 -568 c-3 -25 -34 -36 -50 -20 -17 17 -1 42 27 42 22 0 26 -4 23 -22z"/>
 <path d="M340 703 c0 -5 32 -88 72 -185 71 -177 72 -178 103 -178 31 0 32 1 103 178 40 97 72 180 72 185 0 4 -13 7 -28 7 -26 0 -31 -6 -47 -55 l-19 -55 -81 0 -81 0 -19 55 c-16 49 -21 55 -47 55 -15 0 -28 -3 -28 -7z m213 -210 c-14 -38 -28 -77 -31 -87 -5 -19 -5 -19 -13 0 -4 10 -18 49 -33 87 l-25 67 64 0 64 0 -26 -67z"/>
 <path d="M720 525 l0 -185 106 0 c103 0 106 1 135 29 39 40 42 115 5 158 -23 26 -31 28 -110 32 l-86 3 0 74 c0 72 -1 74 -25 74 l-25 0 0 -185z m194 -25 c29 -30 30 -67 2 -94 -21 -22 -34 -26 -86 -26 l-60 0 0 71 0 71 65 -4 c39 -2 71 -10 79 -18z"/>
 </g>
<g id="layer103" fill="#ae8cff" stroke="none">
 <path d="M0 919 c0 -125 2 -140 16 -135 9 3 42 6 75 6 57 0 59 1 49 21 -20 37 2 48 107 51 78 2 98 6 107 21 19 29 -5 51 -60 57 -44 4 -49 8 -49 30 0 31 23 38 130 39 44 1 103 8 130 17 80 26 225 23 309 -5 38 -13 77 -32 87 -42 11 -11 25 -19 33 -19 20 0 103 -76 146 -136 22 -28 49 -78 60 -110 27 -73 37 -219 21 -293 -6 -30 -10 -55 -9 -56 2 -1 18 -5 36 -8 l32 -6 0 354 0 355 -610 0 -610 0 0 -141z m260 -24 c0 -13 -21 -15 -125 -15 -104 0 -125 2 -125 15 0 13 21 15 125 15 104 0 125 -2 125 -15z"/>
 <path d="M0 378 l0 -378 610 0 610 0 0 85 c0 73 -2 84 -16 78 -9 -3 -88 -6 -176 -7 -142 -1 -162 -3 -172 -18 -19 -31 4 -52 65 -58 57 -5 74 -25 49 -55 -17 -21 -327 -21 -423 0 -214 45 -383 228 -410 443 -5 41 -4 42 25 42 17 0 27 4 23 10 -3 6 -14 10 -24 10 -10 0 -23 11 -29 25 -6 14 -18 25 -26 25 -16 0 -31 34 -21 50 3 5 29 10 56 10 62 0 89 13 89 44 0 31 -15 36 -120 36 -74 0 -91 3 -99 18 -7 12 -10 -99 -11 -360z m50 238 c0 -8 -5 -18 -11 -22 -14 -8 -33 11 -25 25 10 16 36 13 36 -3z m1045 -566 c0 -20 -5 -25 -25 -25 -28 0 -41 32 -18 46 23 15 43 5 43 -21z"/>
 <path d="M340 703 c0 -5 32 -88 72 -185 71 -177 72 -178 103 -178 31 0 32 1 103 178 40 97 72 180 72 185 0 4 -13 7 -28 7 -26 0 -31 -6 -47 -55 l-19 -55 -81 0 -81 0 -19 55 c-16 49 -21 55 -47 55 -15 0 -28 -3 -28 -7z m213 -210 c-14 -38 -28 -77 -31 -87 -5 -19 -5 -19 -13 0 -4 10 -18 49 -33 87 l-25 67 64 0 64 0 -26 -67z"/>
 <path d="M720 525 l0 -185 106 0 c103 0 106 1 135 29 39 40 42 115 5 158 -23 26 -31 28 -110 32 l-86 3 0 74 c0 72 -1 74 -25 74 l-25 0 0 -185z m194 -25 c29 -30 30 -67 2 -94 -21 -22 -34 -26 -86 -26 l-60 0 0 71 0 71 65 -4 c39 -2 71 -10 79 -18z"/>
 <path d="M1210 330 c0 -7 3 -10 7 -7 3 4 3 10 0 14 -4 3 -7 0 -7 -7z"/>
 <path d="M1208 305 c-4 -4 -46 -8 -94 -9 -71 -1 -89 -4 -98 -18 -8 -13 -8 -23 0 -35 9 -14 30 -19 105 -23 52 -3 95 -5 97 -4 2 1 2 23 0 49 -2 26 -6 44 -10 40z"/>
 <path d="M1210 190 c0 -7 3 -10 7 -7 3 4 3 10 0 14 -4 3 -7 0 -7 -7z"/>
 </g>
<g id="layer104" fill="#bea7ff" stroke="none">
 <path d="M0 919 c0 -125 2 -140 16 -135 9 3 42 6 75 6 57 0 59 1 47 21 -11 18 -10 23 11 40 l23 19 -76 0 c-61 0 -78 3 -83 16 -10 27 18 34 132 32 l110 -3 0 -28 c-1 -27 1 -28 44 -25 87 6 83 69 -5 78 -38 4 -50 9 -53 24 -6 34 26 46 125 46 56 0 108 6 134 15 72 25 167 29 257 11 80 -16 170 -56 156 -69 -3 -4 3 -7 15 -7 27 0 119 -85 166 -152 49 -72 76 -171 76 -278 0 -47 -5 -102 -11 -123 -6 -22 -9 -40 -7 -42 2 -1 18 -5 36 -8 l32 -6 0 354 0 355 -610 0 -610 0 0 -141z"/>
 <path d="M0 372 l0 -372 610 0 610 0 0 86 c0 62 -3 83 -12 78 -6 -4 -77 -6 -158 -5 -154 2 -200 -6 -200 -37 0 -29 21 -42 66 -42 55 0 74 -8 74 -31 0 -33 -33 -39 -213 -39 -192 0 -280 15 -375 65 -140 73 -241 221 -267 393 -7 41 -6 42 22 43 l28 1 -30 7 c-16 3 -29 10 -27 14 7 22 -1 39 -23 47 -27 10 -33 38 -13 58 7 7 38 12 69 12 49 0 59 3 64 20 13 40 -10 50 -109 50 -58 0 -96 4 -104 12 -9 9 -12 -71 -12 -360z m50 237 c0 -14 -5 -19 -17 -17 -26 5 -29 38 -4 38 15 0 21 -6 21 -21z m1045 -564 c0 -23 -5 -30 -19 -30 -24 0 -41 27 -33 49 4 11 15 16 29 14 18 -2 23 -9 23 -33z"/>
 <path d="M340 702 c0 -6 49 -128 79 -197 5 -11 22 -53 38 -92 26 -68 30 -73 58 -73 28 0 32 5 58 73 16 39 33 81 38 92 30 69 79 191 79 197 0 4 -11 8 -25 8 -26 0 -27 -2 -55 -77 l-12 -33 -83 0 -83 0 -12 33 c-28 75 -29 77 -55 77 -14 0 -25 -4 -25 -8z m210 -223 c-17 -44 -30 -83 -30 -86 0 -15 -11 9 -39 85 l-30 82 64 0 64 0 -29 -81z"/>
 <path d="M720 524 l0 -186 111 4 c107 3 112 4 135 31 18 21 24 40 24 74 0 38 -5 50 -34 79 -33 33 -37 34 -110 34 l-76 0 0 75 c0 73 -1 75 -25 75 l-25 0 0 -186z m201 -31 c18 -17 20 -28 15 -58 -8 -43 -32 -55 -112 -55 l-54 0 0 71 0 71 65 -4 c49 -3 71 -9 86 -25z"/>
 <path d="M1207 303 c-4 -3 -37 -5 -75 -4 -79 3 -122 -10 -122 -38 0 -31 21 -39 118 -43 l92 -3 0 48 c0 48 -1 52 -13 40z"/>
 </g>
<g id="layer105" fill="#e5daff" stroke="none">
 <path d="M0 919 c0 -125 2 -140 16 -135 9 3 43 6 77 6 47 0 58 3 49 12 -20 20 -14 49 11 56 13 4 -9 9 -58 12 -72 4 -80 7 -80 25 0 19 8 20 115 23 127 2 153 -5 132 -38 -11 -19 -10 -20 31 -20 46 0 67 13 67 42 0 21 -37 38 -81 38 -33 0 -48 23 -32 49 8 12 34 17 119 22 60 3 136 14 169 24 77 22 214 16 295 -15 151 -56 275 -186 326 -340 21 -64 24 -236 5 -284 -13 -34 -15 -31 27 -39 l32 -6 0 354 0 355 -610 0 -610 0 0 -141z"/>
 <path d="M0 372 l0 -372 610 0 610 0 0 87 c0 60 -3 84 -10 77 -7 -7 -63 -9 -158 -6 -156 4 -202 -4 -202 -36 0 -29 21 -42 66 -42 54 0 74 -8 74 -29 0 -38 -18 -41 -215 -41 -212 1 -246 6 -352 55 -168 78 -291 268 -293 453 0 47 -3 54 -25 62 -27 10 -33 41 -12 58 7 6 37 12 66 14 61 3 85 24 62 52 -11 13 -34 16 -105 16 -58 0 -96 4 -104 12 -9 9 -12 -71 -12 -360z m50 253 c13 -16 6 -35 -15 -35 -18 0 -28 17 -21 35 7 19 20 19 36 0z m1051 -561 c17 -21 0 -49 -32 -49 -24 0 -36 23 -25 51 7 19 40 18 57 -2z"/>
 <path d="M345 688 c4 -13 27 -68 50 -123 23 -55 53 -128 66 -162 22 -58 26 -63 54 -63 28 0 32 5 54 63 13 34 43 107 66 162 62 147 62 147 30 143 -23 -2 -31 -12 -47 -55 l-19 -53 -84 0 -84 0 -19 53 c-16 43 -24 53 -47 55 -24 3 -26 1 -20 -20z m230 -145 c-4 -10 -18 -49 -32 -86 -14 -37 -27 -66 -29 -65 -3 3 -64 160 -64 165 0 2 30 3 66 3 59 0 65 -2 59 -17z"/>
 <path d="M720 525 l0 -185 95 0 c107 0 144 12 163 55 23 49 15 94 -22 131 -33 33 -37 34 -110 34 l-76 0 0 75 c0 73 -1 75 -25 75 l-25 0 0 -185z m200 -25 c24 -24 26 -67 4 -98 -13 -19 -24 -22 -85 -22 l-69 0 0 70 0 70 65 0 c52 0 69 -4 85 -20z"/>
 <path d="M1207 303 c-4 -3 -37 -5 -75 -4 -79 3 -122 -10 -122 -38 0 -31 21 -39 118 -43 l92 -3 0 48 c0 48 -1 52 -13 40z"/>
 </g>
<g id="layer106" fill="#fefeff" stroke="none">
 <path d="M0 978 c0 -64 3 -79 12 -70 15 15 226 16 248 2 12 -8 13 -13 2 -30 -11 -19 -10 -20 26 -20 27 0 45 7 58 21 19 21 18 21 -5 40 -14 11 -39 19 -61 19 -30 0 -40 5 -45 20 -13 40 10 50 110 50 60 0 108 6 136 16 60 22 223 30 290 14 52 -12 164 -61 184 -81 12 -12 28 -12 20 1 -3 6 1 10 10 10 9 0 13 -4 10 -10 -4 -6 9 -11 32 -11 l38 -2 -39 -6 -38 -6 45 -46 c58 -60 112 -159 131 -239 15 -63 15 -183 1 -247 -7 -29 -5 -34 19 -43 15 -5 29 -10 32 -10 2 0 4 160 4 355 l0 355 -610 0 -610 0 0 -82z"/>
 <path d="M1 838 c-1 -54 9 -73 24 -47 4 6 28 9 54 7 42 -2 46 0 49 22 2 14 9 31 14 38 8 9 -5 12 -60 12 -47 0 -72 4 -75 13 -3 6 -6 -14 -6 -45z"/>
 <path d="M0 671 c0 -46 2 -52 15 -41 18 15 45 6 45 -15 0 -21 -27 -30 -45 -15 -13 11 -15 -24 -15 -294 l0 -306 610 0 610 0 0 86 c0 66 -3 83 -13 77 -6 -4 -85 -8 -174 -8 -171 0 -191 -5 -178 -44 5 -17 15 -21 53 -21 68 -1 103 -35 70 -68 -19 -19 -387 -16 -461 3 -134 35 -269 144 -329 267 -40 82 -58 138 -58 185 0 24 -5 32 -20 35 -15 2 -17 7 -10 18 9 13 11 13 20 0 8 -12 10 -8 8 15 -2 22 -9 31 -25 33 -26 4 -40 37 -23 57 7 9 36 15 73 17 59 3 62 4 65 30 4 33 -7 37 -131 40 l-87 3 0 -54z m1028 -568 c-16 -2 -40 -2 -55 0 -16 2 -3 4 27 4 30 0 43 -2 28 -4z m74 -38 c8 -19 8 -28 -2 -40 -27 -32 -74 -8 -64 32 5 17 1 22 -18 26 -12 2 -2 5 25 6 41 1 49 -2 59 -24z"/>
 <path d="M346 693 c4 -10 17 -41 30 -70 13 -28 24 -56 24 -61 0 -4 9 -27 20 -50 11 -22 20 -46 20 -52 0 -5 4 -18 9 -28 5 -9 17 -34 27 -54 25 -51 53 -51 78 0 10 20 22 45 27 54 5 10 9 23 9 28 0 6 9 30 20 52 11 23 20 46 20 50 0 5 11 33 24 61 39 86 39 89 10 85 -21 -2 -29 -12 -43 -53 l-17 -50 -89 0 -89 0 -17 50 c-14 41 -22 51 -43 53 -21 3 -25 0 -20 -15z m234 -145 c0 -7 -7 -26 -15 -42 -8 -15 -15 -32 -15 -37 0 -5 -8 -27 -17 -48 l-17 -40 -18 37 c-9 20 -17 42 -18 48 0 7 -7 25 -15 40 -25 49 -21 54 50 54 45 0 65 -4 65 -12z"/>
 <path d="M720 524 l0 -187 106 5 c95 4 108 7 129 29 53 54 34 152 -35 176 -19 7 -61 12 -92 12 l-58 1 0 75 c0 73 -1 75 -25 75 l-25 0 0 -186z m202 -21 c23 -20 24 -80 1 -105 -13 -14 -31 -18 -85 -18 l-68 0 0 70 0 70 67 0 c48 0 72 -5 85 -17z"/>
 <path d="M1209 305 c-4 -3 -45 -7 -92 -8 -95 -2 -116 -12 -98 -46 10 -19 21 -21 89 -21 47 0 83 -5 90 -12 18 -18 23 -5 20 47 -2 26 -6 44 -9 40z"/>
 </g>

</svg>