<!DOCTYPE svg PUBLIC "-//W3C//DTD SVG 20010904//EN" "http://www.w3.org/TR/2001/REC-SVG-20010904/DTD/svg10.dtd">
<svg version="1.0" xmlns="http://www.w3.org/2000/svg" width="110px" height="107px" viewBox="0 0 1100 1070" preserveAspectRatio="xMidYMid meet">
<g id="layer101" fill="#ff508d" stroke="none">
 <path d="M0 535 l0 -535 550 0 550 0 0 535 0 535 -550 0 -550 0 0 -535z"/>
 </g>
<g id="layer102" fill="#ff7cab" stroke="none">
 <path d="M0 535 l0 -535 550 0 550 0 0 535 0 535 -550 0 -550 0 0 -535z m849 343 c48 -50 111 -145 111 -168 0 -9 6 -22 13 -28 8 -9 12 -50 12 -130 0 -112 -1 -120 -33 -184 -18 -38 -36 -68 -41 -68 -15 0 -22 72 -11 110 15 51 12 170 -5 221 -9 25 -27 57 -42 73 -14 15 -34 50 -44 77 -20 51 -26 139 -10 139 5 0 27 -19 50 -42z"/>
 </g>
<g id="layer103" fill="#ff9dbf" stroke="none">
 <path d="M0 535 l0 -535 550 0 550 0 0 535 0 535 -550 0 -550 0 0 -535z m763 405 c14 -11 29 -20 34 -20 27 0 125 -119 160 -196 52 -114 42 -298 -23 -397 -32 -49 -94 -117 -106 -117 -6 0 4 25 21 55 28 49 31 61 25 110 -4 35 -17 72 -35 101 -27 42 -29 51 -29 152 0 132 -25 236 -64 267 -24 19 -36 65 -17 65 4 0 20 -9 34 -20z"/>
 </g>
<g id="layer104" fill="#ffb3cd" stroke="none">
 <path d="M1 838 c0 -219 1 -230 14 -181 48 178 183 316 365 374 90 29 240 29 331 0 118 -38 245 -137 305 -239 153 -260 49 -588 -228 -721 -127 -61 -230 -74 -361 -46 -199 42 -367 201 -413 388 -11 47 -12 27 -13 -180 l-1 -233 550 0 550 0 0 535 0 535 -550 0 -550 0 1 -232z"/>
 <path d="M372 1014 c-95 -32 -164 -77 -229 -148 -182 -199 -174 -492 19 -684 106 -107 229 -156 388 -155 155 1 288 59 390 170 92 100 132 204 132 340 0 228 -159 428 -387 488 -93 24 -225 19 -313 -11z m248 -35 c25 -5 63 -12 85 -15 73 -11 143 -67 216 -172 60 -85 89 -215 70 -316 -34 -184 -185 -328 -375 -358 -74 -11 -75 -11 -115 16 -33 23 -42 36 -51 79 -15 70 -46 112 -134 181 -41 32 -82 73 -91 91 -25 55 -85 213 -85 227 0 30 81 138 132 175 71 53 92 64 168 84 74 20 116 22 180 8z"/>
 <path d="M349 685 c-37 -20 -59 -73 -59 -140 0 -53 3 -60 39 -96 35 -35 43 -39 91 -39 47 0 56 4 86 36 38 40 42 51 17 56 -11 3 -27 -7 -39 -21 -28 -34 -95 -35 -127 -2 -31 31 -31 121 0 152 40 41 143 21 143 -28 0 -15 9 -16 29 -4 19 12 6 45 -30 76 -35 29 -106 34 -150 10z"/>
 <path d="M580 555 l0 -145 85 0 c78 0 88 2 110 25 29 28 33 71 10 114 -18 36 -32 41 -106 41 l-59 0 0 55 c0 48 -2 55 -20 55 -19 0 -20 -7 -20 -145z m166 -30 c18 -25 18 -31 -6 -55 -15 -15 -33 -20 -70 -20 l-50 0 0 51 0 51 56 -4 c40 -3 61 -10 70 -23z"/>
 </g>
<g id="layer105" fill="#ffcada" stroke="none">
 <path d="M1 843 c0 -218 1 -226 15 -174 23 85 63 150 139 226 80 81 165 128 272 150 131 28 234 15 363 -47 328 -157 399 -573 143 -827 -80 -78 -143 -114 -249 -141 -286 -73 -567 75 -661 350 l-22 65 -1 -222 0 -223 550 0 550 0 0 535 0 535 -550 0 -550 0 1 -227z"/>
 <path d="M406 1025 c-261 -66 -434 -329 -382 -581 20 -100 55 -170 119 -241 104 -113 240 -173 394 -173 145 0 261 42 365 130 164 141 216 388 122 585 -55 117 -172 221 -299 266 -79 28 -236 35 -319 14z m259 -52 c50 -9 97 -22 106 -30 8 -7 20 -13 25 -13 28 0 139 -142 168 -215 66 -166 33 -336 -91 -466 -97 -102 -238 -154 -367 -135 -43 7 -46 9 -46 36 0 23 -8 35 -38 53 -20 13 -47 27 -59 31 -25 8 -71 81 -80 128 -8 45 -61 115 -122 163 -53 42 -58 56 -41 115 6 19 13 49 16 65 12 70 122 193 214 237 102 49 180 57 315 31z"/>
 <path d="M360 688 c-69 -37 -93 -151 -47 -219 31 -46 62 -61 122 -56 41 4 54 10 77 38 15 18 28 37 28 41 0 16 -33 7 -62 -17 -37 -32 -79 -32 -115 -1 -25 21 -28 31 -28 81 0 50 3 60 28 81 41 35 82 32 122 -10 34 -36 62 -35 51 1 -18 57 -118 92 -176 61z"/>
 <path d="M580 554 l0 -146 91 4 c81 3 93 6 110 27 34 42 19 119 -28 140 -13 6 -48 11 -78 11 l-55 0 0 55 c0 48 -2 55 -20 55 -19 0 -20 -7 -20 -146z m162 -21 c45 -40 10 -83 -68 -83 l-54 0 0 50 0 50 52 0 c34 0 58 -6 70 -17z"/>
 </g>
<g id="layer106" fill="#ffd9e6" stroke="none">
 <path d="M1 853 c0 -192 2 -213 13 -177 42 135 161 270 290 330 125 57 247 68 380 34 103 -26 177 -69 257 -151 159 -159 193 -381 93 -588 -37 -75 -151 -189 -230 -229 -302 -152 -671 -12 -780 296 l-24 67 0 -217 0 -218 550 0 550 0 0 535 0 535 -550 0 -550 0 1 -217z"/>
 <path d="M402 1020 c-339 -89 -491 -467 -304 -756 213 -329 733 -306 913 41 105 201 68 427 -95 583 -138 133 -326 181 -514 132z m276 -46 c81 -20 131 -42 154 -69 111 -129 140 -180 159 -281 28 -149 -35 -323 -151 -414 -21 -16 -69 -45 -107 -63 -63 -30 -75 -32 -173 -32 l-105 0 -5 34 c-4 29 -13 37 -62 63 -61 31 -102 85 -115 150 -9 45 -54 105 -118 158 -52 42 -54 47 -49 80 9 55 31 124 49 161 23 43 109 133 153 161 106 66 239 84 370 52z"/>
 <path d="M360 687 c-93 -47 -93 -217 0 -264 52 -26 136 -7 160 36 24 46 3 54 -42 16 -40 -34 -82 -33 -119 4 -24 24 -29 38 -29 76 0 38 5 52 29 76 40 39 82 39 123 -1 47 -47 79 -34 42 18 -33 47 -111 66 -164 39z"/>
 <path d="M580 555 l0 -145 75 0 c84 0 118 12 134 47 18 40 13 73 -18 104 -26 26 -36 29 -90 29 l-61 0 0 55 c0 48 -2 55 -20 55 -19 0 -20 -7 -20 -145z m162 -22 c45 -40 10 -83 -68 -83 l-54 0 0 50 0 50 52 0 c34 0 58 -6 70 -17z"/>
 </g>
<g id="layer107" fill="#ffefdf" stroke="none">
 <path d="M1 858 l0 -213 24 65 c112 302 480 439 777 289 123 -62 233 -194 272 -328 20 -67 21 -198 2 -267 -54 -205 -240 -363 -461 -393 -41 -6 25 -9 213 -10 l272 -1 0 535 0 535 -550 0 -550 0 1 -212z"/>
 <path d="M430 1024 c-240 -51 -410 -254 -410 -489 0 -236 161 -433 401 -490 368 -86 712 231 638 587 -40 193 -202 350 -404 393 -85 18 -140 18 -225 -1z m244 -45 c34 -6 68 -14 76 -19 99 -48 195 -164 230 -279 66 -211 -30 -432 -230 -529 -135 -66 -260 -66 -390 -1 -209 106 -302 319 -235 541 38 128 161 247 295 284 57 16 176 17 254 3z"/>
 <path d="M363 685 c-92 -40 -92 -215 0 -258 19 -9 44 -17 55 -17 35 0 80 21 96 45 32 48 10 63 -30 20 -26 -28 -86 -34 -115 -12 -56 43 -51 159 8 186 44 20 83 13 113 -19 25 -27 50 -39 50 -25 0 23 -37 69 -65 81 -42 17 -71 17 -112 -1z"/>
 <path d="M580 554 l0 -146 85 3 c102 5 130 23 130 89 0 60 -29 83 -110 88 l-65 4 0 54 c0 47 -2 54 -20 54 -19 0 -20 -7 -20 -146z m161 -14 c22 -12 26 -59 7 -78 -7 -7 -38 -12 -70 -12 l-58 0 0 50 0 50 51 0 c28 0 59 -5 70 -10z"/>
 <path d="M0 213 l0 -213 268 1 c181 1 246 4 202 9 -204 25 -380 166 -450 362 l-19 53 -1 -212z"/>
 </g>
<g id="layer108" fill="#fffefe" stroke="none">
 <path d="M0 858 l1 -213 18 50 c40 112 101 192 197 261 93 66 177 95 294 101 119 7 188 -7 288 -57 159 -80 269 -232 292 -405 5 -40 8 27 9 208 l1 267 -550 0 -550 0 0 -212z"/>
 <path d="M431 1025 c-100 -22 -185 -68 -255 -135 -231 -222 -202 -586 62 -763 218 -148 499 -122 682 61 227 227 187 588 -84 764 -112 72 -277 102 -405 73z m219 -41 c82 -16 95 -20 142 -46 70 -40 167 -177 193 -272 82 -301 -171 -594 -483 -561 -84 9 -208 70 -271 133 -107 107 -160 299 -116 422 8 23 14 45 12 49 -1 4 15 35 36 69 62 101 161 173 277 203 84 22 107 22 210 3z"/>
 <path d="M363 685 c-61 -26 -88 -123 -55 -197 36 -83 137 -102 195 -38 15 17 27 35 27 40 0 18 -22 11 -46 -15 -27 -29 -86 -34 -121 -10 -33 23 -48 79 -34 126 14 47 44 69 94 69 31 0 45 -7 68 -31 16 -17 33 -29 38 -27 19 6 -21 67 -54 82 -40 19 -70 20 -112 1z"/>
 <path d="M580 554 l0 -146 86 3 c76 4 88 7 105 28 19 23 25 74 13 106 -10 26 -59 45 -119 45 l-55 0 0 55 c0 42 -3 55 -15 55 -13 0 -15 -23 -15 -146z m161 -14 c22 -12 26 -59 7 -78 -7 -7 -39 -12 -75 -12 l-63 0 0 50 0 50 56 0 c30 0 64 -5 75 -10z"/>
 <path d="M1090 493 c0 -51 -22 -127 -53 -189 -80 -158 -241 -270 -422 -294 -40 -5 30 -8 213 -9 l272 -1 0 265 c0 146 -2 265 -5 265 -3 0 -5 -17 -5 -37z"/>
 <path d="M0 213 l0 -213 263 1 c177 1 243 4 202 9 -202 27 -380 172 -447 365 l-17 50 -1 -212z"/>
 </g>

</svg>