<!DOCTYPE svg PUBLIC "-//W3C//DTD SVG 20010904//EN" "http://www.w3.org/TR/2001/REC-SVG-20010904/DTD/svg10.dtd">
<svg version="1.0" xmlns="http://www.w3.org/2000/svg" width="107px" height="105px" viewBox="0 0 1070 1050" preserveAspectRatio="xMidYMid meet">
<g id="layer101" fill="#d9ab3b" stroke="none">
 <path d="M0 525 l0 -525 535 0 535 0 0 525 0 525 -535 0 -535 0 0 -525z"/>
 </g>
<g id="layer102" fill="#efa72e" stroke="none">
 <path d="M0 525 l0 -525 535 0 535 0 0 525 0 525 -535 0 -535 0 0 -525z m578 458 c-21 -2 -57 -2 -80 0 -24 2 -7 4 37 4 44 0 63 -2 43 -4z m-141 -9 c-3 -3 -12 -4 -19 -1 -8 3 -5 6 6 6 11 1 17 -2 13 -5z m220 0 c-3 -3 -12 -4 -19 -1 -8 3 -5 6 6 6 11 1 17 -2 13 -5z m-260 -11 c-4 -3 -10 -3 -14 0 -3 4 0 7 7 7 7 0 10 -3 7 -7z m-28 -7 c-10 -9 -69 -36 -69 -32 0 7 52 35 64 36 5 0 7 -2 5 -4z m338 -3 c-4 -3 -10 -3 -14 0 -3 4 0 7 7 7 7 0 10 -3 7 -7z m-417 -37 c0 -3 -5 -8 -12 -12 -7 -4 -8 -3 -4 4 7 12 16 16 16 8z m505 -6 c3 -5 4 -10 1 -10 -3 0 -8 5 -11 10 -3 6 -4 10 -1 10 3 0 8 -4 11 -10z m-585 -67 c-68 -74 -77 -83 -60 -58 17 24 103 115 109 115 2 0 -20 -26 -49 -57z m713 -66 c17 -31 17 -31 0 -7 -10 14 -40 50 -68 80 l-49 55 50 -48 c27 -26 58 -62 67 -80z m-816 -94 c-4 -3 -7 0 -7 7 0 7 3 10 7 7 3 -4 3 -10 0 -14z m860 0 c-4 -3 -7 0 -7 7 0 7 3 10 7 7 3 -4 3 -10 0 -14z m-870 -30 c-4 -3 -7 0 -7 7 0 7 3 10 7 7 3 -4 3 -10 0 -14z m880 0 c-4 -3 -7 0 -7 7 0 7 3 10 7 7 3 -4 3 -10 0 -14z m-890 -45 c-3 -7 -5 -2 -5 12 0 14 2 19 5 13 2 -7 2 -19 0 -25z m900 0 c-3 -8 -6 -5 -6 6 -1 11 2 17 5 13 3 -3 4 -12 1 -19z m-910 -80 c-2 -13 -4 -5 -4 17 -1 22 1 32 4 23 2 -10 2 -28 0 -40z m920 15 c-3 -10 -5 -4 -5 12 0 17 2 24 5 18 2 -7 2 -21 0 -30z"/>
 </g>
<g id="layer103" fill="#c9b452" stroke="none">
 <path d="M0 525 l0 -525 535 0 535 0 0 525 0 525 -535 0 -535 0 0 -525z m722 422 c138 -63 229 -174 263 -318 24 -105 22 -112 -42 -164 -32 -25 -78 -58 -102 -72 l-44 -26 16 24 c38 54 2 83 -39 32 -19 -24 -29 -28 -69 -27 -29 1 -53 7 -63 18 -27 27 -4 48 79 69 41 10 84 28 97 39 24 23 29 66 12 99 -25 46 -130 65 -190 34 -30 -15 -60 -61 -60 -90 0 -24 39 -18 49 8 14 35 38 50 85 51 30 1 51 -5 65 -18 42 -38 26 -54 -79 -81 -36 -9 -75 -26 -87 -38 -55 -51 -6 -136 80 -138 l42 -1 -50 -13 c-65 -17 -159 -18 -248 -3 l-72 12 55 7 c44 6 60 14 82 38 16 17 28 38 28 46 0 25 -39 17 -65 -12 -19 -23 -31 -28 -69 -27 -56 1 -82 22 -97 77 -16 61 5 117 54 141 33 16 45 17 78 7 26 -8 44 -21 54 -41 11 -21 20 -27 35 -23 30 8 24 31 -20 75 -40 40 -40 40 -105 36 -51 -3 -70 -9 -91 -28 -39 -37 -54 -73 -54 -132 0 -51 25 -111 54 -130 6 -4 7 -8 1 -8 -15 0 -119 60 -180 105 -60 44 -61 48 -45 136 16 84 72 188 132 245 107 101 199 136 343 130 78 -3 100 -8 167 -39z"/>
 </g>
<g id="layer104" fill="#d2c16a" stroke="none">
 <path d="M0 525 l0 -525 535 0 535 0 0 525 0 525 -535 0 -535 0 0 -525z m631 461 c167 -36 300 -156 350 -317 10 -33 19 -84 19 -112 -1 -52 -1 -52 -63 -98 -34 -25 -80 -56 -102 -69 l-39 -24 17 24 c38 55 2 85 -39 33 -19 -24 -29 -28 -69 -27 -29 1 -53 7 -63 18 -27 27 -4 48 79 69 41 10 84 28 97 39 24 23 29 66 12 99 -25 46 -130 65 -190 34 -30 -15 -60 -61 -60 -90 0 -24 39 -18 49 8 14 35 38 50 85 51 30 1 51 -5 65 -18 42 -38 26 -54 -79 -81 -36 -9 -75 -26 -87 -38 -55 -51 -6 -136 80 -138 l42 -1 -50 -13 c-65 -17 -159 -18 -248 -3 l-72 12 55 7 c44 6 60 14 82 38 16 17 28 38 28 46 0 25 -39 17 -65 -12 -19 -23 -31 -28 -69 -27 -56 1 -82 22 -97 77 -16 61 5 117 54 141 33 16 45 17 78 7 26 -8 44 -21 54 -41 11 -21 20 -27 35 -23 30 8 24 31 -20 75 -40 40 -40 40 -105 36 -51 -3 -70 -9 -91 -28 -39 -37 -54 -73 -54 -131 0 -51 32 -129 54 -129 5 0 7 -3 3 -6 -8 -8 -112 49 -175 96 -29 22 -54 40 -56 40 -3 0 -7 -8 -9 -17 -10 -38 -6 56 4 112 34 187 181 341 362 380 81 18 118 18 198 1z m366 -538 c-3 -7 -5 -2 -5 12 0 14 2 19 5 13 2 -7 2 -19 0 -25z m-920 -15 c-4 -3 -7 0 -7 7 0 7 3 10 7 7 3 -4 3 -10 0 -14z m903 -50 c-11 -17 -11 -17 -6 0 3 10 6 24 7 30 0 9 2 9 5 0 3 -7 0 -20 -6 -30z m-893 10 c-4 -3 -7 0 -7 7 0 7 3 10 7 7 3 -4 3 -10 0 -14z m10 -30 c-4 -3 -7 0 -7 7 0 7 3 10 7 7 3 -4 3 -10 0 -14z m27 -49 c3 -8 2 -12 -4 -9 -6 3 -10 10 -10 16 0 14 7 11 14 -7z m816 -24 c-6 -11 -13 -20 -16 -20 -2 0 0 9 6 20 6 11 13 20 16 20 2 0 0 -9 -6 -20z m-716 -104 c46 -45 47 -47 10 -18 -39 30 -81 78 -98 112 -4 8 3 2 15 -15 12 -16 45 -52 73 -79z m696 70 c0 -2 -8 -10 -17 -17 -16 -13 -17 -12 -4 4 13 16 21 21 21 13z m-90 -90 c0 -2 -8 -10 -17 -17 -16 -13 -17 -12 -4 4 13 16 21 21 21 13z m-535 -36 c3 -5 4 -10 1 -10 -3 0 -8 5 -11 10 -3 6 -4 10 -1 10 3 0 8 -4 11 -10z m495 5 c0 -2 -10 -9 -22 -15 -22 -11 -22 -10 -4 4 21 17 26 19 26 11z m-423 -42 c-4 -3 -10 -3 -14 0 -3 4 0 7 7 7 7 0 10 -3 7 -7z m350 0 c-4 -3 -10 -3 -14 0 -3 4 0 7 7 7 7 0 10 -3 7 -7z m-320 -10 c-4 -3 -10 -3 -14 0 -3 4 0 7 7 7 7 0 10 -3 7 -7z m290 0 c-4 -3 -10 -3 -14 0 -3 4 0 7 7 7 7 0 10 -3 7 -7z m-260 -10 c-4 -3 -10 -3 -14 0 -3 4 0 7 7 7 7 0 10 -3 7 -7z m230 0 c-4 -3 -10 -3 -14 0 -3 4 0 7 7 7 7 0 10 -3 7 -7z m-174 -10 c-7 -2 -19 -2 -25 0 -7 3 -2 5 12 5 14 0 19 -2 13 -5z m124 1 c-3 -3 -12 -4 -19 -1 -8 3 -5 6 6 6 11 1 17 -2 13 -5z"/>
 </g>
<g id="layer105" fill="#f0b850" stroke="none">
 <path d="M0 525 l0 -525 535 0 535 0 0 525 0 525 -535 0 -535 0 0 -525z m655 460 c84 -22 152 -62 215 -125 187 -188 181 -496 -13 -676 -193 -179 -470 -174 -656 13 -104 106 -148 220 -138 362 7 96 36 176 95 254 114 151 313 219 497 172z"/>
 <path d="M340 663 c-81 -30 -117 -158 -68 -244 12 -22 26 -39 32 -39 5 0 7 -3 3 -6 -8 -8 -112 49 -174 96 -29 21 -54 36 -56 32 -3 -4 1 -34 8 -68 35 -164 163 -301 323 -346 256 -70 516 83 573 338 7 30 9 57 6 60 -4 4 -30 -11 -59 -33 -29 -22 -71 -50 -93 -63 l-39 -24 17 24 c38 55 2 85 -39 33 -19 -24 -29 -28 -69 -27 -29 1 -53 7 -63 18 -27 27 -4 48 79 69 41 10 84 28 97 39 24 23 29 66 12 99 -25 46 -130 65 -190 34 -30 -15 -60 -61 -60 -90 0 -24 39 -18 49 8 14 35 38 50 85 51 30 1 51 -5 65 -18 42 -38 26 -54 -79 -81 -36 -9 -75 -26 -87 -38 -55 -51 -6 -136 80 -138 l42 -1 -50 -13 c-65 -17 -159 -18 -248 -3 l-72 12 55 7 c44 6 60 14 82 38 16 17 28 38 28 46 0 25 -39 17 -65 -12 -19 -23 -31 -28 -69 -27 -56 1 -82 22 -97 77 -16 61 5 117 54 141 33 16 45 17 78 7 26 -8 44 -21 54 -41 11 -21 20 -27 35 -23 30 8 24 31 -19 74 -36 36 -43 39 -92 38 -30 0 -61 -3 -69 -6z"/>
 </g>
<g id="layer106" fill="#dfcf84" stroke="none">
 <path d="M0 525 l0 -525 535 0 535 0 0 525 0 525 -535 0 -535 0 0 -525z m655 460 c84 -22 152 -62 215 -125 187 -188 181 -496 -13 -676 -193 -179 -470 -174 -656 13 -104 106 -148 220 -138 362 7 96 36 176 95 254 114 151 313 219 497 172z"/>
 <path d="M340 663 c-23 -9 -60 -45 -76 -75 -21 -40 -18 -127 6 -166 33 -53 75 -74 144 -69 51 3 63 8 87 35 16 18 29 39 29 47 0 25 -39 17 -65 -12 -19 -23 -31 -28 -69 -27 -56 1 -82 22 -97 77 -16 61 5 117 54 141 33 16 45 17 78 7 26 -8 44 -21 54 -41 11 -21 20 -27 35 -23 30 8 24 31 -19 74 -36 36 -43 39 -92 38 -30 0 -61 -3 -69 -6z"/>
 <path d="M638 654 c-28 -15 -58 -61 -58 -89 0 -24 39 -18 49 8 14 35 38 50 85 51 30 1 51 -5 65 -18 42 -38 26 -54 -79 -81 -78 -20 -110 -46 -110 -90 0 -48 39 -79 108 -85 l57 -6 -60 -14 c-79 -18 -226 -15 -306 5 -78 21 -187 74 -256 126 -29 21 -54 39 -56 39 -11 0 18 -112 42 -165 137 -296 537 -356 755 -114 25 27 56 72 70 100 27 55 53 155 43 165 -3 4 -26 -11 -51 -33 -49 -43 -164 -109 -173 -99 -4 3 -2 6 4 6 19 0 63 49 63 70 0 29 -30 25 -56 -7 -19 -24 -29 -28 -69 -27 -29 1 -53 7 -63 18 -27 27 -4 48 79 69 41 10 84 28 97 39 24 23 29 66 12 99 -25 46 -134 65 -192 33z"/>
 </g>
<g id="layer107" fill="#ebd795" stroke="none">
 <path d="M0 525 l0 -525 535 0 535 0 0 525 0 525 -535 0 -535 0 0 -525z m665 459 c79 -20 138 -55 206 -124 145 -144 180 -358 89 -546 -29 -58 -116 -153 -179 -193 -26 -17 -83 -40 -127 -52 -233 -61 -480 65 -564 288 -28 73 -37 201 -20 274 39 168 173 311 330 353 73 19 192 20 265 0z"/>
 <path d="M340 663 c-23 -9 -60 -45 -76 -75 -21 -40 -18 -127 6 -166 33 -53 75 -74 144 -69 51 3 63 8 87 35 16 18 29 39 29 47 0 25 -39 17 -65 -12 -19 -23 -31 -28 -69 -27 -56 1 -82 22 -97 77 -16 61 5 117 54 141 33 16 45 17 78 7 26 -8 44 -21 54 -41 11 -21 20 -27 35 -23 30 8 24 31 -19 74 -36 36 -43 39 -92 38 -30 0 -61 -3 -69 -6z"/>
 <path d="M638 654 c-28 -15 -58 -61 -58 -89 0 -24 39 -18 49 8 14 35 38 50 85 51 30 1 51 -5 65 -18 42 -38 26 -54 -79 -81 -78 -20 -110 -46 -110 -90 0 -48 39 -79 108 -85 l57 -6 -60 -14 c-79 -18 -226 -15 -306 5 -79 21 -187 74 -256 126 -62 46 -64 42 -34 -64 46 -166 193 -292 371 -320 177 -27 363 61 454 216 34 57 74 182 63 193 -3 4 -26 -11 -51 -33 -49 -43 -164 -109 -173 -99 -4 3 -2 6 4 6 19 0 63 49 63 70 0 29 -30 25 -56 -7 -19 -24 -29 -28 -69 -27 -29 1 -53 7 -63 18 -27 27 -4 48 79 69 41 10 84 28 97 39 24 23 29 66 12 99 -25 46 -134 65 -192 33z"/>
 </g>
<g id="layer108" fill="#f2e3a7" stroke="none">
 <path d="M0 525 l0 -525 535 0 535 0 0 525 0 525 -535 0 -535 0 0 -525z m615 474 c95 -17 178 -61 250 -130 109 -104 152 -219 143 -380 -9 -146 -84 -274 -209 -358 -193 -129 -439 -103 -604 63 -106 106 -158 256 -136 395 31 204 179 363 375 406 77 17 108 18 181 4z"/>
 <path d="M334 660 c-27 -11 -72 -65 -80 -96 -11 -41 2 -124 23 -152 32 -44 80 -64 142 -59 48 3 59 8 83 38 50 60 22 85 -34 29 -40 -41 -95 -42 -139 -2 -60 54 -44 175 27 202 50 19 85 12 120 -25 18 -19 40 -35 48 -35 28 0 17 32 -24 72 -37 34 -46 38 -93 37 -29 0 -61 -4 -73 -9z"/>
 <path d="M643 655 c-31 -13 -63 -59 -63 -90 0 -26 34 -16 55 18 24 38 59 52 109 43 26 -5 40 -15 48 -32 16 -34 0 -47 -85 -69 -87 -23 -117 -46 -117 -89 0 -49 36 -77 107 -85 114 -12 7 -34 -162 -34 -142 1 -239 31 -363 114 -58 38 -88 53 -90 44 -6 -24 44 -151 81 -207 93 -139 279 -219 442 -189 158 29 316 160 356 293 10 34 28 118 25 118 -1 0 -20 -17 -43 -38 -35 -33 -154 -102 -175 -102 -3 0 9 15 28 34 19 19 34 41 34 50 0 26 -29 18 -57 -14 -30 -37 -87 -41 -124 -11 -36 30 -16 53 64 72 107 26 139 59 123 124 -14 56 -118 83 -193 50z"/>
 </g>
<g id="layer109" fill="#f8dec8" stroke="none">
 <path d="M0 525 l0 -525 535 0 535 0 0 525 0 525 -252 -1 c-163 -1 -236 -4 -206 -9 222 -38 387 -197 434 -420 45 -216 -69 -450 -268 -551 -198 -100 -427 -73 -587 68 -179 157 -227 414 -118 629 70 139 221 246 385 274 30 5 -43 8 -205 9 l-253 1 0 -525z"/>
 <path d="M334 660 c-27 -11 -72 -65 -80 -96 -11 -41 2 -124 23 -152 32 -44 80 -64 142 -59 48 3 59 8 83 38 50 60 22 85 -34 29 -40 -41 -95 -42 -139 -2 -60 54 -44 175 27 202 50 19 85 12 120 -25 18 -19 40 -35 48 -35 28 0 17 32 -24 72 -37 34 -46 38 -93 37 -29 0 -61 -4 -73 -9z"/>
 <path d="M643 655 c-31 -13 -63 -59 -63 -90 0 -26 34 -16 55 18 24 38 59 52 109 43 26 -5 40 -15 48 -32 16 -34 0 -47 -85 -69 -38 -10 -80 -27 -93 -37 -33 -27 -33 -76 2 -109 22 -20 36 -24 91 -24 60 0 67 2 94 33 16 18 29 39 29 47 0 25 -30 17 -57 -15 -30 -37 -87 -41 -124 -11 -36 30 -16 53 64 72 107 26 139 59 123 124 -14 56 -118 83 -193 50z"/>
 </g>
<g id="layer110" fill="#f8eed1" stroke="none">
 <path d="M0 525 l0 -525 253 1 c162 1 235 4 205 9 -234 40 -409 219 -440 451 -13 100 3 198 48 293 31 65 115 162 178 205 48 33 142 70 206 81 28 5 -48 8 -202 9 l-248 1 0 -525z"/>
 <path d="M605 1043 c110 -15 239 -85 319 -174 274 -303 97 -790 -312 -859 -30 -5 43 -8 206 -9 l252 -1 0 525 0 525 -247 -1 c-137 -1 -234 -4 -218 -6z"/>
 <path d="M335 661 c-28 -12 -51 -40 -70 -84 -34 -81 -4 -175 67 -207 68 -31 111 -26 158 16 44 40 48 49 24 58 -10 4 -27 -5 -46 -24 -21 -22 -39 -30 -64 -30 -73 0 -114 43 -114 119 0 76 42 120 114 121 31 0 45 -6 72 -35 53 -56 89 -40 42 20 -37 47 -125 69 -183 46z"/>
 <path d="M654 656 c-34 -15 -74 -64 -74 -90 0 -26 37 -19 44 9 17 67 176 73 176 6 0 -28 -22 -41 -100 -61 -85 -22 -110 -41 -110 -86 0 -105 203 -111 234 -6 11 33 -20 29 -51 -8 -20 -25 -32 -30 -68 -30 -44 0 -75 19 -75 45 0 22 40 44 91 51 90 12 136 63 111 119 -24 53 -116 79 -178 51z"/>
 </g>
<g id="layer111" fill="#fffefe" stroke="none">
 <path d="M0 525 l0 -525 233 1 c222 1 230 1 173 15 -271 66 -444 347 -385 626 39 182 195 342 382 393 49 13 39 14 -175 14 l-228 1 0 -525z"/>
 <path d="M669 1034 c87 -23 171 -74 241 -144 99 -100 150 -223 150 -365 0 -239 -169 -454 -403 -511 -47 -11 -29 -12 181 -13 l232 -1 0 525 0 525 -227 -1 c-218 0 -226 -1 -174 -15z"/>
 <path d="M361 663 c-66 -13 -104 -68 -105 -153 0 -99 50 -153 146 -154 32 -1 55 5 74 20 38 28 51 51 38 64 -8 8 -20 2 -44 -20 -34 -32 -91 -41 -131 -20 -45 25 -64 119 -34 176 18 36 50 53 99 54 30 0 45 -7 73 -35 40 -40 53 -44 53 -16 0 28 -53 77 -91 85 -33 6 -38 6 -78 -1z"/>
 <path d="M661 657 c-35 -12 -65 -45 -76 -84 -5 -19 -2 -23 14 -23 12 0 21 6 21 15 0 9 11 27 25 40 46 47 155 26 155 -29 0 -18 -9 -28 -40 -40 -22 -9 -48 -16 -58 -16 -38 -1 -99 -38 -106 -64 -29 -115 196 -143 229 -28 5 18 2 22 -14 22 -12 0 -21 -6 -21 -14 0 -22 -46 -46 -88 -46 -49 0 -75 19 -70 50 2 20 12 27 53 38 104 27 132 42 145 73 32 75 -73 141 -169 106z"/>
 </g>

</svg>