<!DOCTYPE svg PUBLIC "-//W3C//DTD SVG 20010904//EN" "http://www.w3.org/TR/2001/REC-SVG-20010904/DTD/svg10.dtd">
<svg version="1.0" xmlns="http://www.w3.org/2000/svg" width="103px" height="106px" viewBox="0 0 1030 1060" preserveAspectRatio="xMidYMid meet">
<g id="layer101" fill="#e5004f" stroke="none">
 <path d="M0 530 l0 -530 515 0 515 0 0 530 0 530 -515 0 -515 0 0 -530z"/>
 </g>
<g id="layer102" fill="#777777" stroke="none">
 <path d="M0 530 l0 -530 515 0 515 0 0 530 0 530 -282 0 c-197 -1 -278 -4 -265 -11 37 -21 10 -74 -35 -67 -30 4 -38 46 -12 65 15 11 -20 13 -209 13 l-227 0 0 -530z m602 429 c221 -47 372 -266 337 -489 -22 -145 -116 -272 -245 -332 -126 -59 -302 -49 -416 23 -235 150 -276 477 -84 673 112 115 252 158 408 125z m-142 -884 c15 -18 10 -45 -12 -59 -33 -20 -69 20 -54 60 7 18 50 18 66 -1z"/>
 <path d="M708 698 c-18 -6 -28 -17 -28 -30 0 -15 4 -18 18 -13 37 15 97 17 116 2 26 -19 15 -60 -21 -76 -88 -39 -122 -85 -102 -138 21 -56 169 -76 169 -22 0 16 -6 17 -50 12 -56 -6 -80 6 -80 42 0 16 13 29 48 48 69 37 94 68 90 108 -6 61 -86 95 -160 67z"/>
 <path d="M170 550 l0 -150 71 0 c118 0 169 45 169 149 0 50 -4 65 -26 91 -39 45 -74 60 -149 60 l-65 0 0 -150z m156 92 c31 -24 44 -55 44 -101 0 -51 -32 -89 -85 -101 -79 -18 -75 -23 -75 105 l0 115 48 0 c29 0 55 -7 68 -18z"/>
 <path d="M480 550 l0 -150 75 0 c60 0 75 3 75 15 0 12 -13 15 -55 15 l-55 0 0 50 0 50 55 0 c48 0 55 2 55 20 0 18 -7 20 -55 20 l-55 0 0 45 0 45 60 0 c53 0 60 2 60 20 0 18 -7 20 -80 20 l-80 0 0 -150z"/>
 </g>
<g id="layer103" fill="#8f8f8f" stroke="none">
 <path d="M0 530 l0 -530 515 0 515 0 0 530 0 530 -282 0 c-197 -1 -278 -4 -265 -11 37 -21 10 -74 -35 -67 -30 4 -38 46 -12 65 15 11 -20 13 -209 13 l-227 0 0 -530z m357 453 c-4 -3 -10 -3 -14 0 -3 4 0 7 7 7 7 0 10 -3 7 -7z m-30 -10 c-4 -3 -10 -3 -14 0 -3 4 0 7 7 7 7 0 10 -3 7 -7z m275 -14 c221 -47 372 -266 337 -489 -22 -145 -116 -272 -245 -332 -126 -59 -302 -49 -416 23 -235 150 -276 477 -84 673 112 115 252 158 408 125z m-392 -43 c0 -3 -5 -8 -12 -12 -7 -4 -8 -3 -4 4 7 12 16 16 16 8z m-40 -29 c0 -2 -12 -14 -27 -28 l-28 -24 24 28 c23 25 31 32 31 24z m-60 -71 c0 -3 -5 -8 -12 -12 -7 -4 -8 -3 -4 4 7 12 16 16 16 8z m30 0 c0 -3 -5 -8 -12 -12 -7 -4 -8 -3 -4 4 7 12 16 16 16 8z m-83 -173 c-4 -3 -7 0 -7 7 0 7 3 10 7 7 3 -4 3 -10 0 -14z m-40 -45 c-3 -8 -6 -5 -6 6 -1 11 2 17 5 13 3 -3 4 -12 1 -19z m30 -10 c-3 -8 -6 -5 -6 6 -1 11 2 17 5 13 3 -3 4 -12 1 -19z m0 -120 c-3 -7 -5 -2 -5 12 0 14 2 19 5 13 2 -7 2 -19 0 -25z m-30 -10 c-3 -8 -6 -5 -6 6 -1 11 2 17 5 13 3 -3 4 -12 1 -19z m40 -45 c-4 -3 -7 0 -7 7 0 7 3 10 7 7 3 -4 3 -10 0 -14z m-20 -40 c-4 -3 -7 0 -7 7 0 7 3 10 7 7 3 -4 3 -10 0 -14z m40 -20 c-4 -3 -7 0 -7 7 0 7 3 10 7 7 3 -4 3 -10 0 -14z m38 -63 c3 -5 4 -10 1 -10 -3 0 -8 5 -11 10 -3 6 -4 10 -1 10 3 0 8 -4 11 -10z m-20 -20 c3 -5 4 -10 1 -10 -3 0 -8 5 -11 10 -3 6 -4 10 -1 10 3 0 8 -4 11 -10z m40 -10 c3 -5 4 -10 1 -10 -3 0 -8 5 -11 10 -3 6 -4 10 -1 10 3 0 8 -4 11 -10z m15 -55 c19 -19 32 -35 29 -35 -3 0 -20 16 -39 35 -19 19 -32 35 -29 35 3 0 20 -16 39 -35z m65 -55 c3 -5 4 -10 1 -10 -3 0 -8 5 -11 10 -3 6 -4 10 -1 10 3 0 8 -4 11 -10z m30 -20 c3 -5 4 -10 1 -10 -3 0 -8 5 -11 10 -3 6 -4 10 -1 10 3 0 8 -4 11 -10z m215 -55 c15 -18 10 -45 -12 -59 -33 -20 -69 20 -54 60 7 18 50 18 66 -1z"/>
 <path d="M708 698 c-18 -6 -28 -17 -28 -30 0 -15 4 -18 18 -13 37 15 97 17 116 2 26 -19 15 -60 -21 -76 -88 -39 -122 -85 -102 -138 21 -56 169 -76 169 -22 0 16 -6 17 -50 12 -56 -6 -80 6 -80 42 0 16 13 29 48 48 69 37 94 68 90 108 -6 61 -86 95 -160 67z"/>
 <path d="M170 550 l0 -150 71 0 c118 0 169 45 169 149 0 50 -4 65 -26 91 -39 45 -74 60 -149 60 l-65 0 0 -150z m156 92 c31 -24 44 -55 44 -101 0 -51 -32 -89 -85 -101 -79 -18 -75 -23 -75 105 l0 115 48 0 c29 0 55 -7 68 -18z"/>
 <path d="M480 550 l0 -150 75 0 c60 0 75 3 75 15 0 12 -13 15 -55 15 l-55 0 0 50 0 50 55 0 c48 0 55 2 55 20 0 18 -7 20 -55 20 l-55 0 0 45 0 45 60 0 c53 0 60 2 60 20 0 18 -7 20 -80 20 l-80 0 0 -150z"/>
 </g>
<g id="layer104" fill="#ef6a95" stroke="none">
 <path d="M0 530 l0 -530 515 0 515 0 0 530 0 530 -282 0 c-197 -1 -278 -4 -265 -11 37 -21 10 -74 -35 -67 -30 4 -38 46 -12 65 15 11 -20 13 -209 13 l-227 0 0 -530z m357 453 c-4 -3 -10 -3 -14 0 -3 4 0 7 7 7 7 0 10 -3 7 -7z m-30 -10 c-4 -3 -10 -3 -14 0 -3 4 0 7 7 7 7 0 10 -3 7 -7z m-28 -7 c-2 -2 -15 -9 -29 -15 -24 -11 -24 -11 -6 3 16 13 49 24 35 12z m303 -7 c221 -47 372 -266 337 -489 -22 -145 -116 -272 -245 -332 -126 -59 -302 -49 -416 23 -235 150 -276 477 -84 673 112 115 252 158 408 125z m-362 -23 c0 -2 -12 -11 -27 -20 l-28 -17 24 20 c23 21 31 25 31 17z m-60 -39 c0 -2 -17 -19 -37 -38 l-38 -34 34 38 c33 34 41 42 41 34z m-86 -102 c-9 -14 -18 -25 -21 -25 -5 0 5 18 20 38 17 22 18 13 1 -13z m30 0 c-9 -14 -18 -25 -21 -25 -5 0 5 18 20 38 17 22 18 13 1 -13z m-83 -102 c-12 -20 -14 -14 -5 12 4 9 9 14 11 11 3 -2 0 -13 -6 -23z m30 -4 c-5 -13 -10 -19 -10 -12 -1 15 10 45 15 40 3 -2 0 -15 -5 -28z m-44 -41 c-3 -8 -6 -5 -6 6 -1 11 2 17 5 13 3 -3 4 -12 1 -19z m30 -10 c-3 -8 -6 -5 -6 6 -1 11 2 17 5 13 3 -3 4 -12 1 -19z m-40 -45 c-3 -10 -5 -4 -5 12 0 17 2 24 5 18 2 -7 2 -21 0 -30z m30 -20 c-3 -10 -5 -2 -5 17 0 19 2 27 5 18 2 -10 2 -26 0 -35z m0 -105 c-2 -13 -4 -5 -4 17 -1 22 1 32 4 23 2 -10 2 -28 0 -40z m-30 -15 c-3 -10 -5 -4 -5 12 0 17 2 24 5 18 2 -7 2 -21 0 -30z m40 -35 c-3 -8 -6 -5 -6 6 -1 11 2 17 5 13 3 -3 4 -12 1 -19z m-30 -10 c-3 -8 -6 -5 -6 6 -1 11 2 17 5 13 3 -3 4 -12 1 -19z m40 -25 c-4 -3 -7 0 -7 7 0 7 3 10 7 7 3 -4 3 -10 0 -14z m-30 -10 c-4 -3 -7 0 -7 7 0 7 3 10 7 7 3 -4 3 -10 0 -14z m53 -38 c0 -5 -5 -3 -10 5 -5 8 -10 20 -10 25 0 6 5 3 10 -5 5 -8 10 -19 10 -25z m-26 -11 c3 -8 2 -12 -4 -9 -6 3 -10 10 -10 16 0 14 7 11 14 -7z m46 -24 c6 -11 8 -20 6 -20 -3 0 -10 9 -16 20 -6 11 -8 20 -6 20 3 0 10 -9 16 -20z m40 -95 l44 -50 -45 42 c-24 24 -53 57 -62 75 -17 32 -17 32 0 8 10 -14 38 -47 63 -75z m-15 55 c3 -5 4 -10 1 -10 -3 0 -8 5 -11 10 -3 6 -4 10 -1 10 3 0 8 -4 11 -10z m80 -110 c3 -5 4 -10 1 -10 -3 0 -8 5 -11 10 -3 6 -4 10 -1 10 3 0 8 -4 11 -10z m101 -58 c-5 -4 -86 36 -86 43 0 3 20 -5 45 -17 24 -12 43 -23 41 -26z m144 -17 c15 -18 10 -45 -12 -59 -33 -20 -69 20 -54 60 7 18 50 18 66 -1z"/>
 <path d="M708 698 c-18 -6 -28 -17 -28 -30 0 -15 4 -18 18 -13 37 15 97 17 116 2 26 -19 15 -60 -21 -76 -88 -39 -122 -85 -102 -138 21 -56 169 -76 169 -22 0 16 -6 17 -50 12 -56 -6 -80 6 -80 42 0 16 13 29 48 48 69 37 94 68 90 108 -6 61 -86 95 -160 67z"/>
 <path d="M170 550 l0 -150 71 0 c118 0 169 45 169 149 0 50 -4 65 -26 91 -39 45 -74 60 -149 60 l-65 0 0 -150z m156 92 c31 -24 44 -55 44 -101 0 -51 -32 -89 -85 -101 -79 -18 -75 -23 -75 105 l0 115 48 0 c29 0 55 -7 68 -18z"/>
 <path d="M480 550 l0 -150 75 0 c60 0 75 3 75 15 0 12 -13 15 -55 15 l-55 0 0 50 0 50 55 0 c48 0 55 2 55 20 0 18 -7 20 -55 20 l-55 0 0 45 0 45 60 0 c53 0 60 2 60 20 0 18 -7 20 -80 20 l-80 0 0 -150z"/>
 </g>
<g id="layer105" fill="#b0b0b0" stroke="none">
 <path d="M0 530 l0 -530 515 0 515 0 0 530 0 530 -282 0 c-234 0 -279 -2 -264 -13 11 -8 17 -23 14 -38 -2 -20 -8 -24 -38 -24 -30 0 -36 4 -38 24 -3 15 3 30 14 38 15 11 -20 13 -209 13 l-227 0 0 -530z m357 453 c-4 -3 -10 -3 -14 0 -3 4 0 7 7 7 7 0 10 -3 7 -7z m-30 -10 c-4 -3 -10 -3 -14 0 -3 4 0 7 7 7 7 0 10 -3 7 -7z m-28 -7 c-2 -2 -15 -9 -29 -15 -24 -11 -24 -11 -6 3 16 13 49 24 35 12z m342 -16 c203 -61 337 -279 299 -487 -18 -96 -54 -166 -120 -234 -174 -178 -453 -178 -622 -1 -115 120 -150 248 -112 413 25 112 118 230 221 283 94 48 226 58 334 26z m-401 -14 c0 -2 -12 -11 -27 -20 l-28 -17 24 20 c23 21 31 25 31 17z m631 -43 c13 -16 12 -17 -3 -4 -10 7 -18 15 -18 17 0 8 8 3 21 -13z m-691 4 c0 -2 -17 -19 -37 -38 l-38 -34 34 38 c33 34 41 42 41 34z m-86 -102 c-9 -14 -18 -25 -21 -25 -5 0 5 18 20 38 17 22 18 13 1 -13z m30 0 c-9 -14 -18 -25 -21 -25 -5 0 5 18 20 38 17 22 18 13 1 -13z m-83 -102 c-12 -20 -14 -14 -5 12 4 9 9 14 11 11 3 -2 0 -13 -6 -23z m30 -4 c-5 -13 -10 -19 -10 -12 -1 15 10 45 15 40 3 -2 0 -15 -5 -28z m-44 -41 c-3 -8 -6 -5 -6 6 -1 11 2 17 5 13 3 -3 4 -12 1 -19z m30 -10 c-3 -8 -6 -5 -6 6 -1 11 2 17 5 13 3 -3 4 -12 1 -19z m-40 -45 c-3 -10 -5 -4 -5 12 0 17 2 24 5 18 2 -7 2 -21 0 -30z m30 -20 c-3 -10 -5 -2 -5 17 0 19 2 27 5 18 2 -10 2 -26 0 -35z m0 -105 c-2 -13 -4 -5 -4 17 -1 22 1 32 4 23 2 -10 2 -28 0 -40z m-30 -15 c-3 -10 -5 -4 -5 12 0 17 2 24 5 18 2 -7 2 -21 0 -30z m40 -35 c-3 -8 -6 -5 -6 6 -1 11 2 17 5 13 3 -3 4 -12 1 -19z m-30 -10 c-3 -8 -6 -5 -6 6 -1 11 2 17 5 13 3 -3 4 -12 1 -19z m40 -25 c-4 -3 -7 0 -7 7 0 7 3 10 7 7 3 -4 3 -10 0 -14z m-30 -10 c-4 -3 -7 0 -7 7 0 7 3 10 7 7 3 -4 3 -10 0 -14z m53 -38 c0 -5 -5 -3 -10 5 -5 8 -10 20 -10 25 0 6 5 3 10 -5 5 -8 10 -19 10 -25z m-26 -11 c3 -8 2 -12 -4 -9 -6 3 -10 10 -10 16 0 14 7 11 14 -7z m46 -24 c6 -11 8 -20 6 -20 -3 0 -10 9 -16 20 -6 11 -8 20 -6 20 3 0 10 -9 16 -20z m40 -95 l44 -50 -45 42 c-24 24 -53 57 -62 75 -17 32 -17 32 0 8 10 -14 38 -47 63 -75z m-15 55 c3 -5 4 -10 1 -10 -3 0 -8 5 -11 10 -3 6 -4 10 -1 10 3 0 8 -4 11 -10z m80 -110 c3 -5 4 -10 1 -10 -3 0 -8 5 -11 10 -3 6 -4 10 -1 10 3 0 8 -4 11 -10z m101 -58 c-5 -4 -86 36 -86 43 0 3 20 -5 45 -17 24 -12 43 -23 41 -26z m144 -17 c15 -18 10 -45 -12 -59 -33 -20 -69 20 -54 60 7 18 50 18 66 -1z"/>
 <path d="M170 550 l0 -150 71 0 c118 0 169 45 169 149 0 50 -4 65 -26 91 -39 45 -74 60 -149 60 l-65 0 0 -150z m155 94 c45 -29 60 -118 29 -163 -20 -28 -72 -51 -114 -51 l-30 0 0 121 0 121 47 -7 c25 -4 56 -13 68 -21z"/>
 <path d="M480 550 l0 -150 75 0 c60 0 75 3 75 15 0 12 -13 15 -55 15 l-55 0 0 50 0 50 56 0 c73 0 70 24 -4 28 l-52 3 0 55 0 54 60 0 c47 0 60 3 60 15 0 12 -16 15 -80 15 l-80 0 0 -150z"/>
 <path d="M693 693 c-7 -2 -13 -14 -13 -25 0 -15 4 -18 18 -13 37 15 97 17 116 2 29 -22 14 -60 -31 -81 -67 -30 -95 -59 -96 -99 0 -19 5 -42 12 -51 34 -41 161 -46 161 -6 0 17 -5 18 -50 13 -56 -6 -80 6 -80 41 0 16 12 29 43 46 67 37 97 69 97 106 0 49 -38 74 -109 73 -31 0 -62 -3 -68 -6z"/>
 </g>
<g id="layer106" fill="#f17ba5" stroke="none">
 <path d="M1 530 l0 -530 514 0 515 0 0 530 0 530 -282 0 c-234 0 -279 -2 -264 -13 11 -8 17 -23 14 -38 -2 -20 -8 -24 -38 -24 -30 0 -36 4 -38 24 -3 15 3 30 14 38 15 11 -20 13 -209 13 l-226 0 0 -530z m304 434 c-150 -61 -257 -197 -284 -359 -7 -38 -9 -42 -10 -18 -2 46 32 146 69 203 18 28 54 70 82 94 50 46 158 106 187 106 9 -1 -11 -12 -44 -26z m336 -14 c203 -61 337 -279 299 -487 -18 -96 -54 -166 -120 -234 -174 -178 -453 -178 -622 -1 -115 120 -150 248 -112 413 25 112 118 230 221 283 94 48 226 58 334 26z m230 -57 c13 -16 12 -17 -3 -4 -10 7 -18 15 -18 17 0 8 8 3 21 -13z m-775 -155 l-41 -81 0 -123 0 -122 42 -81 c23 -45 36 -77 29 -72 -7 6 -28 44 -47 83 -29 64 -34 85 -37 173 -3 83 0 111 18 165 18 54 63 140 73 140 2 0 -15 -37 -37 -82z m-55 -356 c38 -115 128 -214 246 -269 55 -25 72 -40 28 -23 -94 36 -181 106 -235 189 -38 61 -70 154 -68 200 l1 36 4 -35 c2 -19 13 -63 24 -98z m419 -307 c15 -18 10 -45 -12 -59 -33 -20 -69 20 -54 60 7 18 50 18 66 -1z"/>
 <path d="M170 550 l0 -150 71 0 c118 0 169 45 169 149 0 50 -4 65 -26 91 -39 45 -74 60 -149 60 l-65 0 0 -150z m155 94 c45 -29 60 -118 29 -163 -20 -28 -72 -51 -114 -51 l-30 0 0 121 0 121 47 -7 c25 -4 56 -13 68 -21z"/>
 <path d="M480 550 l0 -150 75 0 c60 0 75 3 75 15 0 12 -13 15 -55 15 l-55 0 0 50 0 50 56 0 c73 0 70 24 -4 28 l-52 3 0 55 0 54 60 0 c47 0 60 3 60 15 0 12 -16 15 -80 15 l-80 0 0 -150z"/>
 <path d="M693 693 c-7 -2 -13 -14 -13 -25 0 -15 4 -18 18 -13 37 15 97 17 116 2 29 -22 14 -60 -31 -81 -67 -30 -95 -59 -96 -99 0 -19 5 -42 12 -51 34 -41 161 -46 161 -6 0 17 -5 18 -50 13 -56 -6 -80 6 -80 41 0 16 12 29 43 46 67 37 97 69 97 106 0 49 -38 74 -109 73 -31 0 -62 -3 -68 -6z"/>
 </g>
<g id="layer107" fill="#f491b2" stroke="none">
 <path d="M1 530 l0 -530 514 0 515 0 0 530 0 530 -282 0 c-197 -1 -278 -4 -265 -11 20 -12 23 -49 5 -67 -9 -9 -1 -12 38 -12 110 0 246 -66 317 -152 148 -181 137 -429 -28 -593 -110 -110 -243 -151 -389 -121 -96 20 -161 54 -227 120 -214 214 -151 577 123 706 33 16 79 32 102 36 36 6 38 8 19 15 -25 9 -31 47 -11 67 9 9 -37 12 -210 12 l-221 0 0 -530z m536 514 c-3 -3 -12 -4 -19 -1 -8 3 -5 6 6 6 11 1 17 -2 13 -5z m70 -10 c-3 -3 -12 -4 -19 -1 -8 3 -5 6 6 6 11 1 17 -2 13 -5z m40 -11 c-4 -3 -10 -3 -14 0 -3 4 0 7 7 7 7 0 10 -3 7 -7z m60 -20 c-4 -3 -10 -3 -14 0 -3 4 0 7 7 7 7 0 10 -3 7 -7z m-402 -39 c-150 -61 -257 -197 -284 -359 -7 -38 -9 -42 -10 -18 -2 46 32 146 69 203 18 28 54 70 82 94 50 46 158 106 187 106 9 -1 -11 -12 -44 -26z m500 -14 c3 -5 4 -10 1 -10 -3 0 -8 5 -11 10 -3 6 -4 10 -1 10 3 0 8 -4 11 -10z m65 -55 c19 -19 32 -35 29 -35 -3 0 -20 16 -39 35 -19 19 -32 35 -29 35 3 0 20 -16 39 -35z m55 -65 c3 -5 4 -10 1 -10 -3 0 -8 5 -11 10 -3 6 -4 10 -1 10 3 0 8 -4 11 -10z m-829 -92 l-41 -81 0 -123 0 -122 42 -81 c23 -45 36 -77 29 -72 -7 6 -28 44 -47 83 -29 64 -34 85 -37 173 -3 83 0 111 18 165 18 54 63 140 73 140 2 0 -15 -37 -37 -82z m849 62 c3 -5 4 -10 1 -10 -3 0 -8 5 -11 10 -3 6 -4 10 -1 10 3 0 8 -4 11 -10z m62 -172 c-3 -8 -6 -5 -6 6 -1 11 2 17 5 13 3 -3 4 -12 1 -19z m10 -120 c-2 -18 -4 -6 -4 27 0 33 2 48 4 33 2 -15 2 -42 0 -60z m-976 -126 c38 -115 128 -214 246 -269 55 -25 72 -40 28 -23 -94 36 -181 106 -235 189 -38 61 -70 154 -68 200 l1 36 4 -35 c2 -19 13 -63 24 -98z m966 46 c-3 -8 -6 -5 -6 6 -1 11 2 17 5 13 3 -3 4 -12 1 -19z m-10 -45 c-4 -3 -7 0 -7 7 0 7 3 10 7 7 3 -4 3 -10 0 -14z m-10 -30 c-4 -3 -7 0 -7 7 0 7 3 10 7 7 3 -4 3 -10 0 -14z m-117 -178 c-24 -25 -46 -45 -49 -45 -3 0 15 20 39 45 24 25 46 45 49 45 3 0 -15 -20 -39 -45z m-70 -59 c0 -3 -5 -8 -12 -12 -7 -4 -8 -3 -4 4 7 12 16 16 16 8z m-342 -38 c30 -30 0 -75 -43 -64 -19 5 -25 13 -25 35 0 15 3 31 7 34 11 11 48 8 61 -5z m199 -35 c-4 -3 -10 -3 -14 0 -3 4 0 7 7 7 7 0 10 -3 7 -7z m-40 -10 c-4 -3 -10 -3 -14 0 -3 4 0 7 7 7 7 0 10 -3 7 -7z m-59 -10 c-10 -2 -26 -2 -35 0 -10 3 -2 5 17 5 19 0 27 -2 18 -5z"/>
 <path d="M170 550 l0 -150 71 0 c118 0 169 45 169 149 0 50 -4 65 -26 91 -39 45 -74 60 -149 60 l-65 0 0 -150z m152 99 c44 -24 63 -123 32 -168 -20 -28 -72 -51 -114 -51 l-30 0 0 121 0 121 48 -7 c26 -4 55 -11 64 -16z"/>
 <path d="M480 550 l0 -150 75 0 c60 0 75 3 75 15 0 12 -13 15 -55 15 l-55 0 0 50 0 50 56 0 c73 0 70 24 -4 28 l-52 3 0 55 0 54 60 0 c47 0 60 3 60 15 0 12 -16 15 -80 15 l-80 0 0 -150z"/>
 <path d="M693 693 c-7 -2 -13 -14 -13 -25 0 -15 4 -18 18 -13 37 15 97 17 116 2 33 -25 14 -58 -57 -99 -70 -40 -86 -70 -64 -118 24 -51 167 -68 167 -20 0 17 -5 18 -50 13 -56 -6 -80 6 -80 41 0 16 12 29 43 46 67 37 97 69 97 106 0 49 -38 74 -109 73 -31 0 -62 -3 -68 -6z"/>
 </g>
<g id="layer108" fill="#ed8fc8" stroke="none">
 <path d="M1 530 l0 -530 514 0 515 0 0 530 0 530 -277 0 c-215 0 -274 -3 -265 -12 15 -15 16 -50 1 -65 -7 -7 12 -12 65 -15 241 -16 430 -261 389 -504 -41 -236 -270 -404 -499 -366 -125 21 -243 97 -308 200 -76 121 -88 289 -28 416 55 117 169 213 291 246 32 8 41 14 32 23 -15 15 -14 50 1 65 9 9 -37 12 -210 12 l-221 0 0 -530z m542 513 c-7 -2 -19 -2 -25 0 -7 3 -2 5 12 5 14 0 19 -2 13 -5z m70 -10 c-7 -2 -19 -2 -25 0 -7 3 -2 5 12 5 14 0 19 -2 13 -5z m34 -10 c-4 -3 -10 -3 -14 0 -3 4 0 7 7 7 7 0 10 -3 7 -7z m30 -10 c-4 -3 -10 -3 -14 0 -3 4 0 7 7 7 7 0 10 -3 7 -7z m43 -13 c8 -5 11 -10 5 -10 -5 0 -17 5 -25 10 -8 5 -10 10 -5 10 6 0 17 -5 25 -10z m-415 -36 c-150 -61 -257 -197 -284 -359 -7 -38 -9 -42 -10 -18 -2 46 32 146 69 203 18 28 54 70 82 94 50 46 158 106 187 106 9 -1 -11 -12 -44 -26z m475 0 c0 -2 -9 0 -20 6 -11 6 -20 13 -20 16 0 2 9 0 20 -6 11 -6 20 -13 20 -16z m31 -21 c13 -16 12 -17 -3 -4 -10 7 -18 15 -18 17 0 8 8 3 21 -13z m59 -48 c19 -19 32 -35 29 -35 -3 0 -20 16 -39 35 -19 19 -32 35 -29 35 3 0 20 -16 39 -35z m55 -65 c3 -5 4 -10 1 -10 -3 0 -8 5 -11 10 -3 6 -4 10 -1 10 3 0 8 -4 11 -10z m-829 -92 l-41 -81 0 -123 0 -122 42 -81 c23 -45 36 -77 29 -72 -7 6 -28 44 -47 83 -29 64 -34 85 -37 173 -3 83 0 111 18 165 18 54 63 140 73 140 2 0 -15 -37 -37 -82z m849 62 c3 -5 4 -10 1 -10 -3 0 -8 5 -11 10 -3 6 -4 10 -1 10 3 0 8 -4 11 -10z m45 -95 c0 -5 -5 -3 -10 5 -5 8 -10 20 -10 25 0 6 5 3 10 -5 5 -8 10 -19 10 -25z m7 -37 c-3 -8 -6 -5 -6 6 -1 11 2 17 5 13 3 -3 4 -12 1 -19z m10 -40 c-3 -8 -6 -5 -6 6 -1 11 2 17 5 13 3 -3 4 -12 1 -19z m10 -125 c-2 -21 -4 -6 -4 32 0 39 2 55 4 38 2 -18 2 -50 0 -70z m-976 -121 c38 -115 128 -214 246 -269 55 -25 72 -40 28 -23 -94 36 -181 106 -235 189 -38 61 -70 154 -68 200 l1 36 4 -35 c2 -19 13 -63 24 -98z m966 46 c-3 -8 -6 -5 -6 6 -1 11 2 17 5 13 3 -3 4 -12 1 -19z m-10 -45 c-4 -3 -7 0 -7 7 0 7 3 10 7 7 3 -4 3 -10 0 -14z m-10 -30 c-4 -3 -7 0 -7 7 0 7 3 10 7 7 3 -4 3 -10 0 -14z m-66 -120 c-10 -16 -41 -48 -67 -73 -38 -36 -34 -30 17 27 68 77 82 90 50 46z m-121 -117 c0 -3 -5 -8 -12 -12 -7 -4 -8 -3 -4 4 7 12 16 16 16 8z m-336 -48 c16 -26 -4 -53 -40 -53 -23 0 -30 5 -32 23 -2 13 -1 30 2 38 8 20 56 14 70 -8z m272 7 c-11 -8 -25 -15 -30 -15 -6 1 0 7 14 15 32 19 40 18 16 0z m-49 -22 c-4 -3 -10 -3 -14 0 -3 4 0 7 7 7 7 0 10 -3 7 -7z m-30 -10 c-4 -3 -10 -3 -14 0 -3 4 0 7 7 7 7 0 10 -3 7 -7z m-30 -9 c-3 -3 -12 -4 -19 -1 -8 3 -5 6 6 6 11 1 17 -2 13 -5z m-59 -11 c-10 -2 -28 -2 -40 0 -13 2 -5 4 17 4 22 1 32 -1 23 -4z"/>
 <path d="M170 550 l0 -150 71 0 c118 0 169 45 169 149 0 50 -4 65 -26 91 -39 45 -74 60 -149 60 l-65 0 0 -150z m123 109 c67 -18 102 -120 61 -178 -20 -28 -72 -51 -114 -51 l-30 0 0 120 c0 135 -2 133 83 109z"/>
 <path d="M480 550 l0 -150 75 0 c60 0 75 3 75 15 0 12 -13 15 -55 15 l-55 0 0 50 0 50 56 0 c73 0 70 24 -4 28 l-52 3 0 55 0 54 60 0 c47 0 60 3 60 15 0 12 -16 15 -80 15 l-80 0 0 -150z"/>
 <path d="M693 693 c-7 -2 -13 -14 -13 -25 0 -15 4 -18 18 -13 37 15 97 17 116 2 33 -25 14 -58 -57 -99 -70 -40 -86 -70 -64 -118 24 -51 167 -68 167 -20 0 17 -5 18 -50 13 -56 -6 -80 6 -80 41 0 16 12 29 43 46 67 37 97 69 97 106 0 49 -38 74 -109 73 -31 0 -62 -3 -68 -6z"/>
 </g>
<g id="layer109" fill="#f7a9b8" stroke="none">
 <path d="M1 530 l0 -530 514 0 515 0 0 530 0 530 -277 0 c-215 0 -274 -3 -265 -12 15 -15 16 -50 1 -65 -7 -7 12 -12 65 -15 241 -16 430 -261 389 -504 -41 -236 -270 -404 -499 -366 -125 21 -243 97 -308 200 -76 121 -88 289 -28 416 55 117 169 213 291 246 32 8 41 14 32 23 -15 15 -14 50 1 65 9 9 -37 12 -210 12 l-221 0 0 -530z m542 513 c-7 -2 -19 -2 -25 0 -7 3 -2 5 12 5 14 0 19 -2 13 -5z m70 -10 c-7 -2 -19 -2 -25 0 -7 3 -2 5 12 5 14 0 19 -2 13 -5z m34 -10 c-4 -3 -10 -3 -14 0 -3 4 0 7 7 7 7 0 10 -3 7 -7z m30 -10 c-4 -3 -10 -3 -14 0 -3 4 0 7 7 7 7 0 10 -3 7 -7z m43 -13 c8 -5 11 -10 5 -10 -5 0 -17 5 -25 10 -8 5 -10 10 -5 10 6 0 17 -5 25 -10z m-415 -36 c-150 -61 -257 -197 -284 -359 -7 -38 -9 -42 -10 -18 -2 46 32 146 69 203 18 28 54 70 82 94 50 46 158 106 187 106 9 -1 -11 -12 -44 -26z m475 0 c0 -2 -9 0 -20 6 -11 6 -20 13 -20 16 0 2 9 0 20 -6 11 -6 20 -13 20 -16z m31 -21 c13 -16 12 -17 -3 -4 -10 7 -18 15 -18 17 0 8 8 3 21 -13z m59 -48 c19 -19 32 -35 29 -35 -3 0 -20 16 -39 35 -19 19 -32 35 -29 35 3 0 20 -16 39 -35z m55 -65 c3 -5 4 -10 1 -10 -3 0 -8 5 -11 10 -3 6 -4 10 -1 10 3 0 8 -4 11 -10z m-829 -92 l-41 -81 0 -123 0 -122 42 -81 c23 -45 36 -77 29 -72 -7 6 -28 44 -47 83 -29 64 -34 85 -37 173 -3 83 0 111 18 165 18 54 63 140 73 140 2 0 -15 -37 -37 -82z m849 62 c3 -5 4 -10 1 -10 -3 0 -8 5 -11 10 -3 6 -4 10 -1 10 3 0 8 -4 11 -10z m45 -95 c0 -5 -5 -3 -10 5 -5 8 -10 20 -10 25 0 6 5 3 10 -5 5 -8 10 -19 10 -25z m7 -37 c-3 -8 -6 -5 -6 6 -1 11 2 17 5 13 3 -3 4 -12 1 -19z m10 -40 c-3 -8 -6 -5 -6 6 -1 11 2 17 5 13 3 -3 4 -12 1 -19z m10 -125 c-2 -21 -4 -6 -4 32 0 39 2 55 4 38 2 -18 2 -50 0 -70z m-976 -121 c38 -115 128 -214 246 -269 55 -25 72 -40 28 -23 -94 36 -181 106 -235 189 -38 61 -70 154 -68 200 l1 36 4 -35 c2 -19 13 -63 24 -98z m966 46 c-3 -8 -6 -5 -6 6 -1 11 2 17 5 13 3 -3 4 -12 1 -19z m-10 -45 c-4 -3 -7 0 -7 7 0 7 3 10 7 7 3 -4 3 -10 0 -14z m-10 -30 c-4 -3 -7 0 -7 7 0 7 3 10 7 7 3 -4 3 -10 0 -14z m-66 -120 c-10 -16 -41 -48 -67 -73 -38 -36 -34 -30 17 27 68 77 82 90 50 46z m-121 -117 c0 -3 -5 -8 -12 -12 -7 -4 -8 -3 -4 4 7 12 16 16 16 8z m-336 -48 c16 -26 -4 -53 -40 -53 -23 0 -30 5 -32 23 -2 13 -1 30 2 38 8 20 56 14 70 -8z m272 7 c-11 -8 -25 -15 -30 -15 -6 1 0 7 14 15 32 19 40 18 16 0z m-49 -22 c-4 -3 -10 -3 -14 0 -3 4 0 7 7 7 7 0 10 -3 7 -7z m-30 -10 c-4 -3 -10 -3 -14 0 -3 4 0 7 7 7 7 0 10 -3 7 -7z m-30 -9 c-3 -3 -12 -4 -19 -1 -8 3 -5 6 6 6 11 1 17 -2 13 -5z m-59 -11 c-10 -2 -28 -2 -40 0 -13 2 -5 4 17 4 22 1 32 -1 23 -4z"/>
 <path d="M170 550 l0 -150 71 0 c118 0 169 45 169 149 0 50 -4 65 -26 91 -39 45 -74 60 -149 60 l-65 0 0 -150z m123 109 c47 -13 77 -57 77 -114 0 -68 -51 -115 -125 -115 l-35 0 0 120 c0 135 -2 133 83 109z"/>
 <path d="M480 550 l0 -150 75 0 c60 0 75 3 75 15 0 12 -13 15 -55 15 l-55 0 0 50 0 50 56 0 c73 0 70 24 -4 28 l-52 3 0 55 0 54 60 0 c47 0 60 3 60 15 0 12 -16 15 -80 15 l-80 0 0 -150z"/>
 <path d="M693 693 c-7 -2 -13 -14 -13 -25 0 -15 4 -18 18 -13 40 17 108 17 121 1 24 -29 5 -59 -62 -98 -70 -40 -86 -70 -64 -118 24 -51 167 -68 167 -20 0 17 -5 18 -50 13 -56 -6 -80 6 -80 41 0 16 12 29 43 46 67 37 97 69 97 106 0 49 -38 74 -109 73 -31 0 -62 -3 -68 -6z"/>
 </g>
<g id="layer110" fill="#f7b3ca" stroke="none">
 <path d="M1 530 l0 -530 514 0 515 0 0 530 0 530 -277 0 c-215 0 -274 -3 -265 -12 15 -15 16 -50 1 -65 -7 -7 11 -12 64 -15 101 -7 189 -48 266 -125 178 -179 174 -453 -10 -628 -156 -149 -376 -163 -558 -38 -166 114 -229 352 -144 536 56 117 169 214 290 246 42 11 43 12 28 34 -13 20 -13 25 1 45 l15 22 -220 0 -220 0 0 -530z m552 513 c-7 -2 -21 -2 -30 0 -10 3 -4 5 12 5 17 0 24 -2 18 -5z m60 -10 c-7 -2 -21 -2 -30 0 -10 3 -4 5 12 5 17 0 24 -2 18 -5z m105 -33 c34 -16 62 -32 62 -35 0 -3 -19 4 -42 16 -23 12 -58 27 -77 34 -20 8 -29 14 -21 14 8 1 43 -12 78 -29z m-413 -36 c-150 -61 -257 -197 -284 -359 -7 -38 -9 -42 -10 -18 -2 46 32 146 69 203 18 28 54 70 82 94 50 46 158 106 187 106 9 -1 -11 -12 -44 -26z m553 -58 c19 -17 43 -44 54 -61 14 -20 9 -18 -14 9 -19 22 -52 55 -74 74 -21 19 -30 29 -19 21 11 -7 35 -27 53 -43z m-762 -168 l-41 -81 0 -123 0 -122 42 -81 c23 -45 36 -77 29 -72 -7 6 -28 44 -47 83 -29 64 -34 85 -37 173 -3 83 0 111 18 165 18 54 63 140 73 140 2 0 -15 -37 -37 -82z m854 52 c6 -11 8 -20 6 -20 -3 0 -10 9 -16 20 -6 11 -8 20 -6 20 3 0 10 -9 16 -20z m49 -120 c0 -8 -9 8 -19 35 -11 28 -20 52 -19 55 2 11 38 -76 38 -90z m8 -52 c-3 -7 -5 -2 -5 12 0 14 2 19 5 13 2 -7 2 -19 0 -25z m10 -115 c-2 -21 -4 -6 -4 32 0 39 2 55 4 38 2 -18 2 -50 0 -70z m-976 -121 c38 -115 128 -214 246 -269 55 -25 72 -40 28 -23 -94 36 -181 106 -235 189 -38 61 -70 154 -68 200 l1 36 4 -35 c2 -19 13 -63 24 -98z m959 18 l-11 -25 6 25 c2 14 5 34 6 45 2 19 2 19 6 0 2 -12 -1 -32 -7 -45z m-19 -57 c-12 -20 -14 -14 -5 12 4 9 9 14 11 11 3 -2 0 -13 -6 -23z m-20 -46 c-10 -9 -11 -8 -5 6 3 10 9 15 12 12 3 -3 0 -11 -7 -18z m-22 -39 c-32 -60 -194 -198 -232 -198 -6 0 16 16 49 36 66 39 135 103 165 152 23 36 36 44 18 10z m-473 -193 c4 -15 1 -32 -6 -40 -18 -21 -57 -19 -70 5 -16 30 4 60 40 60 23 0 31 -5 36 -25z m214 -15 c-8 -5 -22 -9 -30 -9 -10 0 -8 3 5 9 27 12 43 12 25 0z m-57 -17 c-7 -2 -19 -2 -25 0 -7 3 -2 5 12 5 14 0 19 -2 13 -5z m-55 -10 c-10 -2 -28 -2 -40 0 -13 2 -5 4 17 4 22 1 32 -1 23 -4z"/>
 <path d="M170 550 l0 -150 54 0 c83 0 115 10 152 47 32 31 34 38 34 98 0 57 -3 68 -30 98 -33 38 -85 57 -159 57 l-51 0 0 -150z m123 109 c47 -13 77 -57 77 -114 0 -68 -51 -115 -125 -115 l-35 0 0 120 c0 135 -2 133 83 109z"/>
 <path d="M480 550 l0 -150 75 0 c60 0 75 3 75 15 0 12 -13 15 -55 15 l-55 0 0 50 0 50 56 0 c73 0 70 24 -4 28 l-52 3 0 55 0 54 60 0 c47 0 60 3 60 15 0 12 -16 15 -80 15 l-80 0 0 -150z"/>
 <path d="M693 693 c-7 -2 -13 -14 -13 -25 0 -15 4 -18 18 -12 36 16 108 16 121 0 24 -29 5 -59 -62 -98 -49 -28 -66 -44 -70 -65 -8 -42 9 -72 50 -89 49 -21 123 -11 123 16 0 16 -6 18 -53 13 -40 -4 -56 -2 -66 10 -23 28 -9 60 34 80 61 29 95 65 95 103 0 49 -38 74 -109 73 -31 0 -62 -3 -68 -6z"/>
 </g>
<g id="layer111" fill="#d2d2d2" stroke="none">
 <path d="M1 530 l0 -530 514 0 515 0 0 530 0 530 -277 0 c-215 0 -274 -3 -265 -12 16 -16 15 -50 0 -67 -7 -8 -8 -11 -2 -8 24 13 151 -14 220 -48 228 -111 311 -395 181 -617 -32 -54 -121 -139 -175 -167 -55 -28 -146 -51 -203 -51 -44 0 -46 -1 -41 -25 6 -31 -13 -55 -44 -55 -44 0 -53 68 -12 83 7 2 0 8 -17 12 -139 36 -264 157 -306 297 -47 154 -9 316 102 433 59 63 111 95 191 120 54 17 56 19 42 40 -12 18 -12 24 2 43 l15 22 -220 0 -220 0 0 -530z m617 505 c272 -64 447 -336 391 -607 -27 -129 -126 -267 -243 -337 -63 -38 -172 -72 -226 -70 -27 1 -22 3 21 10 219 32 380 175 434 384 56 217 -52 458 -253 564 -36 18 -102 41 -150 51 -48 10 -76 19 -62 19 14 0 53 -6 88 -14z m-313 -71 c-150 -61 -257 -197 -284 -359 -7 -38 -9 -42 -10 -18 -2 46 32 146 69 203 18 28 54 70 82 94 50 46 158 106 187 106 9 -1 -11 -12 -44 -26z m-209 -226 l-41 -81 0 -123 0 -122 42 -81 c23 -45 36 -77 29 -72 -7 6 -28 44 -47 83 -29 64 -34 85 -37 173 -3 83 0 111 18 165 18 54 63 140 73 140 2 0 -15 -37 -37 -82z m-55 -356 c38 -115 128 -214 246 -269 55 -25 72 -40 28 -23 -94 36 -181 106 -235 189 -38 61 -70 154 -68 200 l1 36 4 -35 c2 -19 13 -63 24 -98z"/>
 <path d="M170 550 l0 -150 54 0 c83 0 115 10 152 47 32 31 34 38 34 98 0 57 -3 68 -30 98 -33 38 -85 57 -159 57 l-51 0 0 -150z m135 106 c40 -17 65 -60 65 -113 0 -66 -52 -113 -125 -113 l-35 0 0 120 0 120 30 0 c17 0 46 -6 65 -14z"/>
 <path d="M480 550 l0 -150 75 0 c60 0 75 3 75 15 0 12 -13 15 -55 15 l-55 0 0 50 0 50 56 0 c73 0 70 24 -4 28 l-52 3 0 55 0 54 60 0 c47 0 60 3 60 15 0 12 -16 15 -80 15 l-80 0 0 -150z"/>
 <path d="M693 693 c-7 -2 -13 -14 -13 -25 0 -15 4 -18 18 -12 36 16 108 16 121 0 24 -29 5 -59 -62 -98 -70 -40 -86 -70 -64 -118 24 -50 167 -65 167 -18 0 17 -4 19 -32 12 -66 -15 -101 1 -96 45 2 19 13 31 43 44 61 29 95 65 95 103 0 49 -38 74 -109 73 -31 0 -62 -3 -68 -6z"/>
 </g>
<g id="layer112" fill="#ffdbab" stroke="none">
 <path d="M1 818 c1 -227 1 -239 14 -182 29 134 125 257 247 319 39 19 80 35 92 35 11 0 -5 -11 -37 -24 -32 -14 -75 -35 -95 -49 -48 -32 -106 -91 -93 -95 6 -2 -3 -27 -18 -55 -84 -150 -80 -339 8 -479 20 -32 26 -48 18 -52 -19 -8 71 -83 141 -118 77 -38 75 -50 -3 -13 -123 59 -231 194 -260 328 -13 58 -13 48 -14 -185 l-1 -248 515 0 515 0 0 530 0 530 -277 0 c-215 0 -274 -3 -265 -12 16 -16 15 -50 0 -67 -7 -8 -8 -11 -2 -8 24 13 151 -14 220 -48 228 -111 311 -395 181 -617 -32 -54 -121 -139 -175 -167 -55 -28 -146 -51 -203 -51 -44 0 -46 -1 -41 -25 6 -31 -13 -55 -44 -55 -44 0 -53 68 -12 83 7 2 0 8 -17 12 -139 36 -264 157 -306 297 -47 154 -9 316 102 433 59 63 111 95 191 120 54 17 56 19 42 40 -12 18 -12 24 2 43 l15 22 -220 0 -221 0 1 -242z m617 217 c272 -64 447 -336 391 -607 -27 -129 -126 -267 -243 -337 -63 -38 -172 -72 -226 -70 -27 1 -22 3 21 10 219 32 380 175 434 384 56 217 -52 458 -253 564 -36 18 -102 41 -150 51 -48 10 -76 19 -62 19 14 0 53 -6 88 -14z"/>
 <path d="M81 768 c-50 -85 -64 -147 -59 -257 3 -83 8 -106 37 -168 19 -40 42 -80 52 -89 26 -24 24 -10 -6 34 -85 124 -89 336 -9 481 35 64 21 63 -15 -1z"/>
 <path d="M170 550 l0 -150 54 0 c83 0 115 10 152 47 32 31 34 38 34 98 0 57 -3 68 -30 98 -33 38 -85 57 -159 57 l-51 0 0 -150z m135 106 c40 -17 65 -60 65 -113 0 -66 -52 -113 -125 -113 l-35 0 0 120 0 120 30 0 c17 0 46 -6 65 -14z"/>
 <path d="M480 550 l0 -150 75 0 c60 0 75 3 75 15 0 12 -13 15 -55 15 l-55 0 0 50 0 50 56 0 c73 0 70 24 -4 28 l-52 3 0 55 0 54 60 0 c47 0 60 3 60 15 0 12 -16 15 -80 15 l-80 0 0 -150z"/>
 <path d="M693 693 c-7 -2 -13 -14 -13 -25 0 -15 4 -18 18 -12 36 16 108 16 121 0 24 -29 5 -59 -62 -98 -70 -40 -86 -70 -64 -118 24 -50 167 -65 167 -18 0 17 -4 19 -32 12 -66 -15 -101 1 -96 45 2 19 13 31 43 44 61 29 95 65 95 103 0 49 -38 74 -109 73 -31 0 -62 -3 -68 -6z"/>
 </g>
<g id="layer113" fill="#efb6f0" stroke="none">
 <path d="M1 818 c1 -227 1 -239 14 -182 29 134 125 257 247 319 39 19 80 35 92 35 11 0 -5 -11 -37 -24 -32 -14 -75 -35 -95 -49 -48 -32 -106 -91 -93 -95 6 -2 -3 -27 -18 -55 -84 -150 -80 -339 8 -479 20 -32 26 -48 18 -52 -19 -8 71 -83 141 -118 77 -38 75 -50 -3 -13 -123 59 -231 194 -260 328 -13 58 -13 48 -14 -185 l-1 -248 515 0 515 0 0 530 0 530 -277 0 c-215 0 -274 -3 -265 -12 16 -16 15 -50 0 -67 -7 -8 -8 -11 -2 -8 24 13 151 -14 220 -48 228 -111 311 -395 181 -617 -32 -54 -121 -139 -175 -167 -55 -28 -146 -51 -203 -51 -44 0 -46 -1 -41 -25 6 -31 -13 -55 -44 -55 -44 0 -53 68 -12 83 7 2 0 8 -17 12 -139 36 -264 157 -306 297 -47 154 -9 316 102 433 59 63 111 95 191 120 54 17 56 19 42 40 -12 18 -12 24 2 43 l15 22 -220 0 -221 0 1 -242z m617 217 c272 -64 447 -336 391 -607 -27 -129 -126 -267 -243 -337 -63 -38 -172 -72 -226 -70 -27 1 -22 3 21 10 219 32 380 175 434 384 56 217 -52 458 -253 564 -36 18 -102 41 -150 51 -48 10 -76 19 -62 19 14 0 53 -6 88 -14z"/>
 <path d="M81 768 c-50 -85 -64 -147 -59 -257 3 -83 8 -106 37 -168 19 -40 42 -80 52 -89 26 -24 24 -10 -6 34 -85 124 -89 336 -9 481 35 64 21 63 -15 -1z"/>
 <path d="M170 549 l0 -152 81 5 c77 5 82 6 117 42 36 35 37 39 37 106 0 62 -3 72 -28 98 -33 35 -85 52 -156 52 l-51 0 0 -151z m135 107 c40 -17 65 -60 65 -113 0 -68 -52 -113 -130 -113 l-40 0 0 113 c0 63 3 117 7 120 11 12 62 8 98 -7z"/>
 <path d="M480 550 l0 -150 75 0 c60 0 75 3 75 15 0 12 -13 15 -60 15 l-60 0 0 50 0 50 61 0 c78 0 77 23 -2 30 l-54 5 0 50 0 50 63 3 c46 2 62 7 62 17 0 12 -17 15 -80 15 l-80 0 0 -150z"/>
 <path d="M693 693 c-7 -2 -13 -14 -13 -25 0 -15 4 -18 18 -12 36 16 108 16 121 0 24 -29 5 -59 -62 -98 -70 -40 -86 -70 -64 -118 24 -49 157 -65 157 -19 0 16 -5 18 -27 13 -16 -4 -30 -7 -33 -6 -31 0 -42 6 -56 27 -20 31 -10 47 50 74 56 25 80 54 80 98 0 52 -31 73 -103 72 -31 0 -62 -3 -68 -6z"/>
 </g>
<g id="layer114" fill="#faccd8" stroke="none">
 <path d="M1 818 c1 -227 1 -239 14 -182 29 134 125 257 247 319 39 19 80 35 92 35 11 0 -5 -11 -37 -24 -32 -14 -75 -35 -95 -49 -48 -32 -106 -91 -93 -95 6 -2 -3 -27 -18 -55 -84 -150 -80 -339 8 -479 20 -32 26 -48 18 -52 -19 -8 71 -83 141 -118 77 -38 75 -50 -3 -13 -123 59 -231 194 -260 328 -13 58 -13 48 -14 -185 l-1 -248 515 0 515 0 0 530 0 530 -277 0 c-215 0 -274 -3 -265 -12 16 -16 15 -50 0 -67 -7 -8 -8 -11 -2 -8 24 13 151 -14 220 -48 228 -111 311 -395 181 -617 -32 -54 -121 -139 -175 -167 -55 -28 -146 -51 -203 -51 -44 0 -46 -1 -41 -25 6 -31 -13 -55 -44 -55 -44 0 -53 68 -12 83 7 2 0 8 -17 12 -139 36 -264 157 -306 297 -47 154 -9 316 102 433 59 63 111 95 191 120 54 17 56 19 42 40 -12 18 -12 24 2 43 l15 22 -220 0 -221 0 1 -242z m617 217 c272 -64 447 -336 391 -607 -27 -129 -126 -267 -243 -337 -63 -38 -172 -72 -226 -70 -27 1 -22 3 21 10 219 32 380 175 434 384 56 217 -52 458 -253 564 -36 18 -102 41 -150 51 -48 10 -76 19 -62 19 14 0 53 -6 88 -14z"/>
 <path d="M81 768 c-50 -85 -64 -147 -59 -257 3 -83 8 -106 37 -168 19 -40 42 -80 52 -89 26 -24 24 -10 -6 34 -85 124 -89 336 -9 481 35 64 21 63 -15 -1z"/>
 <path d="M170 549 l0 -152 81 5 c77 5 82 6 117 42 36 35 37 39 37 106 0 62 -3 72 -28 98 -33 35 -85 52 -156 52 l-51 0 0 -151z m133 107 c67 -28 91 -91 61 -158 -20 -45 -63 -68 -125 -68 l-39 0 0 113 c0 63 3 117 7 120 11 11 62 8 96 -7z"/>
 <path d="M480 550 l0 -150 75 0 c60 0 75 3 75 15 0 12 -13 15 -60 15 l-60 0 0 50 0 50 61 0 c78 0 77 23 -2 30 l-54 5 0 50 0 50 63 3 c46 2 62 7 62 17 0 12 -17 15 -80 15 l-80 0 0 -150z"/>
 <path d="M698 693 c-10 -2 -18 -14 -18 -25 0 -15 4 -18 18 -12 36 16 108 16 121 0 24 -29 5 -60 -63 -99 -73 -43 -88 -74 -57 -117 35 -49 151 -63 151 -19 0 16 -5 18 -27 13 -16 -4 -30 -7 -33 -6 -31 0 -42 6 -56 27 -20 31 -10 47 50 74 56 25 80 54 80 98 0 51 -31 73 -98 72 -28 -1 -59 -3 -68 -6z"/>
 </g>
<g id="layer115" fill="#fadae9" stroke="none">
 <path d="M1 818 c1 -227 1 -239 14 -182 29 134 125 257 247 319 39 19 80 35 92 35 11 0 -5 -11 -37 -24 -32 -14 -75 -35 -95 -49 -48 -32 -106 -91 -93 -95 6 -2 -3 -27 -18 -55 -84 -150 -80 -339 8 -479 20 -32 26 -48 18 -52 -19 -8 71 -83 141 -118 77 -38 75 -50 -3 -13 -123 59 -231 194 -260 328 -13 58 -13 48 -14 -185 l-1 -248 515 0 515 0 0 530 0 530 -276 0 c-152 0 -273 -4 -270 -9 3 -4 16 -6 29 -4 43 8 141 -16 223 -57 313 -154 380 -570 132 -818 -91 -92 -228 -154 -333 -151 -33 1 -29 3 24 11 252 36 429 221 447 467 19 246 -153 475 -393 526 -100 21 -110 20 -115 -14 -4 -29 -4 -29 64 -39 303 -45 475 -361 343 -628 -76 -154 -231 -254 -395 -254 l-45 0 0 -37 c0 -35 -2 -38 -32 -41 -24 -2 -34 2 -43 17 -12 23 2 61 23 62 7 0 -13 9 -43 21 -122 46 -206 122 -263 237 -57 117 -49 291 20 409 56 95 179 185 281 207 31 6 32 8 18 24 -20 22 -20 35 0 55 14 15 -5 16 -205 16 l-221 0 1 -242z"/>
 <path d="M81 768 c-50 -85 -64 -147 -59 -257 3 -83 8 -106 37 -168 19 -40 42 -80 52 -89 26 -24 24 -10 -6 34 -85 124 -89 336 -9 481 35 64 21 63 -15 -1z"/>
 <path d="M170 549 l0 -152 81 5 c77 5 82 6 117 42 36 35 37 39 37 106 0 62 -3 72 -28 98 -33 35 -85 52 -156 52 l-51 0 0 -151z m133 107 c67 -28 91 -91 61 -158 -20 -45 -63 -68 -125 -68 l-39 0 0 120 0 120 35 0 c20 0 50 -6 68 -14z"/>
 <path d="M480 550 l0 -150 75 0 c60 0 75 3 75 15 0 12 -13 15 -60 15 l-60 0 0 50 0 50 61 0 c81 0 77 24 -4 28 l-57 3 0 54 0 55 65 0 c51 0 65 3 65 15 0 12 -16 15 -80 15 l-80 0 0 -150z"/>
 <path d="M698 693 c-10 -2 -18 -14 -18 -25 0 -15 4 -18 18 -12 36 16 108 16 121 0 24 -29 5 -60 -63 -99 -73 -43 -88 -74 -57 -117 35 -49 151 -63 151 -19 0 16 -5 18 -27 13 -16 -4 -30 -7 -33 -6 -42 0 -52 5 -61 28 -7 21 -6 31 7 45 10 11 22 19 28 19 20 0 88 55 97 78 13 35 0 71 -32 87 -26 14 -93 18 -131 8z"/>
 </g>
<g id="layer116" fill="#ffffc8" stroke="none">
 <path d="M1 818 c1 -227 1 -239 14 -182 29 135 124 257 248 319 38 19 79 35 91 34 15 0 11 -4 -15 -14 -91 -33 -217 -124 -204 -146 3 -4 -8 -32 -24 -61 -84 -151 -81 -344 8 -478 21 -31 27 -46 19 -51 -19 -12 68 -84 147 -123 38 -20 63 -35 54 -36 -9 0 -43 14 -77 30 -118 60 -218 190 -247 323 -13 58 -13 48 -14 -185 l-1 -248 212 0 c195 0 211 1 190 16 -26 18 -28 41 -6 65 14 15 12 18 -32 33 -238 81 -364 366 -263 594 50 115 165 217 280 249 50 14 56 18 43 30 -17 17 -17 28 -4 54 10 19 5 19 -205 19 l-215 0 1 -242z"/>
 <path d="M547 1049 c136 -16 240 -67 330 -162 157 -166 188 -398 80 -601 -78 -148 -268 -268 -416 -265 -40 1 -36 3 33 14 279 47 467 297 428 567 -34 232 -209 400 -451 433 -43 6 -52 5 -49 -6 3 -8 2 -21 -3 -30 -7 -13 4 -17 68 -27 152 -24 280 -119 345 -258 25 -54 32 -82 36 -158 4 -79 1 -100 -21 -163 -60 -174 -207 -288 -385 -300 l-78 -6 4 -30 c3 -21 -1 -34 -14 -44 -15 -11 29 -13 279 -13 l297 0 0 530 0 530 -277 -1 c-205 -1 -259 -4 -206 -10z"/>
 <path d="M89 783 c-76 -120 -92 -306 -36 -426 29 -63 66 -121 74 -113 2 2 -7 21 -21 43 -88 133 -95 311 -17 466 21 42 37 77 35 77 -3 0 -18 -21 -35 -47z"/>
 <path d="M170 549 l0 -152 81 5 c77 5 82 6 117 42 36 35 37 39 37 106 0 62 -3 72 -29 98 -31 33 -90 52 -160 52 l-46 0 0 -151z m145 105 c36 -17 65 -65 65 -107 0 -36 -38 -97 -67 -108 -13 -5 -44 -9 -69 -9 l-44 0 0 120 0 120 41 0 c23 0 56 -7 74 -16z"/>
 <path d="M480 550 l0 -150 75 0 c60 0 75 3 75 15 0 12 -13 15 -60 15 l-60 0 0 50 0 50 61 0 c81 0 77 24 -4 28 l-57 3 0 54 0 55 65 0 c51 0 65 3 65 15 0 12 -16 15 -80 15 l-80 0 0 -150z"/>
 <path d="M697 693 c-10 -3 -16 -10 -14 -16 2 -8 28 -12 67 -12 48 0 65 -4 73 -17 19 -29 -7 -65 -66 -94 -113 -56 -87 -154 40 -154 42 0 53 3 53 16 0 13 -7 15 -31 10 -45 -9 -79 3 -90 32 -7 19 -6 29 7 43 10 11 22 19 28 19 20 0 88 55 97 78 13 35 0 71 -32 87 -27 14 -93 18 -132 8z"/>
 </g>
<g id="layer117" fill="#fffefe" stroke="none">
 <path d="M1 818 c1 -227 1 -239 14 -182 29 135 124 257 248 319 38 19 79 35 91 34 15 0 11 -4 -15 -14 -91 -33 -217 -124 -204 -146 3 -4 -8 -32 -24 -61 -84 -151 -81 -344 8 -478 21 -31 27 -46 19 -51 -19 -12 68 -84 147 -123 38 -20 63 -35 54 -36 -9 0 -43 14 -77 30 -118 60 -218 190 -247 323 -13 58 -13 48 -14 -185 l-1 -248 212 0 c195 0 211 1 190 16 -26 18 -28 41 -6 65 14 15 12 18 -32 33 -238 81 -364 366 -263 594 50 115 165 217 280 249 50 14 56 18 43 30 -17 17 -17 28 -4 54 10 19 5 19 -205 19 l-215 0 1 -242z"/>
 <path d="M547 1049 c136 -16 240 -67 330 -162 157 -166 188 -398 80 -601 -78 -148 -268 -268 -416 -265 -40 1 -36 3 33 14 279 47 467 297 428 567 -34 232 -209 400 -451 433 -43 6 -52 5 -49 -6 3 -8 2 -21 -3 -30 -7 -13 4 -17 68 -27 152 -24 280 -119 345 -258 25 -54 32 -82 36 -158 4 -79 1 -100 -21 -163 -60 -174 -207 -288 -385 -300 l-78 -6 4 -30 c3 -21 -1 -34 -14 -44 -15 -11 29 -13 279 -13 l297 0 0 530 0 530 -277 -1 c-205 -1 -259 -4 -206 -10z"/>
 <path d="M89 783 c-76 -120 -92 -306 -36 -426 29 -63 66 -121 74 -113 2 2 -7 21 -21 43 -88 133 -95 311 -17 466 21 42 37 77 35 77 -3 0 -18 -21 -35 -47z"/>
 <path d="M170 549 l0 -152 80 5 c71 4 84 8 110 33 85 81 54 227 -54 254 -25 6 -65 11 -90 11 l-46 0 0 -151z m145 105 c36 -17 65 -65 65 -107 0 -36 -38 -97 -67 -108 -13 -5 -44 -9 -69 -9 l-44 0 0 120 0 120 41 0 c23 0 56 -7 74 -16z"/>
 <path d="M480 550 l0 -150 75 0 c60 0 75 3 75 15 0 12 -13 15 -60 15 l-60 0 0 50 0 50 61 0 c81 0 77 24 -4 28 l-57 3 0 54 0 55 65 0 c51 0 65 3 65 15 0 12 -16 15 -80 15 l-80 0 0 -150z"/>
 <path d="M697 693 c-10 -3 -16 -10 -14 -16 2 -8 28 -12 67 -12 48 0 65 -4 73 -17 19 -29 -7 -65 -66 -94 -113 -56 -87 -154 40 -154 42 0 53 3 53 16 0 13 -7 15 -37 10 -44 -7 -86 10 -91 37 -4 20 24 57 43 57 20 0 80 50 91 77 15 35 1 77 -32 92 -25 11 -92 13 -127 4z"/>
 </g>

</svg>