<!DOCTYPE svg PUBLIC "-//W3C//DTD SVG 20010904//EN" "http://www.w3.org/TR/2001/REC-SVG-20010904/DTD/svg10.dtd">
<svg version="1.0" xmlns="http://www.w3.org/2000/svg" width="114px" height="99px" viewBox="0 0 1140 990" preserveAspectRatio="xMidYMid meet">
<g id="layer101" fill="#480850" stroke="none">
 <path d="M0 495 l0 -495 570 0 570 0 0 495 0 495 -570 0 -570 0 0 -495z"/>
 </g>
<g id="layer102" fill="#65185a" stroke="none">
 <path d="M0 495 l0 -495 570 0 570 0 0 495 0 495 -570 0 -570 0 0 -495z m530 450 c0 -2 -19 -9 -42 -16 -69 -18 -148 -68 -214 -134 -79 -80 -126 -184 -132 -294 -3 -47 -7 -68 -13 -60 -5 8 -9 28 -9 44 1 54 45 199 75 244 17 24 35 52 41 62 16 29 46 59 57 59 5 0 30 15 56 34 45 33 181 79 181 61z m411 -141 c35 -39 83 -131 96 -184 36 -140 -4 -303 -99 -406 -49 -53 -137 -115 -187 -132 -58 -20 -57 -13 5 24 86 51 148 118 194 206 89 170 70 357 -52 508 -51 64 -51 64 -12 33 21 -17 46 -39 55 -49z m169 -501 c0 -3 -11 -21 -25 -39 -14 -18 -25 -35 -25 -37 0 -3 -26 -31 -57 -61 -59 -57 -208 -141 -239 -134 -14 3 -2 10 96 56 67 33 174 138 190 188 9 26 17 34 36 34 13 0 24 -3 24 -7z m-373 -280 c-4 -3 -10 -3 -14 0 -3 4 0 7 7 7 7 0 10 -3 7 -7z"/>
 </g>
<g id="layer103" fill="#8e0658" stroke="none">
 <path d="M0 495 l0 -495 570 0 570 0 0 495 0 495 -570 0 -570 0 0 -495z m540 451 c0 -2 -24 -11 -52 -21 -200 -65 -345 -256 -349 -460 -1 -50 -1 -50 -12 -17 -8 25 -7 51 3 100 19 101 37 146 83 214 50 74 150 145 237 170 54 16 90 22 90 14z m250 -32 c0 -2 -9 0 -20 6 -11 6 -20 13 -20 16 0 2 9 0 20 -6 11 -6 20 -13 20 -16z m75 -38 c68 -43 165 -189 180 -271 18 -105 -8 -257 -58 -330 -58 -86 -171 -178 -245 -200 -77 -24 -81 -17 -12 18 81 40 175 132 216 212 71 136 72 302 2 440 -11 21 -46 66 -77 98 -57 61 -58 65 -6 33z m218 -617 c-53 -81 -130 -149 -217 -190 -45 -22 -100 -42 -122 -45 l-39 -5 30 14 c17 8 60 28 97 45 79 36 189 136 215 193 10 24 24 39 37 41 31 4 30 -6 -1 -53z"/>
 </g>
<g id="layer104" fill="#693570" stroke="none">
 <path d="M0 495 l0 -495 570 0 570 0 0 495 0 495 -570 0 -570 0 0 -495z m686 461 c75 -23 110 -39 179 -81 67 -41 165 -187 180 -270 18 -105 -8 -257 -58 -330 -80 -118 -225 -216 -317 -214 -19 0 -14 4 22 19 74 30 119 62 177 126 136 148 166 348 80 523 -18 36 -56 89 -84 117 -54 54 -81 64 -182 64 -46 0 -53 -3 -58 -22 -2 -13 -11 -117 -19 -231 -8 -115 -17 -212 -20 -215 -8 -7 -7 353 1 456 3 45 9 82 13 82 3 0 42 -11 86 -24z m-146 -10 c0 -2 -24 -11 -52 -21 -200 -65 -345 -256 -349 -460 -1 -50 -1 -50 -12 -17 -8 25 -7 51 3 100 19 101 37 146 83 214 50 74 150 145 237 170 54 16 90 22 90 14z m543 -687 c-53 -81 -130 -149 -217 -190 -45 -22 -100 -42 -122 -45 l-39 -5 30 14 c17 8 60 28 97 45 79 36 189 136 215 193 10 24 24 39 37 41 31 4 30 -6 -1 -53z"/>
 </g>
<g id="layer105" fill="#b60765" stroke="none">
 <path d="M0 495 l0 -495 570 0 570 0 0 495 0 495 -570 0 -569 0 -1 -495z m686 461 c131 -40 204 -85 271 -169 67 -82 97 -165 97 -272 0 -153 -54 -262 -180 -367 -60 -50 -82 -61 -167 -83 -80 -21 -97 -15 -30 10 80 30 129 63 189 128 138 149 170 349 83 526 -18 36 -56 89 -84 117 -54 54 -81 64 -182 64 -46 0 -53 -3 -58 -22 -2 -13 -11 -117 -19 -231 -8 -115 -17 -212 -20 -215 -8 -7 -7 353 1 456 3 45 9 82 13 82 3 0 42 -11 86 -24z m-146 -10 c0 -2 -24 -11 -52 -21 -202 -65 -346 -256 -349 -465 -1 -54 -1 -54 -11 -20 -16 54 5 176 44 257 64 132 219 247 341 252 15 0 27 -1 27 -3z m576 -642 c-8 -21 -41 -64 -96 -126 -74 -83 -169 -135 -284 -157 -70 -13 -55 1 34 32 104 37 201 111 255 194 22 34 47 63 55 66 31 10 42 7 36 -9z"/>
 </g>
<g id="layer106" fill="#77406b" stroke="none">
 <path d="M0 495 l0 -495 570 0 570 0 0 495 0 495 -570 0 -569 0 -1 -495z m686 461 c131 -40 204 -85 271 -169 67 -82 97 -165 97 -272 0 -110 -30 -204 -87 -273 -44 -53 -122 -123 -160 -144 -33 -17 -150 -48 -182 -47 -23 0 -12 7 47 28 144 52 251 161 296 301 30 96 30 101 21 195 -7 69 -16 100 -44 154 -49 94 -117 158 -178 170 -39 7 -125 5 -134 -3 -2 -2 -25 -292 -36 -463 -2 -18 -6 -35 -10 -39 -9 -9 -9 391 0 504 3 45 9 82 13 82 3 0 42 -11 86 -24z m-146 -10 c0 -2 -24 -11 -52 -21 -202 -65 -346 -256 -349 -465 -1 -54 -1 -54 -11 -20 -16 54 5 176 44 257 64 132 219 247 341 252 15 0 27 -1 27 -3z m47 -633 c-3 -10 -5 -4 -5 12 0 17 2 24 5 18 2 -7 2 -21 0 -30z m529 -9 c-8 -21 -41 -64 -96 -126 -74 -83 -169 -135 -284 -157 -70 -13 -55 1 34 32 104 37 201 111 255 194 22 34 47 63 55 66 31 10 42 7 36 -9z"/>
 </g>
<g id="layer107" fill="#a85732" stroke="none">
 <path d="M0 495 l0 -495 570 0 570 0 0 495 0 495 -570 0 -569 0 -1 -495z m687 461 c140 -42 208 -85 278 -176 120 -156 120 -391 0 -543 -85 -108 -200 -172 -325 -184 -43 -3 -41 -2 32 25 145 54 252 163 296 302 30 96 30 101 21 195 -7 69 -16 100 -44 154 -49 94 -117 158 -178 170 -39 7 -125 5 -134 -3 -2 -2 -25 -292 -36 -463 -2 -18 -6 -35 -10 -39 -9 -9 -9 391 0 504 3 45 9 82 13 82 3 0 43 -11 87 -24z m-149 -7 c-2 -6 -28 -19 -59 -28 -208 -65 -354 -282 -336 -501 3 -37 2 -56 -2 -45 -17 42 -22 122 -11 188 28 180 160 328 334 378 75 21 79 22 74 8z m49 -636 c-3 -10 -5 -4 -5 12 0 17 2 24 5 18 2 -7 2 -21 0 -30z m533 -2 c0 -15 -85 -123 -126 -162 -22 -20 -66 -52 -99 -72 -52 -30 -84 -41 -187 -62 -10 -2 -18 0 -18 3 0 4 36 20 80 35 106 38 200 110 260 200 33 50 50 67 67 67 13 0 23 -4 23 -9z"/>
 </g>
<g id="layer108" fill="#db066e" stroke="none">
 <path d="M0 495 l0 -495 570 0 570 0 0 495 0 495 -570 0 -569 0 -1 -495z m687 461 c140 -42 208 -85 278 -176 120 -156 120 -391 0 -543 -85 -108 -200 -172 -325 -184 -43 -3 -41 -2 32 25 145 54 252 163 296 302 30 96 30 101 21 195 -7 69 -16 100 -44 154 -49 94 -117 158 -178 170 -39 7 -125 5 -134 -3 -2 -2 -25 -292 -36 -463 -2 -18 -6 -35 -10 -39 -9 -9 -9 391 0 504 3 45 9 82 13 82 3 0 43 -11 87 -24z m-149 -7 c-2 -6 -36 -23 -75 -39 -40 -15 -95 -44 -123 -65 -84 -62 -158 -174 -180 -271 -13 -57 -16 -170 -5 -205 5 -18 4 -21 -4 -13 -22 21 -34 128 -22 204 29 182 159 331 335 381 74 21 79 22 74 8z m49 -636 c-3 -10 -5 -4 -5 12 0 17 2 24 5 18 2 -7 2 -21 0 -30z m533 -2 c0 -15 -85 -123 -126 -162 -22 -20 -66 -52 -99 -72 -52 -30 -84 -41 -187 -62 -10 -2 -18 0 -18 3 0 4 36 20 80 35 106 38 200 110 260 200 33 50 50 67 67 67 13 0 23 -4 23 -9z"/>
 </g>
<g id="layer109" fill="#b15e41" stroke="none">
 <path d="M0 789 c0 -186 7 -232 25 -162 20 81 111 198 199 255 58 37 118 57 66 21 -97 -65 -171 -156 -205 -248 -27 -73 -60 -109 -76 -84 -4 7 -8 -119 -9 -279 l-1 -292 571 0 570 0 0 495 0 495 -570 0 -570 0 0 -201z m687 167 c140 -42 208 -85 278 -176 120 -156 120 -391 0 -543 -87 -110 -200 -173 -332 -185 l-53 -4 0 383 c0 377 6 549 20 549 3 0 43 -11 87 -24z m-149 -7 c-2 -6 -36 -23 -75 -39 -40 -15 -95 -44 -123 -65 -84 -62 -158 -174 -180 -271 -13 -57 -16 -170 -5 -205 5 -18 4 -21 -4 -13 -22 21 -34 128 -22 204 29 182 159 331 335 381 74 21 79 22 74 8z m582 -638 c0 -15 -85 -123 -126 -162 -22 -20 -66 -52 -99 -72 -52 -30 -84 -41 -187 -62 -10 -2 -18 0 -18 3 0 4 36 20 80 35 106 38 200 110 260 200 33 50 50 67 67 67 13 0 23 -4 23 -9z"/>
 <path d="M680 485 c0 -138 1 -145 20 -145 18 0 20 7 20 55 l0 55 75 0 75 0 0 -55 c0 -48 2 -55 20 -55 19 0 20 7 20 145 0 138 -1 145 -20 145 -18 0 -20 -7 -20 -70 l0 -70 -75 0 -75 0 0 70 c0 63 -2 70 -20 70 -19 0 -20 -7 -20 -145z"/>
 </g>
<g id="layer110" fill="#f6951d" stroke="none">
 <path d="M0 789 c0 -186 7 -232 25 -162 20 81 111 198 199 255 58 37 118 57 66 21 -97 -65 -171 -156 -205 -248 -27 -73 -60 -109 -76 -84 -4 7 -8 -119 -9 -279 l-1 -292 571 0 570 0 0 495 0 495 -570 0 -570 0 0 -201z m687 167 c140 -42 208 -85 278 -176 120 -156 120 -391 0 -543 -87 -110 -200 -173 -332 -185 l-53 -4 0 383 c0 377 6 549 20 549 3 0 43 -11 87 -24z m-147 -11 c0 -8 -17 -19 -42 -26 -76 -20 -152 -66 -209 -125 -106 -112 -145 -216 -136 -359 3 -44 8 -91 11 -105 4 -16 1 -13 -10 10 -28 60 -37 141 -25 220 29 182 159 331 335 381 76 22 76 22 76 4z m580 -634 c0 -15 -85 -123 -126 -162 -22 -20 -66 -52 -99 -72 -52 -30 -84 -41 -187 -62 -10 -2 -18 0 -18 3 0 4 36 20 80 35 106 38 200 110 260 200 33 50 50 67 67 67 13 0 23 -4 23 -9z"/>
 <path d="M680 485 c0 -138 1 -145 20 -145 18 0 20 7 20 55 l0 55 75 0 75 0 0 -55 c0 -48 2 -55 20 -55 19 0 20 7 20 145 0 138 -1 145 -20 145 -18 0 -20 -7 -20 -70 l0 -70 -75 0 -75 0 0 70 c0 63 -2 70 -20 70 -19 0 -20 -7 -20 -145z"/>
 </g>
<g id="layer111" fill="#fab10d" stroke="none">
 <path d="M0 789 c0 -186 7 -232 25 -162 20 81 111 198 199 255 58 37 118 57 66 21 -97 -65 -171 -156 -205 -248 -27 -73 -60 -109 -76 -84 -4 7 -8 -119 -9 -279 l-1 -292 571 0 570 0 0 495 0 495 -570 0 -570 0 0 -201z m687 167 c140 -42 208 -85 278 -176 120 -156 120 -391 0 -543 -87 -110 -200 -173 -332 -185 l-53 -4 0 383 c0 377 6 549 20 549 3 0 43 -11 87 -24z m-147 -192 c0 -127 -3 -193 -10 -189 -5 3 -10 46 -10 94 0 48 -3 116 -6 150 -8 72 -10 73 -111 9 -156 -98 -253 -275 -240 -438 3 -36 8 -74 11 -85 3 -11 -3 -1 -14 23 -91 189 -1 453 194 567 40 23 145 61 179 64 4 1 7 -87 7 -195z m-3 -346 c-2 -18 -4 -6 -4 27 0 33 2 48 4 33 2 -15 2 -42 0 -60z m583 -107 c0 -15 -85 -123 -126 -162 -22 -20 -66 -52 -99 -72 -52 -30 -84 -41 -187 -62 -10 -2 -18 0 -18 3 0 4 36 20 80 35 106 38 200 110 260 200 33 50 50 67 67 67 13 0 23 -4 23 -9z m-583 -33 c-3 -7 -5 -2 -5 12 0 14 2 19 5 13 2 -7 2 -19 0 -25z"/>
 <path d="M680 485 c0 -138 1 -145 20 -145 18 0 20 7 20 55 l0 55 75 0 75 0 0 -55 c0 -48 2 -55 20 -55 19 0 20 7 20 145 0 138 -1 145 -20 145 -18 0 -20 -7 -20 -70 l0 -70 -75 0 -75 0 0 70 c0 63 -2 70 -20 70 -19 0 -20 -7 -20 -145z"/>
 </g>
<g id="layer112" fill="#ffcb00" stroke="none">
 <path d="M0 789 c0 -186 7 -232 25 -162 20 81 111 198 199 255 58 37 118 57 66 21 -97 -65 -171 -156 -205 -248 -27 -73 -60 -109 -76 -84 -4 7 -8 -119 -9 -279 l-1 -292 571 0 570 0 0 495 0 495 -570 0 -570 0 0 -201z m687 167 c140 -42 208 -85 278 -176 120 -156 120 -391 0 -543 -87 -110 -200 -173 -332 -185 l-53 -4 0 383 c0 377 6 549 20 549 3 0 43 -11 87 -24z m-147 -312 c0 -173 -4 -313 -8 -310 -5 3 -12 123 -16 268 -4 144 -9 264 -11 266 -2 3 -29 -7 -59 -22 -117 -58 -217 -179 -261 -317 -29 -92 -31 -136 -10 -204 19 -65 13 -67 -14 -4 -108 250 36 544 303 620 34 10 64 18 69 18 4 1 7 -141 7 -315z m580 -333 c0 -15 -85 -123 -126 -162 -22 -20 -66 -52 -99 -72 -52 -30 -84 -41 -187 -62 -10 -2 -18 0 -18 3 0 4 36 20 80 35 106 38 200 110 260 200 33 50 50 67 67 67 13 0 23 -4 23 -9z m-583 -108 c-2 -21 -4 -4 -4 37 0 41 2 58 4 38 2 -21 2 -55 0 -75z"/>
 <path d="M680 485 c0 -138 1 -145 20 -145 18 0 20 7 20 55 l0 55 75 0 75 0 0 -55 c0 -48 2 -55 20 -55 19 0 20 7 20 145 0 138 -1 145 -20 145 -18 0 -20 -7 -20 -70 l0 -70 -75 0 -75 0 0 70 c0 63 -2 70 -20 70 -19 0 -20 -7 -20 -145z"/>
 </g>
<g id="layer113" fill="#ad91b1" stroke="none">
 <path d="M0 789 c0 -186 7 -232 25 -162 20 81 111 198 199 255 58 37 118 57 66 21 -97 -65 -171 -156 -205 -248 -27 -73 -60 -109 -76 -84 -4 7 -8 -119 -9 -279 l-1 -292 571 0 570 0 0 495 0 495 -570 0 -570 0 0 -201z m687 167 c140 -42 208 -85 278 -176 120 -156 120 -391 0 -543 -87 -110 -200 -173 -332 -185 l-53 -4 0 383 c0 377 6 549 20 549 3 0 43 -11 87 -24z m-147 -470 l0 -474 -39 9 c-93 21 -193 83 -254 158 -53 64 -105 175 -118 248 -30 173 67 376 225 468 40 23 145 61 179 64 4 1 7 -212 7 -473z m580 -175 c0 -15 -85 -123 -126 -162 -22 -20 -66 -52 -99 -72 -52 -30 -84 -41 -187 -62 -10 -2 -18 0 -18 3 0 4 36 20 80 35 106 38 200 110 260 200 33 50 50 67 67 67 13 0 23 -4 23 -9z"/>
 <path d="M680 485 c0 -138 1 -145 20 -145 18 0 20 7 20 55 l0 55 75 0 75 0 0 -55 c0 -48 2 -55 20 -55 19 0 20 7 20 145 0 138 -1 145 -20 145 -18 0 -20 -7 -20 -70 l0 -70 -75 0 -75 0 0 70 c0 63 -2 70 -20 70 -19 0 -20 -7 -20 -145z"/>
 <path d="M270 486 l0 -146 81 0 c78 0 82 1 114 33 57 57 57 174 -1 228 -22 21 -37 24 -110 28 l-84 3 0 -146z m172 74 c12 -15 18 -39 18 -77 0 -74 -28 -103 -100 -103 l-50 0 0 106 0 106 57 -4 c43 -4 61 -10 75 -28z"/>
 </g>
<g id="layer114" fill="#e764a4" stroke="none">
 <path d="M0 789 c0 -186 7 -232 25 -162 20 81 111 198 199 255 58 37 118 57 66 21 -97 -65 -171 -156 -205 -248 -27 -73 -60 -109 -76 -84 -4 7 -8 -119 -9 -279 l-1 -292 571 0 570 0 0 495 0 495 -570 0 -570 0 0 -201z m703 166 c17 -8 34 -15 39 -15 25 0 127 -58 166 -94 174 -160 200 -419 61 -604 -50 -66 -79 -94 -134 -126 -48 -30 -143 -62 -207 -71 l-48 -7 0 472 0 473 46 -7 c26 -3 61 -13 77 -21z m-159 -12 c-1 -7 -2 -220 -2 -472 l-2 -459 -39 9 c-63 14 -93 28 -156 70 -75 51 -125 112 -176 214 -33 66 -41 95 -46 158 -13 171 91 362 238 437 102 53 185 72 183 43z m575 -635 c-33 -62 -106 -151 -152 -185 -74 -54 -113 -74 -192 -94 -81 -22 -85 -22 -85 -10 0 5 34 20 75 34 112 38 242 145 290 238 14 25 29 35 63 38 10 1 10 -4 1 -21z m-452 -295 c-4 -3 -10 -3 -14 0 -3 4 0 7 7 7 7 0 10 -3 7 -7z"/>
 <path d="M680 485 c0 -138 1 -145 20 -145 18 0 20 7 20 55 l0 55 75 0 75 0 0 -55 c0 -48 2 -55 20 -55 19 0 20 7 20 145 0 138 -1 145 -20 145 -18 0 -20 -7 -20 -70 l0 -70 -75 0 -75 0 0 70 c0 63 -2 70 -20 70 -19 0 -20 -7 -20 -145z"/>
 <path d="M270 486 l0 -146 81 0 c78 0 82 1 114 33 57 57 57 174 -1 228 -22 21 -37 24 -110 28 l-84 3 0 -146z m172 74 c12 -15 18 -39 18 -77 0 -74 -28 -103 -100 -103 l-50 0 0 106 0 106 57 -4 c43 -4 61 -10 75 -28z"/>
 </g>
<g id="layer115" fill="#bda6bf" stroke="none">
 <path d="M0 788 l1 -203 26 60 c37 88 90 162 147 207 56 44 126 82 171 92 l30 6 -30 -17 c-46 -25 -126 -87 -162 -125 -33 -34 -113 -178 -113 -203 0 -8 -16 -26 -35 -41 l-35 -26 0 -269 0 -269 570 0 570 0 0 495 0 495 -570 0 -570 0 0 -202z m703 167 c17 -8 34 -15 39 -15 25 0 127 -58 166 -94 174 -160 200 -419 61 -604 -24 -31 -54 -67 -68 -79 -65 -59 -191 -111 -278 -116 -46 -2 -48 -1 -47 26 0 15 1 226 2 468 l2 442 46 -7 c26 -3 61 -13 77 -21z m-159 -12 c-1 -7 -2 -220 -2 -472 l-2 -459 -39 9 c-63 14 -93 28 -156 70 -75 51 -125 112 -176 214 -33 66 -41 95 -46 158 -13 171 91 362 238 437 102 53 185 72 183 43z m575 -635 c-33 -62 -106 -151 -152 -185 -74 -54 -113 -74 -192 -94 -81 -22 -85 -22 -85 -10 0 5 34 20 75 34 112 38 242 145 290 238 14 25 29 35 63 38 10 1 10 -4 1 -21z m-452 -295 c-4 -3 -10 -3 -14 0 -3 4 0 7 7 7 7 0 10 -3 7 -7z"/>
 <path d="M680 485 c0 -138 1 -145 20 -145 18 0 20 7 20 55 l0 55 75 0 75 0 0 -55 c0 -48 2 -55 20 -55 19 0 20 7 20 145 0 138 -1 145 -20 145 -18 0 -20 -7 -20 -70 l0 -70 -75 0 -75 0 0 70 c0 63 -2 70 -20 70 -19 0 -20 -7 -20 -145z"/>
 <path d="M270 486 l0 -146 81 0 c78 0 82 1 114 33 57 57 57 174 -1 228 -22 21 -37 24 -110 28 l-84 3 0 -146z m172 74 c12 -15 18 -39 18 -77 0 -74 -28 -103 -100 -103 l-50 0 0 106 0 106 57 -4 c43 -4 61 -10 75 -28z"/>
 </g>
<g id="layer116" fill="#deadca" stroke="none">
 <path d="M0 788 l1 -203 26 60 c37 88 90 162 147 207 56 44 126 82 171 92 l30 6 -30 -17 c-46 -25 -126 -87 -162 -125 -33 -34 -113 -178 -113 -203 0 -8 -16 -26 -35 -41 l-35 -26 0 -269 0 -269 570 0 570 0 0 495 0 495 -570 0 -570 0 0 -202z m703 167 c17 -8 35 -15 41 -15 29 0 121 -54 167 -97 65 -60 102 -118 130 -201 18 -54 21 -80 17 -159 -5 -83 -10 -102 -42 -169 -50 -99 -126 -175 -222 -221 -77 -37 -198 -64 -211 -48 -5 6 -7 219 -5 474 l3 464 46 -7 c25 -3 60 -13 76 -21z m-161 -367 c-1 -205 -3 -419 -5 -474 l-2 -101 -55 14 c-132 33 -257 148 -328 301 -24 51 -27 69 -27 167 0 112 0 114 53 225 50 104 237 236 342 239 l25 1 -3 -372z m588 -263 c0 -10 -53 -90 -87 -132 -46 -57 -149 -130 -219 -154 -31 -11 -86 -22 -123 -25 l-66 -5 95 33 c135 47 235 119 302 218 17 25 38 51 46 58 16 12 52 17 52 7z"/>
 <path d="M680 485 c0 -138 1 -145 20 -145 18 0 20 7 20 55 l0 55 75 0 75 0 0 -55 c0 -48 2 -55 20 -55 19 0 20 7 20 145 0 138 -1 145 -20 145 -18 0 -20 -7 -20 -70 l0 -70 -75 0 -75 0 0 70 c0 63 -2 70 -20 70 -19 0 -20 -7 -20 -145z"/>
 <path d="M270 486 l0 -146 81 0 c78 0 82 1 114 33 57 57 57 174 -1 228 -22 21 -37 24 -110 28 l-84 3 0 -146z m172 74 c12 -15 18 -39 18 -77 0 -74 -28 -103 -100 -103 l-50 0 0 106 0 106 57 -4 c43 -4 61 -10 75 -28z"/>
 </g>
<g id="layer117" fill="#fee69c" stroke="none">
 <path d="M1 788 c0 -112 3 -196 6 -188 3 8 23 52 45 97 59 121 162 210 286 246 28 9 52 14 52 12 0 -2 -24 -16 -52 -33 -128 -72 -219 -175 -255 -290 -13 -40 -25 -58 -50 -73 l-33 -21 0 -269 0 -269 570 0 570 0 0 495 0 495 -570 0 -570 0 1 -202z m768 144 c142 -62 226 -152 272 -290 18 -54 21 -80 17 -159 -5 -82 -10 -102 -42 -169 -52 -105 -123 -175 -228 -224 -58 -27 -105 -41 -150 -46 l-65 -6 2 198 c1 110 3 322 3 473 l2 274 48 -5 c26 -3 89 -24 141 -46z m-227 -344 c-1 -205 -3 -419 -5 -474 l-2 -101 -55 14 c-132 33 -257 148 -328 301 -24 51 -27 69 -27 167 0 81 4 119 16 145 9 19 23 51 30 69 22 58 130 164 205 201 75 37 108 48 144 49 l25 1 -3 -372z m588 -265 c0 -5 -22 -39 -48 -78 -47 -70 -135 -150 -204 -186 -50 -25 -162 -51 -207 -47 l-36 3 45 13 c165 45 310 145 364 250 9 17 24 36 33 41 21 12 53 14 53 4z"/>
 <path d="M680 485 c0 -138 1 -145 20 -145 18 0 20 7 20 55 l0 55 75 0 75 0 0 -55 c0 -48 2 -55 20 -55 19 0 20 7 20 145 0 138 -1 145 -20 145 -18 0 -20 -7 -20 -70 l0 -70 -75 0 -75 0 0 70 c0 63 -2 70 -20 70 -19 0 -20 -7 -20 -145z"/>
 <path d="M270 486 l0 -146 81 0 c78 0 82 1 114 33 57 57 57 174 -1 228 -22 21 -37 24 -110 28 l-84 3 0 -146z m172 74 c12 -15 18 -39 18 -77 0 -74 -28 -103 -100 -103 l-50 0 0 106 0 106 57 -4 c43 -4 61 -10 75 -28z"/>
 </g>
<g id="layer118" fill="#fcd9b2" stroke="none">
 <path d="M1 788 c0 -112 3 -196 6 -188 3 8 23 52 45 97 59 121 162 210 286 246 28 9 52 14 52 12 0 -2 -24 -16 -52 -33 -128 -72 -219 -175 -255 -290 -13 -40 -25 -58 -50 -73 l-33 -21 0 -269 0 -269 570 0 570 0 0 495 0 495 -570 0 -570 0 1 -202z m768 144 c142 -62 226 -152 272 -290 18 -54 21 -80 17 -159 -5 -82 -10 -102 -42 -169 -52 -105 -123 -175 -228 -224 -58 -27 -105 -41 -150 -46 l-65 -6 2 198 c1 110 3 322 3 473 l2 274 48 -5 c26 -3 89 -24 141 -46z m-226 -384 c-1 -227 -2 -442 -3 -477 l0 -64 -34 6 c-99 16 -243 117 -295 205 -79 137 -86 160 -86 277 0 81 4 119 16 145 9 19 23 51 30 69 22 58 130 164 205 201 75 37 108 48 144 49 l25 1 -2 -412z m587 -225 c0 -5 -22 -39 -48 -78 -47 -70 -135 -150 -204 -186 -50 -25 -162 -51 -207 -47 l-36 3 45 13 c165 45 310 145 364 250 9 17 24 36 33 41 21 12 53 14 53 4z"/>
 <path d="M680 485 c0 -138 1 -145 20 -145 18 0 20 7 20 55 l0 55 75 0 75 0 0 -55 c0 -48 2 -55 20 -55 19 0 20 7 20 145 0 138 -1 145 -20 145 -18 0 -20 -7 -20 -70 l0 -70 -75 0 -75 0 0 70 c0 63 -2 70 -20 70 -19 0 -20 -7 -20 -145z"/>
 <path d="M270 485 l0 -145 78 0 c113 0 152 36 152 140 0 111 -42 150 -160 150 l-70 0 0 -145z m172 77 c17 -17 22 -34 22 -78 1 -49 -2 -59 -27 -80 -22 -19 -39 -24 -83 -24 l-54 0 0 106 0 106 60 -4 c45 -3 66 -10 82 -26z"/>
 </g>
<g id="layer119" fill="#e5d3d9" stroke="none">
 <path d="M1 788 c0 -112 3 -196 6 -188 3 8 23 52 45 97 59 121 162 210 286 246 28 9 52 14 52 12 0 -2 -24 -16 -52 -33 -128 -72 -219 -175 -255 -290 -13 -40 -25 -58 -50 -73 l-33 -21 0 -269 0 -269 268 1 c232 1 261 2 222 13 -139 39 -244 130 -317 273 l-48 95 0 112 c0 82 4 120 16 146 9 19 23 51 30 69 7 19 41 65 76 102 70 74 177 134 258 146 l45 6 -2 -482 -3 -481 298 0 297 0 0 495 0 495 -570 0 -570 0 1 -202z m768 144 c142 -62 226 -152 272 -290 18 -54 21 -80 17 -159 -5 -82 -10 -102 -42 -169 -52 -105 -123 -175 -228 -224 -58 -27 -105 -41 -150 -46 l-65 -6 2 198 c1 110 3 322 3 473 l2 274 48 -5 c26 -3 89 -24 141 -46z m361 -609 c0 -5 -22 -39 -48 -78 -47 -70 -135 -150 -204 -186 -50 -25 -162 -51 -207 -47 l-36 3 45 13 c165 45 310 145 364 250 9 17 24 36 33 41 21 12 53 14 53 4z"/>
 <path d="M680 485 c0 -122 2 -145 15 -145 12 0 15 13 15 55 l0 55 80 0 80 0 0 -55 c0 -48 2 -55 20 -55 19 0 20 7 20 145 0 138 -1 145 -20 145 -18 0 -20 -7 -20 -70 l0 -70 -80 0 -80 0 0 70 c0 56 -3 70 -15 70 -13 0 -15 -23 -15 -145z"/>
 <path d="M270 485 l0 -145 65 0 c119 0 165 39 165 140 0 111 -43 150 -165 150 l-65 0 0 -145z m168 85 c41 -38 41 -123 0 -167 -18 -19 -32 -23 -80 -23 l-58 0 0 105 0 105 58 0 c44 0 63 -5 80 -20z"/>
 </g>
<g id="layer120" fill="#eddaed" stroke="none">
 <path d="M0 793 l1 -198 20 45 c43 96 56 116 105 169 61 65 142 117 213 136 28 7 51 11 51 9 0 -2 -17 -12 -38 -23 -121 -62 -231 -185 -268 -298 -12 -40 -25 -58 -50 -74 l-34 -21 0 -269 0 -269 268 1 c232 1 261 2 222 13 -126 35 -233 122 -305 246 -50 89 -65 142 -66 241 -1 89 31 185 87 265 67 96 197 179 295 191 l49 6 -2 -482 -3 -481 298 0 297 0 0 495 0 495 -262 0 -263 0 97 -34 c111 -39 107 -37 176 -89 67 -51 115 -117 148 -203 23 -61 25 -81 22 -170 -3 -95 -5 -105 -45 -186 -31 -63 -58 -100 -98 -136 -83 -76 -211 -131 -307 -132 l-38 0 5 467 c3 256 8 470 11 475 3 4 -128 8 -290 8 l-296 0 0 -197z m1130 -471 c0 -5 -17 -35 -38 -68 -94 -145 -261 -244 -410 -244 -30 0 -53 2 -50 5 3 3 38 15 79 26 136 37 256 121 320 221 18 29 38 56 44 60 14 10 55 10 55 0z"/>
 <path d="M270 485 l0 -145 65 0 c119 0 165 39 165 140 0 111 -43 150 -165 150 l-65 0 0 -145z m168 85 c41 -38 41 -123 0 -167 -18 -19 -32 -23 -80 -23 l-58 0 0 105 0 105 58 0 c44 0 63 -5 80 -20z"/>
 <path d="M680 485 c0 -122 2 -145 15 -145 12 0 15 13 15 55 l0 55 80 0 80 0 0 -55 c0 -48 2 -55 20 -55 19 0 20 7 20 145 0 138 -1 145 -20 145 -18 0 -20 -7 -20 -70 l0 -70 -80 0 -80 0 0 70 c0 56 -3 70 -15 70 -13 0 -15 -23 -15 -145z"/>
 </g>
<g id="layer121" fill="#fefefe" stroke="none">
 <path d="M0 793 l0 -198 24 58 c59 144 176 254 309 292 54 16 93 14 51 -2 -47 -17 -154 -95 -196 -142 -48 -54 -108 -160 -108 -193 0 -10 -18 -30 -40 -46 l-39 -27 -1 -267 0 -268 268 1 c178 1 255 4 230 10 -114 27 -238 123 -308 239 -53 87 -71 146 -73 240 -3 135 63 281 166 366 56 46 165 97 219 102 l48 5 -2 -482 -3 -481 50 0 c35 0 46 3 35 10 -17 10 -22 8 80 33 128 30 258 123 329 235 28 42 39 52 63 52 15 0 28 -2 28 -5 0 -20 -50 -97 -93 -142 -92 -97 -181 -149 -297 -173 -19 -4 61 -8 183 -9 l217 -1 0 495 0 495 -257 0 -258 -1 59 -20 c192 -66 288 -145 346 -284 30 -72 33 -90 33 -175 -1 -101 -16 -157 -66 -242 -69 -118 -220 -214 -354 -225 l-73 -6 3 477 3 476 -288 0 -288 0 0 -197z"/>
 <path d="M270 485 l0 -145 65 0 c119 0 165 39 165 140 0 111 -43 150 -165 150 l-65 0 0 -145z m155 99 c41 -16 58 -109 30 -163 -18 -35 -32 -41 -101 -41 l-54 0 0 105 0 105 54 0 c30 0 62 -3 71 -6z"/>
 <path d="M690 485 c0 -90 4 -145 10 -145 6 0 10 25 10 55 l0 55 80 0 80 0 0 -55 c0 -48 2 -55 20 -55 19 0 20 7 20 145 0 138 -1 145 -20 145 -18 0 -20 -7 -20 -70 l0 -70 -80 0 -80 0 0 70 c0 40 -4 70 -10 70 -6 0 -10 -55 -10 -145z"/>
 </g>

</svg>