<!DOCTYPE svg PUBLIC "-//W3C//DTD SVG 20010904//EN" "http://www.w3.org/TR/2001/REC-SVG-20010904/DTD/svg10.dtd">
<svg version="1.0" xmlns="http://www.w3.org/2000/svg" width="106px" height="105px" viewBox="0 0 1060 1050" preserveAspectRatio="xMidYMid meet">
<g id="layer101" fill="#343433" stroke="none">
 <path d="M0 525 l0 -525 530 0 530 0 0 525 0 525 -530 0 -530 0 0 -525z"/>
 </g>
<g id="layer102" fill="#5b3830" stroke="none">
 <path d="M0 525 l0 -525 258 1 c141 1 244 5 227 9 -24 6 -18 8 32 9 149 3 264 51 366 152 76 75 92 75 21 -1 -82 -88 -185 -142 -304 -159 -37 -6 26 -9 203 -10 l257 -1 0 525 0 525 -530 0 -530 0 0 -525z m670 488 c88 -24 151 -62 221 -132 104 -104 152 -221 151 -366 0 -79 -31 -207 -52 -220 -13 -8 -13 -8 11 60 64 181 18 378 -120 516 -171 171 -428 197 -629 63 -60 -39 -81 -41 -30 -2 125 95 289 125 448 81z m3 -49 c69 -23 57 -35 -14 -13 -114 36 -255 18 -361 -44 -54 -31 -139 -120 -166 -173 -74 -146 -67 -323 18 -458 34 -53 35 -75 1 -27 -67 94 -101 235 -82 342 32 187 189 350 372 389 58 12 173 4 232 -16z m-9 -47 c22 -7 41 -18 43 -24 2 -6 -22 -1 -54 9 -82 28 -206 22 -285 -14 -107 -49 -191 -147 -228 -266 -12 -37 -18 -48 -19 -32 -4 123 142 291 288 332 75 21 190 19 255 -5z m199 -74 c27 -27 63 -79 83 -118 40 -83 63 -204 46 -251 -9 -25 -11 -20 -11 43 -1 80 -26 170 -64 236 -26 44 -139 157 -158 157 -5 0 -9 5 -9 11 0 17 59 -24 113 -78z m-83 6 c0 -6 -7 -6 -20 1 -11 6 -20 15 -20 21 0 6 7 6 20 -1 11 -6 20 -15 20 -21z m-663 -50 c-160 -240 -86 -567 162 -709 74 -43 81 -60 9 -24 -67 34 -177 144 -211 209 -93 185 -75 405 46 558 45 58 42 38 -6 -34z m778 -74 c30 -50 55 -144 55 -205 0 -226 -194 -420 -419 -420 -87 0 -240 53 -241 83 0 5 3 7 8 5 122 -63 124 -63 232 -63 93 0 111 3 163 27 80 38 160 117 200 197 30 61 32 72 32 171 0 93 -3 112 -26 160 -15 30 -40 72 -58 94 -17 21 -31 44 -31 50 1 15 55 -49 85 -99z m-765 -239 c0 -69 32 -143 106 -244 9 -12 12 -22 6 -22 -16 0 -82 96 -103 150 -24 62 -37 166 -21 156 7 -4 12 -22 12 -40z m821 -162 c-85 -182 -293 -296 -487 -265 -69 10 -194 62 -194 80 0 6 15 2 33 -9 54 -34 154 -60 227 -60 199 0 359 119 435 325 5 13 9 15 12 7 3 -7 -9 -42 -26 -78z m-721 -139 c7 -8 8 -15 2 -15 -5 0 -15 7 -22 15 -7 8 -8 15 -2 15 5 0 15 -7 22 -15z m185 -155 c8 -13 -15 -13 -35 0 -12 8 -11 10 7 10 12 0 25 -4 28 -10z"/>
 </g>
<g id="layer103" fill="#4e4735" stroke="none">
 <path d="M0 525 l0 -525 258 1 c141 1 244 5 227 9 -24 6 -18 8 32 9 149 3 264 51 366 152 76 75 92 75 21 -1 -82 -88 -185 -142 -304 -159 -37 -6 26 -9 203 -10 l257 -1 0 525 0 525 -530 0 -530 0 0 -525z m670 488 c88 -24 151 -62 221 -132 104 -104 152 -221 151 -366 0 -79 -31 -207 -52 -220 -13 -8 -13 -8 11 60 64 181 18 378 -120 516 -171 171 -428 197 -629 63 -60 -39 -81 -41 -30 -2 125 95 289 125 448 81z m3 -49 c69 -23 57 -35 -14 -13 -114 36 -255 18 -361 -44 -54 -31 -139 -120 -166 -173 -74 -146 -67 -323 18 -458 34 -53 35 -75 1 -27 -67 94 -101 235 -82 342 32 187 189 350 372 389 58 12 173 4 232 -16z m-38 -39 c55 -15 91 -33 81 -42 -2 -2 -32 6 -67 18 -129 43 -287 7 -393 -91 -48 -44 -116 -165 -116 -206 0 -12 -4 -26 -10 -29 -6 -3 -10 4 -10 17 0 46 30 119 70 172 109 144 276 205 445 161z m228 -82 c27 -27 63 -79 83 -118 40 -83 63 -204 46 -251 -9 -25 -11 -20 -11 43 -1 80 -26 170 -64 236 -26 44 -139 157 -158 157 -5 0 -9 5 -9 11 0 17 59 -24 113 -78z m-83 7 c0 -14 -14 -12 -28 2 -19 19 -14 30 8 18 11 -6 20 -15 20 -20z m-663 -51 c-160 -240 -86 -567 162 -709 74 -43 81 -60 9 -24 -67 34 -177 144 -211 209 -93 185 -75 405 46 558 45 58 42 38 -6 -34z m778 -74 c30 -50 55 -144 55 -205 0 -226 -194 -420 -419 -420 -86 0 -240 53 -241 83 0 10 2 10 76 -26 63 -29 78 -32 164 -32 86 0 101 3 162 32 138 65 226 191 236 336 7 112 -38 239 -108 302 -11 10 -17 22 -13 28 7 12 53 -38 88 -98z m-762 -251 c7 -65 51 -165 97 -217 22 -25 27 -37 17 -37 -21 0 -85 89 -108 150 -23 60 -36 160 -22 160 6 0 13 -25 16 -56z m818 -150 c-85 -182 -293 -296 -487 -265 -69 10 -194 62 -194 80 0 6 15 2 33 -9 54 -34 154 -60 227 -60 199 0 359 119 435 325 5 13 9 15 12 7 3 -7 -9 -42 -26 -78z m-721 -139 c7 -8 8 -15 2 -15 -5 0 -15 7 -22 15 -7 8 -8 15 -2 15 5 0 15 -7 22 -15z m185 -155 c8 -13 -15 -13 -35 0 -12 8 -11 10 7 10 12 0 25 -4 28 -10z"/>
 </g>
<g id="layer104" fill="#514f4a" stroke="none">
 <path d="M0 525 l0 -525 258 1 c141 1 244 5 227 9 -23 6 -16 8 35 9 142 2 262 53 363 152 37 37 67 61 67 55 0 -21 -123 -132 -176 -159 -51 -26 -136 -53 -189 -60 -16 -2 84 -5 223 -6 l252 -1 0 525 0 525 -530 0 -530 0 0 -525z m673 490 c163 -47 306 -191 352 -354 23 -80 26 -144 11 -228 -13 -73 -41 -151 -52 -141 -2 3 5 31 17 64 63 181 17 377 -120 515 -171 170 -426 196 -626 63 -61 -40 -86 -41 -33 -1 63 47 165 88 253 100 44 7 143 -3 198 -18z m-13 -45 c42 -12 67 -27 59 -35 -3 -3 -23 3 -45 12 -61 27 -232 24 -302 -5 -123 -51 -213 -142 -265 -266 -28 -69 -31 -243 -4 -295 9 -19 17 -39 17 -45 0 -6 14 -31 30 -56 32 -49 39 -70 15 -50 -22 18 -60 89 -81 150 -26 76 -24 215 4 291 59 163 183 271 357 309 46 10 164 5 215 -10z m-16 -46 c62 -17 84 -29 74 -39 -3 -3 -34 4 -69 16 -129 43 -287 7 -393 -91 -48 -44 -116 -165 -116 -206 0 -21 -16 -41 -25 -32 -8 7 33 139 51 167 23 34 111 122 146 145 41 27 147 54 212 55 33 1 87 -6 120 -15z m209 -67 c56 -55 93 -113 118 -185 23 -67 34 -178 21 -212 -7 -19 -10 -4 -14 70 -9 156 -77 283 -190 356 -21 13 -38 29 -38 34 0 17 54 -16 103 -63z m-83 8 c7 -9 10 -18 7 -22 -8 -7 -37 15 -37 28 0 14 16 11 30 -6z m-646 -55 c-107 -149 -121 -347 -37 -519 32 -66 130 -168 200 -207 69 -38 69 -52 1 -18 -114 58 -215 184 -253 319 -43 147 -4 341 91 454 41 49 40 29 -2 -29z m785 -105 c131 -281 -72 -605 -380 -605 -82 0 -210 40 -239 75 -19 23 1 18 76 -18 63 -29 78 -32 164 -32 86 0 101 3 162 32 138 65 226 191 236 336 7 112 -38 239 -108 302 -11 10 -17 22 -13 28 8 14 78 -66 102 -118z m-776 -231 c7 -65 51 -165 96 -216 17 -20 27 -39 22 -42 -13 -8 -83 80 -104 129 -22 55 -37 114 -37 153 0 53 17 36 23 -24z m837 -111 c-41 -126 -152 -236 -289 -285 -82 -30 -215 -30 -301 0 -69 24 -120 56 -107 68 4 4 15 0 24 -9 10 -8 43 -26 73 -38 45 -19 73 -23 160 -23 137 0 207 27 308 119 30 27 102 124 102 137 0 3 7 22 16 43 19 47 30 39 14 -12z m-739 -179 c12 -14 11 -16 -5 -13 -11 2 -21 10 -24 17 -5 17 13 15 29 -4z m184 -154 c8 -13 -15 -13 -35 0 -12 8 -11 10 7 10 12 0 25 -4 28 -10z"/>
 </g>
<g id="layer105" fill="#6a582c" stroke="none">
 <path d="M0 525 l0 -525 248 1 c136 1 239 3 230 6 -36 9 -16 18 35 15 125 -8 273 53 375 155 34 35 62 57 62 49 0 -21 -81 -101 -142 -139 -63 -40 -126 -65 -193 -76 -34 -6 29 -9 198 -10 l247 -1 0 525 0 525 -530 0 -530 0 0 -525z m695 483 c264 -88 412 -380 326 -646 -13 -39 -28 -72 -33 -72 -6 0 -7 9 -3 23 48 147 54 213 30 315 -67 283 -355 451 -630 368 -28 -9 -81 -34 -118 -57 -81 -48 -99 -46 -30 5 124 91 303 116 458 64z m-21 -41 c22 -7 42 -20 44 -27 3 -9 -1 -11 -14 -5 -97 41 -237 44 -330 7 -122 -49 -215 -140 -266 -264 -29 -71 -33 -244 -6 -297 10 -19 18 -39 18 -45 0 -6 14 -31 30 -56 35 -52 39 -71 10 -45 -33 30 -78 136 -92 213 -39 231 111 462 342 525 74 20 199 17 264 -6z m-30 -43 c62 -17 84 -29 74 -39 -3 -3 -34 4 -69 16 -129 43 -287 7 -393 -91 -48 -44 -116 -165 -116 -206 0 -21 -16 -41 -25 -32 -8 7 33 139 51 167 23 34 111 122 146 145 41 27 147 54 212 55 33 1 87 -6 120 -15z m177 -38 c65 -51 132 -146 155 -220 20 -66 30 -188 17 -211 -8 -13 -12 7 -15 76 -9 155 -77 283 -190 355 -35 22 -50 44 -30 44 4 0 32 -20 63 -44z m-51 -21 c7 -9 10 -18 7 -22 -8 -7 -37 15 -37 28 0 14 16 11 30 -6z m-610 -1 c0 -3 -14 -25 -31 -50 -111 -162 -127 -341 -44 -510 45 -93 106 -159 189 -208 36 -21 66 -42 66 -47 0 -12 -28 0 -86 37 -100 63 -175 158 -215 275 -31 89 -31 228 0 319 28 83 121 224 121 184z m749 -159 c131 -281 -72 -605 -380 -605 -82 0 -210 40 -239 75 -19 23 1 18 76 -18 63 -29 78 -32 164 -32 86 0 101 3 162 32 138 65 226 191 236 336 7 112 -38 239 -108 302 -11 10 -17 22 -13 28 8 14 78 -66 102 -118z m-776 -231 c7 -65 51 -165 96 -216 17 -20 27 -39 22 -42 -13 -8 -83 80 -104 129 -22 55 -37 114 -37 153 0 53 17 36 23 -24z m817 -161 c-90 -182 -295 -288 -493 -255 -85 14 -205 68 -188 85 7 7 16 6 28 -5 10 -9 43 -27 73 -39 45 -19 73 -23 160 -23 137 0 207 27 308 119 30 27 102 124 102 137 0 3 8 23 17 44 12 29 18 34 21 21 2 -11 -11 -48 -28 -84z m-721 -126 c6 -8 8 -17 4 -20 -7 -8 -33 11 -33 24 0 13 16 11 29 -4z m196 -157 c3 -6 -5 -10 -19 -10 -14 0 -28 5 -31 10 -3 6 5 10 19 10 14 0 28 -4 31 -10z"/>
 </g>
<g id="layer106" fill="#a13b2a" stroke="none">
 <path d="M0 525 l0 -525 248 1 c136 1 239 3 230 6 -36 9 -16 18 35 15 125 -8 273 53 375 155 34 35 62 57 62 49 0 -21 -81 -101 -142 -139 -63 -40 -126 -65 -193 -76 -34 -6 29 -9 198 -10 l247 -1 0 525 0 525 -530 0 -530 0 0 -525z m695 483 c264 -88 412 -380 326 -646 -13 -39 -28 -72 -33 -72 -6 0 -7 9 -3 23 48 147 54 213 30 315 -67 283 -355 451 -630 368 -28 -9 -81 -34 -118 -57 -81 -48 -99 -46 -30 5 124 91 303 116 458 64z m-21 -41 c22 -7 42 -20 44 -27 4 -10 0 -11 -14 -5 -34 15 -138 35 -179 34 -272 -1 -495 -277 -434 -537 13 -54 63 -167 78 -177 6 -3 11 -13 11 -22 0 -29 -38 16 -70 82 -155 324 89 691 445 671 44 -3 98 -11 119 -19z m-17 -43 c26 -9 52 -20 57 -25 21 -19 -5 -19 -65 2 -128 43 -287 7 -392 -90 -49 -45 -102 -137 -115 -196 -10 -53 -33 -59 -25 -8 21 142 169 295 313 324 65 13 178 9 227 -7z m164 -38 c65 -51 132 -147 154 -220 20 -64 30 -165 21 -201 -11 -42 -20 -21 -17 38 6 138 -69 294 -179 373 -45 33 -62 54 -42 54 4 0 32 -20 63 -44z m-46 -26 c15 -16 15 -20 3 -20 -8 0 -23 9 -33 20 -15 16 -15 20 -3 20 8 0 23 -9 33 -20z m-615 4 c0 -3 -14 -25 -31 -50 -111 -162 -127 -341 -44 -510 45 -93 106 -159 189 -208 36 -21 66 -42 66 -47 0 -12 -28 0 -86 37 -100 63 -175 158 -215 275 -31 89 -31 228 0 319 28 83 121 224 121 184z m752 -163 c32 -64 33 -70 33 -181 -1 -106 -3 -120 -30 -175 -37 -78 -132 -173 -210 -210 -56 -27 -68 -29 -175 -29 -103 0 -121 3 -171 27 -53 25 -93 57 -71 57 5 0 41 -15 78 -33 63 -29 78 -32 164 -32 86 0 101 3 162 32 138 65 226 191 236 336 7 112 -38 239 -108 302 -11 10 -17 22 -14 27 11 17 71 -53 106 -121z m-779 -227 c7 -65 51 -165 96 -216 17 -20 27 -39 22 -42 -15 -10 -84 78 -109 139 -25 63 -41 175 -25 175 6 0 13 -25 16 -56z m817 -161 c-90 -182 -295 -288 -493 -255 -79 14 -205 68 -190 83 6 6 28 -1 56 -17 167 -93 381 -60 522 82 44 43 96 130 121 199 7 19 8 19 12 -4 2 -13 -10 -51 -28 -88z m-716 -145 c-8 -12 -34 11 -34 30 0 13 3 12 20 -3 11 -10 17 -22 14 -27z m191 -138 c3 -6 -5 -10 -19 -10 -14 0 -28 5 -31 10 -3 6 5 10 19 10 14 0 28 -4 31 -10z"/>
 </g>
<g id="layer107" fill="#7b642c" stroke="none">
 <path d="M0 525 l0 -525 248 1 c136 1 239 3 230 6 -36 9 -16 18 35 15 125 -8 273 53 375 155 34 35 62 57 62 49 0 -21 -81 -101 -142 -139 -63 -40 -126 -65 -193 -76 -34 -6 29 -9 198 -10 l247 -1 0 525 0 525 -530 0 -530 0 0 -525z m695 483 c264 -88 412 -380 326 -646 -13 -39 -28 -72 -33 -72 -6 0 -7 9 -3 23 48 147 54 213 30 315 -67 283 -355 451 -630 368 -28 -9 -81 -34 -118 -57 -81 -48 -99 -46 -30 5 124 91 303 116 458 64z m-21 -41 c22 -7 42 -20 44 -27 4 -10 0 -11 -14 -5 -34 15 -138 35 -179 34 -272 -1 -495 -277 -434 -537 13 -54 63 -167 78 -177 6 -3 11 -13 11 -22 0 -29 -38 16 -70 82 -155 324 89 691 445 671 44 -3 98 -11 119 -19z m-17 -43 c26 -9 52 -20 57 -25 19 -18 -4 -21 -51 -6 -75 25 -134 30 -199 18 -156 -29 -279 -142 -317 -291 -16 -62 -34 -69 -29 -12 13 133 168 294 312 323 65 13 178 9 227 -7z m164 -38 c65 -51 132 -147 154 -220 20 -64 30 -165 21 -201 -11 -42 -20 -21 -17 38 6 138 -69 294 -179 373 -45 33 -62 54 -42 54 4 0 32 -20 63 -44z m-46 -26 c11 -13 14 -20 6 -20 -18 0 -51 19 -51 30 0 17 26 11 45 -10z m-615 4 c0 -3 -14 -25 -31 -50 -111 -162 -127 -341 -44 -510 45 -93 106 -159 189 -208 36 -21 66 -42 66 -47 0 -12 -28 0 -86 37 -100 63 -175 158 -215 275 -31 89 -31 228 0 319 28 83 121 224 121 184z m752 -163 c32 -64 33 -70 33 -181 -1 -106 -3 -120 -30 -175 -37 -78 -132 -173 -210 -210 -56 -27 -68 -29 -175 -29 -100 0 -121 3 -165 24 -57 27 -87 49 -80 61 3 4 31 -6 63 -22 325 -167 680 153 551 496 -10 28 -37 73 -58 102 -22 28 -37 54 -33 57 12 12 71 -58 104 -123z m-777 -223 c10 -76 39 -145 85 -205 49 -65 36 -79 -17 -19 -46 54 -81 138 -90 217 -8 75 12 81 22 7z m815 -165 c-90 -182 -295 -288 -493 -255 -79 14 -205 68 -190 83 6 6 28 -1 56 -17 167 -93 381 -60 522 82 44 43 96 130 121 199 7 19 8 19 12 -4 2 -13 -10 -51 -28 -88z m-716 -145 c-8 -12 -34 11 -34 30 0 13 3 12 20 -3 11 -10 17 -22 14 -27z m191 -138 c3 -6 -5 -10 -19 -10 -14 0 -28 5 -31 10 -3 6 5 10 19 10 14 0 28 -4 31 -10z"/>
 </g>
<g id="layer108" fill="#6e695e" stroke="none">
 <path d="M0 525 l0 -525 248 1 c136 1 239 3 230 6 -36 9 -16 18 35 15 125 -8 273 53 375 155 34 35 62 57 62 49 0 -21 -81 -101 -142 -139 -63 -40 -126 -65 -193 -76 -34 -6 29 -9 198 -10 l247 -1 0 525 0 525 -530 0 -530 0 0 -525z m695 483 c264 -88 412 -380 326 -646 -13 -39 -28 -72 -33 -72 -6 0 -7 9 -3 23 48 147 54 213 30 315 -67 283 -355 451 -630 368 -28 -9 -81 -34 -118 -57 -81 -48 -99 -46 -30 5 124 91 303 116 458 64z m-25 -39 c19 -6 39 -16 44 -20 19 -17 -2 -19 -42 -5 -114 41 -259 25 -368 -40 -218 -128 -287 -418 -149 -626 30 -46 33 -68 5 -43 -33 30 -78 136 -92 213 -39 231 111 462 342 525 72 19 197 17 260 -4z m-13 -45 c26 -9 52 -20 57 -25 19 -18 -4 -21 -51 -6 -75 25 -134 30 -199 18 -156 -29 -279 -142 -317 -291 -16 -60 -33 -69 -30 -16 5 82 101 222 189 277 94 58 249 77 351 43z m164 -38 c65 -51 132 -147 154 -220 19 -63 30 -165 21 -200 -10 -42 -24 -21 -19 28 8 65 -22 184 -63 252 -43 72 -76 107 -131 142 -24 15 -43 30 -43 35 0 17 29 4 81 -37z m-45 -20 c10 -8 16 -18 12 -22 -10 -9 -58 12 -58 26 0 14 23 12 46 -4z m-616 -2 c0 -3 -14 -25 -31 -50 -111 -162 -127 -341 -44 -510 45 -93 106 -159 189 -208 36 -21 66 -42 66 -47 0 -12 -28 0 -86 37 -100 63 -175 158 -215 275 -31 89 -31 228 0 319 28 83 121 224 121 184z m695 -75 c21 -23 49 -67 64 -98 23 -50 26 -68 26 -171 0 -107 -2 -119 -29 -175 -38 -78 -133 -173 -211 -211 -56 -27 -68 -29 -175 -29 -98 0 -122 4 -165 23 -27 13 -58 30 -67 39 -34 30 -7 31 50 2 325 -167 680 153 551 496 -10 28 -37 74 -59 103 -22 29 -40 55 -40 57 0 15 22 0 55 -36z m-720 -311 c10 -76 39 -145 85 -205 49 -66 36 -79 -19 -17 -48 55 -82 138 -89 217 -6 73 13 77 23 5z m815 -165 c-90 -182 -295 -288 -493 -255 -72 12 -197 65 -197 83 0 14 10 11 72 -20 124 -63 268 -63 396 0 106 52 184 145 238 284 7 19 8 19 12 -4 2 -13 -10 -51 -28 -88z m-716 -145 c-8 -12 -34 11 -34 30 0 13 3 12 20 -3 11 -10 17 -22 14 -27z m191 -138 c3 -6 -5 -10 -19 -10 -14 0 -28 5 -31 10 -3 6 5 10 19 10 14 0 28 -4 31 -10z"/>
 </g>
<g id="layer109" fill="#d13e27" stroke="none">
 <path d="M0 525 l0 -525 238 1 c130 0 231 3 224 6 -25 10 0 23 33 17 18 -3 66 -1 107 5 106 16 206 68 285 149 70 71 95 77 42 11 -66 -83 -189 -156 -304 -179 -25 -5 49 -8 198 -9 l237 -1 0 525 0 525 -530 0 -530 0 0 -525z m694 485 c159 -55 273 -169 327 -327 33 -95 33 -231 0 -325 -12 -38 -27 -68 -32 -68 -12 0 -12 2 10 68 29 87 35 175 17 260 -72 344 -470 510 -758 316 -28 -19 -55 -37 -60 -40 -4 -3 -8 1 -8 8 0 31 146 107 245 128 61 14 193 3 259 -20z m-49 -36 c59 -15 84 -28 73 -39 -3 -3 -23 1 -46 9 -157 56 -353 5 -469 -120 -91 -98 -137 -247 -114 -370 11 -64 43 -143 77 -196 10 -15 15 -30 11 -34 -16 -17 -80 97 -102 183 -41 157 6 326 124 444 119 119 287 165 446 123z m12 -50 c26 -9 52 -20 57 -25 19 -18 -4 -21 -51 -6 -75 25 -134 30 -199 18 -156 -29 -279 -142 -317 -291 -16 -60 -33 -69 -30 -16 5 82 101 222 189 277 94 58 249 77 351 43z m160 -33 c90 -70 151 -168 173 -278 13 -61 10 -170 -5 -163 -5 3 -9 25 -7 50 5 67 -25 180 -64 247 -43 71 -76 106 -131 141 -24 15 -43 30 -43 35 0 17 32 4 77 -32z m-41 -25 c10 -8 16 -18 12 -22 -10 -9 -58 12 -58 26 0 14 23 12 46 -4z m-640 -45 c-50 -68 -83 -144 -97 -224 -33 -194 70 -409 244 -507 31 -17 57 -36 57 -41 0 -14 -12 -11 -65 20 -113 65 -194 165 -236 288 -33 95 -33 231 0 326 26 77 95 187 118 187 10 0 4 -15 -21 -49z m719 -32 c21 -23 49 -67 64 -98 23 -50 26 -68 26 -171 0 -107 -2 -119 -29 -175 -38 -78 -133 -173 -211 -211 -56 -27 -68 -29 -175 -29 -98 0 -122 4 -165 23 -27 13 -58 30 -67 39 -34 30 -7 31 50 2 325 -167 680 153 551 496 -10 28 -37 74 -59 103 -22 29 -40 55 -40 57 0 15 22 0 55 -36z m-720 -311 c10 -76 39 -145 85 -205 49 -66 36 -79 -19 -17 -48 55 -82 138 -89 217 -6 73 13 77 23 5z m840 -107 c-26 -75 -58 -126 -114 -182 -118 -118 -287 -165 -444 -124 -66 17 -157 61 -157 75 0 15 10 12 72 -19 247 -125 542 6 632 282 3 10 10 16 15 12 6 -3 5 -20 -4 -44z m-738 -207 c-10 -10 -48 27 -41 38 4 6 16 1 27 -11 12 -11 18 -24 14 -27z m181 -139 c-3 -12 -29 -8 -43 7 -7 6 -1 8 18 6 15 -2 26 -7 25 -13z"/>
 </g>
<g id="layer110" fill="#f14025" stroke="none">
 <path d="M0 525 l0 -525 238 1 c130 0 231 3 224 6 -25 10 0 23 33 17 18 -3 66 -1 107 5 106 16 206 68 285 149 70 71 95 77 42 11 -66 -83 -189 -156 -304 -179 -25 -5 49 -8 198 -9 l237 -1 0 525 0 525 -530 0 -530 0 0 -525z m694 485 c159 -55 273 -169 327 -327 33 -95 33 -231 0 -325 -12 -38 -27 -68 -32 -68 -12 0 -12 2 10 68 29 87 35 175 17 260 -72 344 -470 510 -758 316 -28 -19 -55 -37 -60 -40 -4 -3 -8 1 -8 8 0 31 146 107 245 128 61 14 193 3 259 -20z m-49 -36 c59 -15 84 -28 73 -39 -3 -3 -23 1 -46 9 -157 56 -353 5 -469 -120 -91 -98 -137 -247 -114 -370 11 -64 43 -143 77 -196 10 -15 15 -30 11 -34 -16 -17 -80 97 -102 183 -41 157 6 326 124 444 119 119 287 165 446 123z m19 -52 c27 -10 51 -23 54 -30 5 -16 -14 -15 -68 4 -58 20 -182 20 -240 -1 -132 -47 -231 -152 -264 -282 -13 -51 -32 -56 -29 -9 5 82 101 222 189 277 96 59 255 77 358 41z m153 -31 c90 -70 151 -168 173 -278 13 -61 10 -170 -5 -163 -5 3 -9 25 -7 50 5 67 -25 180 -64 247 -43 71 -76 106 -131 141 -24 15 -43 30 -43 35 0 17 32 4 77 -32z m-41 -25 c28 -22 6 -41 -24 -20 -12 8 -22 19 -22 25 0 14 23 11 46 -5z m-640 -45 c-50 -68 -83 -144 -97 -224 -33 -194 70 -409 244 -507 31 -17 57 -36 57 -41 0 -14 -12 -11 -65 20 -113 65 -194 165 -236 288 -33 95 -33 231 0 326 26 77 95 187 118 187 10 0 4 -15 -21 -49z m719 -32 c21 -23 49 -67 64 -98 23 -50 26 -68 26 -171 0 -107 -2 -119 -29 -175 -38 -78 -133 -173 -211 -211 -56 -27 -68 -29 -175 -29 -102 0 -121 3 -170 26 -54 25 -88 54 -77 65 3 3 32 -9 66 -25 286 -145 613 90 569 409 -9 68 -53 163 -92 199 -26 24 -35 51 -17 51 5 0 25 -19 46 -41z m-721 -281 c3 -13 7 -42 11 -66 7 -55 48 -137 88 -180 22 -22 28 -35 20 -43 -16 -16 -88 72 -114 140 -25 64 -38 171 -20 171 6 0 13 -10 15 -22z m841 -137 c-26 -75 -58 -126 -114 -182 -118 -118 -287 -165 -444 -124 -66 17 -157 61 -157 75 0 15 10 12 72 -19 247 -125 542 6 632 282 3 10 10 16 15 12 6 -3 5 -20 -4 -44z m-738 -207 c-10 -10 -48 27 -41 38 4 6 16 1 27 -11 12 -11 18 -24 14 -27z m181 -139 c-3 -12 -29 -8 -43 7 -7 6 -1 8 18 6 15 -2 26 -7 25 -13z"/>
 </g>
<g id="layer111" fill="#b48b24" stroke="none">
 <path d="M0 525 l0 -525 238 1 c130 0 231 3 224 6 -25 10 0 23 33 17 18 -3 66 -1 107 5 106 16 206 68 285 149 70 71 95 77 42 11 -66 -83 -189 -156 -304 -179 -25 -5 49 -8 198 -9 l237 -1 0 525 0 525 -530 0 -530 0 0 -525z m694 485 c159 -55 273 -169 327 -327 33 -95 33 -231 0 -325 -12 -38 -27 -68 -32 -68 -12 0 -12 2 10 68 29 87 35 175 17 260 -72 344 -470 510 -758 316 -28 -19 -55 -37 -60 -40 -4 -3 -8 1 -8 8 0 31 146 107 245 128 61 14 193 3 259 -20z m-49 -36 c59 -15 84 -28 73 -39 -3 -3 -23 1 -46 9 -157 56 -353 5 -469 -120 -91 -98 -137 -247 -114 -370 11 -64 43 -143 77 -196 10 -15 15 -30 11 -34 -16 -17 -80 97 -102 183 -41 157 6 326 124 444 119 119 287 165 446 123z m12 -50 c26 -9 53 -21 58 -28 6 -7 23 -16 39 -20 16 -4 30 -15 33 -26 3 -11 11 -20 18 -20 21 0 86 -79 114 -139 23 -50 26 -68 26 -171 0 -107 -2 -119 -29 -175 -17 -35 -55 -85 -90 -121 -36 -35 -86 -73 -121 -90 -56 -27 -68 -29 -175 -29 -103 0 -121 3 -172 27 -31 14 -64 38 -73 52 -10 14 -23 26 -30 26 -23 0 -93 90 -117 149 -19 47 -23 74 -22 166 1 96 4 117 27 168 28 61 109 154 163 188 94 58 249 77 351 43z m160 -33 c90 -70 151 -168 173 -278 13 -61 10 -170 -5 -163 -5 3 -9 25 -7 50 5 67 -25 180 -64 247 -43 71 -76 106 -131 141 -24 15 -43 30 -43 35 0 17 32 4 77 -32z m-681 -70 c-50 -68 -83 -144 -97 -224 -33 -194 70 -409 244 -507 31 -17 57 -36 57 -41 0 -14 -12 -11 -65 20 -113 65 -194 165 -236 288 -33 95 -33 231 0 326 26 77 95 187 118 187 10 0 4 -15 -21 -49z m839 -450 c-26 -75 -58 -126 -114 -182 -118 -118 -287 -165 -444 -124 -66 17 -157 61 -157 75 0 15 10 12 72 -19 247 -125 542 6 632 282 3 10 10 16 15 12 6 -3 5 -20 -4 -44z m-738 -207 c-10 -10 -48 27 -41 38 4 6 16 1 27 -11 12 -11 18 -24 14 -27z m181 -139 c-3 -12 -29 -8 -43 7 -7 6 -1 8 18 6 15 -2 26 -7 25 -13z"/>
 <path d="M253 775 c-3 -9 -3 -19 1 -22 8 -9 37 18 30 28 -8 14 -24 11 -31 -6z"/>
 <path d="M777 784 c-4 -4 7 -24 23 -45 55 -68 74 -125 74 -219 0 -71 -4 -94 -27 -144 -31 -68 -31 -66 -13 -66 18 0 63 104 71 167 12 89 -20 199 -82 281 -24 32 -34 38 -46 26z"/>
 <path d="M187 673 c-28 -60 -32 -78 -32 -154 0 -78 3 -91 37 -160 39 -79 70 -115 88 -104 7 4 0 20 -20 45 -55 69 -74 126 -74 220 0 85 4 99 62 213 2 4 -4 7 -13 7 -10 0 -28 -25 -48 -67z"/>
 <path d="M290 525 l0 -145 75 0 c92 0 119 12 145 65 35 73 21 160 -35 203 -23 18 -41 22 -106 22 l-79 0 0 -145z m166 82 c23 -20 27 -31 28 -81 0 -52 -3 -61 -27 -82 -22 -18 -40 -24 -78 -24 l-49 0 0 105 0 105 49 0 c38 0 57 -6 77 -23z"/>
 <path d="M650 545 l0 -125 -45 0 c-38 0 -45 -3 -45 -20 0 -19 7 -20 110 -20 103 0 110 1 110 20 0 17 -7 20 -45 20 l-45 0 0 125 c0 118 -1 125 -20 125 -19 0 -20 -7 -20 -125z"/>
 <path d="M786 281 c-12 -14 -14 -21 -6 -26 17 -10 47 22 34 35 -7 7 -16 4 -28 -9z"/>
 </g>
<g id="layer112" fill="#887c62" stroke="none">
 <path d="M0 525 l0 -525 238 1 c130 0 231 3 224 6 -25 10 0 23 33 17 18 -3 66 -1 107 5 106 16 206 68 285 149 70 71 95 77 42 11 -66 -83 -189 -156 -304 -179 -25 -5 49 -8 198 -9 l237 -1 0 525 0 525 -530 0 -530 0 0 -525z m694 485 c159 -55 273 -169 327 -327 33 -95 33 -231 0 -325 -12 -38 -27 -68 -32 -68 -12 0 -12 2 10 68 29 87 35 175 17 260 -72 344 -470 510 -758 316 -28 -19 -55 -37 -60 -40 -4 -3 -8 1 -8 8 0 31 146 107 245 128 61 14 193 3 259 -20z m-49 -36 c61 -15 84 -28 72 -40 -4 -4 -27 1 -53 11 -65 24 -201 23 -275 -3 -97 -34 -182 -101 -235 -185 -92 -143 -89 -342 6 -483 34 -51 35 -54 18 -54 -18 0 -56 58 -85 131 -68 169 -26 368 106 500 119 119 287 165 446 123z m13 -50 c29 -8 55 -21 58 -28 3 -8 19 -16 36 -20 18 -3 32 -14 35 -25 3 -11 14 -21 26 -23 29 -4 103 -116 123 -186 36 -124 15 -254 -59 -361 -46 -66 -140 -140 -202 -161 -139 -46 -340 -13 -390 64 -10 14 -25 26 -35 26 -24 0 -87 86 -112 153 -23 60 -39 147 -29 162 3 6 6 33 7 62 1 111 103 252 226 312 100 50 198 57 316 25z m159 -33 c121 -95 189 -240 181 -387 -5 -90 -25 -79 -25 13 -1 87 -19 161 -57 225 -30 51 -109 134 -148 154 -16 8 -28 19 -28 24 0 20 30 9 77 -29z m-681 -70 c-50 -68 -83 -144 -97 -224 -33 -194 70 -409 244 -507 31 -17 57 -36 57 -41 0 -14 -12 -11 -65 20 -113 65 -194 165 -236 288 -33 95 -33 231 0 326 26 77 95 187 118 187 10 0 4 -15 -21 -49z m839 -450 c-26 -75 -58 -126 -114 -182 -118 -118 -287 -165 -444 -124 -66 17 -157 61 -157 75 0 15 23 12 48 -6 82 -57 261 -74 366 -35 135 50 228 146 285 294 17 43 32 23 16 -22z m-754 -171 c18 -10 27 -40 12 -40 -10 0 -43 32 -43 42 0 11 7 10 31 -2z m197 -175 c-3 -12 -29 -8 -43 7 -7 6 -1 8 18 6 15 -2 26 -7 25 -13z"/>
 <path d="M253 775 c-3 -9 -3 -19 1 -22 8 -9 37 18 30 28 -8 14 -24 11 -31 -6z"/>
 <path d="M777 784 c-4 -4 7 -24 23 -45 55 -68 74 -125 74 -219 0 -71 -4 -94 -27 -144 -31 -68 -31 -66 -13 -66 18 0 63 104 71 167 12 89 -20 199 -82 281 -24 32 -34 38 -46 26z"/>
 <path d="M187 673 c-28 -60 -32 -78 -32 -154 0 -78 3 -91 37 -160 39 -79 70 -115 88 -104 7 4 0 20 -20 45 -55 69 -74 126 -74 220 0 85 4 99 62 213 2 4 -4 7 -13 7 -10 0 -28 -25 -48 -67z"/>
 <path d="M290 525 l0 -145 75 0 c92 0 119 12 145 65 35 73 21 160 -35 203 -23 18 -41 22 -106 22 l-79 0 0 -145z m166 82 c23 -20 27 -31 28 -81 0 -52 -3 -61 -27 -82 -22 -18 -40 -24 -78 -24 l-49 0 0 105 0 105 49 0 c38 0 57 -6 77 -23z"/>
 <path d="M650 545 l0 -125 -45 0 c-38 0 -45 -3 -45 -20 0 -19 7 -20 110 -20 103 0 110 1 110 20 0 17 -7 20 -45 20 l-45 0 0 125 c0 118 -1 125 -20 125 -19 0 -20 -7 -20 -125z"/>
 <path d="M786 281 c-12 -14 -14 -21 -6 -26 17 -10 47 22 34 35 -7 7 -16 4 -28 -9z"/>
 </g>
<g id="layer113" fill="#c89922" stroke="none">
 <path d="M0 525 l0 -525 238 0 c157 0 232 4 222 10 -19 12 -21 11 75 15 147 6 260 57 361 162 62 66 84 65 30 -1 -67 -83 -188 -154 -293 -175 -35 -6 15 -9 190 -10 l237 -1 0 525 0 525 -530 0 -530 0 0 -525z m626 504 c266 -48 458 -316 416 -581 -13 -86 -40 -158 -58 -158 -9 0 -7 13 7 49 79 210 13 444 -163 576 -67 50 -140 80 -233 95 -114 18 -261 -18 -350 -86 -50 -38 -55 -40 -55 -21 0 6 21 26 48 44 117 79 249 107 388 82z m44 -58 c46 -14 66 -28 57 -37 -4 -5 -32 0 -62 10 -73 25 -201 24 -276 -2 -97 -34 -182 -101 -235 -185 -92 -143 -89 -342 6 -483 34 -50 35 -54 19 -54 -15 0 -34 24 -66 85 -138 263 5 587 296 671 53 15 207 12 261 -5z m-12 -47 c29 -8 55 -21 58 -28 3 -8 19 -16 36 -20 18 -3 32 -14 35 -25 3 -11 14 -21 26 -23 29 -4 103 -116 123 -186 36 -124 15 -254 -59 -361 -46 -66 -140 -140 -202 -161 -139 -46 -340 -13 -390 64 -10 14 -25 26 -35 26 -24 0 -87 86 -112 153 -23 60 -39 147 -29 162 3 6 6 33 7 62 1 111 103 252 226 312 100 50 198 57 316 25z m148 -22 c124 -91 201 -248 192 -396 -5 -91 -25 -82 -25 11 -1 87 -19 161 -57 225 -30 51 -109 134 -148 154 -16 8 -28 19 -28 24 0 18 26 10 66 -18z m-650 -54 c-89 -122 -118 -202 -118 -328 0 -186 99 -354 257 -436 31 -17 50 -33 46 -37 -15 -15 -113 45 -177 109 -180 179 -202 462 -53 669 18 25 39 45 47 45 12 0 12 -4 -2 -22z m824 -468 c-17 -60 -74 -151 -125 -199 -148 -140 -359 -171 -542 -77 -29 14 -53 31 -53 36 0 15 23 12 48 -6 82 -57 261 -74 366 -35 135 50 228 146 285 294 14 37 32 26 21 -13z m-759 -180 c18 -10 27 -40 12 -40 -10 0 -43 32 -43 42 0 11 7 10 31 -2z m204 -171 c9 -13 -9 -17 -33 -8 -13 5 -21 13 -18 18 7 10 43 3 51 -10z"/>
 <path d="M253 775 c-3 -9 -3 -19 1 -22 8 -9 37 18 30 28 -8 14 -24 11 -31 -6z"/>
 <path d="M777 784 c-4 -4 7 -24 23 -45 55 -68 74 -125 74 -219 0 -71 -4 -94 -27 -144 -31 -68 -31 -66 -13 -66 18 0 63 104 71 167 12 89 -20 199 -82 281 -24 32 -34 38 -46 26z"/>
 <path d="M187 673 c-28 -60 -32 -78 -32 -154 0 -78 3 -91 37 -160 39 -79 70 -115 88 -104 7 4 0 20 -20 45 -55 69 -74 126 -74 220 0 85 4 99 62 213 2 4 -4 7 -13 7 -10 0 -28 -25 -48 -67z"/>
 <path d="M290 525 l0 -145 75 0 c92 0 119 12 145 65 35 73 21 160 -35 203 -23 18 -41 22 -106 22 l-79 0 0 -145z m166 82 c23 -20 27 -31 28 -81 0 -52 -3 -61 -27 -82 -22 -18 -40 -24 -78 -24 l-49 0 0 105 0 105 49 0 c38 0 57 -6 77 -23z"/>
 <path d="M650 545 l0 -125 -45 0 c-38 0 -45 -3 -45 -20 0 -19 7 -20 110 -20 103 0 110 1 110 20 0 17 -7 20 -45 20 l-45 0 0 125 c0 118 -1 125 -20 125 -19 0 -20 -7 -20 -125z"/>
 <path d="M786 281 c-12 -14 -14 -21 -6 -26 17 -10 47 22 34 35 -7 7 -16 4 -28 -9z"/>
 </g>
<g id="layer114" fill="#988b6b" stroke="none">
 <path d="M0 525 l0 -525 238 0 c157 0 232 4 222 10 -19 12 -21 11 75 15 147 6 260 57 361 162 62 66 84 65 30 -1 -67 -83 -188 -154 -293 -175 -35 -6 15 -9 190 -10 l237 -1 0 525 0 525 -530 0 -530 0 0 -525z m626 504 c266 -48 458 -316 416 -581 -13 -86 -40 -158 -58 -158 -9 0 -7 13 7 49 79 210 13 444 -163 576 -67 50 -140 80 -233 95 -114 18 -261 -18 -350 -86 -50 -38 -55 -40 -55 -21 0 6 21 26 48 44 117 79 249 107 388 82z m44 -58 c90 -28 78 -51 -14 -26 -100 27 -222 18 -309 -22 -93 -44 -169 -118 -214 -211 -33 -66 -38 -85 -41 -167 -5 -109 10 -172 63 -259 39 -65 39 -66 24 -66 -15 0 -34 24 -66 85 -138 263 5 587 296 671 53 15 207 12 261 -5z m-8 -46 c24 -9 48 -23 55 -31 6 -9 16 -13 21 -10 12 7 52 -22 52 -40 0 -8 9 -14 19 -14 43 0 123 -139 142 -244 30 -176 -69 -366 -233 -445 -86 -42 -170 -56 -248 -43 -84 15 -180 60 -191 89 -5 13 -17 23 -28 23 -24 0 -70 57 -105 129 -29 60 -51 164 -40 190 3 9 7 36 8 61 2 65 54 169 116 230 53 54 146 104 221 120 55 11 155 4 211 -15z m144 -23 c89 -65 160 -174 184 -282 14 -67 10 -172 -7 -178 -10 -3 -13 16 -13 73 0 93 -15 155 -53 220 -33 58 -98 127 -144 156 -18 12 -33 25 -33 30 0 17 27 9 66 -19z m-650 -54 c-89 -122 -118 -202 -118 -328 0 -186 99 -354 257 -436 31 -17 50 -33 46 -37 -15 -15 -113 45 -177 109 -180 179 -202 462 -53 669 18 25 39 45 47 45 12 0 12 -4 -2 -22z m825 -459 c-6 -44 -63 -142 -112 -194 -113 -119 -299 -173 -454 -131 -60 16 -155 63 -155 76 0 16 13 12 86 -22 65 -31 75 -33 184 -33 109 0 119 2 182 32 112 53 222 176 243 272 8 37 32 37 26 0z m-747 -201 c5 -9 7 -20 3 -24 -8 -8 -47 24 -47 38 0 15 32 5 44 -14z m191 -159 c9 -13 -9 -17 -33 -8 -13 5 -21 13 -18 18 7 10 43 3 51 -10z"/>
 <path d="M253 775 c-3 -9 -3 -19 1 -22 8 -9 37 18 30 28 -8 14 -24 11 -31 -6z"/>
 <path d="M777 784 c-4 -4 7 -24 23 -45 55 -68 74 -125 74 -219 0 -71 -4 -94 -27 -144 -31 -68 -31 -66 -13 -66 18 0 63 104 71 167 12 89 -20 199 -82 281 -24 32 -34 38 -46 26z"/>
 <path d="M187 673 c-28 -60 -32 -78 -32 -154 0 -78 3 -91 37 -160 39 -79 70 -115 88 -104 7 4 0 20 -20 45 -55 69 -74 126 -74 220 0 85 4 99 62 213 2 4 -4 7 -13 7 -10 0 -28 -25 -48 -67z"/>
 <path d="M290 525 l0 -145 75 0 c92 0 119 12 145 65 35 73 21 160 -35 203 -23 18 -41 22 -106 22 l-79 0 0 -145z m166 82 c23 -20 27 -31 28 -81 0 -52 -3 -61 -27 -82 -22 -18 -40 -24 -78 -24 l-49 0 0 105 0 105 49 0 c38 0 57 -6 77 -23z"/>
 <path d="M650 545 l0 -125 -45 0 c-38 0 -45 -3 -45 -20 0 -19 7 -20 110 -20 103 0 110 1 110 20 0 17 -7 20 -45 20 l-45 0 0 125 c0 118 -1 125 -20 125 -19 0 -20 -7 -20 -125z"/>
 <path d="M786 281 c-12 -14 -14 -21 -6 -26 17 -10 47 22 34 35 -7 7 -16 4 -28 -9z"/>
 </g>
<g id="layer115" fill="#ae9d76" stroke="none">
 <path d="M0 525 l0 -525 230 0 c179 0 229 3 227 13 -1 9 21 13 80 14 143 4 254 54 352 158 29 30 56 55 62 55 21 0 6 -24 -54 -83 -70 -70 -157 -120 -243 -141 -57 -14 -49 -14 174 -15 l232 -1 0 525 0 525 -530 0 -530 0 0 -525z m649 500 c274 -65 451 -348 386 -621 -17 -75 -35 -114 -50 -114 -8 0 -3 24 12 71 43 128 29 289 -35 399 -35 60 -113 142 -173 181 -156 100 -388 93 -539 -15 -55 -40 -60 -42 -60 -23 0 12 70 63 127 91 88 44 224 56 332 31z m39 -60 c23 -9 42 -21 42 -26 0 -13 -14 -11 -77 7 -40 12 -83 15 -147 12 -76 -3 -102 -9 -159 -35 -93 -44 -169 -118 -214 -211 -33 -66 -38 -85 -41 -167 -5 -109 10 -172 63 -259 19 -32 33 -61 31 -64 -14 -14 -39 16 -76 91 -36 73 -43 96 -47 169 -10 154 31 263 136 369 66 65 139 109 218 129 58 14 221 6 271 -15z m-26 -40 c24 -9 48 -23 55 -31 6 -9 16 -13 21 -10 12 7 52 -22 52 -40 0 -8 9 -14 19 -14 43 0 123 -139 142 -244 30 -176 -69 -366 -233 -445 -86 -42 -170 -56 -248 -43 -84 15 -180 60 -191 89 -5 13 -17 23 -28 23 -24 0 -70 57 -105 129 -29 60 -51 164 -40 190 3 9 7 36 8 61 2 65 54 169 116 230 53 54 146 104 221 120 55 11 155 4 211 -15z m144 -23 c88 -64 162 -176 184 -280 14 -63 9 -174 -7 -180 -10 -3 -13 16 -13 73 0 93 -15 155 -53 220 -33 58 -98 127 -144 156 -18 12 -33 25 -33 30 0 17 27 9 66 -19z m-643 -44 c-4 -7 -24 -37 -45 -67 -104 -148 -107 -376 -8 -531 40 -62 114 -132 183 -174 32 -19 53 -37 47 -41 -18 -11 -114 48 -175 110 -184 185 -205 458 -52 673 17 23 37 42 44 42 9 0 11 -5 6 -12z m820 -467 c-11 -89 -140 -245 -244 -294 -135 -63 -288 -64 -414 -1 -57 29 -72 41 -62 50 4 4 39 -8 79 -27 70 -32 78 -34 188 -34 109 0 119 2 182 32 112 53 222 176 243 272 8 35 31 37 28 2z m-749 -203 c5 -9 7 -20 3 -24 -8 -8 -47 24 -47 38 0 15 32 5 44 -14z m191 -159 c9 -13 -9 -17 -33 -8 -13 5 -21 13 -18 18 7 10 43 3 51 -10z"/>
 <path d="M253 775 c-3 -9 -3 -19 1 -22 8 -9 37 18 30 28 -8 14 -24 11 -31 -6z"/>
 <path d="M777 784 c-4 -4 7 -24 23 -45 55 -68 74 -125 74 -219 0 -71 -4 -94 -27 -144 -31 -68 -31 -66 -13 -66 18 0 63 104 71 167 12 89 -20 199 -82 281 -24 32 -34 38 -46 26z"/>
 <path d="M187 673 c-28 -60 -32 -78 -32 -154 0 -78 3 -91 37 -160 39 -79 70 -115 88 -104 7 4 0 20 -20 45 -55 69 -74 126 -74 220 0 85 4 99 62 213 2 4 -4 7 -13 7 -10 0 -28 -25 -48 -67z"/>
 <path d="M290 525 l0 -145 75 0 c92 0 119 12 145 65 35 73 21 160 -35 203 -23 18 -41 22 -106 22 l-79 0 0 -145z m166 82 c23 -20 27 -31 28 -81 0 -52 -3 -61 -27 -82 -22 -18 -40 -24 -78 -24 l-49 0 0 105 0 105 49 0 c38 0 57 -6 77 -23z"/>
 <path d="M650 545 l0 -125 -45 0 c-38 0 -45 -3 -45 -20 0 -19 7 -20 110 -20 103 0 110 1 110 20 0 17 -7 20 -45 20 l-45 0 0 125 c0 118 -1 125 -20 125 -19 0 -20 -7 -20 -125z"/>
 <path d="M786 281 c-12 -14 -14 -21 -6 -26 17 -10 47 22 34 35 -7 7 -16 4 -28 -9z"/>
 </g>
<g id="layer116" fill="#f8b91d" stroke="none">
 <path d="M0 525 l0 -525 230 0 c200 0 229 2 224 15 -5 13 7 15 73 15 140 0 264 52 358 151 31 33 61 59 66 59 21 0 6 -24 -54 -83 -70 -70 -157 -120 -243 -141 -57 -14 -49 -14 174 -15 l232 -1 0 525 0 525 -530 0 -530 0 0 -525z m649 500 c274 -65 451 -348 386 -621 -18 -79 -35 -114 -53 -114 -10 0 -12 5 -7 18 43 100 56 224 35 321 -29 133 -133 267 -256 329 -159 80 -355 67 -505 -34 -57 -38 -59 -39 -59 -21 0 12 70 63 127 91 88 44 224 56 332 31z m12 -51 c100 -29 95 -56 -5 -29 -100 27 -222 18 -309 -22 -93 -44 -169 -118 -214 -211 -33 -66 -38 -85 -41 -167 -5 -109 10 -172 63 -259 40 -67 40 -66 20 -66 -8 0 -28 21 -45 47 -86 137 -93 329 -18 478 27 52 122 151 176 182 103 61 259 80 373 47z m1 -49 c24 -9 48 -23 55 -31 6 -9 16 -13 21 -10 12 7 52 -22 52 -40 0 -8 9 -14 19 -14 43 0 123 -139 142 -244 30 -176 -69 -366 -233 -445 -86 -42 -170 -56 -248 -43 -84 15 -180 60 -191 89 -5 13 -17 23 -28 23 -24 0 -70 57 -105 129 -29 60 -51 164 -40 190 3 9 7 36 8 61 2 65 54 169 116 230 53 54 146 104 221 120 55 11 155 4 211 -15z m183 -57 c75 -70 109 -122 136 -209 24 -78 27 -219 4 -219 -12 0 -15 15 -15 76 0 93 -15 154 -53 219 -33 58 -98 127 -144 156 -37 23 -42 39 -13 39 10 0 49 -28 85 -62z m-675 -4 c0 -3 -11 -20 -26 -36 -65 -78 -104 -193 -104 -309 0 -180 104 -355 259 -434 37 -18 50 -30 43 -37 -17 -17 -110 40 -177 107 -184 185 -205 458 -52 673 26 36 57 56 57 36z m812 -475 c-5 -46 -55 -131 -112 -193 -65 -69 -125 -106 -214 -131 -114 -33 -304 -5 -378 55 -42 34 -9 33 64 -1 70 -32 78 -34 188 -34 109 0 119 2 182 32 112 53 222 176 243 272 8 37 31 36 27 0z m-748 -201 c5 -9 7 -20 3 -24 -8 -8 -47 24 -47 38 0 15 32 5 44 -14z m195 -154 c11 -11 -16 -21 -36 -13 -34 12 -29 33 4 24 16 -4 30 -9 32 -11z"/>
 <path d="M253 775 c-3 -9 -3 -19 1 -22 8 -9 37 18 30 28 -8 14 -24 11 -31 -6z"/>
 <path d="M777 784 c-4 -4 7 -24 23 -45 55 -68 74 -125 74 -219 0 -71 -4 -94 -27 -144 -31 -68 -31 -66 -13 -66 18 0 63 104 71 167 12 89 -20 199 -82 281 -24 32 -34 38 -46 26z"/>
 <path d="M187 673 c-28 -60 -32 -78 -32 -154 0 -78 3 -91 37 -160 39 -79 70 -115 88 -104 7 4 0 20 -20 45 -55 69 -74 126 -74 220 0 85 4 99 62 213 2 4 -4 7 -13 7 -10 0 -28 -25 -48 -67z"/>
 <path d="M290 525 l0 -145 75 0 c92 0 119 12 145 65 35 73 21 160 -35 203 -23 18 -41 22 -106 22 l-79 0 0 -145z m166 82 c23 -20 27 -31 28 -81 0 -52 -3 -61 -27 -82 -22 -18 -40 -24 -78 -24 l-49 0 0 105 0 105 49 0 c38 0 57 -6 77 -23z"/>
 <path d="M650 545 l0 -125 -45 0 c-38 0 -45 -3 -45 -20 0 -19 7 -20 110 -20 103 0 110 1 110 20 0 17 -7 20 -45 20 l-45 0 0 125 c0 118 -1 125 -20 125 -19 0 -20 -7 -20 -125z"/>
 <path d="M786 281 c-12 -14 -14 -21 -6 -26 17 -10 47 22 34 35 -7 7 -16 4 -28 -9z"/>
 </g>
<g id="layer117" fill="#a3a3a1" stroke="none">
 <path d="M0 525 l0 -525 230 0 c200 0 229 2 224 15 -5 13 7 15 73 15 140 0 264 52 358 151 31 33 61 59 66 59 21 0 6 -24 -54 -83 -70 -70 -157 -120 -243 -141 -57 -14 -49 -14 174 -15 l232 -1 0 525 0 525 -530 0 -530 0 0 -525z m649 500 c274 -65 451 -348 386 -621 -18 -79 -35 -114 -53 -114 -10 0 -12 5 -7 18 43 100 56 224 35 321 -29 133 -133 267 -256 329 -159 80 -355 67 -505 -34 -57 -38 -59 -39 -59 -21 0 12 70 63 127 91 88 44 224 56 332 31z m14 -52 c32 -9 61 -22 64 -30 3 -7 16 -13 29 -13 30 0 145 -107 181 -167 41 -70 63 -156 63 -244 0 -43 -4 -79 -9 -79 -5 0 -9 -15 -8 -33 2 -80 -119 -245 -220 -299 -83 -45 -155 -61 -257 -56 -106 6 -197 36 -238 80 -14 15 -30 28 -35 28 -14 0 -89 83 -115 130 -75 130 -78 313 -6 455 27 52 122 151 176 182 104 61 255 80 375 46z m-493 -109 c0 -3 -11 -20 -26 -36 -65 -78 -104 -193 -104 -309 0 -180 104 -355 259 -434 37 -18 50 -30 43 -37 -17 -17 -110 40 -177 107 -184 185 -205 458 -52 673 26 36 57 56 57 36z m259 -830 c11 -11 -16 -21 -36 -13 -34 12 -29 33 4 24 16 -4 30 -9 32 -11z"/>
 <path d="M253 775 c-3 -9 -3 -19 1 -22 8 -9 37 18 30 28 -8 14 -24 11 -31 -6z"/>
 <path d="M777 784 c-4 -4 7 -24 23 -45 55 -68 74 -125 74 -219 0 -71 -4 -94 -27 -144 -31 -68 -31 -66 -13 -66 18 0 63 104 71 167 12 89 -20 199 -82 281 -24 32 -34 38 -46 26z"/>
 <path d="M187 673 c-28 -60 -32 -78 -32 -154 0 -78 3 -91 37 -160 39 -79 70 -115 88 -104 7 4 0 20 -20 45 -55 69 -74 126 -74 220 0 85 4 99 62 213 2 4 -4 7 -13 7 -10 0 -28 -25 -48 -67z"/>
 <path d="M290 525 l0 -145 75 0 c92 0 119 12 145 65 35 73 21 160 -35 203 -23 18 -41 22 -106 22 l-79 0 0 -145z m166 82 c23 -20 27 -31 28 -81 0 -52 -3 -61 -27 -82 -22 -18 -40 -24 -78 -24 l-49 0 0 105 0 105 49 0 c38 0 57 -6 77 -23z"/>
 <path d="M650 545 l0 -125 -45 0 c-38 0 -45 -3 -45 -20 0 -19 7 -20 110 -20 103 0 110 1 110 20 0 17 -7 20 -45 20 l-45 0 0 125 c0 118 -1 125 -20 125 -19 0 -20 -7 -20 -125z"/>
 <path d="M786 281 c-12 -14 -14 -21 -6 -26 17 -10 47 22 34 35 -7 7 -16 4 -28 -9z"/>
 </g>
<g id="layer118" fill="#f89971" stroke="none">
 <path d="M0 525 l0 -525 230 0 c200 0 229 2 224 15 -5 13 7 15 73 15 140 0 264 52 358 151 31 33 61 59 66 59 23 0 4 -29 -58 -90 -72 -69 -143 -110 -233 -134 -53 -14 -46 -15 173 -15 l227 -1 0 525 0 525 -530 0 -530 0 0 -525z m655 500 c98 -25 165 -64 240 -140 114 -113 162 -239 152 -395 -7 -115 -45 -226 -70 -201 -5 5 -4 18 4 32 38 73 51 229 25 325 -34 128 -135 253 -252 312 -160 80 -355 67 -506 -34 -65 -44 -90 -30 -28 15 125 91 290 123 435 86z m8 -52 c32 -9 61 -22 64 -30 3 -7 16 -13 29 -13 30 0 145 -107 181 -167 41 -70 63 -156 63 -244 0 -43 -4 -79 -9 -79 -5 0 -9 -15 -8 -33 2 -80 -119 -245 -220 -299 -83 -45 -155 -61 -257 -56 -106 6 -197 36 -238 80 -14 15 -30 28 -35 28 -14 0 -89 83 -115 130 -75 130 -78 313 -6 455 27 52 122 151 176 182 104 61 255 80 375 46z m-517 -144 c-67 -79 -106 -193 -106 -310 0 -180 104 -355 258 -433 29 -14 52 -31 52 -36 0 -37 -127 37 -202 118 -145 158 -180 386 -86 578 37 78 87 139 101 125 6 -6 1 -20 -17 -42z m262 -785 c20 -6 33 -34 15 -34 -25 1 -53 14 -53 26 0 16 5 16 38 8z"/>
 <path d="M253 775 c-3 -9 -3 -19 1 -22 8 -9 37 18 30 28 -8 14 -24 11 -31 -6z"/>
 <path d="M777 784 c-4 -4 7 -24 23 -45 55 -68 74 -125 74 -219 0 -71 -4 -94 -27 -144 -31 -68 -31 -66 -13 -66 18 0 63 104 71 167 12 89 -20 199 -82 281 -24 32 -34 38 -46 26z"/>
 <path d="M187 673 c-28 -60 -32 -78 -32 -154 0 -78 3 -91 37 -160 39 -79 70 -115 88 -104 7 4 0 20 -20 45 -55 69 -74 126 -74 220 0 85 4 99 62 213 2 4 -4 7 -13 7 -10 0 -28 -25 -48 -67z"/>
 <path d="M290 525 l0 -145 75 0 c92 0 119 12 145 65 35 73 21 160 -35 203 -23 18 -41 22 -106 22 l-79 0 0 -145z m166 82 c23 -20 27 -31 28 -81 0 -52 -3 -61 -27 -82 -22 -18 -40 -24 -78 -24 l-49 0 0 105 0 105 49 0 c38 0 57 -6 77 -23z"/>
 <path d="M650 545 l0 -125 -45 0 c-38 0 -45 -3 -45 -20 0 -19 7 -20 110 -20 103 0 110 1 110 20 0 17 -7 20 -45 20 l-45 0 0 125 c0 118 -1 125 -20 125 -19 0 -20 -7 -20 -125z"/>
 <path d="M786 281 c-12 -14 -14 -21 -6 -26 17 -10 47 22 34 35 -7 7 -16 4 -28 -9z"/>
 </g>
<g id="layer119" fill="#e3ae92" stroke="none">
 <path d="M0 525 l0 -525 230 0 c200 0 229 2 224 15 -5 13 7 15 73 15 140 0 264 52 358 151 31 33 61 59 66 59 23 0 4 -29 -58 -90 -72 -69 -143 -110 -233 -134 -53 -14 -46 -15 173 -15 l227 -1 0 525 0 525 -530 0 -530 0 0 -525z m655 500 c98 -25 165 -64 240 -140 114 -113 162 -239 152 -395 -7 -115 -45 -226 -70 -201 -5 5 -4 18 4 32 38 73 51 229 25 325 -34 128 -135 253 -252 312 -160 80 -355 67 -506 -34 -65 -44 -90 -30 -28 15 125 91 290 123 435 86z m8 -52 c32 -9 61 -22 64 -30 3 -7 16 -13 29 -13 30 0 145 -107 181 -167 41 -70 63 -156 63 -244 0 -43 -4 -79 -9 -79 -5 0 -9 -15 -8 -33 2 -80 -119 -245 -220 -299 -83 -45 -155 -61 -257 -56 -106 6 -197 36 -238 80 -14 15 -30 28 -35 28 -14 0 -89 83 -115 130 -75 130 -78 313 -6 455 27 52 122 151 176 182 104 61 255 80 375 46z m-517 -144 c-67 -79 -106 -193 -106 -310 0 -180 104 -355 258 -433 29 -14 52 -31 52 -36 0 -37 -127 37 -202 118 -145 158 -180 386 -86 578 37 78 87 139 101 125 6 -6 1 -20 -17 -42z m262 -785 c20 -6 33 -34 15 -34 -25 1 -53 14 -53 26 0 16 5 16 38 8z"/>
 <path d="M253 775 c-3 -9 -3 -18 0 -21 9 -9 27 6 27 22 0 19 -19 18 -27 -1z"/>
 <path d="M780 780 c0 -6 16 -33 35 -61 72 -105 83 -231 31 -344 -14 -32 -24 -60 -22 -63 11 -10 30 14 52 65 30 67 34 192 9 263 -26 75 -105 180 -105 140z"/>
 <path d="M190 675 c-28 -58 -31 -76 -31 -153 0 -66 5 -99 20 -135 23 -54 80 -137 93 -137 16 0 8 21 -27 71 -72 105 -83 231 -31 344 28 62 31 75 17 75 -6 0 -24 -29 -41 -65z"/>
 <path d="M290 525 l0 -147 85 3 c75 4 87 7 110 30 54 53 53 179 -2 230 -21 21 -37 25 -109 28 l-84 3 0 -147z m166 82 c23 -20 27 -31 28 -81 0 -52 -3 -61 -27 -82 -22 -18 -40 -24 -78 -24 l-49 0 0 105 0 105 49 0 c38 0 57 -6 77 -23z"/>
 <path d="M650 545 l0 -125 -45 0 c-38 0 -45 -3 -45 -20 0 -19 7 -20 110 -20 103 0 110 1 110 20 0 17 -7 20 -45 20 l-45 0 0 125 c0 118 -1 125 -20 125 -19 0 -20 -7 -20 -125z"/>
 <path d="M787 283 c-10 -10 -8 -33 3 -33 5 0 14 9 20 20 8 15 8 20 -3 20 -8 0 -17 -3 -20 -7z"/>
 </g>
<g id="layer120" fill="#f5db9e" stroke="none">
 <path d="M0 525 l0 -525 230 0 c200 0 229 2 224 15 -5 13 6 15 68 15 146 0 254 45 360 152 37 37 70 63 73 58 10 -16 -11 -44 -73 -101 -64 -60 -139 -101 -222 -123 -53 -14 -46 -15 173 -15 l227 -1 0 525 0 525 -530 0 -530 0 0 -525z m655 500 c98 -25 165 -64 240 -140 114 -113 162 -239 152 -395 -7 -112 -45 -226 -68 -203 -5 5 1 33 12 63 26 69 35 196 20 272 -38 182 -197 341 -379 379 -76 15 -203 6 -271 -20 -30 -11 -79 -37 -109 -57 -36 -24 -58 -32 -64 -26 -12 12 48 59 115 91 104 50 242 64 352 36z m13 -51 c29 -8 56 -22 59 -30 3 -8 11 -13 19 -10 7 3 37 -13 67 -34 97 -69 169 -190 186 -312 10 -70 4 -148 -11 -148 -4 0 -5 -12 -2 -26 10 -39 -56 -164 -121 -229 -104 -103 -257 -155 -402 -134 -78 11 -186 58 -202 87 -6 12 -21 22 -32 24 -12 2 -27 12 -33 23 -6 10 -21 27 -33 38 -36 30 -92 155 -102 230 -28 203 77 401 261 491 111 55 220 64 346 30z m-537 -169 c-22 -32 -50 -83 -62 -114 -26 -70 -35 -197 -20 -273 27 -130 117 -253 235 -322 36 -21 66 -43 66 -47 0 -36 -128 40 -202 119 -173 188 -184 484 -26 676 49 60 56 28 9 -39z m277 -761 c20 -6 33 -34 15 -34 -25 1 -53 14 -53 26 0 16 5 16 38 8z"/>
 <path d="M261 776 c-8 -9 -11 -19 -7 -23 9 -9 29 13 24 27 -2 8 -8 7 -17 -4z"/>
 <path d="M780 782 c0 -7 16 -32 35 -58 72 -94 86 -247 32 -356 -28 -57 -27 -77 3 -38 59 78 66 249 15 352 -27 55 -85 123 -85 100z"/>
 <path d="M193 683 c-25 -52 -28 -68 -28 -163 0 -94 3 -111 27 -160 27 -55 88 -125 88 -102 0 7 -16 32 -35 58 -72 94 -85 246 -32 357 30 59 32 67 18 67 -5 0 -22 -26 -38 -57z"/>
 <path d="M290 525 l0 -147 85 3 c75 4 87 7 110 30 54 53 53 179 -2 230 -21 21 -37 25 -109 28 l-84 3 0 -147z m166 82 c23 -20 27 -31 28 -81 0 -52 -3 -61 -27 -82 -22 -18 -40 -24 -78 -24 l-49 0 0 105 0 105 49 0 c38 0 57 -6 77 -23z"/>
 <path d="M650 545 l0 -125 -45 0 c-38 0 -45 -3 -45 -20 0 -19 7 -20 110 -20 103 0 110 1 110 20 0 17 -7 20 -45 20 l-45 0 0 125 c0 118 -1 125 -20 125 -19 0 -20 -7 -20 -125z"/>
 <path d="M783 275 c-9 -25 2 -27 22 -5 17 18 17 20 1 20 -9 0 -19 -7 -23 -15z"/>
 </g>
<g id="layer121" fill="#f4a6de" stroke="none">
 <path d="M0 525 l0 -525 231 0 c208 0 230 2 219 15 -9 11 -15 12 -20 5 -9 -14 -57 -3 -64 15 -3 8 -13 11 -25 8 -30 -8 -130 58 -193 125 -145 158 -180 386 -86 578 33 68 85 137 98 129 9 -6 25 13 25 30 0 17 107 83 170 105 84 30 212 37 295 16 102 -26 168 -64 245 -141 114 -113 162 -239 152 -395 -6 -101 -30 -177 -64 -206 -13 -11 -26 -34 -28 -50 -2 -20 -22 -46 -67 -89 -69 -65 -141 -106 -228 -129 -53 -14 -46 -15 173 -15 l227 -1 0 525 0 525 -530 0 -530 0 0 -525z"/>
 <path d="M261 776 c-8 -10 -9 -16 -1 -21 5 -3 13 1 16 10 9 22 -1 29 -15 11z"/>
 <path d="M780 782 c0 -7 16 -32 35 -58 71 -93 86 -247 33 -354 -34 -68 -16 -75 19 -8 25 48 28 63 28 153 0 89 -3 107 -28 162 -27 58 -87 130 -87 105z"/>
 <path d="M211 709 c-61 -99 -67 -235 -17 -346 26 -58 86 -131 86 -105 0 7 -16 32 -35 58 -73 95 -86 246 -31 359 31 63 28 86 -3 34z"/>
 <path d="M290 525 l0 -145 65 0 c119 0 165 39 165 140 0 111 -43 150 -165 150 l-65 0 0 -145z m166 82 c23 -20 27 -31 28 -81 0 -52 -3 -61 -27 -82 -22 -19 -40 -24 -83 -24 l-54 0 0 105 0 105 54 0 c43 0 61 -5 82 -23z"/>
 <path d="M650 545 l0 -125 -45 0 c-38 0 -45 -3 -45 -20 0 -19 7 -20 110 -20 103 0 110 1 110 20 0 17 -7 20 -50 20 l-50 0 0 125 c0 104 -2 125 -15 125 -13 0 -15 -21 -15 -125z"/>
 <path d="M787 283 c-4 -3 -7 -13 -7 -21 0 -12 3 -12 15 -2 8 7 15 16 15 21 0 11 -14 12 -23 2z"/>
 </g>
<g id="layer122" fill="#e9d1dc" stroke="none">
 <path d="M0 525 l0 -525 231 0 c208 0 230 2 219 15 -9 11 -15 12 -20 5 -9 -14 -57 -3 -64 15 -3 8 -13 11 -25 8 -30 -8 -130 58 -193 125 -145 158 -180 386 -86 578 33 68 85 137 98 129 9 -6 25 13 25 30 0 17 107 83 170 105 84 30 212 37 295 16 102 -26 168 -64 245 -141 114 -113 162 -239 152 -395 -6 -101 -30 -177 -64 -206 -13 -11 -26 -34 -28 -50 -2 -20 -22 -46 -67 -89 -69 -65 -141 -106 -228 -129 -53 -14 -46 -15 173 -15 l227 -1 0 525 0 525 -530 0 -530 0 0 -525z"/>
 <path d="M261 776 c-8 -10 -9 -16 -1 -21 5 -3 13 1 16 10 9 22 -1 29 -15 11z"/>
 <path d="M780 782 c0 -7 16 -32 35 -58 71 -93 86 -247 33 -354 -34 -68 -16 -75 19 -8 25 48 28 63 28 153 0 89 -3 107 -28 162 -27 58 -87 130 -87 105z"/>
 <path d="M211 709 c-61 -99 -67 -235 -17 -346 26 -58 86 -131 86 -105 0 7 -16 32 -35 58 -73 95 -86 246 -31 359 31 63 28 86 -3 34z"/>
 <path d="M290 525 l0 -145 65 0 c119 0 165 39 165 140 0 111 -43 150 -165 150 l-65 0 0 -145z m155 99 c41 -16 58 -109 30 -163 -18 -35 -32 -41 -101 -41 l-54 0 0 105 0 105 54 0 c30 0 62 -3 71 -6z"/>
 <path d="M650 545 l0 -125 -45 0 c-38 0 -45 -3 -45 -20 0 -19 7 -20 110 -20 103 0 110 1 110 20 0 17 -7 20 -50 20 l-50 0 0 125 c0 104 -2 125 -15 125 -13 0 -15 -21 -15 -125z"/>
 <path d="M787 283 c-4 -3 -7 -13 -7 -21 0 -12 3 -12 15 -2 8 7 15 16 15 21 0 11 -14 12 -23 2z"/>
 </g>
<g id="layer123" fill="#fffefe" stroke="none">
 <path d="M0 525 l0 -525 225 0 c139 0 225 4 225 10 0 5 -13 7 -29 4 -22 -5 -34 -1 -46 14 -10 11 -25 17 -35 15 -29 -8 -118 46 -180 108 -159 160 -197 407 -94 611 27 54 80 118 98 118 6 0 16 10 21 23 13 28 89 79 163 108 79 31 236 38 318 14 181 -52 317 -188 369 -369 24 -82 17 -239 -14 -318 -12 -32 -28 -58 -36 -58 -14 0 -25 -21 -25 -50 0 -23 -101 -124 -159 -158 -25 -15 -75 -37 -111 -49 l-65 -22 218 -1 217 0 0 525 0 525 -530 0 -530 0 0 -525z"/>
 <path d="M255 770 c-3 -5 -2 -10 4 -10 5 0 13 5 16 10 3 6 2 10 -4 10 -5 0 -13 -4 -16 -10z"/>
 <path d="M801 749 c63 -83 74 -116 74 -229 0 -91 -3 -111 -23 -148 -13 -24 -21 -49 -19 -55 3 -7 17 15 32 47 36 77 44 179 21 258 -17 60 -72 149 -96 157 -9 3 -5 -8 11 -30z"/>
 <path d="M210 709 c-49 -81 -63 -201 -35 -296 17 -57 72 -144 95 -152 9 -3 5 8 -11 30 -63 83 -74 116 -74 229 0 96 2 110 28 158 32 60 30 83 -3 31z"/>
 <path d="M290 525 l0 -145 58 0 c127 0 172 37 172 140 0 111 -42 148 -167 149 l-63 1 0 -145z m171 86 c18 -14 23 -31 27 -79 4 -55 2 -63 -21 -86 -22 -22 -35 -26 -87 -26 l-60 0 0 105 0 105 59 0 c42 0 65 -5 82 -19z"/>
 <path d="M660 545 l0 -125 -50 0 c-43 0 -50 -3 -50 -20 0 -19 7 -20 110 -20 103 0 110 1 110 20 0 17 -7 20 -50 20 l-50 0 0 125 c0 77 -4 125 -10 125 -6 0 -10 -48 -10 -125z"/>
 <path d="M790 275 c-8 -9 -8 -15 -2 -15 12 0 26 19 19 26 -2 2 -10 -2 -17 -11z"/>
 </g>

</svg>