<!DOCTYPE svg PUBLIC "-//W3C//DTD SVG 20010904//EN" "http://www.w3.org/TR/2001/REC-SVG-20010904/DTD/svg10.dtd">
<svg version="1.0" xmlns="http://www.w3.org/2000/svg" width="118px" height="109px" viewBox="0 0 1180 1090" preserveAspectRatio="xMidYMid meet">
<g id="layer101" fill="#010003" stroke="none">
 <path d="M0 545 l0 -545 590 0 590 0 0 545 0 545 -590 0 -590 0 0 -545z"/>
 </g>
<g id="layer102" fill="#031221" stroke="none">
 <path d="M0 545 l0 -545 590 0 590 0 0 545 0 545 -590 0 -590 0 0 -545z m430 112 c0 -35 6 -49 29 -71 l29 -28 32 43 c17 24 39 56 48 72 9 15 25 27 35 27 22 0 21 -2 -46 -93 l-50 -68 54 -55 c30 -31 47 -54 38 -54 -8 0 -46 32 -84 70 -38 39 -73 70 -77 70 -5 0 -8 -31 -8 -70 0 -40 -4 -70 -10 -70 -6 0 -10 52 -10 135 0 83 4 135 10 135 6 0 10 -19 10 -43z m340 -13 c0 -52 4 -62 56 -135 39 -56 51 -79 39 -79 -8 0 -33 28 -55 62 -22 34 -42 63 -44 65 -2 2 -22 -26 -46 -62 -23 -36 -49 -65 -57 -65 -17 0 -17 -1 54 105 28 42 33 59 33 107 0 32 4 58 10 58 6 0 10 -25 10 -56z"/>
 </g>
<g id="layer103" fill="#002a44" stroke="none">
 <path d="M0 545 l0 -545 590 0 590 0 0 545 0 545 -590 0 -590 0 0 -545z m440 107 c0 -38 5 -53 24 -71 l24 -23 49 71 c35 52 54 70 71 71 21 0 17 -8 -39 -81 l-62 -81 59 -54 c46 -41 55 -53 39 -54 -12 0 -47 26 -85 65 -35 36 -68 65 -72 65 -4 0 -8 -29 -8 -65 0 -51 -3 -65 -15 -65 -13 0 -15 22 -15 135 0 113 2 135 15 135 11 0 15 -12 15 -48z m340 -13 c0 -55 4 -66 43 -122 59 -84 61 -87 43 -87 -8 0 -34 27 -56 60 -22 33 -43 60 -45 60 -2 0 -23 -27 -45 -60 -22 -33 -47 -60 -55 -60 -8 0 -15 2 -15 5 0 3 23 39 50 80 45 67 50 80 50 130 0 42 3 55 15 55 12 0 15 -13 15 -61z"/>
 </g>
<g id="layer104" fill="#0c5c16" stroke="none">
 <path d="M0 545 l0 -545 590 0 590 0 0 545 0 545 -590 0 -590 0 0 -545z m440 112 c0 -34 6 -49 26 -68 l25 -24 20 25 c10 14 32 44 47 67 19 31 34 43 51 43 17 0 21 -3 14 -12 -78 -102 -103 -138 -103 -144 0 -5 23 -32 52 -61 42 -42 48 -53 32 -53 -11 0 -48 28 -84 65 -35 36 -68 65 -72 65 -4 0 -8 -29 -8 -65 0 -51 -3 -65 -15 -65 -13 0 -15 22 -15 135 0 113 2 135 15 135 11 0 15 -11 15 -43z m340 -17 c0 -56 3 -65 50 -130 28 -39 50 -72 50 -75 0 -3 -7 -5 -15 -5 -8 0 -33 27 -55 60 -22 33 -42 60 -44 60 -2 0 -21 -27 -42 -60 -23 -35 -46 -60 -56 -60 -10 0 -18 2 -18 5 0 3 23 39 50 80 45 67 50 80 50 130 0 42 3 55 15 55 12 0 15 -13 15 -60z"/>
 </g>
<g id="layer105" fill="#02576e" stroke="none">
 <path d="M0 545 l0 -545 590 0 590 0 0 545 0 545 -590 0 -590 0 0 -545z m440 112 c0 -33 6 -49 25 -67 14 -13 26 -22 28 -19 2 2 23 32 47 67 33 48 49 62 68 62 18 0 22 -3 15 -12 -78 -102 -103 -138 -103 -144 0 -5 23 -32 52 -61 48 -49 50 -53 28 -53 -17 0 -46 21 -92 67 l-68 67 0 -67 c0 -53 -3 -67 -15 -67 -13 0 -15 22 -15 135 0 113 2 135 15 135 11 0 15 -11 15 -43z m340 -17 c0 -56 3 -65 50 -130 28 -39 50 -72 50 -75 0 -3 -9 -5 -19 -5 -13 0 -32 20 -57 60 -20 33 -38 60 -39 60 -2 0 -20 -27 -41 -60 -29 -44 -45 -60 -62 -60 -21 0 -19 6 30 78 45 66 53 85 56 135 3 40 9 57 18 57 10 0 14 -16 14 -60z"/>
 </g>
<g id="layer106" fill="#06737b" stroke="none">
 <path d="M0 545 l0 -545 590 0 590 0 0 545 0 545 -590 0 -590 0 0 -545z m705 415 c13 -5 -22 -8 -95 -8 -72 0 -106 3 -90 8 34 11 160 11 185 0z m-265 -303 c0 -33 6 -49 25 -67 14 -13 26 -22 28 -19 2 2 23 32 47 67 33 47 49 62 67 62 28 0 27 -1 -32 -80 -23 -30 -45 -61 -49 -68 -6 -10 9 -31 45 -68 49 -49 51 -54 29 -54 -17 0 -46 21 -92 67 l-68 67 0 -67 c0 -53 -3 -67 -15 -67 -13 0 -15 22 -15 135 0 113 2 135 15 135 11 0 15 -11 15 -43z m340 -13 c0 -52 4 -62 55 -135 53 -76 54 -79 31 -79 -19 0 -33 13 -62 60 -20 33 -38 60 -39 60 -1 0 -19 -27 -39 -60 -29 -47 -43 -60 -62 -60 -24 0 -23 3 28 78 45 66 53 85 56 135 3 40 9 57 18 57 10 0 14 -15 14 -56z"/>
 </g>
<g id="layer107" fill="#0d937b" stroke="none">
 <path d="M0 545 l0 -545 590 0 590 0 0 545 0 545 -590 0 -590 0 0 -545z m776 391 c38 -19 87 -54 109 -77 l40 -42 -46 36 c-25 20 -72 49 -105 64 -51 24 -71 28 -154 28 -82 0 -103 -4 -152 -27 -31 -14 -76 -45 -101 -67 -24 -23 -47 -41 -51 -41 -28 0 52 83 108 112 74 38 111 47 197 47 79 1 92 -2 155 -33z m-6 -48 c30 -14 69 -38 85 -52 l30 -25 -259 -1 c-232 0 -257 2 -246 15 76 92 265 122 390 63z m-328 -230 c-3 -36 1 -47 22 -67 14 -14 27 -23 29 -20 2 2 23 32 47 67 33 47 49 62 67 62 28 0 28 0 -40 -93 l-50 -68 54 -55 c49 -49 51 -54 29 -54 -17 0 -46 21 -92 67 l-68 67 0 -67 c0 -53 -3 -67 -15 -67 -13 0 -15 22 -15 135 0 122 2 135 18 135 14 0 17 -7 14 -42z m338 -14 c0 -52 4 -62 56 -135 53 -76 54 -79 30 -79 -20 0 -32 12 -62 60 l-37 61 -40 -61 c-30 -46 -45 -60 -64 -60 -23 0 -21 4 29 78 45 66 53 85 56 135 3 40 9 57 18 57 10 0 14 -15 14 -56z"/>
 </g>
<g id="layer108" fill="#1f778a" stroke="none">
 <path d="M0 545 l0 -545 590 0 590 0 0 545 0 545 -590 0 -590 0 0 -545z m824 457 c3 -5 -1 -9 -9 -9 -8 0 -12 4 -9 9 3 4 7 8 9 8 2 0 6 -4 9 -8z m-101 -34 c-4 -7 15 -12 44 -11 7 1 11 -3 8 -7 -6 -9 55 -36 70 -32 6 2 7 0 3 -4 -9 -8 32 -40 45 -36 5 1 6 -2 3 -7 -5 -8 23 -39 31 -33 1 1 2 1 1 0 -6 -9 25 -47 34 -42 6 4 8 3 5 -3 -4 -6 5 -36 19 -67 14 -31 24 -62 21 -69 -3 -7 -7 -4 -12 8 -43 118 -115 202 -214 249 -60 28 -75 31 -161 31 -87 0 -100 -3 -161 -33 -81 -40 -148 -109 -190 -195 -26 -51 -30 -56 -25 -27 4 19 15 53 26 74 10 22 16 44 13 50 -3 6 -3 8 2 4 4 -4 21 9 36 29 16 20 29 32 29 28 0 -5 9 0 20 10 11 10 17 22 13 28 -3 5 -1 7 4 4 6 -4 37 5 69 20 38 17 84 29 129 32 96 8 144 7 138 -1z m162 -28 c3 -5 4 -10 1 -10 -3 0 -8 5 -11 10 -3 6 -4 10 -1 10 3 0 8 -4 11 -10z m-121 -48 c95 -43 171 -125 196 -211 l9 -31 -95 0 -94 0 0 -30 c0 -20 16 -53 48 -97 68 -96 67 -93 38 -93 -20 0 -33 13 -62 60 l-36 59 -39 -59 c-31 -48 -44 -60 -64 -60 -25 0 -25 1 26 76 32 48 52 88 53 108 l1 31 -72 3 -72 3 -41 -57 -42 -56 53 -51 c51 -48 53 -51 30 -55 -18 -3 -38 10 -87 59 l-64 63 0 -46 c0 -56 -7 -78 -26 -78 -10 0 -14 25 -16 108 l-3 107 -62 3 c-68 3 -73 8 -51 59 39 91 111 157 211 194 70 26 192 22 261 -9z m156 -646 c0 -3 -5 -8 -12 -12 -7 -4 -8 -3 -4 4 7 12 16 16 16 8z m90 -50 c0 -3 -5 -8 -12 -12 -7 -4 -8 -3 -4 4 7 12 16 16 16 8z m-100 -40 c0 -3 -5 -8 -12 -12 -7 -4 -8 -3 -4 4 7 12 16 16 16 8z m-310 -70 c0 -3 -5 -8 -12 -12 -7 -4 -8 -3 -4 4 7 12 16 16 16 8z"/>
 <path d="M450 627 c0 -21 35 -67 43 -56 17 22 47 68 47 73 0 3 -20 6 -45 6 -41 0 -45 -2 -45 -23z"/>
 </g>
<g id="layer109" fill="#0fac76" stroke="none">
 <path d="M0 545 l0 -545 590 0 590 0 0 545 0 545 -590 0 -590 0 0 -545z m824 457 c3 -5 -1 -9 -9 -9 -8 0 -12 4 -9 9 3 4 7 8 9 8 2 0 6 -4 9 -8z m-101 -34 c-4 -7 15 -12 44 -11 7 1 11 -3 8 -7 -6 -9 55 -36 70 -32 6 2 7 0 3 -4 -9 -8 32 -40 45 -36 5 1 6 -2 3 -7 -5 -8 23 -39 31 -33 1 1 3 -1 4 -5 3 -21 21 -43 31 -37 6 4 8 3 5 -3 -4 -6 5 -36 19 -67 14 -31 24 -62 21 -69 -3 -7 -7 -4 -12 8 -27 75 -62 130 -115 178 -192 178 -485 122 -606 -116 -29 -57 -35 -65 -30 -37 4 19 15 53 26 74 10 22 16 44 13 49 -3 6 -2 8 3 5 5 -4 20 9 34 27 14 19 35 39 48 44 14 7 20 16 16 23 -4 6 -3 8 4 4 6 -3 26 3 45 14 19 12 64 27 99 35 65 14 200 16 191 3z m162 -28 c3 -5 4 -10 1 -10 -3 0 -8 5 -11 10 -3 6 -4 10 -1 10 3 0 8 -4 11 -10z m-108 -53 c93 -48 159 -122 183 -206 l9 -31 -95 0 -94 0 0 -30 c0 -20 16 -53 48 -97 68 -96 67 -93 38 -93 -20 0 -33 13 -62 60 l-36 59 -39 -59 c-31 -48 -44 -60 -64 -60 -25 0 -25 1 26 76 32 48 52 88 53 108 l1 31 -72 3 -72 3 -41 -57 -42 -56 53 -51 c51 -48 53 -51 30 -55 -18 -3 -38 10 -87 59 l-64 63 0 -46 c0 -56 -7 -78 -26 -78 -10 0 -14 25 -16 108 l-3 107 -62 3 c-68 3 -73 8 -51 59 38 89 102 150 197 190 48 20 69 23 146 20 74 -3 100 -8 142 -30z m143 -641 c0 -3 -5 -8 -12 -12 -7 -4 -8 -3 -4 4 7 12 16 16 16 8z m90 -50 c0 -3 -5 -8 -12 -12 -7 -4 -8 -3 -4 4 7 12 16 16 16 8z m-100 -40 c0 -3 -5 -8 -12 -12 -7 -4 -8 -3 -4 4 7 12 16 16 16 8z m-310 -70 c0 -3 -5 -8 -12 -12 -7 -4 -8 -3 -4 4 7 12 16 16 16 8z"/>
 <path d="M450 627 c0 -21 35 -67 43 -56 17 22 47 68 47 73 0 3 -20 6 -45 6 -41 0 -45 -2 -45 -23z"/>
 </g>
<g id="layer110" fill="#13c66e" stroke="none">
 <path d="M0 545 l0 -545 590 0 590 0 0 545 0 545 -590 0 -590 0 0 -545z m745 496 c142 -44 199 -75 269 -145 100 -99 146 -211 146 -351 0 -128 -43 -242 -127 -336 -62 -68 -127 -105 -270 -155 -109 -37 -140 -44 -208 -44 -152 0 -258 43 -366 150 -107 106 -159 231 -159 385 0 149 53 277 158 382 147 147 329 184 557 114z"/>
 <path d="M460 1059 c-91 -16 -194 -71 -265 -142 -286 -286 -157 -781 230 -882 73 -19 174 -19 240 -1 50 14 50 14 14 15 -61 2 -270 60 -331 93 -75 40 -161 131 -198 210 -95 203 -26 447 162 568 65 42 238 103 328 115 43 6 50 9 34 16 -37 13 -157 18 -214 8z"/>
 <path d="M616 1019 c-69 -10 -85 -19 -33 -19 201 0 391 -148 443 -345 66 -246 -100 -509 -351 -556 -89 -17 -95 -22 -40 -29 56 -8 150 3 171 21 7 6 18 8 24 4 17 -11 124 53 178 106 188 188 188 500 0 688 -42 41 -150 111 -171 111 -4 0 26 -33 66 -72 86 -87 130 -169 154 -283 35 -172 -21 -355 -147 -483 -34 -34 -66 -62 -72 -62 -6 0 12 20 40 45 112 101 174 238 175 389 1 154 -51 282 -154 385 -93 91 -165 117 -283 100z"/>
 <path d="M485 974 c-22 -9 -51 -17 -65 -18 -83 -8 -202 -112 -257 -224 -37 -75 -38 -78 -38 -191 0 -110 2 -119 32 -181 56 -114 139 -191 253 -233 42 -16 43 -16 20 0 -50 33 -139 132 -163 179 -76 151 -77 326 -2 474 27 52 107 146 139 161 11 5 3 -6 -19 -27 l-40 -36 35 21 c62 39 114 59 183 71 37 7 67 14 67 16 0 11 -110 1 -145 -12z"/>
 <path d="M663 973 c4 -3 10 -3 14 0 3 4 0 7 -7 7 -7 0 -10 -3 -7 -7z"/>
 <path d="M530 937 c-111 -32 -198 -100 -248 -194 -35 -67 -54 -166 -43 -233 4 -25 6 -63 5 -85 -5 -89 108 -245 218 -301 47 -24 60 -26 144 -22 81 3 100 8 165 40 112 55 195 146 233 256 13 36 13 44 2 48 -11 4 -11 14 -4 47 13 56 4 141 -23 213 -31 83 -131 182 -214 213 -74 28 -175 35 -235 18z m258 -56 c74 -40 125 -94 159 -167 27 -60 40 -170 26 -224 -8 -32 -12 -35 -51 -38 -23 -2 -40 -7 -37 -13 4 -5 -5 -9 -20 -9 -14 0 -28 6 -30 13 -6 14 -124 11 -140 -4 -12 -12 -58 -12 -50 1 3 6 -1 10 -10 10 -9 0 -13 -5 -10 -10 4 -6 -6 -10 -24 -10 -16 0 -33 5 -36 10 -8 13 -115 13 -115 0 0 -13 -37 -13 -45 0 -3 6 -33 10 -65 10 -56 0 -60 1 -67 28 -14 48 -7 158 12 208 39 104 100 167 204 211 48 20 69 23 146 20 80 -3 97 -7 153 -36z"/>
 </g>
<g id="layer111" fill="#2faf8b" stroke="none">
 <path d="M0 545 l0 -545 590 0 590 0 0 545 0 545 -590 0 -590 0 0 -545z m745 496 c142 -44 199 -75 269 -145 100 -99 146 -211 146 -351 0 -128 -43 -242 -127 -336 -62 -68 -127 -105 -270 -155 -109 -37 -140 -44 -208 -44 -152 0 -258 43 -366 150 -107 106 -159 231 -159 385 0 149 53 277 158 382 147 147 329 184 557 114z"/>
 <path d="M460 1059 c-91 -16 -194 -71 -265 -142 -286 -286 -157 -781 230 -882 73 -19 174 -19 240 -1 50 14 50 14 14 15 -61 2 -270 60 -331 93 -75 40 -161 131 -198 210 -95 203 -26 447 162 568 65 42 238 103 328 115 43 6 50 9 34 16 -37 13 -157 18 -214 8z"/>
 <path d="M616 1019 c-69 -10 -85 -19 -33 -19 201 0 391 -148 443 -345 66 -246 -100 -509 -351 -556 -89 -17 -95 -22 -40 -29 56 -8 150 3 171 21 7 6 18 8 24 4 17 -11 124 53 178 106 188 188 188 500 0 688 -42 41 -150 111 -171 111 -4 0 26 -33 66 -72 86 -87 130 -169 154 -283 35 -172 -21 -355 -147 -483 -34 -34 -66 -62 -72 -62 -6 0 12 20 40 45 112 101 174 238 175 389 1 154 -51 282 -154 385 -93 91 -165 117 -283 100z"/>
 <path d="M485 974 c-22 -9 -51 -17 -65 -18 -83 -8 -202 -112 -257 -224 -37 -75 -38 -78 -38 -191 0 -110 2 -119 32 -181 56 -114 139 -191 253 -233 42 -16 43 -16 20 0 -50 33 -139 132 -163 179 -76 151 -77 326 -2 474 27 52 107 146 139 161 11 5 3 -6 -19 -27 l-40 -36 35 21 c62 39 114 59 183 71 37 7 67 14 67 16 0 11 -110 1 -145 -12z"/>
 <path d="M663 973 c4 -3 10 -3 14 0 3 4 0 7 -7 7 -7 0 -10 -3 -7 -7z"/>
 <path d="M530 937 c-111 -32 -198 -100 -248 -194 -103 -193 -28 -422 172 -526 57 -30 67 -32 166 -32 96 0 110 3 165 29 144 71 239 234 221 382 -11 98 -43 163 -115 235 -50 50 -81 71 -126 88 -74 28 -175 35 -235 18z m258 -56 c75 -41 125 -94 160 -170 22 -47 27 -70 27 -146 0 -78 -4 -98 -29 -152 -83 -182 -303 -259 -485 -171 -67 32 -145 115 -172 185 -29 76 -31 187 -5 258 40 105 101 168 205 212 48 20 69 23 146 20 80 -3 97 -7 153 -36z"/>
 <path d="M1000 410 c0 -7 3 -10 7 -7 3 4 3 10 0 14 -4 3 -7 0 -7 -7z"/>
 <path d="M240 396 c0 -5 14 -37 32 -73 38 -78 120 -163 190 -199 47 -24 60 -26 144 -22 81 3 100 8 166 40 82 41 157 110 200 185 36 63 36 79 0 22 -91 -142 -260 -219 -419 -190 -120 22 -226 95 -284 196 -16 27 -29 46 -29 41z"/>
 </g>
<g id="layer112" fill="#3acd87" stroke="none">
 <path d="M0 545 l0 -545 590 0 590 0 0 545 0 545 -590 0 -590 0 0 -545z m762 490 c134 -42 212 -88 277 -161 81 -92 121 -200 121 -329 0 -141 -46 -253 -144 -351 -71 -71 -110 -93 -262 -145 -98 -34 -124 -39 -201 -39 -155 0 -260 44 -368 154 -111 112 -155 220 -155 382 0 151 50 274 155 379 154 154 331 188 577 110z"/>
 <path d="M480 1060 c-264 -35 -454 -275 -437 -550 20 -319 308 -545 609 -478 l53 12 -70 11 c-188 32 -313 86 -399 171 -176 176 -175 457 2 633 32 32 78 69 102 81 68 35 232 88 297 96 46 6 53 9 33 14 -47 13 -135 17 -190 10z"/>
 <path d="M575 1011 c-13 -5 1 -10 46 -14 239 -22 419 -217 419 -452 0 -222 -162 -414 -384 -454 -33 -6 -62 -13 -64 -16 -3 -3 34 -5 82 -5 106 0 144 17 227 99 99 99 149 226 149 377 0 112 -23 195 -78 280 -44 67 -133 153 -185 177 -37 18 -174 23 -212 8z"/>
 <path d="M905 926 c39 -39 83 -94 98 -123 34 -65 67 -190 67 -257 -1 -137 -63 -288 -161 -388 -31 -32 -54 -58 -50 -58 22 0 114 66 159 114 136 143 168 359 82 544 -45 97 -148 195 -240 230 -18 7 -5 -11 45 -62z"/>
 <path d="M489 976 c-39 -14 -88 -46 -109 -71 -8 -9 9 -3 36 14 29 18 80 38 124 47 41 8 77 17 79 20 10 10 -97 2 -130 -10z"/>
 <path d="M347 928 c-178 -97 -268 -319 -209 -515 24 -77 80 -162 139 -209 35 -28 133 -84 148 -84 3 0 -24 28 -60 61 -208 195 -211 526 -6 722 33 31 56 57 53 57 -4 0 -33 -15 -65 -32z"/>
 <path d="M530 937 c-117 -34 -202 -103 -252 -205 -31 -63 -33 -73 -33 -172 0 -94 3 -111 27 -161 36 -72 106 -142 182 -182 57 -30 67 -32 166 -32 96 0 110 3 165 29 155 77 248 254 216 413 -26 130 -123 250 -238 293 -72 27 -173 34 -233 17z m242 -46 c75 -36 134 -94 170 -169 30 -60 33 -75 33 -157 0 -78 -4 -98 -29 -152 -66 -144 -223 -228 -378 -203 -211 33 -346 236 -294 440 31 118 100 199 214 247 49 20 69 23 147 20 68 -3 102 -9 137 -26z"/>
 <path d="M975 355 c-27 -51 -107 -126 -167 -157 -186 -95 -419 -33 -530 141 -35 56 -36 46 -2 -21 33 -66 115 -152 179 -189 42 -24 61 -29 122 -29 79 0 168 24 235 63 55 32 139 121 168 176 26 51 22 65 -5 16z"/>
 </g>
<g id="layer113" fill="#4bb99b" stroke="none">
 <path d="M0 545 l0 -545 590 0 590 0 0 545 0 545 -590 0 -590 0 0 -545z m762 490 c134 -42 212 -88 277 -161 81 -92 121 -200 121 -329 0 -141 -46 -253 -144 -351 -71 -71 -110 -93 -262 -145 -98 -34 -124 -39 -201 -39 -155 0 -260 44 -368 154 -111 112 -155 220 -155 382 0 151 50 274 155 379 154 154 331 188 577 110z"/>
 <path d="M480 1060 c-264 -35 -454 -275 -437 -550 20 -319 308 -545 609 -478 l53 12 -70 11 c-188 32 -313 86 -399 171 -176 176 -175 457 2 633 32 32 78 69 102 81 68 35 232 88 297 96 46 6 53 9 33 14 -47 13 -135 17 -190 10z"/>
 <path d="M575 1011 c-13 -5 1 -10 46 -14 239 -22 419 -217 419 -452 0 -222 -162 -414 -384 -454 -33 -6 -62 -13 -64 -16 -3 -3 34 -5 82 -5 106 0 144 17 227 99 99 99 149 226 149 377 0 112 -23 195 -78 280 -44 67 -133 153 -185 177 -37 18 -174 23 -212 8z"/>
 <path d="M905 926 c39 -39 83 -94 98 -123 34 -65 67 -190 67 -257 -1 -137 -63 -288 -161 -388 -31 -32 -54 -58 -50 -58 22 0 114 66 159 114 136 143 168 359 82 544 -45 97 -148 195 -240 230 -18 7 -5 -11 45 -62z"/>
 <path d="M489 976 c-39 -14 -88 -46 -109 -71 -8 -9 9 -3 36 14 29 18 80 38 124 47 41 8 77 17 79 20 10 10 -97 2 -130 -10z"/>
 <path d="M347 928 c-178 -97 -268 -319 -209 -515 24 -77 80 -162 139 -209 35 -28 133 -84 148 -84 3 0 -24 28 -60 61 -208 195 -211 526 -6 722 33 31 56 57 53 57 -4 0 -33 -15 -65 -32z"/>
 <path d="M530 937 c-117 -34 -202 -103 -252 -205 -31 -63 -33 -73 -33 -172 0 -98 2 -109 32 -165 65 -125 187 -205 324 -213 190 -11 349 110 396 302 31 129 -12 263 -119 361 -92 86 -237 124 -348 92z m242 -46 c75 -36 134 -94 170 -169 30 -61 33 -74 33 -162 -1 -114 -20 -164 -92 -241 -252 -270 -700 -26 -609 331 31 118 100 199 214 247 49 20 69 23 147 20 68 -3 102 -9 137 -26z"/>
 <path d="M980 361 c-17 -41 -96 -122 -151 -154 -161 -95 -374 -64 -501 72 -29 31 -59 66 -66 76 -7 11 0 -4 14 -34 32 -68 113 -154 179 -192 42 -24 61 -29 122 -29 129 0 240 48 330 142 47 51 100 134 90 144 -2 3 -10 -9 -17 -25z"/>
 </g>
<g id="layer114" fill="#5db1a7" stroke="none">
 <path d="M0 545 l0 -545 268 1 c193 1 249 4 202 10 -84 11 -209 72 -274 135 -111 108 -167 237 -168 390 -2 257 159 467 405 531 90 23 196 13 329 -30 139 -46 196 -77 263 -148 183 -192 183 -496 0 -688 -30 -32 -76 -69 -103 -84 -68 -37 -238 -97 -302 -106 -36 -6 50 -9 253 -10 l307 -1 0 545 0 545 -590 0 -590 0 0 -545z"/>
 <path d="M388 1037 c-199 -68 -329 -243 -345 -462 -21 -311 240 -577 543 -552 39 4 81 10 94 15 19 7 13 10 -37 15 -97 10 -271 68 -337 112 -144 95 -225 276 -198 440 23 140 114 271 230 333 67 36 228 89 298 99 73 10 28 22 -86 22 -74 0 -110 -5 -162 -22z"/>
 <path d="M585 1010 c-16 -7 -11 -9 21 -9 99 -2 252 -75 321 -154 83 -95 117 -196 111 -331 -3 -76 -9 -102 -36 -159 -62 -133 -183 -229 -333 -265 l-74 -17 78 -3 c98 -4 146 17 226 97 100 100 151 228 151 376 0 149 -47 263 -149 366 -89 89 -130 109 -223 108 -40 0 -82 -4 -93 -9z"/>
 <path d="M907 925 c143 -142 193 -325 143 -519 -25 -99 -69 -176 -141 -248 -32 -32 -54 -58 -50 -58 16 0 127 78 158 111 78 84 133 220 133 333 0 184 -122 373 -283 441 -29 12 -24 4 40 -60z"/>
 <path d="M510 981 c-31 -6 -130 -64 -130 -76 0 -2 25 9 55 25 31 16 78 32 106 36 27 4 52 11 55 15 6 10 -34 10 -86 0z"/>
 <path d="M344 924 c-76 -46 -108 -76 -154 -146 -82 -125 -92 -285 -27 -421 50 -104 143 -191 242 -226 28 -10 29 -10 10 4 -138 107 -208 245 -208 410 -1 142 41 243 146 353 33 34 58 62 55 62 -2 0 -31 -16 -64 -36z"/>
 <path d="M536 940 c-111 -28 -215 -115 -265 -220 -23 -48 -26 -68 -26 -160 0 -98 2 -109 31 -165 39 -74 116 -148 192 -183 50 -24 69 -27 157 -27 90 0 106 3 158 28 193 95 274 322 184 516 -33 72 -130 163 -202 190 -68 26 -172 35 -229 21z m236 -49 c70 -34 130 -92 169 -163 32 -60 34 -68 34 -163 -1 -120 -19 -168 -92 -246 -174 -186 -472 -140 -585 89 -30 61 -33 74 -32 157 0 100 19 156 75 226 38 48 77 76 148 106 75 32 211 29 283 -6z"/>
 <path d="M276 321 c34 -71 123 -164 187 -196 117 -58 300 -16 423 97 41 38 104 125 104 144 0 5 -9 -5 -20 -23 -104 -172 -333 -239 -520 -152 -65 30 -148 102 -188 164 -7 11 0 -5 14 -34z"/>
 </g>
<g id="layer115" fill="#57d399" stroke="none">
 <path d="M0 545 l0 -545 263 1 c190 1 245 4 202 10 -79 11 -207 75 -268 133 -111 107 -168 239 -170 391 -2 314 249 562 548 542 89 -6 261 -57 344 -103 119 -64 222 -219 240 -359 25 -205 -77 -413 -247 -503 -68 -36 -223 -91 -289 -102 -30 -5 66 -8 255 -9 l302 -1 0 545 0 545 -590 0 -590 0 0 -545z"/>
 <path d="M388 1037 c-119 -41 -214 -121 -281 -238 -33 -57 -67 -185 -67 -253 1 -331 311 -589 615 -511 49 12 49 13 14 14 -58 2 -254 56 -316 87 -168 84 -276 292 -246 470 22 130 104 254 211 323 54 34 237 97 314 107 44 6 49 9 28 15 -14 4 -65 7 -115 8 -69 0 -106 -5 -157 -22z"/>
 <path d="M585 1010 c-16 -7 -11 -9 21 -9 22 -1 65 -8 95 -17 223 -66 348 -242 337 -472 -4 -79 -9 -100 -41 -164 -64 -131 -195 -231 -336 -258 -30 -6 -57 -12 -59 -15 -3 -3 30 -5 73 -5 99 0 147 22 225 101 208 211 200 560 -17 759 -81 74 -118 90 -205 89 -40 0 -82 -4 -93 -9z"/>
 <path d="M513 979 c-36 -7 -133 -61 -133 -74 0 -2 19 7 43 20 23 13 69 31 101 39 92 24 85 34 -11 15z"/>
 <path d="M907 929 c186 -186 215 -472 69 -692 -21 -31 -58 -75 -83 -97 -58 -50 -43 -51 33 -2 294 190 294 624 0 814 -32 21 -64 38 -70 38 -5 0 18 -28 51 -61z"/>
 <path d="M324 912 c-238 -154 -274 -475 -76 -677 43 -43 134 -105 156 -105 5 0 -18 27 -51 60 -137 137 -182 324 -123 513 23 73 62 134 127 200 26 26 42 47 36 47 -5 0 -36 -17 -69 -38z"/>
 <path d="M533 935 c-118 -32 -207 -104 -259 -210 -26 -55 -29 -69 -29 -165 0 -98 2 -109 31 -165 39 -74 116 -148 192 -183 50 -24 69 -27 157 -27 90 0 106 3 158 28 155 76 246 248 217 409 -29 160 -149 283 -308 317 -67 14 -94 13 -159 -4z m224 -37 c70 -26 151 -101 188 -175 27 -53 30 -67 30 -158 -1 -120 -19 -168 -92 -246 -174 -186 -472 -140 -585 89 -30 60 -33 75 -33 157 0 82 3 97 33 157 84 172 274 244 459 176z"/>
 <path d="M276 320 c32 -66 132 -168 195 -198 140 -67 371 16 479 173 41 60 38 68 -6 12 -41 -52 -118 -109 -184 -133 -30 -12 -77 -18 -140 -18 -88 -1 -100 2 -167 33 -68 32 -150 103 -191 166 -7 11 0 -5 14 -35z"/>
 </g>
<g id="layer116" fill="#71caaf" stroke="none">
 <path d="M0 545 l0 -545 263 1 c190 1 245 4 202 10 -79 11 -207 75 -268 133 -111 107 -168 239 -170 391 -2 314 249 562 548 542 89 -6 261 -57 344 -103 119 -64 222 -219 240 -359 25 -205 -77 -413 -247 -503 -68 -36 -223 -91 -289 -102 -30 -5 66 -8 255 -9 l302 -1 0 545 0 545 -590 0 -590 0 0 -545z"/>
 <path d="M388 1037 c-119 -41 -214 -121 -281 -238 -33 -57 -67 -185 -67 -253 1 -331 311 -589 615 -511 49 12 49 13 14 14 -58 2 -254 56 -316 87 -168 84 -276 292 -246 470 22 130 104 254 211 323 54 34 237 97 314 107 44 6 49 9 28 15 -14 4 -65 7 -115 8 -69 0 -106 -5 -157 -22z"/>
 <path d="M585 1010 c-16 -7 -11 -9 21 -9 22 -1 65 -8 95 -17 223 -66 348 -242 337 -472 -4 -79 -9 -100 -41 -164 -64 -131 -195 -231 -336 -258 -30 -6 -57 -12 -59 -15 -3 -3 30 -5 73 -5 99 0 147 22 225 101 208 211 200 560 -17 759 -81 74 -118 90 -205 89 -40 0 -82 -4 -93 -9z"/>
 <path d="M513 979 c-36 -7 -133 -61 -133 -74 0 -2 19 7 43 20 23 13 69 31 101 39 92 24 85 34 -11 15z"/>
 <path d="M907 929 c186 -186 215 -472 69 -692 -21 -31 -58 -75 -83 -97 -58 -50 -43 -51 33 -2 294 190 294 624 0 814 -32 21 -64 38 -70 38 -5 0 18 -28 51 -61z"/>
 <path d="M324 912 c-238 -154 -274 -475 -76 -677 43 -43 134 -105 156 -105 5 0 -18 27 -51 60 -137 137 -182 324 -123 513 23 73 62 134 127 200 26 26 42 47 36 47 -5 0 -36 -17 -69 -38z"/>
 <path d="M533 935 c-118 -32 -207 -104 -259 -210 -26 -54 -29 -70 -29 -160 0 -93 2 -105 32 -166 40 -80 111 -150 191 -187 49 -23 70 -27 152 -27 86 0 101 3 160 31 337 162 278 645 -88 723 -67 14 -94 13 -159 -4z m224 -37 c120 -44 212 -171 221 -304 6 -94 -11 -162 -59 -232 -70 -105 -171 -157 -304 -157 -65 1 -91 6 -137 27 -80 37 -149 105 -184 181 -25 54 -29 74 -29 152 0 82 3 97 33 157 84 172 274 244 459 176z"/>
 <path d="M280 310 c30 -58 133 -160 191 -188 140 -67 371 16 479 173 42 62 37 66 -9 8 -72 -92 -200 -153 -321 -153 -119 0 -246 62 -320 155 -44 56 -45 56 -20 5z"/>
 </g>
<g id="layer117" fill="#8ab8c2" stroke="none">
 <path d="M0 545 l0 -545 253 1 c241 1 249 1 187 15 -203 43 -361 209 -406 424 -58 279 126 565 405 630 89 21 208 8 342 -37 158 -54 234 -109 309 -225 98 -151 98 -375 0 -527 -43 -66 -98 -123 -155 -159 -45 -29 -203 -88 -285 -107 -49 -12 -24 -13 238 -14 l292 -1 0 545 0 545 -590 0 -590 0 0 -545z"/>
 <path d="M418 1045 c-161 -44 -293 -170 -349 -335 -31 -91 -32 -249 0 -334 91 -250 316 -389 562 -345 l74 13 -60 7 c-93 11 -260 64 -322 101 -111 66 -193 189 -216 323 -14 80 1 181 39 261 31 66 107 151 172 193 58 37 236 98 312 108 45 5 50 8 30 14 -41 12 -192 8 -242 -6z"/>
 <path d="M595 1011 c-14 -6 -1 -10 43 -13 167 -16 331 -152 389 -323 13 -40 13 -40 8 -5 -11 70 -72 179 -137 244 -82 81 -134 106 -219 105 -35 0 -73 -4 -84 -8z"/>
 <path d="M908 931 c130 -131 188 -324 151 -503 -17 -84 -74 -191 -135 -258 -31 -33 -53 -60 -49 -60 17 0 119 76 153 115 67 76 122 220 122 320 0 54 -28 162 -57 221 -36 74 -122 163 -193 199 l-54 27 62 -61z"/>
 <path d="M465 964 c-16 -8 -41 -24 -55 -35 -25 -20 -24 -20 18 1 23 11 66 27 95 35 l52 14 -40 0 c-22 0 -53 -6 -70 -15z"/>
 <path d="M321 909 c-160 -107 -233 -292 -186 -472 21 -81 50 -132 108 -194 42 -45 139 -113 161 -113 3 0 -21 27 -54 61 -73 74 -124 174 -141 278 -25 150 28 315 136 425 30 31 51 56 46 56 -5 0 -36 -18 -70 -41z"/>
 <path d="M533 935 c-118 -32 -207 -105 -259 -210 -26 -54 -29 -70 -29 -160 0 -88 3 -107 27 -157 37 -80 108 -152 187 -191 60 -29 75 -32 161 -32 82 0 103 4 153 27 75 35 156 113 193 185 26 53 29 67 29 163 0 93 -3 112 -27 162 -51 109 -156 192 -276 217 -67 14 -94 13 -159 -4z m224 -37 c70 -26 155 -104 190 -175 38 -79 44 -203 14 -283 -44 -116 -132 -196 -251 -226 -169 -43 -343 41 -417 200 -24 53 -28 73 -28 151 0 82 3 97 33 157 84 172 274 244 459 176z"/>
 <path d="M1043 595 c0 -22 2 -30 4 -17 2 12 2 30 0 40 -3 9 -5 -1 -4 -23z"/>
 <path d="M1043 495 c0 -22 2 -30 4 -17 2 12 2 30 0 40 -3 9 -5 -1 -4 -23z"/>
 <path d="M1031 435 c-2 -37 -68 -159 -110 -202 -74 -76 -139 -111 -281 -151 -31 -9 -27 -10 39 -11 56 -1 85 4 116 19 54 26 147 119 184 184 35 60 65 150 58 168 -3 7 -6 4 -6 -7z"/>
 <path d="M281 310 c32 -60 133 -161 190 -188 116 -56 329 3 435 121 66 74 72 94 9 31 -148 -149 -373 -165 -544 -39 -33 25 -61 48 -61 52 -1 5 -12 22 -26 38 l-26 30 23 -45z"/>
 </g>
<g id="layer118" fill="#88d1bc" stroke="none">
 <path d="M0 545 l0 -545 253 1 c241 1 249 1 187 15 -203 43 -361 209 -406 424 -58 279 126 565 405 630 89 21 208 8 342 -37 158 -54 234 -109 309 -225 98 -151 98 -375 0 -527 -43 -66 -98 -123 -155 -159 -45 -29 -203 -88 -285 -107 -49 -12 -24 -13 238 -14 l292 -1 0 545 0 545 -590 0 -590 0 0 -545z"/>
 <path d="M418 1045 c-161 -44 -293 -170 -349 -335 -31 -91 -32 -249 0 -334 91 -250 316 -389 562 -345 l74 13 -60 7 c-93 11 -260 64 -322 101 -111 66 -193 189 -216 323 -14 80 1 181 39 261 31 66 107 151 172 193 58 37 236 98 312 108 45 5 50 8 30 14 -41 12 -192 8 -242 -6z"/>
 <path d="M595 1011 c-14 -6 -1 -10 43 -13 167 -16 331 -152 389 -323 13 -40 13 -40 8 -5 -11 70 -72 179 -137 244 -82 81 -134 106 -219 105 -35 0 -73 -4 -84 -8z"/>
 <path d="M908 931 c130 -131 188 -324 151 -503 -17 -84 -74 -191 -135 -258 -31 -33 -53 -60 -49 -60 17 0 119 76 153 115 67 76 122 220 122 320 0 54 -28 162 -57 221 -36 74 -122 163 -193 199 l-54 27 62 -61z"/>
 <path d="M465 964 c-16 -8 -41 -24 -55 -34 -20 -16 -15 -15 26 5 28 13 69 29 90 34 l39 9 -35 1 c-19 0 -48 -6 -65 -15z"/>
 <path d="M321 909 c-160 -107 -233 -292 -186 -472 21 -81 50 -132 108 -194 42 -45 139 -113 161 -113 3 0 -21 27 -54 61 -73 74 -124 174 -141 278 -25 150 28 315 136 425 30 31 51 56 46 56 -5 0 -36 -18 -70 -41z"/>
 <path d="M562 939 c-115 -15 -234 -104 -289 -216 -25 -52 -28 -68 -28 -158 0 -88 3 -107 27 -157 37 -80 108 -152 187 -191 60 -29 75 -32 161 -32 82 0 103 4 153 27 75 36 157 114 192 185 37 75 46 203 21 281 -60 179 -233 286 -424 261z m130 -20 c78 -17 137 -50 191 -108 67 -72 90 -127 95 -231 3 -69 0 -95 -17 -140 -44 -116 -132 -196 -251 -226 -169 -43 -343 41 -417 200 -24 53 -28 73 -28 151 0 76 4 99 26 146 50 105 130 174 239 203 68 18 95 19 162 5z"/>
 <path d="M1043 595 c0 -22 2 -30 4 -17 2 12 2 30 0 40 -3 9 -5 -1 -4 -23z"/>
 <path d="M1043 495 c0 -22 2 -30 4 -17 2 12 2 30 0 40 -3 9 -5 -1 -4 -23z"/>
 <path d="M1031 435 c-2 -37 -68 -159 -110 -202 -74 -76 -139 -111 -281 -151 -31 -9 -27 -10 39 -11 56 -1 85 4 116 19 54 26 147 119 184 184 35 60 65 150 58 168 -3 7 -6 4 -6 -7z"/>
 <path d="M281 310 c32 -60 133 -161 190 -188 116 -56 329 3 435 121 66 74 72 94 9 31 -148 -149 -373 -165 -544 -39 -33 25 -61 48 -61 52 -1 5 -12 22 -26 38 l-26 30 23 -45z"/>
 </g>
<g id="layer119" fill="#8ee5b8" stroke="none">
 <path d="M0 545 l0 -545 248 1 c152 1 232 4 207 9 -108 22 -227 89 -296 169 -52 59 -115 190 -128 265 -33 179 22 352 153 481 112 111 217 155 367 155 89 0 280 -53 365 -101 102 -58 189 -167 230 -289 25 -75 25 -215 0 -290 -40 -119 -125 -229 -219 -284 -49 -29 -224 -93 -288 -105 -29 -6 55 -9 249 -10 l292 -1 0 545 0 545 -590 0 -590 0 0 -545z"/>
 <path d="M400 1037 c-142 -48 -236 -130 -301 -261 -152 -309 21 -672 355 -743 72 -15 172 -12 218 7 21 8 19 9 -12 10 -38 1 -61 6 -185 40 -105 28 -168 63 -236 131 -149 146 -180 367 -79 544 33 58 129 153 180 180 54 28 228 84 284 92 43 6 47 8 26 14 -56 16 -184 9 -250 -14z"/>
 <path d="M595 1010 c-15 -7 -10 -9 23 -9 144 -3 315 -120 383 -264 16 -34 29 -55 29 -47 0 9 -16 49 -35 89 -41 85 -134 184 -207 219 -47 23 -152 29 -193 12z"/>
 <path d="M886 956 c56 -48 129 -157 155 -231 12 -36 23 -96 26 -150 9 -160 -38 -291 -147 -409 l-55 -59 44 23 c111 56 209 202 231 344 30 193 -76 410 -241 491 l-54 26 41 -35z"/>
 <path d="M458 960 c-50 -27 -58 -43 -8 -19 22 11 56 23 77 28 l38 9 -35 1 c-19 0 -52 -9 -72 -19z"/>
 <path d="M351 927 c-65 -32 -144 -114 -180 -185 -101 -200 -40 -435 146 -563 81 -56 97 -53 35 9 -94 94 -152 230 -152 357 0 123 57 261 147 352 28 29 51 53 50 53 -1 0 -22 -10 -46 -23z"/>
 <path d="M562 939 c-118 -15 -230 -101 -285 -217 -29 -61 -32 -76 -32 -162 0 -82 4 -103 27 -152 37 -80 108 -152 187 -191 60 -29 75 -32 161 -32 82 0 103 4 153 27 75 36 157 114 192 185 37 75 46 203 21 281 -60 179 -233 286 -424 261z m130 -20 c80 -17 139 -52 196 -113 66 -73 92 -142 92 -244 -1 -171 -105 -306 -270 -348 -167 -42 -336 37 -417 196 -25 49 -28 66 -28 150 0 82 4 103 26 151 50 105 130 174 239 203 68 18 95 19 162 5z"/>
 <path d="M1031 654 c0 -11 3 -14 6 -6 3 7 2 16 -1 19 -3 4 -6 -2 -5 -13z"/>
 <path d="M1042 595 c0 -16 2 -22 5 -12 2 9 2 23 0 30 -3 6 -5 -1 -5 -18z"/>
 <path d="M1042 485 c0 -16 2 -22 5 -12 2 9 2 23 0 30 -3 6 -5 -1 -5 -18z"/>
 <path d="M1020 398 c-43 -147 -187 -272 -355 -310 l-60 -13 73 -3 c59 -2 81 1 117 19 51 25 132 104 175 169 29 44 76 167 68 176 -3 2 -11 -15 -18 -38z"/>
 <path d="M270 335 c0 -18 63 -106 105 -144 64 -59 134 -91 198 -91 66 0 152 22 219 56 51 26 145 111 166 151 7 12 -13 -3 -43 -33 -142 -142 -358 -164 -525 -52 -33 21 -73 58 -89 80 -17 23 -31 38 -31 33z"/>
 </g>
<g id="layer120" fill="#98d5c6" stroke="none">
 <path d="M0 545 l0 -545 248 1 c152 1 232 4 207 9 -108 22 -227 89 -296 169 -52 59 -115 190 -128 265 -33 179 22 352 153 481 112 111 217 155 367 155 89 0 280 -53 365 -101 102 -58 189 -167 230 -289 25 -75 25 -215 0 -290 -40 -119 -125 -229 -219 -284 -49 -29 -224 -93 -288 -105 -29 -6 55 -9 249 -10 l292 -1 0 545 0 545 -590 0 -590 0 0 -545z"/>
 <path d="M400 1037 c-142 -48 -236 -130 -301 -261 -152 -309 21 -672 355 -743 72 -15 172 -12 218 7 21 8 19 9 -12 10 -38 1 -61 6 -185 40 -105 28 -168 63 -236 131 -149 146 -180 367 -79 544 33 58 129 153 180 180 54 28 228 84 284 92 43 6 47 8 26 14 -56 16 -184 9 -250 -14z"/>
 <path d="M595 1010 c-15 -7 -10 -9 23 -9 144 -3 315 -120 383 -264 16 -34 29 -55 29 -47 0 9 -16 49 -35 89 -41 85 -134 184 -207 219 -47 23 -152 29 -193 12z"/>
 <path d="M886 956 c56 -48 129 -157 155 -231 12 -36 23 -96 26 -150 9 -160 -38 -291 -147 -409 l-55 -59 44 23 c111 56 209 202 231 344 30 193 -76 410 -241 491 l-54 26 41 -35z"/>
 <path d="M458 960 c-50 -27 -58 -43 -8 -19 22 11 56 23 77 28 l38 9 -35 1 c-19 0 -52 -9 -72 -19z"/>
 <path d="M351 927 c-65 -32 -144 -114 -180 -185 -101 -200 -40 -435 146 -563 81 -56 97 -53 35 9 -94 94 -152 230 -152 357 0 123 57 261 147 352 28 29 51 53 50 53 -1 0 -22 -10 -46 -23z"/>
 <path d="M562 939 c-118 -15 -230 -101 -285 -217 -29 -61 -32 -76 -32 -162 1 -82 4 -102 28 -150 142 -295 534 -305 687 -18 29 54 35 75 38 149 3 64 0 100 -12 137 -60 179 -233 286 -424 261z m130 -20 c80 -17 139 -52 196 -113 73 -80 95 -145 90 -261 -4 -73 -9 -100 -32 -143 -82 -160 -265 -238 -434 -184 -161 51 -261 198 -250 367 10 160 114 288 268 329 68 18 95 19 162 5z"/>
 <path d="M1031 654 c0 -11 3 -14 6 -6 3 7 2 16 -1 19 -3 4 -6 -2 -5 -13z"/>
 <path d="M1042 595 c0 -16 2 -22 5 -12 2 9 2 23 0 30 -3 6 -5 -1 -5 -18z"/>
 <path d="M1042 485 c0 -16 2 -22 5 -12 2 9 2 23 0 30 -3 6 -5 -1 -5 -18z"/>
 <path d="M1020 398 c-43 -147 -187 -272 -355 -310 l-60 -13 73 -3 c59 -2 81 1 117 19 51 25 132 104 175 169 29 44 76 167 68 176 -3 2 -11 -15 -18 -38z"/>
 <path d="M285 301 c65 -112 191 -201 287 -201 67 0 152 22 220 56 53 27 145 112 168 154 7 14 -8 1 -34 -27 -33 -36 -71 -64 -124 -90 -73 -37 -80 -38 -181 -38 -99 0 -111 2 -174 32 -45 21 -88 52 -125 90 -46 48 -53 52 -37 24z"/>
 </g>
<g id="layer121" fill="#9ae1c4" stroke="none">
 <path d="M0 545 l0 -545 248 1 c186 1 235 4 197 11 -233 44 -424 284 -425 534 0 67 33 193 67 257 38 70 116 153 188 199 140 91 296 101 502 34 68 -23 136 -53 172 -77 155 -103 243 -306 212 -489 -22 -138 -102 -265 -209 -337 -55 -37 -217 -101 -307 -122 -28 -6 46 -9 248 -10 l287 -1 0 545 0 545 -590 0 -590 0 0 -545z"/>
 <path d="M421 1044 c-170 -46 -304 -180 -357 -359 -25 -83 -22 -219 5 -306 74 -233 314 -386 546 -349 81 13 94 20 39 20 -50 0 -242 54 -304 85 -185 94 -287 319 -235 520 33 124 126 240 239 295 72 35 245 90 290 91 30 1 30 1 6 9 -41 13 -171 10 -229 -6z"/>
 <path d="M605 1010 c-16 -7 -13 -9 17 -9 142 -3 311 -120 378 -264 17 -34 30 -55 30 -46 0 9 -17 50 -37 90 -42 85 -135 183 -205 217 -46 23 -143 29 -183 12z"/>
 <path d="M913 927 c207 -211 212 -540 10 -758 l-58 -62 44 23 c112 57 211 205 230 345 28 198 -70 399 -237 489 l-53 28 64 -65z"/>
 <path d="M458 960 c-20 -11 -40 -25 -44 -31 -3 -6 4 -4 17 5 14 8 49 22 79 30 49 13 51 15 20 15 -19 0 -52 -9 -72 -19z"/>
 <path d="M348 925 c-108 -56 -196 -182 -220 -314 -34 -184 79 -393 254 -469 21 -8 14 2 -30 46 -160 161 -196 396 -89 596 17 33 55 84 84 113 28 29 51 53 50 53 -1 -1 -23 -12 -49 -25z"/>
 <path d="M501 925 c-56 -18 -138 -74 -174 -120 -16 -20 -40 -61 -55 -93 -23 -50 -27 -69 -27 -152 1 -82 4 -102 28 -150 143 -295 532 -305 688 -18 33 60 34 67 34 168 0 96 -3 110 -29 165 -38 76 -111 149 -184 183 -46 22 -74 27 -147 29 -57 2 -106 -3 -134 -12z m274 -34 c274 -129 276 -521 3 -655 -115 -56 -272 -41 -372 36 -103 79 -152 186 -144 317 15 254 281 411 513 302z"/>
 <path d="M1031 654 c0 -11 3 -14 6 -6 3 7 2 16 -1 19 -3 4 -6 -2 -5 -13z"/>
 <path d="M1042 600 c0 -14 2 -19 5 -12 2 6 2 18 0 25 -3 6 -5 1 -5 -13z"/>
 <path d="M1041 484 c0 -11 3 -14 6 -6 3 7 2 16 -1 19 -3 4 -6 -2 -5 -13z"/>
 <path d="M1031 424 c0 -11 3 -14 6 -6 3 7 2 16 -1 19 -3 4 -6 -2 -5 -13z"/>
 <path d="M1007 358 c-41 -105 -170 -220 -285 -254 -109 -32 -111 -34 -26 -31 65 3 88 8 115 27 51 34 117 100 150 146 28 42 73 143 66 151 -2 2 -11 -16 -20 -39z"/>
 <path d="M292 293 c59 -101 189 -193 274 -193 139 0 297 74 366 173 20 29 17 28 -26 -11 -26 -24 -77 -58 -114 -75 -62 -30 -75 -32 -172 -32 -98 0 -110 2 -173 32 -44 21 -88 52 -122 88 -51 52 -53 53 -33 18z"/>
 <path d="M954 318 c-4 -7 -3 -8 4 -4 7 4 12 9 12 12 0 8 -9 4 -16 -8z"/>
 </g>
<g id="layer122" fill="#aadbd0" stroke="none">
 <path d="M0 545 l0 -545 248 1 c186 1 235 4 197 11 -233 44 -424 284 -425 534 0 67 33 193 67 257 38 70 116 153 188 199 140 91 296 101 502 34 68 -23 136 -53 172 -77 155 -103 243 -306 212 -489 -22 -138 -102 -265 -209 -337 -55 -37 -217 -101 -307 -122 -28 -6 46 -9 248 -10 l287 -1 0 545 0 545 -590 0 -590 0 0 -545z"/>
 <path d="M421 1044 c-170 -46 -304 -180 -357 -359 -25 -83 -22 -219 5 -306 74 -233 314 -386 546 -349 81 13 94 20 39 20 -50 0 -242 54 -304 85 -185 94 -287 319 -235 520 33 124 126 240 239 295 72 35 245 90 290 91 30 1 30 1 6 9 -41 13 -171 10 -229 -6z"/>
 <path d="M605 1010 c-16 -7 -13 -9 17 -9 142 -3 311 -120 378 -264 17 -34 30 -55 30 -46 0 9 -17 50 -37 90 -42 85 -135 183 -205 217 -46 23 -143 29 -183 12z"/>
 <path d="M913 927 c207 -211 212 -540 10 -758 l-58 -62 44 23 c112 57 211 205 230 345 28 198 -70 399 -237 489 l-53 28 64 -65z"/>
 <path d="M458 960 c-20 -11 -40 -25 -44 -31 -3 -6 4 -4 17 5 14 8 49 22 79 30 49 13 51 15 20 15 -19 0 -52 -9 -72 -19z"/>
 <path d="M348 925 c-108 -56 -196 -182 -220 -314 -34 -184 79 -393 254 -469 21 -8 14 2 -30 46 -160 161 -196 396 -89 596 17 33 55 84 84 113 28 29 51 53 50 53 -1 -1 -23 -12 -49 -25z"/>
 <path d="M501 925 c-186 -60 -300 -273 -246 -461 33 -116 101 -194 215 -248 57 -27 75 -31 150 -30 155 1 275 75 342 212 31 62 33 74 33 167 0 90 -3 106 -29 160 -38 76 -111 149 -184 183 -46 22 -74 27 -147 29 -57 2 -106 -3 -134 -12z m274 -34 c190 -89 263 -316 163 -504 -37 -69 -91 -119 -168 -156 -48 -23 -68 -26 -150 -26 -83 1 -102 4 -152 29 -73 35 -139 100 -175 174 -25 51 -28 68 -28 157 0 93 2 104 32 160 93 179 299 250 478 166z"/>
 <path d="M1031 654 c0 -11 3 -14 6 -6 3 7 2 16 -1 19 -3 4 -6 -2 -5 -13z"/>
 <path d="M1042 600 c0 -14 2 -19 5 -12 2 6 2 18 0 25 -3 6 -5 1 -5 -13z"/>
 <path d="M1041 484 c0 -11 3 -14 6 -6 3 7 2 16 -1 19 -3 4 -6 -2 -5 -13z"/>
 <path d="M1031 424 c0 -11 3 -14 6 -6 3 7 2 16 -1 19 -3 4 -6 -2 -5 -13z"/>
 <path d="M1007 358 c-41 -105 -170 -220 -285 -254 -109 -32 -111 -34 -26 -31 65 3 88 8 115 27 51 34 117 100 150 146 28 42 73 143 66 151 -2 2 -11 -16 -20 -39z"/>
 <path d="M292 293 c59 -101 189 -193 274 -193 139 0 298 75 365 173 l22 32 -39 -36 c-98 -90 -187 -123 -314 -117 -112 5 -198 44 -275 123 -51 52 -53 53 -33 18z"/>
 <path d="M954 318 c-4 -7 -3 -8 4 -4 7 4 12 9 12 12 0 8 -9 4 -16 -8z"/>
 </g>
<g id="layer123" fill="#b7e6d5" stroke="none">
 <path d="M0 545 l0 -545 243 1 c231 1 239 1 183 15 -187 45 -344 208 -391 405 -42 178 9 359 140 498 156 164 349 202 603 116 132 -44 216 -96 274 -168 156 -198 156 -446 0 -643 -21 -27 -64 -66 -94 -87 -54 -37 -234 -110 -313 -126 -25 -6 66 -9 248 -10 l287 -1 0 545 0 545 -590 0 -590 0 0 -545z"/>
 <path d="M423 1045 c-83 -23 -152 -63 -219 -127 -181 -173 -210 -459 -70 -672 103 -154 295 -242 475 -216 72 10 91 20 39 20 -52 0 -245 57 -310 92 -103 55 -193 169 -222 283 -53 202 41 419 225 520 58 31 256 94 303 96 l31 1 -30 8 c-49 13 -166 10 -222 -5z"/>
 <path d="M610 1010 c-11 -7 -6 -10 21 -10 48 0 141 -33 200 -70 68 -44 135 -121 169 -193 17 -34 30 -56 30 -48 0 8 -16 47 -36 89 -42 86 -133 184 -205 220 -49 23 -150 31 -179 12z"/>
 <path d="M914 927 c207 -211 211 -539 9 -758 l-58 -63 44 25 c208 113 294 401 186 624 -42 87 -114 166 -192 207 l-51 28 62 -63z"/>
 <path d="M468 964 c-52 -28 -32 -25 72 9 8 3 2 6 -15 6 -16 0 -42 -7 -57 -15z"/>
 <path d="M311 899 c-102 -68 -172 -186 -186 -316 -19 -163 77 -343 224 -422 l60 -32 -58 59 c-91 91 -151 229 -151 348 0 125 52 260 134 352 27 28 46 52 43 52 -3 0 -32 -18 -66 -41z"/>
 <path d="M491 921 c-183 -68 -289 -273 -236 -457 33 -116 101 -194 215 -248 57 -27 75 -31 150 -30 155 1 275 75 342 212 31 62 33 74 33 167 0 90 -3 106 -29 160 -38 76 -105 143 -181 180 -79 39 -211 46 -294 16z m284 -30 c279 -130 277 -528 -3 -659 -50 -24 -69 -27 -152 -27 -83 1 -102 4 -152 29 -73 35 -139 100 -175 174 -25 51 -28 68 -28 157 0 117 17 165 86 240 113 123 275 156 424 86z"/>
 <path d="M1030 660 c0 -7 3 -10 7 -7 3 4 3 10 0 14 -4 3 -7 0 -7 -7z"/>
 <path d="M1040 600 c0 -7 3 -10 7 -7 3 4 3 10 0 14 -4 3 -7 0 -7 -7z"/>
 <path d="M1040 480 c0 -7 3 -10 7 -7 3 4 3 10 0 14 -4 3 -7 0 -7 -7z"/>
 <path d="M1030 430 c0 -7 3 -10 7 -7 3 4 3 10 0 14 -4 3 -7 0 -7 -7z"/>
 <path d="M1020 390 c0 -7 3 -10 7 -7 3 4 3 10 0 14 -4 3 -7 0 -7 -7z"/>
 <path d="M998 337 c-47 -99 -169 -202 -276 -233 -109 -32 -111 -34 -26 -31 70 3 86 7 125 34 66 46 133 123 169 193 17 34 30 64 27 66 -2 2 -10 -11 -19 -29z"/>
 <path d="M954 318 c-4 -7 -3 -8 4 -4 7 4 12 9 12 12 0 8 -9 4 -16 -8z"/>
 <path d="M296 288 c27 -53 120 -137 180 -165 49 -22 65 -25 123 -20 36 3 89 13 117 22 68 20 165 86 205 138 l33 42 -40 -36 c-60 -55 -94 -75 -164 -99 -144 -49 -312 -9 -420 99 -44 44 -48 46 -34 19z"/>
 </g>
<g id="layer124" fill="#c7dee2" stroke="none">
 <path d="M0 545 l0 -545 243 1 c231 1 239 1 183 15 -86 21 -173 71 -242 139 -171 170 -210 409 -104 630 77 160 230 272 405 295 40 5 -30 8 -212 9 l-273 1 0 -545z"/>
 <path d="M605 1080 c92 -11 278 -77 347 -123 167 -112 250 -326 203 -526 -32 -133 -128 -262 -241 -323 -45 -24 -222 -89 -279 -101 -11 -3 107 -5 263 -6 l282 -1 0 545 0 545 -317 -1 c-188 -1 -293 -5 -258 -9z"/>
 <path d="M426 1044 c-89 -21 -169 -69 -236 -141 -100 -107 -142 -213 -141 -361 0 -48 7 -109 14 -137 63 -229 254 -377 487 -376 47 0 96 4 110 10 23 9 22 10 -15 10 -52 1 -229 53 -295 86 -65 33 -139 101 -181 166 -142 223 -54 531 188 653 55 27 211 77 266 84 47 5 49 7 22 13 -51 11 -157 8 -219 -7z"/>
 <path d="M622 1011 c-9 -5 5 -10 37 -14 117 -14 266 -120 330 -234 38 -68 31 -31 -8 42 -37 70 -129 160 -192 190 -55 25 -140 34 -167 16z"/>
 <path d="M914 927 c107 -110 156 -231 156 -390 0 -146 -49 -267 -154 -376 -35 -37 -43 -50 -26 -41 59 29 130 93 169 150 156 234 82 563 -156 692 l-51 28 62 -63z"/>
 <path d="M473 965 c-18 -8 -33 -16 -33 -19 0 -4 31 4 100 27 8 3 4 6 -10 6 -14 0 -40 -6 -57 -14z"/>
 <path d="M328 911 c-236 -150 -274 -476 -78 -672 31 -31 79 -68 106 -82 l50 -25 -61 62 c-187 192 -193 488 -13 691 27 30 48 55 46 55 -2 0 -25 -13 -50 -29z"/>
 <path d="M501 924 c-98 -35 -184 -115 -229 -212 -23 -48 -27 -71 -27 -148 0 -84 2 -95 38 -166 57 -116 146 -183 274 -208 160 -32 330 56 405 208 31 62 33 74 33 167 0 90 -3 106 -29 160 -38 76 -105 143 -181 180 -49 25 -73 30 -149 32 -65 2 -104 -1 -135 -13z m274 -33 c277 -129 281 -518 7 -653 -61 -30 -74 -33 -162 -33 -85 0 -101 3 -154 29 -76 37 -140 101 -174 174 -24 50 -27 69 -27 157 0 117 17 165 86 240 113 123 275 156 424 86z"/>
 <path d="M1020 690 c0 -7 3 -10 7 -7 3 4 3 10 0 14 -4 3 -7 0 -7 -7z"/>
 <path d="M1030 660 c0 -7 3 -10 7 -7 3 4 3 10 0 14 -4 3 -7 0 -7 -7z"/>
 <path d="M1030 430 c0 -7 3 -10 7 -7 3 4 3 10 0 14 -4 3 -7 0 -7 -7z"/>
 <path d="M1020 390 c0 -7 3 -10 7 -7 3 4 3 10 0 14 -4 3 -7 0 -7 -7z"/>
 <path d="M990 323 c-57 -108 -162 -189 -298 -229 l-77 -23 66 0 c51 -1 76 5 117 25 64 32 153 127 193 206 35 70 35 88 -1 21z"/>
 <path d="M300 280 c24 -45 114 -126 173 -154 52 -26 65 -28 125 -23 37 4 90 14 119 22 66 20 164 85 205 138 l33 42 -53 -47 c-29 -26 -79 -60 -110 -75 -52 -25 -67 -28 -167 -28 -103 0 -114 2 -177 32 -37 17 -88 51 -114 75 -35 32 -44 37 -34 18z"/>
 </g>
<g id="layer125" fill="#c5eade" stroke="none">
 <path d="M0 545 l0 -545 243 1 c231 1 239 1 183 15 -86 21 -173 71 -242 139 -171 170 -210 409 -104 630 77 160 230 272 405 295 40 5 -30 8 -212 9 l-273 1 0 -545z"/>
 <path d="M605 1080 c92 -11 278 -77 347 -123 167 -112 250 -326 203 -526 -32 -133 -128 -262 -241 -323 -45 -24 -222 -89 -279 -101 -11 -3 107 -5 263 -6 l282 -1 0 545 0 545 -317 -1 c-188 -1 -293 -5 -258 -9z"/>
 <path d="M426 1044 c-89 -21 -169 -69 -236 -141 -100 -107 -142 -213 -141 -361 0 -48 7 -109 14 -137 63 -229 254 -377 487 -376 47 0 96 4 110 10 23 9 22 10 -15 10 -52 1 -229 53 -295 86 -65 33 -139 101 -181 166 -142 223 -54 531 188 653 55 27 211 77 266 84 47 5 49 7 22 13 -51 11 -157 8 -219 -7z"/>
 <path d="M622 1011 c-9 -5 5 -10 37 -14 117 -14 266 -120 330 -234 38 -68 31 -31 -8 42 -37 70 -129 160 -192 190 -55 25 -140 34 -167 16z"/>
 <path d="M914 927 c107 -110 156 -231 156 -390 0 -146 -49 -267 -154 -376 -35 -37 -43 -50 -26 -41 59 29 130 93 169 150 156 234 82 563 -156 692 l-51 28 62 -63z"/>
 <path d="M473 965 c-18 -8 -33 -17 -33 -20 0 -3 9 -1 19 5 11 5 37 14 58 19 27 7 31 9 13 10 -14 0 -40 -6 -57 -14z"/>
 <path d="M328 911 c-236 -150 -274 -476 -78 -672 31 -31 79 -68 106 -82 l50 -25 -61 62 c-187 192 -193 488 -13 691 27 30 48 55 46 55 -2 0 -25 -13 -50 -29z"/>
 <path d="M509 926 c-111 -43 -191 -114 -237 -214 -23 -48 -27 -71 -27 -148 0 -84 2 -95 38 -166 57 -116 146 -183 274 -208 160 -32 330 56 405 208 31 62 33 74 33 167 0 90 -3 106 -28 158 -37 74 -110 148 -184 183 -48 23 -74 28 -148 31 -59 2 -102 -2 -126 -11z m219 -14 c136 -43 223 -142 252 -288 30 -154 -52 -314 -198 -386 -61 -30 -74 -33 -162 -33 -85 0 -101 3 -154 29 -76 37 -140 101 -174 174 -24 50 -27 69 -27 157 0 120 18 167 92 246 98 105 236 143 371 101z"/>
 <path d="M1020 690 c0 -7 3 -10 7 -7 3 4 3 10 0 14 -4 3 -7 0 -7 -7z"/>
 <path d="M1030 660 c0 -7 3 -10 7 -7 3 4 3 10 0 14 -4 3 -7 0 -7 -7z"/>
 <path d="M1030 430 c0 -7 3 -10 7 -7 3 4 3 10 0 14 -4 3 -7 0 -7 -7z"/>
 <path d="M1020 390 c0 -7 3 -10 7 -7 3 4 3 10 0 14 -4 3 -7 0 -7 -7z"/>
 <path d="M990 323 c-57 -108 -162 -189 -298 -229 l-77 -23 66 0 c51 -1 76 5 117 25 64 32 153 127 193 206 35 70 35 88 -1 21z"/>
 <path d="M300 280 c24 -45 114 -126 173 -154 52 -26 65 -28 125 -23 37 4 90 14 119 22 66 20 164 85 205 138 l33 42 -53 -47 c-29 -26 -79 -60 -110 -75 -52 -25 -67 -28 -167 -28 -103 0 -114 2 -177 32 -37 17 -88 51 -114 75 -35 32 -44 37 -34 18z"/>
 </g>
<g id="layer126" fill="#d5efe8" stroke="none">
 <path d="M0 545 l0 -545 238 1 c222 0 234 1 185 14 -403 109 -537 620 -241 916 75 74 195 136 288 148 47 6 -9 9 -202 10 l-268 1 0 -545z"/>
 <path d="M610 1080 c84 -11 251 -67 316 -105 170 -101 267 -308 237 -505 -24 -150 -128 -302 -252 -364 -58 -30 -169 -71 -246 -91 -45 -12 -21 -13 233 -14 l282 -1 0 545 0 545 -312 -1 c-183 -1 -290 -5 -258 -9z"/>
 <path d="M433 1046 c-169 -41 -313 -178 -364 -348 -29 -93 -23 -255 10 -341 53 -135 163 -249 288 -298 66 -25 249 -38 293 -20 23 9 22 10 -15 10 -38 1 -140 26 -235 58 -97 33 -197 118 -252 213 -72 123 -77 283 -15 415 43 89 118 170 197 210 68 34 251 95 293 96 l32 1 -30 8 c-46 12 -144 10 -202 -4z"/>
 <path d="M626 1011 c-3 -5 16 -11 42 -15 106 -14 234 -101 308 -211 43 -63 44 -50 3 22 -71 123 -195 213 -295 213 -29 0 -55 -4 -58 -9z"/>
 <path d="M473 965 c-18 -8 -33 -17 -33 -20 0 -3 9 -1 19 5 11 5 37 14 58 19 27 7 31 9 13 10 -14 0 -40 -6 -57 -14z"/>
 <path d="M908 936 c59 -56 116 -151 143 -239 18 -56 20 -86 17 -175 -7 -159 -51 -262 -159 -371 l-44 -44 43 24 c263 144 314 537 97 754 -37 36 -121 95 -137 95 -4 0 14 -20 40 -44z"/>
 <path d="M329 912 c-105 -68 -178 -178 -199 -302 -31 -177 69 -373 231 -455 l46 -24 -61 62 c-189 191 -195 488 -14 691 27 31 48 56 46 56 -2 0 -24 -13 -49 -28z"/>
 <path d="M509 925 c-74 -27 -118 -56 -167 -109 -69 -76 -95 -146 -96 -256 -1 -75 3 -93 31 -152 75 -158 244 -250 405 -218 181 35 306 174 316 350 10 172 -91 324 -253 381 -64 22 -181 25 -236 4z m219 -13 c111 -35 177 -95 229 -207 22 -50 27 -74 27 -140 -1 -148 -71 -263 -202 -327 -61 -30 -75 -33 -162 -33 -82 0 -103 4 -152 27 -73 34 -142 103 -176 176 -21 44 -27 76 -30 142 -5 111 19 178 90 256 101 110 238 148 376 106z"/>
 <path d="M1010 720 c0 -7 3 -10 7 -7 3 4 3 10 0 14 -4 3 -7 0 -7 -7z"/>
 <path d="M1020 390 c0 -7 3 -10 7 -7 3 4 3 10 0 14 -4 3 -7 0 -7 -7z"/>
 <path d="M980 308 c-60 -104 -145 -168 -285 -215 l-70 -23 70 4 c87 4 122 21 201 100 52 52 134 180 122 191 -2 2 -19 -24 -38 -57z"/>
 <path d="M320 256 c42 -60 137 -132 193 -147 55 -15 174 1 248 34 61 28 124 76 165 127 23 28 18 26 -24 -13 -29 -27 -78 -60 -110 -75 -51 -24 -68 -27 -172 -27 -106 0 -120 2 -172 28 -31 15 -81 49 -110 75 l-52 47 34 -49z"/>
 </g>
<g id="layer127" fill="#fefffe" stroke="none">
 <path d="M0 545 l0 -545 238 1 c211 1 231 2 185 13 -132 32 -274 146 -341 272 -170 325 26 734 381 793 37 6 -25 9 -205 10 l-258 1 0 -545z"/>
 <path d="M615 1083 c72 -10 283 -85 331 -117 170 -115 255 -326 213 -528 -35 -169 -169 -319 -329 -369 -34 -10 -69 -23 -80 -29 -10 -6 -43 -17 -72 -24 -49 -14 -35 -15 225 -15 l277 -1 0 545 0 545 -297 -1 c-164 -1 -284 -4 -268 -6z"/>
 <path d="M470 1053 c-111 -18 -234 -90 -301 -174 -53 -66 -67 -91 -94 -173 -60 -179 -14 -391 113 -520 105 -107 191 -147 337 -153 57 -3 111 0 125 5 24 10 23 11 -12 11 -52 1 -243 57 -302 89 -74 40 -151 123 -193 210 -37 75 -38 78 -38 191 0 96 4 126 23 171 30 76 105 167 177 215 63 42 233 103 315 113 43 6 43 6 15 13 -33 7 -126 9 -165 2z"/>
 <path d="M637 1013 c-4 -6 11 -13 35 -16 90 -12 217 -94 292 -187 l27 -35 -17 35 c-23 47 -120 147 -171 177 -46 27 -155 43 -166 26z"/>
 <path d="M483 970 c-32 -13 -29 -21 5 -10 56 18 58 18 37 19 -11 0 -30 -4 -42 -9z"/>
 <path d="M921 923 c103 -110 151 -232 152 -378 0 -145 -39 -251 -135 -366 l-52 -62 46 31 c95 66 173 177 197 283 13 56 13 172 0 228 -25 111 -119 239 -210 290 l-44 24 46 -50z"/>
 <path d="M324 906 c-186 -126 -249 -357 -152 -556 35 -72 110 -152 179 -189 l44 -25 -55 60 c-96 105 -140 214 -140 349 0 132 43 243 134 342 26 29 46 53 44 53 -2 0 -26 -15 -54 -34z"/>
 <path d="M515 927 c-173 -58 -290 -229 -271 -394 36 -305 377 -451 614 -263 218 172 173 520 -83 636 -71 33 -194 42 -260 21z m259 -30 c149 -68 239 -243 207 -400 -7 -33 -22 -79 -33 -100 -31 -61 -105 -134 -167 -164 -50 -25 -67 -28 -161 -28 -101 0 -108 1 -168 34 -285 155 -250 571 56 672 79 27 190 20 266 -14z"/>
 <path d="M981 305 c-48 -90 -159 -172 -291 -217 l-55 -18 70 5 c59 4 77 10 123 41 29 21 70 56 90 80 37 41 98 142 90 149 -2 2 -14 -16 -27 -40z"/>
 <path d="M307 275 c58 -84 151 -154 222 -167 102 -19 278 40 351 118 l35 37 -40 -31 c-158 -123 -387 -113 -537 25 -38 36 -46 40 -31 18z"/>
 </g>

</svg>