<!DOCTYPE svg PUBLIC "-//W3C//DTD SVG 20010904//EN" "http://www.w3.org/TR/2001/REC-SVG-20010904/DTD/svg10.dtd">
<svg version="1.0" xmlns="http://www.w3.org/2000/svg" width="105px" height="103px" viewBox="0 0 1050 1030" preserveAspectRatio="xMidYMid meet">
<g id="layer101" fill="#f37379" stroke="none">
 <path d="M0 515 l0 -515 525 0 525 0 0 515 0 515 -525 0 -525 0 0 -515z"/>
 </g>
<g id="layer102" fill="#f37490" stroke="none">
 <path d="M0 515 l0 -515 525 0 525 0 0 515 0 515 -525 0 -525 0 0 -515z m720 30 c0 -8 -4 -15 -10 -15 -5 0 -10 7 -10 15 0 8 5 15 10 15 6 0 10 -7 10 -15z m-360 -80 c11 -40 16 -45 41 -45 28 0 29 2 29 45 0 38 3 45 20 45 17 0 20 -7 20 -45 l0 -45 69 0 c65 0 71 2 95 31 14 17 26 37 26 45 0 8 6 14 14 14 9 0 16 -16 20 -44 8 -50 19 -56 99 -56 44 0 48 -2 45 -22 -2 -17 -20 -31 -65 -53 -46 -22 -63 -35 -67 -55 -9 -42 -44 -90 -66 -90 -11 0 -42 9 -70 19 -49 19 -51 19 -100 0 -28 -10 -59 -19 -70 -19 -22 0 -57 48 -66 91 -4 19 -21 33 -62 55 l-57 28 45 6 c38 4 46 9 48 29 2 13 -1 28 -7 34 -17 17 -13 24 15 31 20 5 25 12 21 26 -3 11 -2 20 3 20 4 0 13 -20 20 -45z m27 28 c-4 -3 -7 0 -7 7 0 7 3 10 7 7 3 -4 3 -10 0 -14z m226 -4 c-6 -22 -40 -39 -79 -39 -20 0 -24 5 -24 30 0 30 1 30 54 30 50 0 54 -2 49 -21z m167 -7 c0 -12 -23 -32 -37 -32 -7 0 -13 9 -13 20 0 15 7 20 25 20 14 0 25 -4 25 -8z"/>
 </g>
<g id="layer103" fill="#f68a7e" stroke="none">
 <path d="M0 515 l0 -515 525 0 525 0 0 515 0 515 -525 0 -525 0 0 -515z m660 199 c30 -3 58 -11 62 -18 15 -22 8 -48 -17 -68 -30 -23 -33 -48 -5 -48 11 0 20 4 20 9 0 15 30 21 51 11 21 -12 25 -50 7 -68 -7 -7 -27 -9 -53 -5 l-42 5 10 -56 10 -56 59 0 c45 0 58 3 58 15 0 11 -12 15 -45 15 -38 0 -45 3 -45 19 0 15 9 20 41 23 39 4 43 2 56 -30 8 -19 13 -48 11 -65 -3 -26 -12 -35 -61 -61 -50 -27 -62 -38 -82 -84 -13 -29 -32 -55 -42 -59 -9 -4 -43 3 -75 14 l-58 20 -58 -20 c-32 -11 -66 -18 -76 -14 -9 4 -29 32 -43 63 -22 50 -32 59 -78 80 -29 14 -58 31 -64 38 -18 21 -2 46 29 46 27 0 30 5 57 87 l29 86 30 -84 c27 -75 33 -84 57 -87 l27 -3 0 110 c0 104 -1 111 -20 111 -18 0 -20 -7 -21 -77 l0 -78 -28 73 c-15 41 -34 78 -42 83 -10 7 -5 9 18 7 22 -2 39 4 56 21 16 14 36 22 54 21 15 -1 31 -1 36 0 4 1 12 4 17 5 6 1 13 3 18 5 4 1 -9 8 -28 15 -34 14 -32 14 40 10 41 -2 100 -7 130 -11z m180 -110 c0 -14 -3 -14 -15 -4 -8 7 -15 14 -15 16 0 2 7 4 15 4 8 0 15 -7 15 -16z m-571 -36 c0 -7 -7 -29 -14 -48 l-13 -35 -1 48 c-1 35 3 47 14 47 8 0 15 -6 14 -12z"/>
 <path d="M470 530 l0 -110 69 0 c66 0 71 2 96 32 24 28 27 38 23 87 -7 77 -36 101 -124 101 l-64 0 0 -110z m132 62 c17 -17 21 -95 6 -115 -8 -10 -32 -21 -56 -24 l-42 -6 0 83 0 83 41 -6 c23 -3 46 -10 51 -15z"/>
 </g>
<g id="layer104" fill="#f47ba5" stroke="none">
 <path d="M0 515 l0 -515 525 0 525 0 0 515 0 515 -525 0 -525 0 0 -515z m660 199 c30 -3 58 -11 62 -18 15 -22 8 -48 -17 -68 -30 -23 -33 -48 -5 -48 11 0 20 4 20 9 0 15 30 21 51 11 21 -12 25 -50 7 -68 -7 -7 -27 -9 -53 -5 l-42 5 10 -56 10 -56 59 0 c45 0 58 3 58 15 0 11 -12 15 -44 15 -37 0 -44 3 -48 23 -4 20 -1 22 41 21 46 -1 46 -1 65 -53 l19 -52 -23 -24 c-13 -14 -42 -32 -65 -41 -33 -12 -44 -23 -53 -50 l-10 -34 59 0 c43 0 59 -4 59 -13 0 -17 -64 -37 -118 -37 -33 0 -49 -7 -88 -41 -82 -71 -106 -71 -188 0 -39 34 -55 41 -88 41 -54 0 -118 20 -118 37 0 9 16 13 59 13 l59 0 -11 35 c-7 26 -18 37 -42 45 -17 6 -46 23 -64 38 -39 33 -35 62 9 62 27 0 30 5 57 87 l29 86 30 -84 c24 -67 35 -85 52 -87 20 -3 22 1 22 40 0 24 3 73 7 111 6 64 5 67 -16 67 -20 0 -21 -5 -22 -82 l-1 -83 -26 78 c-15 43 -34 82 -42 88 -11 7 -7 9 17 7 22 -2 39 4 56 21 16 14 36 22 54 21 15 -1 31 -1 36 0 4 1 12 4 17 5 6 1 13 3 18 5 4 1 -9 8 -28 15 -34 14 -32 14 40 10 41 -2 100 -7 130 -11z m180 -110 c0 -14 -3 -14 -15 -4 -8 7 -15 14 -15 16 0 2 7 4 15 4 8 0 15 -7 15 -16z m-571 -36 c0 -7 -7 -29 -14 -48 l-13 -35 -1 48 c-1 35 3 47 14 47 8 0 15 -6 14 -12z"/>
 <path d="M470 530 l0 -110 63 0 c75 0 102 16 118 69 16 52 4 105 -28 131 -20 15 -40 20 -89 20 l-64 0 0 -110z m132 62 c6 -6 12 -30 15 -54 6 -58 -11 -79 -72 -85 l-48 -6 6 39 c4 21 7 59 7 83 l0 44 41 -6 c23 -3 46 -10 51 -15z"/>
 <path d="M513 213 c4 -3 10 -3 14 0 3 4 0 7 -7 7 -7 0 -10 -3 -7 -7z"/>
 </g>
<g id="layer105" fill="#f69092" stroke="none">
 <path d="M0 515 l0 -515 525 0 525 0 0 515 0 515 -525 0 -525 0 0 -515z m491 299 c26 -13 32 -13 58 0 16 9 47 18 69 22 36 6 41 3 61 -24 12 -17 28 -46 35 -64 12 -27 23 -35 63 -46 26 -8 53 -15 58 -17 6 -1 11 -14 13 -29 1 -15 16 -39 34 -56 l33 -29 -42 -1 c-27 0 -43 5 -43 12 0 25 -43 58 -77 58 -32 0 -73 -28 -73 -50 0 -5 9 -10 20 -10 11 0 20 4 20 9 0 20 41 23 61 5 42 -38 10 -76 -55 -68 l-44 6 12 -53 12 -54 57 -3 c46 -2 57 0 57 13 0 11 -11 15 -44 15 -37 0 -44 3 -48 23 -4 20 -1 22 41 21 46 -1 46 -1 65 -53 l19 -52 -23 -24 c-13 -14 -42 -32 -65 -41 -33 -12 -44 -23 -53 -50 l-10 -34 59 0 c43 0 59 -4 59 -13 0 -17 -64 -37 -118 -37 -33 0 -49 -7 -88 -41 -82 -71 -106 -71 -188 0 -39 34 -55 41 -88 41 -54 0 -118 20 -118 37 0 9 16 13 59 13 l59 0 -11 35 c-7 26 -18 37 -42 45 -17 6 -45 23 -62 38 -30 25 -31 30 -24 67 5 22 9 30 10 18 1 -17 7 -23 25 -23 22 0 28 9 52 85 16 46 30 82 33 79 4 -3 18 -40 32 -82 20 -61 30 -78 47 -80 20 -3 22 1 22 40 0 24 3 73 7 111 6 64 5 67 -16 67 -20 0 -21 -5 -22 -82 l-1 -83 -27 80 c-21 61 -32 80 -46 80 -14 0 -25 -19 -46 -80 l-27 -80 -1 83 c-1 66 -4 82 -16 82 -10 0 -15 -11 -16 -32 0 -31 -1 -31 -11 -11 -15 31 -2 93 20 93 45 1 95 28 108 59 8 18 23 46 35 63 20 27 25 30 61 24 22 -4 53 -13 69 -22z m-291 -264 c0 -17 -7 -20 -45 -20 -43 0 -45 1 -35 20 8 14 21 20 45 20 28 0 35 -4 35 -20z"/>
 <path d="M470 530 l0 -110 63 0 c75 0 102 16 118 69 16 52 4 105 -28 131 -20 15 -40 20 -89 20 l-64 0 0 -110z m130 60 c23 -23 27 -86 7 -114 -8 -11 -31 -20 -62 -23 l-48 -6 6 39 c4 21 7 58 7 82 0 41 1 42 35 42 22 0 43 -8 55 -20z"/>
 <path d="M513 213 c4 -3 10 -3 14 0 3 4 0 7 -7 7 -7 0 -10 -3 -7 -7z"/>
 </g>
<g id="layer106" fill="#f694af" stroke="none">
 <path d="M0 515 l0 -515 525 0 525 0 0 515 0 515 -525 0 -525 0 0 -515z m491 299 c26 -13 32 -13 58 0 16 9 47 18 69 22 36 6 41 3 61 -24 12 -17 28 -46 35 -64 12 -27 23 -35 63 -46 26 -8 53 -15 58 -17 6 -1 11 -15 13 -29 1 -16 16 -39 36 -56 49 -44 63 -83 43 -125 -8 -18 -29 -48 -45 -66 -23 -27 -30 -46 -35 -97 -3 -34 -12 -73 -20 -86 -16 -24 -81 -46 -137 -46 -23 0 -45 -11 -78 -40 -74 -66 -110 -66 -184 0 -33 29 -55 40 -78 40 -56 0 -121 22 -137 46 -8 13 -17 52 -20 86 -4 47 -11 69 -28 88 -13 14 -33 45 -46 69 -21 41 -21 45 -6 70 11 19 25 27 51 29 l36 3 0 -44 c0 -78 10 -107 36 -107 20 0 26 11 50 85 16 46 30 82 33 79 4 -3 18 -40 32 -82 20 -61 30 -78 47 -80 21 -3 22 -1 22 107 0 92 -3 111 -15 111 -12 0 -15 -16 -16 -82 l-1 -83 -27 80 c-21 61 -32 80 -46 80 -14 0 -25 -19 -46 -80 l-27 -80 -1 83 c-1 66 -4 82 -16 82 -10 0 -15 -11 -16 -32 0 -31 -1 -31 -11 -11 -15 31 -2 93 20 93 45 1 95 28 108 59 8 18 23 46 35 63 20 27 25 30 61 24 22 -4 53 -13 69 -22z"/>
 <path d="M470 530 l0 -110 65 0 c56 0 69 4 90 24 45 45 45 127 0 172 -21 20 -34 24 -90 24 l-65 0 0 -110z m130 60 c13 -13 20 -33 20 -60 0 -54 -27 -80 -81 -80 l-42 0 7 38 c3 20 6 56 6 80 0 41 1 42 35 42 22 0 43 -8 55 -20z"/>
 <path d="M700 620 c-11 -11 -20 -24 -20 -30 0 -5 9 -10 20 -10 11 0 20 4 20 9 0 20 41 23 61 5 42 -38 9 -78 -56 -68 l-43 6 12 -54 12 -53 57 -3 c46 -2 57 0 57 13 0 11 -11 15 -44 15 -38 0 -44 3 -48 23 -4 20 -1 22 28 19 64 -8 97 66 53 122 -26 33 -79 36 -109 6z"/>
 </g>
<g id="layer107" fill="#faa897" stroke="none">
 <path d="M0 515 l0 -515 525 0 525 0 0 515 0 515 -525 0 -525 0 0 -515z m568 398 c15 -9 42 -30 60 -45 24 -21 43 -28 74 -28 22 0 58 -5 79 -11 30 -10 41 -20 53 -51 9 -21 16 -47 16 -58 0 -16 8 -19 53 -22 l52 -3 -1 -75 c-2 -91 -2 -113 0 -215 l1 -80 -51 -3 c-51 -3 -52 -3 -59 -40 -3 -20 -13 -47 -20 -58 -14 -22 -81 -44 -135 -44 -23 0 -45 -11 -78 -40 -74 -66 -110 -66 -184 0 -33 29 -55 40 -78 40 -54 0 -121 22 -135 44 -7 11 -17 38 -20 58 -7 37 -8 37 -59 40 l-51 3 1 75 c2 94 2 126 0 220 l-1 75 53 3 c44 3 52 6 52 22 0 11 7 38 16 60 18 45 52 60 135 60 36 0 51 5 70 26 28 30 86 63 112 64 10 0 30 -8 45 -17z"/>
 <path d="M210 530 c0 -110 0 -110 24 -110 22 0 28 9 52 85 16 47 31 82 34 77 4 -4 19 -42 34 -84 22 -60 32 -78 47 -78 18 0 19 9 19 110 0 91 -3 110 -15 110 -12 0 -15 -16 -16 -82 l-1 -83 -27 80 c-21 61 -32 80 -46 80 -14 0 -25 -19 -46 -80 l-27 -80 -1 83 c-1 66 -4 82 -16 82 -12 0 -15 -19 -15 -110z"/>
 <path d="M470 530 l0 -110 65 0 c56 0 69 4 90 24 45 45 45 127 0 172 -21 20 -34 24 -90 24 l-65 0 0 -110z m130 60 c14 -14 20 -33 20 -64 0 -54 -24 -76 -84 -76 l-39 0 7 38 c3 20 6 56 6 80 0 41 1 42 35 42 22 0 43 -8 55 -20z"/>
 <path d="M700 620 c-11 -11 -20 -24 -20 -30 0 -15 29 -12 46 5 20 19 39 19 58 -1 20 -20 20 -38 0 -59 -13 -12 -27 -14 -60 -9 -35 5 -43 3 -40 -7 3 -8 10 -33 16 -56 l11 -43 54 0 c42 0 55 3 55 15 0 11 -12 15 -44 15 -38 0 -44 3 -48 23 -4 20 -1 22 28 19 64 -8 97 66 53 122 -26 33 -79 36 -109 6z"/>
 </g>
<g id="layer108" fill="#f79fc5" stroke="none">
 <path d="M0 515 l0 -515 525 0 525 0 0 515 0 515 -525 0 -525 0 0 -515z m568 398 c15 -9 42 -30 60 -45 24 -21 43 -28 74 -28 22 0 58 -5 79 -11 30 -10 41 -20 53 -51 9 -21 16 -47 16 -58 0 -16 8 -19 53 -22 l52 -3 -1 -70 c0 -38 -1 -81 -2 -95 -2 -14 0 -62 4 -107 6 -80 6 -84 -21 -119 -16 -20 -50 -50 -76 -66 -26 -17 -53 -43 -59 -59 -7 -16 -32 -47 -57 -70 l-45 -41 -82 6 c-99 8 -93 8 -192 0 l-82 -6 -45 41 c-25 23 -50 54 -57 70 -6 16 -33 42 -59 59 -26 16 -60 46 -76 66 -26 35 -27 39 -21 114 4 42 6 91 5 107 -1 17 -3 62 -3 100 l-1 70 53 3 c44 3 52 6 52 22 0 11 7 38 16 60 18 45 52 60 135 60 36 0 51 5 70 26 28 30 86 63 112 64 10 0 30 -8 45 -17z"/>
 <path d="M210 530 c0 -108 0 -110 23 -110 20 0 27 12 53 92 l30 92 33 -92 c26 -73 37 -92 52 -92 18 0 19 8 19 110 0 91 -3 110 -15 110 -12 0 -15 -17 -16 -87 l-1 -88 -30 88 c-38 111 -51 111 -89 2 l-27 -80 -1 83 c-1 66 -4 82 -16 82 -12 0 -15 -19 -15 -110z"/>
 <path d="M470 530 l0 -110 63 0 c76 0 102 16 117 70 14 50 -2 113 -33 135 -14 9 -44 15 -84 15 l-63 0 0 -110z m130 60 c14 -14 20 -33 20 -64 0 -54 -24 -76 -82 -76 l-38 0 0 80 0 80 40 0 c27 0 47 -7 60 -20z"/>
 <path d="M700 620 c-36 -36 -16 -56 24 -25 25 19 41 19 60 -1 20 -20 20 -38 0 -59 -13 -12 -27 -14 -60 -9 -35 5 -43 3 -40 -7 3 -8 10 -33 16 -56 l11 -43 54 0 c42 0 55 3 55 15 0 11 -12 15 -45 15 -25 0 -45 4 -45 9 0 5 -2 16 -5 23 -4 11 2 13 28 10 28 -3 38 1 56 23 27 35 27 65 0 99 -26 33 -79 36 -109 6z"/>
 </g>
<g id="layer109" fill="#f9b1b4" stroke="none">
 <path d="M0 515 l0 -515 525 0 525 0 0 515 0 515 -525 0 -525 0 0 -515z m463 434 c40 -7 74 -7 113 0 87 16 125 6 178 -47 25 -25 48 -54 52 -64 3 -10 30 -34 60 -54 86 -57 98 -80 90 -177 -8 -99 -8 -85 0 -184 6 -80 6 -84 -21 -119 -16 -20 -50 -50 -76 -66 -26 -17 -53 -43 -59 -59 -7 -16 -32 -47 -57 -70 l-45 -41 -82 6 c-99 8 -93 8 -192 0 l-82 -6 -45 41 c-25 23 -50 54 -57 70 -6 16 -33 42 -59 59 -26 16 -60 46 -76 66 -26 35 -27 40 -21 114 8 93 8 87 0 189 -8 97 4 120 90 177 30 20 57 45 61 55 10 31 94 109 123 114 15 2 32 5 38 6 6 0 36 -4 67 -10z"/>
 <path d="M210 530 c0 -108 0 -110 23 -110 20 0 27 12 53 93 l30 92 34 -92 c25 -72 37 -93 51 -93 17 0 19 9 19 110 0 91 -3 110 -15 110 -12 0 -15 -17 -16 -87 l-1 -88 -30 88 c-17 49 -35 87 -43 87 -7 0 -25 -36 -41 -82 l-29 -83 -3 83 c-2 64 -6 82 -17 82 -12 0 -15 -20 -15 -110z"/>
 <path d="M470 530 l0 -110 63 0 c76 0 102 16 117 70 14 50 -2 113 -33 135 -14 9 -44 15 -84 15 l-63 0 0 -110z m135 60 c11 -12 18 -35 18 -60 0 -56 -24 -80 -80 -80 l-43 0 0 80 0 80 43 0 c31 0 49 -6 62 -20z"/>
 <path d="M700 618 c-35 -38 -20 -52 25 -22 45 30 90 -9 65 -57 -10 -18 -17 -20 -57 -14 l-46 7 7 -39 c13 -74 13 -73 72 -73 41 0 54 4 54 15 0 11 -12 15 -45 15 -25 0 -45 4 -45 9 0 5 -3 16 -6 25 -5 12 1 14 29 9 29 -4 37 -1 55 22 28 35 28 65 1 99 -27 34 -79 36 -109 4z"/>
 </g>
<g id="layer110" fill="#f8b0cd" stroke="none">
 <path d="M0 515 l0 -515 525 0 525 0 0 515 0 515 -525 0 -525 0 0 -515z m463 434 c40 -7 74 -7 113 0 87 16 125 6 178 -47 25 -25 48 -54 52 -64 3 -10 30 -34 60 -54 83 -55 99 -83 95 -168 -3 -80 -3 -111 1 -211 3 -61 0 -74 -22 -103 -13 -18 -45 -47 -70 -63 -25 -16 -61 -53 -80 -82 -49 -72 -88 -93 -170 -88 -82 4 -118 4 -200 0 -81 -5 -118 15 -169 88 -20 29 -57 66 -84 84 -27 18 -59 50 -74 76 -23 40 -25 50 -18 101 8 58 8 81 4 201 -2 83 13 111 95 165 30 20 57 45 61 55 10 31 94 109 123 114 15 2 32 5 38 6 6 0 36 -4 67 -10z"/>
 <path d="M210 530 c0 -108 0 -110 23 -110 20 0 27 12 53 93 l30 92 34 -92 c25 -72 37 -93 51 -93 17 0 19 9 19 110 0 91 -3 110 -15 110 -12 0 -15 -17 -16 -87 l-1 -88 -30 88 c-17 49 -35 87 -43 87 -7 0 -25 -36 -41 -82 l-29 -83 -3 83 c-2 64 -6 82 -17 82 -12 0 -15 -20 -15 -110z"/>
 <path d="M470 530 l0 -110 58 0 c77 0 104 16 120 68 12 35 12 49 0 84 -16 52 -43 68 -120 68 l-58 0 0 -110z m135 60 c11 -12 18 -35 18 -60 0 -56 -24 -80 -80 -80 l-43 0 0 80 0 80 43 0 c31 0 49 -6 62 -20z"/>
 <path d="M700 618 c-11 -12 -20 -25 -20 -30 0 -13 22 -9 41 8 40 36 94 -10 69 -57 -11 -19 -18 -21 -57 -15 l-45 6 6 -38 c13 -73 13 -72 72 -72 41 0 54 4 54 15 0 11 -12 15 -45 15 -25 0 -45 4 -45 9 0 5 -3 16 -6 25 -5 12 1 14 29 9 29 -4 37 -1 56 23 58 73 -45 170 -109 102z"/>
 </g>
<g id="layer111" fill="#fbc5bc" stroke="none">
 <path d="M0 515 l0 -515 525 0 525 0 0 515 0 515 -525 0 -525 0 0 -515z m520 434 c8 0 49 3 90 7 68 5 78 4 110 -18 19 -13 49 -43 67 -68 41 -55 38 -52 93 -93 25 -18 55 -48 68 -67 22 -32 23 -41 17 -105 -5 -38 -7 -90 -5 -115 9 -121 6 -154 -20 -188 -13 -18 -45 -47 -70 -63 -25 -16 -61 -53 -80 -82 -49 -72 -88 -93 -170 -88 -82 4 -118 4 -200 0 -81 -5 -118 15 -169 88 -20 29 -57 66 -84 84 -27 18 -59 50 -74 76 -23 40 -25 50 -18 106 9 75 10 92 0 182 -6 64 -5 73 17 105 13 19 43 49 68 67 55 41 52 38 93 93 18 25 48 55 67 68 32 22 42 23 110 18 41 -4 82 -7 90 -7z"/>
 <path d="M210 530 c0 -108 0 -110 23 -110 20 0 27 11 52 90 16 50 32 87 36 83 3 -5 19 -45 34 -90 21 -66 31 -83 46 -83 18 0 19 8 19 110 0 91 -3 110 -15 110 -12 0 -15 -17 -16 -87 l-1 -88 -30 88 c-17 51 -35 87 -43 87 -8 0 -26 -36 -43 -87 l-30 -88 -1 88 c-1 70 -4 87 -16 87 -12 0 -15 -19 -15 -110z"/>
 <path d="M470 530 l0 -110 58 0 c77 0 104 16 120 68 12 35 12 49 0 84 -16 52 -43 68 -120 68 l-58 0 0 -110z m135 60 c11 -12 18 -35 18 -60 0 -56 -24 -80 -80 -80 l-43 0 0 80 0 80 43 0 c31 0 49 -6 62 -20z"/>
 <path d="M700 613 c-24 -31 -10 -45 19 -19 34 31 81 14 81 -30 0 -34 -24 -47 -71 -40 l-41 7 6 -38 c13 -74 13 -73 72 -73 41 0 54 4 54 15 0 11 -12 15 -45 15 -25 0 -45 4 -45 9 0 5 -3 16 -6 25 -5 12 1 14 29 9 29 -4 37 -1 56 23 17 21 21 37 17 59 -13 65 -87 87 -126 38z"/>
 </g>
<g id="layer112" fill="#fac4d1" stroke="none">
 <path d="M0 515 l0 -515 525 0 525 0 0 515 0 515 -525 0 -525 0 0 -515z m520 434 c8 0 49 3 90 7 68 5 78 4 110 -18 19 -13 49 -43 67 -68 41 -55 38 -52 93 -93 84 -62 105 -119 80 -222 -10 -40 5 -133 23 -146 10 -7 -55 -161 -89 -211 -35 -49 -83 -81 -200 -131 -86 -36 -109 -41 -174 -41 -67 0 -86 5 -188 48 -147 63 -184 99 -240 232 -23 54 -38 100 -34 103 19 13 32 100 22 143 -24 108 -5 163 80 225 55 41 52 38 93 93 18 25 48 55 67 68 32 22 42 23 110 18 41 -4 82 -7 90 -7z"/>
 <path d="M210 529 c0 -108 1 -110 22 -107 17 2 27 20 51 91 16 49 33 85 37 80 4 -4 20 -45 35 -90 21 -66 31 -83 46 -83 18 0 19 8 19 110 0 91 -3 110 -15 110 -12 0 -15 -17 -16 -87 l0 -88 -32 88 c-17 48 -37 87 -43 87 -7 0 -26 -39 -42 -87 l-30 -88 -1 88 c-1 70 -4 87 -16 87 -12 0 -15 -19 -15 -111z"/>
 <path d="M470 530 l0 -110 56 0 c90 0 123 27 124 102 0 90 -30 118 -125 118 l-55 0 0 -110z m135 60 c11 -12 18 -35 18 -60 0 -56 -24 -80 -80 -80 l-43 0 0 80 0 80 43 0 c31 0 49 -6 62 -20z"/>
 <path d="M700 613 c-24 -31 -10 -45 19 -19 34 31 81 14 81 -30 0 -34 -24 -47 -71 -40 l-41 7 6 -38 c13 -73 13 -73 67 -73 37 0 49 4 49 15 0 11 -11 15 -39 15 -26 0 -41 5 -45 16 -11 28 -7 35 18 28 54 -13 94 36 76 92 -20 60 -83 74 -120 27z"/>
 </g>
<g id="layer113" fill="#f4b9ec" stroke="none">
 <path d="M0 515 l0 -515 525 0 525 0 0 515 0 515 -525 0 -525 0 0 -515z m719 431 c118 -52 176 -100 209 -174 76 -172 77 -174 77 -262 0 -71 -5 -96 -28 -150 -80 -183 -118 -228 -235 -276 -214 -86 -230 -86 -447 2 -89 35 -163 106 -193 184 -12 30 -33 84 -48 119 -23 57 -26 75 -21 140 3 53 13 94 31 136 15 33 37 82 49 108 39 90 117 142 327 221 8 3 51 4 95 2 69 -3 94 -10 184 -50z"/>
 <path d="M210 529 c0 -108 1 -110 22 -107 17 2 27 20 51 91 16 49 33 85 37 80 4 -4 20 -45 35 -90 21 -66 31 -83 46 -83 18 0 19 8 19 110 0 91 -3 110 -15 110 -12 0 -15 -17 -16 -87 l0 -88 -32 88 c-17 48 -37 87 -43 87 -7 0 -26 -39 -42 -87 l-30 -88 -1 88 c-1 70 -4 87 -16 87 -12 0 -15 -19 -15 -111z"/>
 <path d="M470 530 l0 -110 56 0 c90 0 123 27 124 102 0 90 -30 118 -125 118 l-55 0 0 -110z m135 60 c11 -12 18 -35 18 -60 0 -56 -24 -80 -80 -80 l-43 0 0 80 0 80 43 0 c31 0 49 -6 62 -20z"/>
 <path d="M702 613 c-29 -29 -14 -47 17 -19 34 31 81 14 81 -30 0 -34 -24 -47 -71 -40 l-41 7 6 -38 c13 -73 13 -73 67 -73 37 0 49 4 49 15 0 11 -11 15 -39 15 -26 0 -41 5 -45 16 -11 28 -7 35 18 28 54 -13 94 36 76 92 -20 59 -73 72 -118 27z"/>
 </g>
<g id="layer114" fill="#ffe7bf" stroke="none">
 <path d="M0 515 l0 -515 525 0 525 0 0 515 0 515 -525 0 -525 0 0 -515z m719 431 c118 -52 176 -100 209 -174 76 -172 77 -174 77 -262 0 -71 -5 -96 -28 -150 -80 -183 -118 -228 -235 -276 -214 -86 -230 -86 -447 2 -89 35 -163 106 -193 184 -12 30 -33 84 -48 119 -23 57 -26 75 -21 140 3 53 13 94 31 136 15 33 37 82 49 108 39 90 117 142 327 221 8 3 51 4 95 2 69 -3 94 -10 184 -50z"/>
 <path d="M210 529 c0 -108 1 -110 22 -107 17 2 27 20 51 91 16 49 33 85 37 80 4 -4 20 -45 35 -90 22 -63 33 -83 47 -83 16 0 18 10 18 110 0 67 -4 110 -10 110 -6 0 -10 -37 -10 -92 0 -52 -4 -88 -9 -82 -4 5 -21 46 -37 92 -16 45 -33 82 -39 82 -6 0 -24 -39 -40 -87 l-30 -88 -3 88 c-2 68 -6 87 -17 87 -12 0 -15 -20 -15 -111z"/>
 <path d="M480 530 l0 -110 51 0 c85 0 118 28 119 102 0 88 -30 118 -120 118 l-50 0 0 -110z m124 65 c22 -22 30 -78 15 -106 -17 -33 -28 -39 -76 -39 l-43 0 0 80 0 80 44 0 c27 0 51 -6 60 -15z"/>
 <path d="M712 624 c-22 -15 -30 -44 -13 -44 5 0 14 7 21 15 27 32 80 12 80 -31 0 -33 -24 -47 -70 -40 -22 3 -40 4 -40 2 0 -3 5 -28 11 -56 l11 -50 49 0 c37 0 49 4 49 15 0 11 -11 15 -39 15 -26 0 -41 5 -45 16 -11 28 -7 35 18 28 54 -13 94 36 76 92 -18 53 -64 69 -108 38z"/>
 </g>
<g id="layer115" fill="#fbd5eb" stroke="none">
 <path d="M0 515 l0 -515 525 0 525 0 0 515 0 515 -525 0 -525 0 0 -515z m719 431 c118 -52 176 -100 209 -174 76 -172 77 -174 77 -262 0 -71 -5 -96 -28 -150 -80 -183 -118 -228 -235 -276 -214 -86 -230 -86 -447 2 -89 35 -163 106 -193 184 -12 30 -33 84 -48 119 -23 57 -26 75 -21 140 3 53 13 94 31 136 15 33 37 82 49 108 39 90 117 142 327 221 8 3 51 4 95 2 69 -3 94 -10 184 -50z"/>
 <path d="M210 529 c0 -108 1 -110 22 -107 17 2 27 20 51 91 16 49 33 85 37 80 4 -4 20 -45 35 -90 22 -63 33 -83 47 -83 16 0 18 10 18 110 0 67 -4 110 -10 110 -6 0 -10 -37 -10 -90 0 -49 -4 -90 -8 -90 -5 0 -21 41 -37 90 -16 50 -34 90 -40 90 -5 0 -23 -38 -39 -85 -16 -47 -32 -87 -35 -89 -3 -2 -4 36 -3 85 3 76 2 89 -12 89 -14 0 -16 -16 -16 -111z"/>
 <path d="M480 530 l0 -110 56 0 c48 0 59 4 85 29 23 24 29 38 29 75 0 86 -31 116 -120 116 l-50 0 0 -110z m124 65 c22 -22 30 -78 15 -106 -17 -33 -28 -39 -76 -39 l-43 0 0 80 0 80 44 0 c27 0 51 -6 60 -15z"/>
 <path d="M712 624 c-12 -8 -22 -22 -22 -30 0 -18 8 -18 26 1 32 31 84 12 84 -31 0 -33 -24 -47 -70 -40 -22 3 -40 4 -40 2 0 -3 5 -28 11 -56 l11 -50 49 0 c36 0 49 4 49 14 0 10 -14 16 -42 18 -36 2 -44 7 -46 26 -3 20 0 22 21 17 54 -14 95 38 76 95 -18 49 -64 64 -107 34z"/>
 </g>
<g id="layer116" fill="#ffefd1" stroke="none">
 <path d="M0 515 l0 -515 525 0 525 0 0 515 0 515 -525 0 -525 0 0 -515z m611 479 c30 -9 59 -20 64 -24 6 -5 33 -16 60 -26 104 -35 175 -105 215 -211 11 -30 27 -68 36 -84 40 -79 38 -189 -5 -284 -10 -22 -26 -61 -35 -87 -28 -77 -123 -170 -196 -193 -14 -4 -50 -19 -80 -33 -41 -19 -76 -27 -136 -30 -86 -4 -92 -2 -277 81 -62 27 -140 111 -162 174 -10 27 -26 66 -36 88 -42 92 -44 207 -5 284 9 16 25 54 36 84 40 106 111 176 215 211 27 10 54 21 60 26 18 15 109 39 151 39 22 1 65 -6 95 -15z"/>
 <path d="M210 529 c0 -108 1 -110 22 -107 17 2 27 20 54 98 36 107 31 109 75 -27 17 -55 27 -73 41 -73 16 0 18 11 18 110 0 67 -4 110 -10 110 -6 0 -10 -39 -10 -96 0 -52 -4 -93 -8 -90 -4 2 -21 45 -37 95 -16 50 -34 91 -40 91 -6 0 -24 -41 -40 -91 -16 -50 -32 -92 -35 -94 -3 -2 -4 39 -2 91 4 82 2 94 -12 94 -14 0 -16 -15 -16 -111z"/>
 <path d="M480 529 l0 -111 62 4 c77 6 108 35 108 103 0 85 -31 115 -120 115 l-50 0 0 -111z m126 67 c14 -11 19 -26 19 -66 0 -62 -18 -80 -82 -80 l-43 0 0 80 0 80 43 0 c24 0 52 -6 63 -14z"/>
 <path d="M712 624 c-12 -8 -22 -22 -22 -30 0 -18 8 -18 26 1 32 31 84 12 84 -31 0 -34 -24 -47 -71 -40 -36 6 -40 4 -35 -11 3 -10 8 -35 12 -55 6 -38 6 -38 55 -38 36 0 49 4 49 14 0 10 -14 16 -42 18 -36 2 -44 7 -46 26 -3 20 0 22 21 17 54 -14 95 38 76 95 -18 49 -64 64 -107 34z"/>
 </g>
<g id="layer117" fill="#fffefe" stroke="none">
 <path d="M0 515 l0 -515 525 0 525 0 0 515 0 515 -525 0 -525 0 0 -515z m611 479 c30 -9 59 -20 64 -24 6 -5 33 -16 60 -26 104 -35 175 -105 215 -211 11 -30 27 -68 36 -84 40 -79 38 -189 -5 -284 -10 -22 -26 -61 -35 -87 -28 -77 -123 -170 -196 -193 -14 -4 -50 -19 -80 -33 -41 -19 -76 -27 -136 -30 -86 -4 -92 -2 -277 81 -62 27 -140 111 -162 174 -10 27 -26 66 -36 88 -42 92 -44 207 -5 284 9 16 25 54 36 84 40 106 111 176 215 211 27 10 54 21 60 26 18 15 109 39 151 39 22 1 65 -6 95 -15z"/>
 <path d="M210 530 c0 -102 1 -110 19 -110 16 0 26 19 51 95 17 52 35 93 39 91 4 -3 20 -45 36 -95 22 -71 33 -91 47 -91 16 0 18 10 18 110 0 67 -4 110 -10 110 -6 0 -10 -39 -10 -97 0 -53 -3 -93 -7 -89 -4 4 -22 46 -39 94 -17 47 -35 87 -40 89 -6 2 -23 -38 -39 -88 -16 -50 -33 -93 -37 -95 -4 -3 -8 38 -8 90 0 57 -4 96 -10 96 -6 0 -10 -43 -10 -110z"/>
 <path d="M480 530 l0 -112 62 4 c52 4 65 9 86 33 21 25 24 36 20 82 -6 74 -29 95 -108 101 l-60 4 0 -112z m126 66 c14 -11 19 -26 19 -66 0 -62 -18 -80 -82 -80 l-43 0 0 80 0 80 43 0 c24 0 52 -6 63 -14z"/>
 <path d="M712 624 c-12 -8 -22 -22 -22 -30 0 -19 16 -18 24 1 7 18 57 20 74 3 17 -17 15 -53 -3 -68 -10 -8 -29 -10 -56 -6 -36 6 -40 4 -35 -11 3 -10 8 -35 12 -55 6 -38 6 -38 55 -38 37 0 49 4 49 15 0 11 -12 15 -45 15 -41 0 -45 2 -45 25 0 22 3 24 29 19 65 -13 99 83 45 125 -32 25 -52 26 -82 5z"/>
 </g>

</svg>