<!DOCTYPE svg PUBLIC "-//W3C//DTD SVG 20010904//EN" "http://www.w3.org/TR/2001/REC-SVG-20010904/DTD/svg10.dtd">
<svg version="1.0" xmlns="http://www.w3.org/2000/svg" width="114px" height="93px" viewBox="0 0 1140 930" preserveAspectRatio="xMidYMid meet">
<g id="layer101" fill="#2e75b6" stroke="none">
 <path d="M0 465 l0 -465 570 0 570 0 0 465 0 465 -570 0 -570 0 0 -465z"/>
 </g>
<g id="layer102" fill="#6599c9" stroke="none">
 <path d="M0 465 l0 -465 570 0 570 0 0 465 0 465 -570 0 -570 0 0 -465z m456 194 c73 -27 136 -86 171 -158 24 -48 28 -68 28 -141 0 -73 -4 -93 -28 -142 -108 -220 -422 -240 -560 -36 -83 124 -63 299 47 407 90 89 220 116 342 70z"/>
 <path d="M230 355 l0 -155 86 0 c81 0 87 1 115 29 37 38 39 88 5 128 -21 24 -32 28 -95 31 l-71 4 0 59 c0 52 -2 59 -20 59 -19 0 -20 -7 -20 -155z m164 -18 c21 -16 24 -60 6 -82 -8 -10 -31 -15 -71 -15 l-59 0 0 55 0 55 53 0 c29 0 61 -6 71 -13z"/>
 </g>
<g id="layer103" fill="#91b6d8" stroke="none">
 <path d="M0 465 l0 -465 570 0 570 0 0 465 0 465 -570 0 -570 0 0 -465z m486 183 c60 -31 118 -93 148 -157 16 -35 21 -66 21 -131 0 -73 -4 -93 -28 -142 -53 -109 -146 -169 -272 -176 -104 -5 -178 21 -242 85 -66 66 -97 140 -98 233 0 66 5 85 33 143 38 76 92 128 166 157 74 29 202 24 272 -12z"/>
 <path d="M230 355 l0 -155 86 0 c81 0 87 1 115 29 37 38 39 88 5 128 -21 24 -32 28 -95 31 l-71 4 0 59 c0 52 -2 59 -20 59 -19 0 -20 -7 -20 -155z m164 -18 c21 -16 24 -60 6 -82 -8 -10 -31 -15 -71 -15 l-59 0 0 55 0 55 53 0 c29 0 61 -6 71 -13z"/>
 </g>
<g id="layer104" fill="#9dc3e6" stroke="none">
 <path d="M0 465 l0 -465 570 0 570 0 0 465 0 465 -570 0 -570 0 0 -465z m446 199 c65 -18 145 -87 182 -158 23 -45 26 -63 26 -146 0 -84 -3 -101 -26 -146 -109 -208 -400 -238 -542 -57 -46 58 -76 140 -76 204 0 87 57 203 123 253 98 73 182 86 313 50z"/>
 <path d="M230 355 l0 -155 86 0 c81 0 87 1 115 29 37 38 39 88 5 128 -21 24 -32 28 -95 31 l-71 4 0 59 c0 52 -2 59 -20 59 -19 0 -20 -7 -20 -155z m164 -18 c21 -16 24 -60 6 -82 -8 -10 -31 -15 -71 -15 l-59 0 0 55 0 55 53 0 c29 0 61 -6 71 -13z"/>
 </g>
<g id="layer105" fill="#a5c3df" stroke="none">
 <path d="M0 465 l0 -465 570 0 570 0 0 465 0 465 -570 0 -570 0 0 -465z m816 419 c28 -7 79 -32 113 -55 229 -153 260 -479 66 -674 -117 -116 -271 -154 -447 -110 -26 7 -40 25 -19 25 21 0 97 91 124 149 26 55 31 77 31 141 0 175 -124 315 -303 345 l-65 11 56 56 c119 118 277 158 444 112z m-370 -219 c65 -19 145 -89 182 -159 23 -45 26 -63 26 -146 0 -84 -3 -101 -26 -146 -37 -70 -118 -140 -188 -161 -252 -76 -487 146 -415 392 36 125 132 214 254 235 52 9 93 5 167 -15z"/>
 <path d="M770 495 l0 -135 95 0 c78 0 95 3 95 15 0 12 -15 15 -75 15 l-75 0 0 45 0 45 65 0 c51 0 65 3 65 15 0 12 -14 15 -65 15 l-65 0 0 60 c0 53 -2 60 -20 60 -19 0 -20 -7 -20 -135z"/>
 <path d="M230 355 l0 -155 86 0 c81 0 87 1 115 29 37 38 39 88 5 128 -21 24 -32 28 -95 31 l-71 4 0 59 c0 52 -2 59 -20 59 -19 0 -20 -7 -20 -155z m164 -18 c21 -16 24 -60 6 -82 -8 -10 -31 -15 -71 -15 l-59 0 0 55 0 55 53 0 c29 0 61 -6 71 -13z"/>
 </g>
<g id="layer106" fill="#e0bcc2" stroke="none">
 <path d="M0 465 l0 -465 570 0 570 0 0 465 0 465 -570 0 -570 0 0 -465z m816 419 c28 -7 79 -32 113 -55 229 -153 260 -479 66 -674 -117 -116 -271 -154 -447 -110 -26 7 -40 25 -19 25 21 0 97 91 124 149 26 55 31 77 31 141 0 175 -124 315 -303 345 l-65 11 56 56 c119 118 277 158 444 112z m-369 -219 c65 -19 145 -90 181 -159 23 -45 26 -62 26 -146 0 -118 -21 -168 -103 -241 -164 -146 -423 -91 -514 110 -16 35 -21 67 -22 131 0 73 4 93 28 142 57 116 191 195 312 183 22 -2 63 -11 92 -20z"/>
 <path d="M770 495 l0 -135 95 0 c78 0 95 3 95 15 0 12 -15 15 -75 15 l-75 0 0 45 0 45 65 0 c51 0 65 3 65 15 0 12 -14 15 -65 15 l-65 0 0 60 c0 53 -2 60 -20 60 -19 0 -20 -7 -20 -135z"/>
 <path d="M230 355 l0 -155 86 0 c81 0 87 1 115 29 37 38 39 88 5 128 -21 24 -32 28 -95 31 l-71 4 0 59 c0 52 -2 59 -20 59 -19 0 -20 -7 -20 -155z m164 -18 c21 -16 24 -60 6 -82 -8 -10 -31 -15 -71 -15 l-59 0 0 55 0 55 53 0 c29 0 61 -6 71 -13z"/>
 </g>
<g id="layer107" fill="#aecde9" stroke="none">
 <path d="M0 465 l0 -465 570 0 570 0 0 465 0 465 -570 0 -570 0 0 -465z m816 419 c28 -7 79 -32 113 -55 229 -153 260 -479 66 -674 -117 -116 -271 -154 -447 -110 -26 7 -40 25 -19 25 21 0 97 91 124 149 26 55 31 77 31 141 0 175 -124 315 -303 345 l-65 11 56 56 c119 118 277 158 444 112z m-369 -219 c65 -19 145 -90 181 -159 23 -45 26 -62 26 -146 0 -118 -21 -168 -103 -241 -164 -146 -423 -91 -514 110 -16 35 -21 67 -22 131 0 73 4 93 28 142 57 116 191 195 312 183 22 -2 63 -11 92 -20z"/>
 <path d="M770 495 l0 -135 95 0 c78 0 95 3 95 15 0 12 -15 15 -75 15 l-75 0 0 45 0 45 65 0 c51 0 65 3 65 15 0 12 -14 15 -65 15 l-65 0 0 60 c0 53 -2 60 -20 60 -19 0 -20 -7 -20 -135z"/>
 <path d="M230 355 l0 -155 85 0 c78 0 88 2 110 25 14 13 25 34 26 47 4 91 -16 111 -116 116 l-75 4 0 59 c0 46 -3 59 -15 59 -13 0 -15 -24 -15 -155z m164 -18 c21 -16 24 -60 6 -82 -9 -10 -32 -15 -76 -15 l-64 0 0 55 0 55 58 0 c33 0 66 -6 76 -13z"/>
 </g>
<g id="layer108" fill="#9ee9ff" stroke="none">
 <path d="M0 465 l0 -465 570 0 570 0 0 465 0 465 -570 0 -570 0 0 -465z m761 435 c83 -15 189 -72 243 -130 92 -98 139 -247 117 -371 -42 -245 -268 -410 -507 -370 -103 18 -104 19 -36 87 73 74 102 142 102 244 0 174 -118 311 -297 344 l-67 12 48 52 c74 79 203 137 312 141 17 1 56 -3 85 -9z m-285 -245 c62 -31 127 -94 157 -155 18 -37 22 -62 22 -140 0 -111 -19 -162 -88 -231 -160 -161 -435 -109 -531 100 -30 65 -29 197 0 262 43 92 130 163 231 189 58 14 151 3 209 -25z"/>
 <path d="M770 495 l0 -135 95 0 c78 0 95 3 95 15 0 12 -15 15 -75 15 l-75 0 0 45 0 45 65 0 c51 0 65 3 65 15 0 12 -14 15 -65 15 l-65 0 0 60 c0 53 -2 60 -20 60 -19 0 -20 -7 -20 -135z"/>
 <path d="M230 355 l0 -155 85 0 c78 0 88 2 110 25 14 13 25 34 26 47 4 91 -16 111 -116 116 l-75 4 0 59 c0 46 -3 59 -15 59 -13 0 -15 -24 -15 -155z m170 -20 c7 -8 13 -26 13 -40 0 -43 -19 -55 -89 -55 l-64 0 0 55 0 55 64 0 c44 0 67 -5 76 -15z"/>
 </g>
<g id="layer109" fill="#c8ddf0" stroke="none">
 <path d="M0 465 l0 -465 570 0 570 0 0 465 0 465 -570 0 -570 0 0 -465z m761 435 c83 -15 189 -72 243 -130 92 -98 139 -247 117 -371 -42 -245 -268 -410 -507 -370 -103 18 -104 19 -36 87 73 74 102 142 102 244 0 174 -118 311 -297 344 l-67 12 48 52 c74 79 203 137 312 141 17 1 56 -3 85 -9z m-285 -245 c62 -31 127 -94 157 -155 18 -37 22 -62 22 -140 0 -111 -19 -162 -88 -231 -160 -161 -435 -109 -531 100 -30 65 -29 197 0 262 43 92 130 163 231 189 58 14 151 3 209 -25z"/>
 <path d="M770 495 l0 -135 95 0 c78 0 95 3 95 15 0 12 -15 15 -75 15 l-75 0 0 45 0 45 65 0 c51 0 65 3 65 15 0 12 -14 15 -65 15 l-65 0 0 60 c0 53 -2 60 -20 60 -19 0 -20 -7 -20 -135z"/>
 <path d="M230 355 l0 -155 85 0 c78 0 88 2 110 25 14 13 25 34 26 47 4 91 -16 111 -116 116 l-75 4 0 59 c0 46 -3 59 -15 59 -13 0 -15 -24 -15 -155z m172 -22 c22 -20 23 -51 1 -75 -12 -14 -31 -18 -80 -18 l-63 0 0 55 0 55 62 0 c43 0 67 -5 80 -17z"/>
 </g>
<g id="layer110" fill="#daeff8" stroke="none">
 <path d="M0 465 l0 -465 570 0 570 0 0 465 0 465 -570 0 -570 0 0 -465z m795 430 c84 -22 147 -60 209 -125 110 -115 150 -264 111 -413 -22 -83 -50 -133 -113 -199 -116 -122 -303 -169 -455 -116 l-38 14 48 41 c70 59 115 147 121 237 5 85 -7 133 -50 206 -57 94 -163 158 -270 161 -57 3 -55 11 24 86 115 108 263 147 413 108z m-319 -239 c250 -115 248 -476 -4 -594 -47 -22 -71 -27 -137 -27 -101 0 -172 32 -239 106 -163 181 -80 470 154 536 63 18 160 9 226 -21z"/>
 <path d="M770 495 l0 -135 95 0 c78 0 95 3 95 15 0 12 -15 15 -75 15 l-75 0 0 45 0 45 65 0 c51 0 65 3 65 15 0 12 -14 15 -65 15 l-65 0 0 60 c0 53 -2 60 -20 60 -19 0 -20 -7 -20 -135z"/>
 <path d="M230 355 l0 -155 85 0 c78 0 88 2 110 25 14 13 25 34 26 47 4 91 -16 111 -116 116 l-75 4 0 59 c0 46 -3 59 -15 59 -13 0 -15 -24 -15 -155z m172 -22 c22 -20 23 -51 1 -75 -12 -14 -31 -18 -80 -18 l-63 0 0 55 0 55 62 0 c43 0 67 -5 80 -17z"/>
 </g>
<g id="layer111" fill="#ffe9db" stroke="none">
 <path d="M0 465 l0 -465 570 0 570 0 0 465 0 465 -570 0 -570 0 0 -465z m821 425 c123 -42 211 -120 266 -235 59 -126 58 -267 -4 -390 -76 -151 -227 -245 -396 -245 -70 0 -177 23 -177 38 0 4 16 18 35 32 52 37 112 131 125 197 42 200 -102 396 -302 411 -32 2 -58 8 -58 13 0 4 24 33 53 62 54 56 147 110 215 126 69 17 179 12 243 -9z m-337 -239 c117 -57 180 -160 180 -292 0 -67 -5 -86 -33 -143 -35 -71 -86 -122 -160 -157 -70 -34 -196 -33 -271 2 -66 32 -123 86 -158 154 -24 44 -27 62 -27 145 0 83 3 101 27 145 88 168 274 229 442 146z"/>
 <path d="M780 495 l0 -135 90 0 c73 0 90 3 90 15 0 12 -15 15 -75 15 l-75 0 0 45 0 45 65 0 c51 0 65 3 65 15 0 12 -14 15 -65 15 l-65 0 0 60 c0 47 -3 60 -15 60 -13 0 -15 -22 -15 -135z"/>
 <path d="M230 355 l0 -155 64 0 c126 0 159 21 158 102 -1 62 -23 78 -115 85 l-77 6 0 58 c0 46 -3 59 -15 59 -13 0 -15 -24 -15 -155z m174 -21 c19 -18 21 -65 4 -82 -7 -7 -40 -12 -80 -12 l-68 0 0 55 0 55 64 0 c45 0 69 -5 80 -16z"/>
 </g>
<g id="layer112" fill="#fefeff" stroke="none">
 <path d="M0 465 l0 -465 570 0 570 0 0 465 0 465 -570 0 -570 0 0 -465z m821 425 c123 -42 211 -120 266 -235 59 -126 58 -267 -4 -390 -76 -151 -227 -245 -396 -245 -70 0 -177 23 -177 38 0 4 16 18 35 32 52 37 112 131 125 197 42 200 -102 396 -302 411 -32 2 -58 8 -58 13 0 4 24 33 53 62 54 56 147 110 215 126 69 17 179 12 243 -9z m-337 -239 c117 -57 180 -160 180 -292 0 -67 -5 -86 -33 -143 -35 -71 -86 -122 -160 -157 -70 -34 -196 -33 -271 2 -66 32 -123 86 -158 154 -24 44 -27 62 -27 145 0 83 3 101 27 145 88 168 274 229 442 146z"/>
 <path d="M780 495 l0 -135 85 0 c69 0 85 3 85 15 0 12 -15 15 -75 15 l-75 0 0 45 0 45 65 0 c51 0 65 3 65 15 0 12 -14 15 -65 15 l-65 0 0 60 c0 33 -4 60 -10 60 -6 0 -10 -52 -10 -135z"/>
 <path d="M230 354 l0 -156 90 4 c98 5 114 12 129 64 10 34 -5 80 -33 103 -9 7 -48 16 -86 19 l-70 5 0 58 c0 46 -3 59 -15 59 -13 0 -15 -24 -15 -156z m174 -20 c19 -18 21 -65 4 -82 -7 -7 -40 -12 -80 -12 l-68 0 0 55 0 55 64 0 c45 0 69 -5 80 -16z"/>
 </g>

</svg>