<!DOCTYPE svg PUBLIC "-//W3C//DTD SVG 20010904//EN" "http://www.w3.org/TR/2001/REC-SVG-20010904/DTD/svg10.dtd">
<svg version="1.0" xmlns="http://www.w3.org/2000/svg" width="96px" height="96px" viewBox="0 0 960 960" preserveAspectRatio="xMidYMid meet">
<g id="layer101" fill="#010101" stroke="none">
 <path d="M0 480 l0 -480 480 0 480 0 0 480 0 480 -480 0 -480 0 0 -480z"/>
 </g>
<g id="layer102" fill="#20001a" stroke="none">
 <path d="M0 480 l0 -480 480 0 480 0 0 480 0 480 -480 0 -480 0 0 -480z m638 439 c327 -113 419 -541 167 -778 -67 -62 -153 -110 -212 -117 -37 -4 -37 -4 7 9 25 8 60 22 78 31 33 17 33 18 16 37 -21 24 -21 24 -105 -2 -60 -18 -69 -24 -69 -44 0 -13 8 -29 18 -34 13 -8 4 -10 -39 -11 -139 0 -242 42 -339 140 -61 61 -121 153 -108 166 4 3 9 -4 13 -15 7 -24 17 -26 43 -10 17 11 17 15 -3 85 -18 69 -22 74 -45 72 -27 -3 -29 -12 -17 -83 6 -30 5 -36 -3 -23 -6 10 -13 52 -17 95 -26 343 293 593 615 482z"/>
 <path d="M352 915 c-76 -23 -73 -21 -60 -50 9 -19 18 -25 32 -22 12 3 37 8 56 11 34 6 34 6 -5 -7 -226 -76 -335 -321 -238 -530 40 -83 88 -136 162 -176 110 -58 234 -62 347 -11 70 32 157 125 184 197 97 256 -61 509 -335 533 -44 4 -74 8 -67 9 6 0 12 14 12 31 0 35 -16 38 -88 15z m-142 -360 l0 -55 39 0 c32 0 44 6 66 32 15 18 32 43 38 55 6 13 16 23 24 23 11 0 10 -6 -4 -31 -10 -17 -28 -42 -40 -55 l-23 -25 25 -11 c45 -20 48 -94 5 -115 -14 -7 -53 -13 -87 -13 l-63 0 0 125 c0 77 4 125 10 125 6 0 10 -25 10 -55z m364 45 c26 -10 63 -56 52 -67 -3 -3 -15 6 -27 20 -15 20 -29 27 -55 27 -49 0 -71 -14 -84 -56 -15 -45 0 -108 30 -124 32 -17 82 -12 107 12 32 30 39 17 10 -18 -43 -49 -133 -33 -158 29 -28 67 -6 150 45 173 38 16 48 17 80 4z m227 -50 c10 0 19 -7 19 -15 0 -8 -9 -15 -20 -15 -17 0 -19 -8 -22 -82 l-3 -81 -58 84 c-31 46 -57 90 -57 97 0 8 18 12 55 12 l55 0 2 33 1 32 4 -32 c3 -25 9 -33 24 -33z"/>
 <path d="M210 430 l0 -40 65 0 c54 0 66 3 75 20 8 14 8 26 0 40 -9 17 -21 20 -75 20 l-65 0 0 -40z"/>
 <path d="M686 508 c22 -38 68 -98 76 -98 4 0 8 25 8 55 l0 55 -46 0 c-33 0 -43 -3 -38 -12z"/>
 <path d="M610 880 c0 -20 6 -33 18 -37 9 -4 34 -17 54 -30 47 -29 56 -29 70 2 13 29 2 42 -69 75 -59 28 -73 26 -73 -10z"/>
 <path d="M116 747 c-14 -18 -32 -49 -40 -69 -15 -35 -15 -35 12 -47 19 -9 27 -10 30 -1 2 6 19 34 38 61 19 28 34 52 34 54 0 1 -11 10 -25 19 -23 15 -25 15 -49 -17z"/>
 <path d="M855 688 c-11 -6 -22 -12 -24 -14 -2 -2 5 -31 15 -64 18 -58 20 -61 49 -58 26 3 30 7 28 31 -2 33 -33 117 -42 117 -3 0 -15 -6 -26 -12z"/>
 <path d="M838 322 l-28 -67 22 -17 c28 -21 33 -17 62 40 33 67 39 99 20 106 -38 14 -49 5 -76 -62z"/>
 <path d="M216 145 c-24 -18 -13 -32 55 -70 42 -22 53 -25 60 -14 18 29 8 47 -41 73 -58 30 -50 29 -74 11z"/>
 </g>
<g id="layer103" fill="#000066" stroke="none">
 <path d="M0 480 l0 -480 480 0 480 0 0 480 0 480 -480 0 -480 0 0 -480z m558 460 c92 -13 183 -59 251 -128 244 -243 159 -648 -163 -775 -70 -28 -238 -30 -312 -4 -119 41 -240 159 -285 277 -11 30 -23 87 -26 127 -21 273 177 497 452 512 11 0 48 -4 83 -9z"/>
 <path d="M355 916 c-23 -7 -49 -17 -58 -23 -17 -9 -17 -10 0 -32 19 -23 19 -23 76 -6 53 15 57 19 57 46 0 33 -11 35 -75 15z"/>
 <path d="M617 903 c-4 -3 -7 -17 -7 -30 0 -16 9 -27 33 -37 17 -8 44 -23 59 -33 27 -17 28 -17 42 2 24 32 19 40 -43 74 -61 32 -73 36 -84 24z"/>
 <path d="M377 846 c-59 -17 -137 -67 -178 -114 -18 -20 -46 -66 -63 -102 -27 -58 -30 -75 -30 -155 0 -78 4 -98 30 -155 39 -84 110 -154 194 -194 57 -27 75 -30 151 -30 74 1 95 5 150 31 112 52 170 117 209 234 60 175 -26 377 -196 460 -53 26 -80 33 -142 35 -45 2 -97 -2 -125 -10z m-167 -292 l0 -55 42 3 c39 3 46 8 78 55 39 58 74 76 43 22 -10 -17 -28 -42 -40 -55 l-23 -25 25 -11 c45 -20 48 -94 5 -115 -14 -7 -53 -13 -87 -13 l-63 0 0 125 c0 77 4 125 10 125 6 0 10 -25 10 -56z m364 46 c26 -10 63 -56 52 -67 -3 -3 -15 6 -27 20 -15 20 -29 27 -55 27 -49 0 -71 -14 -84 -56 -15 -45 0 -108 30 -124 32 -17 82 -12 107 12 30 28 39 18 13 -15 -27 -34 -68 -42 -114 -23 -85 35 -86 185 -3 221 39 17 48 18 81 5z m227 -50 c10 0 19 -7 19 -15 0 -8 -9 -15 -20 -15 -17 0 -19 -8 -22 -81 l-3 -82 -57 82 c-32 45 -58 88 -58 96 0 11 13 15 55 15 l55 0 2 33 1 32 4 -32 c3 -25 9 -33 24 -33z"/>
 <path d="M210 430 l0 -40 54 0 c69 0 86 7 86 34 0 35 -20 46 -82 46 l-58 0 0 -40z"/>
 <path d="M686 508 c22 -38 68 -98 76 -98 4 0 8 25 8 55 l0 55 -46 0 c-33 0 -43 -3 -38 -12z"/>
 <path d="M105 730 c-45 -71 -47 -86 -18 -99 14 -7 27 -10 28 -9 1 2 10 19 20 38 9 19 27 45 39 58 21 23 21 24 2 38 -31 22 -44 17 -71 -26z"/>
 <path d="M852 682 l-23 -18 18 -57 c17 -54 20 -57 48 -55 26 3 30 7 28 31 -2 33 -33 117 -42 117 -3 0 -16 -8 -29 -18z"/>
 <path d="M35 440 c-10 -15 30 -160 44 -160 4 0 16 6 26 14 17 12 18 18 8 48 -7 18 -15 50 -19 71 -5 30 -10 37 -30 37 -12 0 -25 -4 -29 -10z"/>
 <path d="M860 378 c0 -7 -12 -38 -26 -68 l-25 -54 23 -18 c22 -17 24 -17 40 3 9 11 26 45 38 76 17 45 18 58 8 64 -20 13 -58 11 -58 -3z"/>
 <path d="M216 141 c-16 -18 -16 -20 11 -39 35 -24 94 -55 98 -50 2 2 6 14 9 28 6 22 0 28 -44 53 -27 15 -52 27 -53 27 -2 0 -12 -9 -21 -19z"/>
 <path d="M625 110 c-11 -5 -39 -14 -62 -20 -36 -9 -43 -15 -43 -35 0 -13 4 -26 9 -29 11 -7 113 20 152 40 30 15 30 16 13 35 -18 20 -37 23 -69 9z"/>
 </g>
<g id="layer104" fill="#660000" stroke="none">
 <path d="M0 480 l0 -480 480 0 480 0 0 480 0 480 -480 0 -480 0 0 -480z m558 460 c92 -13 183 -59 251 -128 244 -243 159 -648 -163 -775 -70 -28 -238 -30 -312 -4 -119 41 -240 159 -285 277 -11 30 -23 87 -26 127 -21 273 177 497 452 512 11 0 48 -4 83 -9z"/>
 <path d="M355 916 c-23 -7 -49 -17 -58 -23 -17 -9 -17 -10 0 -32 19 -23 19 -23 76 -6 53 15 57 19 57 46 0 33 -11 35 -75 15z"/>
 <path d="M617 903 c-4 -3 -7 -17 -7 -30 0 -16 9 -27 33 -37 17 -8 44 -23 59 -33 27 -17 28 -17 42 2 24 32 19 40 -43 74 -61 32 -73 36 -84 24z"/>
 <path d="M377 846 c-59 -17 -137 -67 -178 -114 -18 -20 -46 -66 -63 -102 -27 -58 -30 -75 -30 -155 0 -78 4 -98 30 -155 39 -84 110 -154 194 -194 57 -27 75 -30 151 -30 74 1 95 5 150 31 112 52 170 117 209 234 60 175 -26 377 -196 460 -53 26 -80 33 -142 35 -45 2 -97 -2 -125 -10z m-167 -292 l0 -55 42 3 c39 3 46 8 78 55 19 29 41 52 48 53 6 0 12 -3 12 -6 0 -11 -60 -92 -72 -97 -8 -3 -1 -9 15 -16 37 -14 54 -53 39 -86 -15 -33 -49 -45 -123 -45 l-59 0 0 125 c0 77 4 125 10 125 6 0 10 -25 10 -56z m375 41 c18 -9 37 -27 43 -40 15 -34 -4 -33 -30 0 -26 33 -82 34 -115 3 -32 -30 -33 -111 -1 -145 28 -30 83 -31 115 -1 31 29 43 15 13 -17 -73 -78 -194 -5 -176 108 9 55 23 77 59 92 41 18 52 18 92 0z m205 -15 c0 -20 5 -30 15 -30 8 0 15 -7 15 -15 0 -8 -7 -15 -15 -15 -12 0 -15 -16 -15 -80 0 -44 -4 -80 -8 -80 -13 0 -122 158 -122 175 0 11 13 15 55 15 54 0 55 0 55 30 0 17 5 30 10 30 6 0 10 -13 10 -30z"/>
 <path d="M210 430 l0 -40 54 0 c69 0 86 7 86 34 0 35 -20 46 -82 46 l-58 0 0 -40z"/>
 <path d="M711 475 c54 -75 59 -76 59 -11 l0 56 -46 0 -45 0 32 -45z"/>
 <path d="M105 730 c-45 -71 -47 -86 -18 -99 14 -7 27 -10 28 -9 1 2 10 19 20 38 9 19 27 45 39 58 21 23 21 24 2 38 -31 22 -44 17 -71 -26z"/>
 <path d="M852 682 l-23 -18 18 -57 c17 -54 20 -57 48 -55 26 3 30 7 28 31 -2 33 -33 117 -42 117 -3 0 -16 -8 -29 -18z"/>
 <path d="M35 440 c-10 -15 30 -160 44 -160 4 0 16 6 26 14 17 12 18 18 8 48 -7 18 -15 50 -19 71 -5 30 -10 37 -30 37 -12 0 -25 -4 -29 -10z"/>
 <path d="M860 378 c0 -7 -12 -38 -26 -68 l-25 -54 23 -18 c22 -17 24 -17 40 3 9 11 26 45 38 76 17 45 18 58 8 64 -20 13 -58 11 -58 -3z"/>
 <path d="M216 141 c-16 -18 -16 -20 11 -39 35 -24 94 -55 98 -50 2 2 6 14 9 28 6 22 0 28 -44 53 -27 15 -52 27 -53 27 -2 0 -12 -9 -21 -19z"/>
 <path d="M625 110 c-11 -5 -39 -14 -62 -20 -36 -9 -43 -15 -43 -35 0 -13 4 -26 9 -29 11 -7 113 20 152 40 30 15 30 16 13 35 -18 20 -37 23 -69 9z"/>
 </g>
<g id="layer105" fill="#303030" stroke="none">
 <path d="M0 480 l0 -480 480 0 480 0 0 480 0 480 -480 0 -480 0 0 -480z m558 460 c92 -13 183 -59 251 -128 244 -243 159 -648 -163 -775 -70 -28 -238 -30 -312 -4 -119 41 -240 159 -285 277 -11 30 -23 87 -26 127 -21 273 177 497 452 512 11 0 48 -4 83 -9z"/>
 <path d="M355 916 c-23 -7 -49 -17 -58 -23 -17 -9 -17 -10 0 -32 19 -23 19 -23 76 -6 53 15 57 19 57 46 0 33 -11 35 -75 15z"/>
 <path d="M617 903 c-4 -3 -7 -17 -7 -30 0 -16 9 -27 33 -37 17 -8 44 -23 59 -33 27 -17 28 -17 42 2 24 32 19 40 -43 74 -61 32 -73 36 -84 24z"/>
 <path d="M377 846 c-59 -17 -137 -67 -178 -114 -18 -20 -46 -66 -63 -102 -27 -58 -30 -75 -30 -155 0 -78 4 -98 30 -155 39 -84 110 -154 194 -194 57 -27 75 -30 151 -30 74 1 95 5 150 31 112 52 170 117 209 234 60 175 -26 377 -196 460 -53 26 -80 33 -142 35 -45 2 -97 -2 -125 -10z m-167 -292 l0 -55 43 3 c38 3 45 8 75 53 29 43 62 70 62 50 0 -12 -60 -93 -72 -98 -8 -3 -1 -9 15 -16 37 -14 54 -53 39 -86 -15 -33 -49 -45 -123 -45 l-59 0 0 125 c0 77 4 125 10 125 6 0 10 -25 10 -56z m375 41 c18 -9 37 -27 43 -40 15 -34 -4 -33 -30 0 -26 33 -82 34 -115 3 -32 -30 -33 -111 -1 -145 28 -30 92 -32 110 -3 13 20 38 28 38 12 0 -15 -44 -50 -71 -57 -15 -4 -41 0 -63 9 -85 35 -87 185 -4 221 42 18 53 18 93 0z m205 -15 c0 -20 5 -30 15 -30 8 0 15 -7 15 -15 0 -8 -7 -15 -15 -15 -12 0 -15 -16 -15 -80 0 -44 -4 -80 -9 -80 -14 0 -121 155 -121 174 0 13 11 16 50 16 49 0 50 1 50 30 0 20 5 30 15 30 10 0 15 -10 15 -30z"/>
 <path d="M210 430 l0 -41 61 3 c69 3 94 22 73 56 -8 12 -27 18 -73 20 l-61 3 0 -41z"/>
 <path d="M712 474 c18 -25 36 -48 40 -50 5 -3 8 18 8 45 l0 51 -41 0 -40 0 33 -46z"/>
 <path d="M105 730 c-45 -71 -47 -86 -18 -99 14 -7 27 -10 28 -9 1 2 10 19 20 38 9 19 27 45 39 58 21 23 21 24 2 38 -31 22 -44 17 -71 -26z"/>
 <path d="M852 682 l-23 -18 18 -57 c17 -54 20 -57 48 -55 26 3 30 7 28 31 -2 33 -33 117 -42 117 -3 0 -16 -8 -29 -18z"/>
 <path d="M35 440 c-10 -15 30 -160 44 -160 4 0 16 6 26 14 17 12 18 18 8 48 -7 18 -15 50 -19 71 -5 30 -10 37 -30 37 -12 0 -25 -4 -29 -10z"/>
 <path d="M860 378 c0 -7 -12 -38 -26 -68 l-25 -54 23 -18 c22 -17 24 -17 40 3 9 11 26 45 38 76 17 45 18 58 8 64 -20 13 -58 11 -58 -3z"/>
 <path d="M216 141 c-16 -18 -16 -20 11 -39 35 -24 94 -55 98 -50 2 2 6 14 9 28 6 22 0 28 -44 53 -27 15 -52 27 -53 27 -2 0 -12 -9 -21 -19z"/>
 <path d="M625 110 c-11 -5 -39 -14 -62 -20 -36 -9 -43 -15 -43 -35 0 -13 4 -26 9 -29 11 -7 113 20 152 40 30 15 30 16 13 35 -18 20 -37 23 -69 9z"/>
 </g>
<g id="layer106" fill="#663a17" stroke="none">
 <path d="M0 480 l0 -480 263 2 c173 1 237 3 187 8 -182 17 -337 132 -401 297 -27 72 -36 204 -19 282 35 162 175 301 347 346 222 58 468 -75 549 -295 9 -25 19 -81 24 -125 5 -58 8 -8 9 183 l1 262 -480 0 -480 0 0 -480z"/>
 <path d="M346 912 c-54 -19 -63 -29 -44 -54 12 -16 17 -16 71 -1 52 15 57 19 57 45 0 33 -11 34 -84 10z"/>
 <path d="M614 885 c-3 -14 -5 -27 -3 -29 2 -1 29 -17 60 -34 55 -30 57 -30 74 -12 21 23 15 33 -38 64 -69 39 -85 41 -93 11z"/>
 <path d="M397 849 c-189 -44 -322 -246 -288 -435 29 -158 134 -270 291 -310 166 -42 345 49 424 216 27 58 30 75 30 156 1 85 -2 96 -37 167 -80 161 -252 246 -420 206z m-187 -295 l0 -55 43 3 c38 3 45 8 75 53 29 43 62 70 62 50 0 -12 -60 -93 -72 -98 -8 -3 -2 -9 14 -15 51 -21 62 -69 23 -107 -21 -22 -33 -25 -95 -25 l-70 0 0 125 c0 77 4 125 10 125 6 0 10 -25 10 -56z m386 38 c12 -10 26 -28 33 -40 17 -31 -5 -29 -31 3 -26 33 -82 34 -115 3 -32 -30 -33 -111 -1 -145 28 -30 92 -32 110 -3 12 19 38 28 38 13 0 -17 -56 -63 -77 -63 -92 0 -145 85 -112 179 21 61 109 91 155 53z m194 -12 c0 -20 5 -30 15 -30 8 0 15 -7 15 -15 0 -8 -7 -15 -15 -15 -12 0 -15 -16 -15 -80 0 -44 -4 -80 -9 -80 -14 0 -121 155 -121 174 0 13 11 16 50 16 49 0 50 1 50 30 0 20 5 30 15 30 10 0 15 -10 15 -30z"/>
 <path d="M210 430 l0 -41 61 3 c69 3 94 22 73 56 -8 12 -27 18 -73 20 l-61 3 0 -41z"/>
 <path d="M712 474 c18 -25 36 -48 40 -50 5 -3 8 18 8 45 l0 51 -41 0 -40 0 33 -46z"/>
 <path d="M114 737 c-50 -74 -54 -107 -16 -107 13 0 31 20 54 59 32 55 33 59 16 70 -26 16 -31 14 -54 -22z"/>
 <path d="M847 678 c-15 -12 -15 -17 2 -66 22 -64 22 -65 55 -56 31 8 31 9 5 79 -21 56 -33 64 -62 43z"/>
 <path d="M47 443 c-12 -11 -8 -59 10 -112 17 -55 20 -58 46 -38 16 11 16 16 0 85 -13 53 -21 72 -33 72 -9 0 -20 -3 -23 -7z"/>
 <path d="M941 375 c-27 -120 -114 -241 -218 -302 -26 -15 -81 -37 -122 -50 l-76 -22 218 0 217 -1 0 215 c0 118 -2 215 -3 215 -2 0 -9 -25 -16 -55z"/>
 <path d="M851 348 c-7 -24 -19 -54 -28 -66 -8 -13 -13 -25 -11 -25 2 -1 13 -10 24 -20 21 -17 22 -17 39 9 30 46 55 128 42 136 -31 20 -54 8 -66 -34z"/>
 <path d="M216 141 c-17 -19 -16 -21 24 -46 59 -37 90 -48 90 -31 0 8 3 21 6 29 3 10 -3 18 -18 22 -13 4 -35 16 -50 26 -32 23 -31 23 -52 0z"/>
 <path d="M588 97 c-60 -18 -68 -24 -68 -45 0 -24 2 -25 48 -19 26 3 69 15 96 26 48 21 48 22 31 41 -21 24 -21 24 -107 -3z"/>
 </g>
<g id="layer107" fill="#273a66" stroke="none">
 <path d="M0 480 l0 -480 263 2 c173 1 237 3 187 8 -182 17 -337 132 -401 297 -27 72 -36 204 -19 282 35 162 175 301 347 346 222 58 468 -75 549 -295 9 -25 19 -81 24 -125 5 -58 8 -8 9 183 l1 262 -480 0 -480 0 0 -480z"/>
 <path d="M346 912 c-54 -19 -63 -29 -44 -54 12 -16 17 -16 71 -1 52 15 57 19 57 45 0 33 -11 34 -84 10z"/>
 <path d="M614 885 c-3 -14 -5 -27 -3 -29 2 -1 29 -17 60 -34 55 -30 57 -30 74 -12 21 23 15 33 -38 64 -69 39 -85 41 -93 11z"/>
 <path d="M397 849 c-189 -44 -322 -246 -288 -435 29 -158 134 -270 291 -310 166 -42 345 49 424 216 27 58 30 75 30 156 1 85 -2 96 -37 167 -80 161 -252 246 -420 206z m-187 -295 l0 -55 43 3 c38 3 45 8 75 53 29 43 62 70 62 50 0 -12 -60 -93 -72 -98 -8 -3 -2 -9 14 -15 51 -21 62 -69 23 -107 -21 -22 -33 -25 -95 -25 l-70 0 0 125 c0 77 4 125 10 125 6 0 10 -25 10 -56z m386 38 c33 -28 47 -59 29 -66 -9 -3 -15 0 -15 9 0 21 -40 45 -74 45 -17 0 -40 -10 -53 -22 -32 -30 -33 -111 -1 -145 27 -29 80 -31 108 -3 20 20 40 26 40 13 0 -4 -12 -20 -27 -35 -50 -53 -139 -26 -163 48 -21 64 5 145 53 164 36 14 80 11 103 -8z m194 -12 c0 -20 5 -30 15 -30 8 0 15 -7 15 -15 0 -8 -7 -15 -15 -15 -12 0 -15 -16 -15 -80 0 -44 -4 -80 -9 -80 -14 0 -121 155 -121 174 0 13 11 16 50 16 49 0 50 1 50 30 0 20 5 30 15 30 10 0 15 -10 15 -30z"/>
 <path d="M210 430 l0 -41 61 3 c69 3 94 22 73 56 -8 12 -27 18 -73 20 l-61 3 0 -41z"/>
 <path d="M712 474 c18 -25 36 -48 40 -50 5 -3 8 18 8 45 l0 51 -41 0 -40 0 33 -46z"/>
 <path d="M114 737 c-50 -74 -54 -107 -16 -107 13 0 31 20 54 59 32 55 33 59 16 70 -26 16 -31 14 -54 -22z"/>
 <path d="M847 678 c-15 -12 -15 -17 2 -66 22 -64 22 -65 55 -56 31 8 31 9 5 79 -21 56 -33 64 -62 43z"/>
 <path d="M47 443 c-12 -11 -8 -59 10 -112 17 -55 20 -58 46 -38 16 11 16 16 0 85 -13 53 -21 72 -33 72 -9 0 -20 -3 -23 -7z"/>
 <path d="M941 375 c-27 -120 -114 -241 -218 -302 -26 -15 -81 -37 -122 -50 l-76 -22 218 0 217 -1 0 215 c0 118 -2 215 -3 215 -2 0 -9 -25 -16 -55z"/>
 <path d="M851 348 c-7 -24 -19 -54 -28 -66 -8 -13 -13 -25 -11 -25 2 -1 13 -10 24 -20 21 -17 22 -17 39 9 30 46 55 128 42 136 -31 20 -54 8 -66 -34z"/>
 <path d="M216 141 c-17 -19 -16 -21 24 -46 59 -37 90 -48 90 -31 0 8 3 21 6 29 3 10 -3 18 -18 22 -13 4 -35 16 -50 26 -32 23 -31 23 -52 0z"/>
 <path d="M588 97 c-60 -18 -68 -24 -68 -45 0 -24 2 -25 48 -19 26 3 69 15 96 26 48 21 48 22 31 41 -21 24 -21 24 -107 -3z"/>
 </g>
<g id="layer108" fill="#003a90" stroke="none">
 <path d="M0 480 l0 -480 263 2 c173 1 237 3 187 8 -182 17 -337 132 -401 297 -27 72 -36 204 -19 282 35 162 175 301 347 346 222 58 468 -75 549 -295 9 -25 19 -81 24 -125 5 -58 8 -8 9 183 l1 262 -480 0 -480 0 0 -480z"/>
 <path d="M346 912 c-54 -19 -63 -29 -44 -54 12 -16 17 -16 71 -1 52 15 57 19 57 45 0 33 -11 34 -84 10z"/>
 <path d="M614 885 c-3 -14 -5 -27 -3 -29 2 -1 29 -17 60 -34 55 -30 57 -30 74 -12 21 23 15 33 -38 64 -69 39 -85 41 -93 11z"/>
 <path d="M397 849 c-189 -44 -322 -246 -288 -435 29 -158 134 -270 291 -310 166 -42 345 49 424 216 27 58 30 75 30 156 1 85 -2 96 -37 167 -80 161 -252 246 -420 206z m-187 -295 l0 -55 43 3 c38 3 45 8 75 53 19 28 40 51 48 53 21 5 17 -9 -20 -58 l-33 -45 29 -27 c34 -32 36 -61 3 -93 -21 -22 -33 -25 -95 -25 l-70 0 0 125 c0 77 4 125 10 125 6 0 10 -25 10 -56z m386 38 c33 -26 47 -59 29 -66 -9 -3 -15 0 -15 9 0 20 -40 45 -71 45 -14 0 -38 -9 -53 -21 -22 -18 -26 -28 -26 -74 0 -46 4 -56 26 -74 37 -29 79 -27 109 4 15 17 26 22 30 15 4 -7 -5 -25 -21 -41 -94 -98 -226 59 -149 178 29 43 102 57 141 25z m194 -12 c0 -20 5 -30 15 -30 8 0 15 -7 15 -15 0 -8 -7 -15 -15 -15 -12 0 -15 -16 -15 -80 0 -44 -4 -80 -9 -80 -14 0 -121 155 -121 174 0 13 11 16 50 16 49 0 50 1 50 30 0 20 5 30 15 30 10 0 15 -10 15 -30z"/>
 <path d="M210 430 l0 -41 61 3 c69 3 94 22 73 56 -8 12 -27 18 -73 20 l-61 3 0 -41z"/>
 <path d="M712 474 c18 -25 36 -48 40 -50 5 -3 8 18 8 45 l0 51 -41 0 -40 0 33 -46z"/>
 <path d="M114 737 c-50 -74 -54 -107 -16 -107 13 0 31 20 54 59 32 55 33 59 16 70 -26 16 -31 14 -54 -22z"/>
 <path d="M847 678 c-15 -12 -15 -17 2 -66 22 -64 22 -65 55 -56 31 8 31 9 5 79 -21 56 -33 64 -62 43z"/>
 <path d="M47 443 c-12 -11 -8 -59 10 -112 17 -55 20 -58 46 -38 16 11 16 16 0 85 -13 53 -21 72 -33 72 -9 0 -20 -3 -23 -7z"/>
 <path d="M941 375 c-27 -120 -114 -241 -218 -302 -26 -15 -81 -37 -122 -50 l-76 -22 218 0 217 -1 0 215 c0 118 -2 215 -3 215 -2 0 -9 -25 -16 -55z"/>
 <path d="M851 348 c-7 -24 -19 -54 -28 -66 -8 -13 -13 -25 -11 -25 2 -1 13 -10 24 -20 21 -17 22 -17 39 9 30 46 55 128 42 136 -31 20 -54 8 -66 -34z"/>
 <path d="M216 141 c-17 -19 -16 -21 24 -46 59 -37 90 -48 90 -31 0 8 3 21 6 29 3 10 -3 18 -18 22 -13 4 -35 16 -50 26 -32 23 -31 23 -52 0z"/>
 <path d="M588 97 c-60 -18 -68 -24 -68 -45 0 -24 2 -25 48 -19 26 3 69 15 96 26 48 21 48 22 31 41 -21 24 -21 24 -107 -3z"/>
 </g>
<g id="layer109" fill="#525252" stroke="none">
 <path d="M0 480 l0 -480 263 2 c173 1 237 3 187 8 -182 17 -337 132 -401 297 -27 72 -36 204 -19 282 35 162 175 301 347 346 222 58 468 -75 549 -295 9 -25 19 -81 24 -125 5 -58 8 -8 9 183 l1 262 -480 0 -480 0 0 -480z"/>
 <path d="M346 912 c-54 -19 -63 -29 -44 -54 12 -16 17 -16 71 -1 52 15 57 19 57 45 0 33 -11 34 -84 10z"/>
 <path d="M614 885 c-3 -14 -5 -27 -3 -29 2 -1 29 -17 60 -34 55 -30 57 -30 74 -12 21 23 15 33 -38 64 -69 39 -85 41 -93 11z"/>
 <path d="M397 849 c-189 -44 -322 -246 -288 -435 29 -158 134 -270 291 -310 166 -42 345 49 424 216 27 58 30 75 30 156 1 85 -2 96 -37 167 -80 161 -252 246 -420 206z m-177 -294 l0 -55 35 0 c34 0 56 20 100 95 6 10 18 16 28 14 14 -3 11 -12 -21 -54 l-39 -51 29 -26 c34 -32 36 -61 3 -93 -21 -22 -33 -25 -95 -25 l-70 0 0 125 c0 104 2 125 15 125 12 0 15 -13 15 -55z m376 37 c33 -26 47 -59 29 -66 -9 -3 -15 0 -15 9 0 20 -40 45 -73 45 -71 0 -106 -111 -52 -165 32 -33 78 -33 109 0 13 13 26 22 29 18 23 -22 -33 -73 -80 -73 -93 0 -144 120 -88 207 29 43 102 57 141 25z m194 -12 c0 -20 5 -30 15 -30 8 0 15 -7 15 -15 0 -8 -7 -15 -15 -15 -12 0 -15 -16 -15 -80 0 -44 -4 -80 -9 -80 -14 0 -121 155 -121 174 0 13 11 16 50 16 49 0 50 1 50 30 0 20 5 30 15 30 10 0 15 -10 15 -30z"/>
 <path d="M220 430 l0 -41 56 3 c41 2 60 8 68 21 20 32 -4 52 -68 55 l-56 3 0 -41z"/>
 <path d="M690 514 c0 -8 60 -94 65 -94 3 0 5 23 5 50 l0 50 -35 0 c-19 0 -35 -3 -35 -6z"/>
 <path d="M114 737 c-50 -74 -54 -107 -16 -107 13 0 31 20 54 59 32 55 33 59 16 70 -26 16 -31 14 -54 -22z"/>
 <path d="M847 678 c-15 -12 -15 -17 2 -66 22 -64 22 -65 55 -56 31 8 31 9 5 79 -21 56 -33 64 -62 43z"/>
 <path d="M47 443 c-12 -11 -8 -59 10 -112 17 -55 20 -58 46 -38 16 11 16 16 0 85 -13 53 -21 72 -33 72 -9 0 -20 -3 -23 -7z"/>
 <path d="M941 375 c-27 -120 -114 -241 -218 -302 -26 -15 -81 -37 -122 -50 l-76 -22 218 0 217 -1 0 215 c0 118 -2 215 -3 215 -2 0 -9 -25 -16 -55z"/>
 <path d="M851 348 c-7 -24 -19 -54 -28 -66 -8 -13 -13 -25 -11 -25 2 -1 13 -10 24 -20 21 -17 22 -17 39 9 30 46 55 128 42 136 -31 20 -54 8 -66 -34z"/>
 <path d="M216 141 c-17 -19 -16 -21 24 -46 59 -37 90 -48 90 -31 0 8 3 21 6 29 3 10 -3 18 -18 22 -13 4 -35 16 -50 26 -32 23 -31 23 -52 0z"/>
 <path d="M588 97 c-60 -18 -68 -24 -68 -45 0 -24 2 -25 48 -19 26 3 69 15 96 26 48 21 48 22 31 41 -21 24 -21 24 -107 -3z"/>
 </g>
<g id="layer110" fill="#9f550f" stroke="none">
 <path d="M0 480 l0 -480 263 2 c181 1 239 3 187 8 -132 13 -218 54 -305 146 -105 111 -149 259 -121 407 33 169 144 301 302 359 46 17 81 22 159 22 112 0 180 -19 257 -72 128 -88 193 -199 208 -357 5 -58 8 -8 9 183 l1 262 -480 0 -480 0 0 -480z"/>
 <path d="M351 912 c-59 -19 -68 -29 -49 -55 12 -15 17 -15 70 1 52 15 58 20 58 45 0 31 -5 32 -79 9z"/>
 <path d="M616 884 c-4 -14 -6 -27 -4 -29 2 -1 29 -16 61 -32 57 -31 57 -31 72 -10 18 25 14 31 -38 61 -68 39 -84 41 -91 10z"/>
 <path d="M409 850 c-53 -9 -130 -47 -176 -87 -94 -82 -146 -229 -123 -349 39 -206 228 -346 423 -314 169 27 292 152 318 323 31 198 -105 390 -303 427 -57 11 -73 11 -139 0z m-189 -295 l0 -55 35 0 c34 0 56 20 100 95 6 10 18 16 28 14 14 -3 11 -12 -21 -54 l-39 -51 29 -26 c34 -32 36 -61 3 -93 -21 -22 -33 -25 -95 -25 l-70 0 0 125 c0 104 2 125 15 125 12 0 15 -13 15 -55z m376 37 c33 -26 47 -59 29 -66 -9 -3 -15 0 -15 9 0 20 -40 45 -73 45 -71 0 -106 -111 -52 -165 32 -33 78 -33 109 0 13 13 26 22 29 18 23 -22 -33 -73 -80 -73 -93 0 -144 120 -88 207 29 43 102 57 141 25z m194 -12 c0 -20 5 -30 15 -30 8 0 15 -7 15 -15 0 -8 -7 -15 -15 -15 -12 0 -15 -16 -15 -80 0 -44 -4 -80 -9 -80 -14 0 -121 155 -121 174 0 13 11 16 50 16 49 0 50 1 50 30 0 20 5 30 15 30 10 0 15 -10 15 -30z"/>
 <path d="M220 430 l0 -41 56 3 c41 2 60 8 68 21 20 32 -4 52 -68 55 l-56 3 0 -41z"/>
 <path d="M690 514 c0 -8 60 -94 65 -94 3 0 5 23 5 50 l0 50 -35 0 c-19 0 -35 -3 -35 -6z"/>
 <path d="M102 717 c-18 -29 -32 -58 -32 -64 0 -16 43 -29 48 -14 2 6 19 33 37 60 l34 48 -25 12 c-14 6 -26 11 -27 11 -2 0 -17 -24 -35 -53z"/>
 <path d="M847 678 c-16 -12 -16 -17 4 -68 11 -30 22 -56 24 -58 6 -6 55 11 55 19 0 4 -9 33 -21 64 -21 56 -33 64 -62 43z"/>
 <path d="M53 443 c-7 -2 -13 -15 -13 -28 0 -29 32 -135 40 -135 3 0 14 6 25 13 17 13 17 16 1 62 -9 27 -16 59 -16 72 0 22 -11 27 -37 16z"/>
 <path d="M942 378 c-42 -179 -176 -313 -362 -362 -53 -14 -47 -15 163 -15 l217 -1 0 215 c0 118 -1 215 -3 215 -1 0 -8 -24 -15 -52z"/>
 <path d="M860 374 c0 -11 -11 -42 -24 -70 -23 -49 -23 -51 -5 -62 30 -19 35 -15 63 47 29 66 33 91 12 91 -8 0 -21 3 -30 6 -11 4 -16 0 -16 -12z"/>
 <path d="M218 141 l-22 -18 55 -32 c64 -37 79 -38 79 -8 -1 15 -14 30 -45 49 -43 26 -45 26 -67 9z"/>
 <path d="M625 106 c-16 -7 -47 -16 -68 -20 -29 -5 -37 -11 -33 -22 3 -9 6 -20 6 -26 0 -15 72 -2 133 24 l50 22 -23 18 c-26 21 -26 21 -65 4z"/>
 </g>
<g id="layer111" fill="#1e66af" stroke="none">
 <path d="M0 480 l0 -480 263 2 c181 1 239 3 187 8 -132 13 -218 54 -305 146 -105 111 -149 259 -121 407 33 169 144 301 302 359 46 17 81 22 159 22 112 0 180 -19 257 -72 128 -88 193 -199 208 -357 5 -58 8 -8 9 183 l1 262 -480 0 -480 0 0 -480z"/>
 <path d="M351 912 c-59 -19 -68 -29 -49 -55 12 -15 17 -15 70 1 52 15 58 20 58 45 0 31 -5 32 -79 9z"/>
 <path d="M616 884 c-4 -14 -6 -27 -4 -29 2 -1 29 -16 61 -32 57 -31 57 -31 72 -10 18 25 14 31 -38 61 -68 39 -84 41 -91 10z"/>
 <path d="M409 850 c-53 -9 -130 -47 -176 -87 -94 -82 -146 -229 -123 -349 39 -206 228 -346 423 -314 169 27 292 152 318 323 31 198 -105 390 -303 427 -57 11 -73 11 -139 0z m-189 -295 c0 -54 0 -55 30 -55 31 0 57 22 91 78 12 18 29 32 40 32 18 0 17 -4 -11 -44 -16 -25 -35 -48 -40 -51 -6 -4 3 -19 20 -35 36 -34 38 -63 5 -95 -21 -22 -33 -25 -95 -25 l-70 0 0 125 c0 104 2 125 15 125 12 0 15 -13 15 -55z m376 37 c33 -26 47 -59 28 -66 -9 -4 -18 3 -24 18 -16 43 -78 49 -115 11 -19 -18 -25 -35 -25 -70 0 -84 81 -127 134 -70 21 23 36 24 36 3 0 -5 -12 -20 -26 -33 -42 -39 -97 -34 -141 10 -34 34 -35 38 -31 95 4 61 23 94 63 111 33 13 79 10 101 -9z m194 -12 c0 -20 5 -30 15 -30 8 0 15 -7 15 -15 0 -8 -7 -15 -15 -15 -12 0 -15 -16 -15 -80 0 -97 -12 -103 -61 -28 -19 28 -42 63 -51 77 -32 47 -24 61 32 61 49 0 50 1 50 30 0 20 5 30 15 30 10 0 15 -10 15 -30z"/>
 <path d="M220 430 l0 -40 53 0 c55 0 77 12 77 42 0 24 -30 38 -84 38 l-46 0 0 -40z"/>
 <path d="M690 514 c0 -8 60 -94 65 -94 3 0 5 23 5 50 l0 50 -35 0 c-19 0 -35 -3 -35 -6z"/>
 <path d="M102 717 c-18 -29 -32 -58 -32 -64 0 -16 43 -29 48 -14 2 6 19 33 37 60 l34 48 -25 12 c-14 6 -26 11 -27 11 -2 0 -17 -24 -35 -53z"/>
 <path d="M847 678 c-16 -12 -16 -17 4 -68 11 -30 22 -56 24 -58 6 -6 55 11 55 19 0 4 -9 33 -21 64 -21 56 -33 64 -62 43z"/>
 <path d="M53 443 c-7 -2 -13 -15 -13 -28 0 -29 32 -135 40 -135 3 0 14 6 25 13 17 13 17 16 1 62 -9 27 -16 59 -16 72 0 22 -11 27 -37 16z"/>
 <path d="M942 378 c-42 -179 -176 -313 -362 -362 -53 -14 -47 -15 163 -15 l217 -1 0 215 c0 118 -1 215 -3 215 -1 0 -8 -24 -15 -52z"/>
 <path d="M860 374 c0 -11 -11 -42 -24 -70 -23 -49 -23 -51 -5 -62 30 -19 35 -15 63 47 29 66 33 91 12 91 -8 0 -21 3 -30 6 -11 4 -16 0 -16 -12z"/>
 <path d="M218 141 l-22 -18 55 -32 c64 -37 79 -38 79 -8 -1 15 -14 30 -45 49 -43 26 -45 26 -67 9z"/>
 <path d="M625 106 c-16 -7 -47 -16 -68 -20 -29 -5 -37 -11 -33 -22 3 -9 6 -20 6 -26 0 -15 72 -2 133 24 l50 22 -23 18 c-26 21 -26 21 -65 4z"/>
 </g>
<g id="layer112" fill="#707070" stroke="none">
 <path d="M0 480 l0 -480 263 2 c181 1 239 3 187 8 -132 13 -218 54 -305 146 -105 111 -149 259 -121 407 33 169 144 301 302 359 46 17 81 22 159 22 112 0 180 -19 257 -72 128 -88 193 -199 208 -357 5 -58 8 -8 9 183 l1 262 -480 0 -480 0 0 -480z"/>
 <path d="M351 912 c-59 -19 -68 -29 -49 -55 12 -15 17 -15 70 1 52 15 58 20 58 45 0 31 -5 32 -79 9z"/>
 <path d="M616 884 c-4 -14 -6 -27 -4 -29 2 -1 29 -16 61 -32 57 -31 57 -31 72 -10 18 25 14 31 -38 61 -68 39 -84 41 -91 10z"/>
 <path d="M409 850 c-53 -9 -130 -47 -176 -87 -94 -82 -146 -229 -123 -349 39 -206 228 -346 423 -314 169 27 292 152 318 323 31 198 -105 390 -303 427 -57 11 -73 11 -139 0z m-189 -295 c0 -54 0 -55 30 -55 31 0 57 22 91 78 12 18 29 32 40 32 20 0 20 -1 -2 -32 -12 -18 -31 -42 -41 -54 -18 -20 -17 -21 12 -42 33 -25 40 -65 16 -97 -12 -16 -29 -20 -95 -23 l-81 -4 0 126 c0 105 2 126 15 126 12 0 15 -13 15 -55z m392 25 c29 -30 33 -50 10 -58 -7 -2 -16 7 -21 21 -17 44 -78 51 -116 12 -35 -34 -35 -106 0 -140 33 -33 78 -33 110 0 25 28 43 18 25 -15 -14 -27 -42 -40 -85 -40 -29 0 -45 8 -72 35 -34 34 -35 38 -31 95 6 83 40 118 116 119 24 1 42 -7 64 -29z m178 0 c0 -20 5 -30 15 -30 8 0 15 -7 15 -15 0 -8 -7 -15 -15 -15 -12 0 -15 -16 -15 -80 0 -97 -12 -103 -61 -28 -19 28 -42 63 -51 77 -32 47 -24 61 32 61 49 0 50 1 50 30 0 20 5 30 15 30 10 0 15 -10 15 -30z"/>
 <path d="M220 430 l0 -40 53 0 c55 0 77 12 77 42 0 24 -30 38 -84 38 l-46 0 0 -40z"/>
 <path d="M690 514 c0 -7 62 -94 67 -94 2 0 3 23 3 50 l0 50 -35 0 c-19 0 -35 -3 -35 -6z"/>
 <path d="M102 717 c-18 -29 -32 -58 -32 -64 0 -16 43 -29 48 -14 2 6 19 33 37 60 l34 48 -25 12 c-14 6 -26 11 -27 11 -2 0 -17 -24 -35 -53z"/>
 <path d="M847 678 c-16 -12 -16 -17 4 -68 11 -30 22 -56 24 -58 6 -6 55 11 55 19 0 4 -9 33 -21 64 -21 56 -33 64 -62 43z"/>
 <path d="M53 443 c-7 -2 -13 -15 -13 -28 0 -29 32 -135 40 -135 3 0 14 6 25 13 17 13 17 16 1 62 -9 27 -16 59 -16 72 0 22 -11 27 -37 16z"/>
 <path d="M942 378 c-42 -179 -176 -313 -362 -362 -53 -14 -47 -15 163 -15 l217 -1 0 215 c0 118 -1 215 -3 215 -1 0 -8 -24 -15 -52z"/>
 <path d="M860 374 c0 -11 -11 -42 -24 -70 -23 -49 -23 -51 -5 -62 30 -19 35 -15 63 47 29 66 33 91 12 91 -8 0 -21 3 -30 6 -11 4 -16 0 -16 -12z"/>
 <path d="M218 141 l-22 -18 55 -32 c64 -37 79 -38 79 -8 -1 15 -14 30 -45 49 -43 26 -45 26 -67 9z"/>
 <path d="M625 106 c-16 -7 -47 -16 -68 -20 -29 -5 -37 -11 -33 -22 3 -9 6 -20 6 -26 0 -15 72 -2 133 24 l50 22 -23 18 c-26 21 -26 21 -65 4z"/>
 </g>
<g id="layer113" fill="#db903a" stroke="none">
 <path d="M0 480 l0 -480 228 1 c212 1 223 1 167 14 -120 26 -197 72 -274 165 -153 184 -137 462 36 635 226 225 609 160 747 -127 19 -40 39 -95 44 -123 8 -38 10 1 11 173 l1 222 -480 0 -480 0 0 -480z"/>
 <path d="M395 923 c-38 -8 -105 -35 -105 -42 0 -4 6 -15 13 -24 11 -15 16 -15 52 -2 22 8 48 14 58 15 12 0 17 8 17 30 0 17 -3 29 -7 29 -5 -1 -17 -3 -28 -6z"/>
 <path d="M616 883 c-7 -25 5 -42 29 -43 6 0 27 -11 47 -25 l37 -25 15 22 c8 12 13 25 10 30 -5 8 -118 68 -128 68 -2 0 -7 -12 -10 -27z"/>
 <path d="M430 853 c-143 -24 -267 -130 -305 -261 -26 -86 -17 -211 19 -280 38 -75 97 -135 169 -174 59 -31 67 -33 167 -33 95 0 110 3 162 29 67 33 151 118 178 179 11 24 24 74 31 113 31 192 -100 377 -301 423 -46 11 -75 12 -120 4z m-210 -298 c0 -54 0 -55 30 -55 31 0 57 22 91 78 12 18 29 32 40 32 20 0 20 -1 -2 -32 -12 -18 -31 -42 -41 -54 -18 -20 -17 -21 12 -42 36 -27 40 -72 10 -102 -16 -16 -33 -20 -95 -20 l-75 0 0 125 c0 104 2 125 15 125 12 0 15 -13 15 -55z m392 25 c29 -30 33 -50 10 -58 -7 -2 -16 7 -21 21 -17 44 -78 51 -116 12 -19 -18 -25 -35 -25 -70 0 -85 81 -127 135 -70 25 28 43 18 25 -15 -14 -27 -42 -40 -85 -40 -29 0 -45 8 -72 35 -34 34 -35 37 -31 97 4 53 9 65 36 89 46 41 102 40 144 -1z m178 0 c0 -20 5 -30 15 -30 8 0 15 -7 15 -15 0 -8 -7 -15 -15 -15 -12 0 -15 -16 -15 -80 0 -97 -12 -103 -61 -28 -19 28 -42 63 -51 77 -32 47 -24 61 32 61 49 0 50 1 50 30 0 20 5 30 15 30 10 0 15 -10 15 -30z"/>
 <path d="M220 430 l0 -40 53 0 c55 0 77 12 77 42 0 24 -30 38 -84 38 l-46 0 0 -40z"/>
 <path d="M690 514 c0 -7 62 -94 67 -94 2 0 3 23 3 50 l0 50 -35 0 c-19 0 -35 -3 -35 -6z"/>
 <path d="M111 729 c-38 -52 -47 -79 -30 -90 25 -16 36 -9 54 31 10 22 24 45 32 51 18 16 16 26 -7 39 -17 9 -24 5 -49 -31z"/>
 <path d="M847 678 c-16 -12 -16 -17 4 -68 11 -30 22 -56 24 -58 1 -2 15 0 29 4 29 7 29 9 -1 92 -16 44 -28 50 -56 30z"/>
 <path d="M53 443 c-17 -6 -16 -34 3 -99 17 -61 24 -68 47 -51 14 11 14 19 -3 82 -17 69 -24 78 -47 68z"/>
 <path d="M942 372 c-19 -90 -58 -160 -126 -227 -70 -67 -142 -108 -231 -129 -58 -14 -53 -14 158 -15 l217 -1 0 215 c0 118 -1 215 -3 215 -2 0 -8 -26 -15 -58z"/>
 <path d="M859 361 c-5 -14 -17 -43 -26 -63 -13 -31 -13 -40 -3 -53 22 -27 37 -16 64 46 32 75 32 85 0 92 -21 4 -27 0 -35 -22z"/>
 <path d="M217 139 c-17 -10 -16 -12 5 -28 28 -22 83 -51 98 -51 5 0 10 10 10 23 0 16 -12 28 -42 45 -49 25 -47 25 -71 11z"/>
 <path d="M640 110 c-8 -5 -39 -15 -68 -21 -39 -9 -51 -16 -47 -27 3 -7 5 -18 5 -23 0 -5 8 -9 18 -9 29 0 115 28 137 44 20 15 20 15 0 30 -24 18 -26 18 -45 6z"/>
 </g>
<g id="layer114" fill="#4290d4" stroke="none">
 <path d="M0 480 l0 -480 228 1 c212 1 223 1 167 14 -120 26 -197 72 -274 165 -153 184 -137 462 36 635 226 225 609 160 747 -127 19 -40 39 -95 44 -123 8 -38 10 1 11 173 l1 222 -480 0 -480 0 0 -480z"/>
 <path d="M395 923 c-38 -8 -105 -35 -105 -42 0 -4 6 -15 13 -24 11 -15 16 -15 52 -2 22 8 48 14 58 15 12 0 17 8 17 30 0 17 -3 29 -7 29 -5 -1 -17 -3 -28 -6z"/>
 <path d="M616 883 c-7 -25 5 -42 29 -43 6 0 27 -11 47 -25 l37 -25 15 22 c8 12 13 25 10 30 -5 8 -118 68 -128 68 -2 0 -7 -12 -10 -27z"/>
 <path d="M430 853 c-143 -24 -267 -130 -305 -261 -26 -86 -17 -211 19 -280 38 -75 97 -135 169 -174 59 -31 67 -33 167 -33 95 0 110 3 162 29 67 33 151 118 178 179 11 24 24 74 31 113 31 192 -100 377 -301 423 -46 11 -75 12 -120 4z m-210 -298 c0 -54 0 -55 30 -55 29 0 31 2 100 92 9 11 24 19 33 17 14 -3 10 -13 -22 -55 l-39 -52 29 -21 c35 -26 39 -71 9 -101 -16 -16 -33 -20 -95 -20 l-75 0 0 125 c0 104 2 125 15 125 12 0 15 -13 15 -55z m392 25 c29 -30 33 -50 10 -58 -7 -2 -16 7 -21 21 -17 44 -78 51 -116 12 -55 -54 -19 -165 54 -165 20 0 36 8 50 26 11 14 25 23 31 19 16 -10 12 -24 -15 -50 -38 -39 -97 -35 -141 9 -30 30 -34 40 -34 88 1 87 36 127 113 128 30 0 45 -7 69 -30z m178 0 c0 -20 5 -30 15 -30 8 0 15 -7 15 -15 0 -8 -7 -15 -15 -15 -12 0 -15 -16 -15 -80 0 -60 -3 -80 -13 -80 -15 0 -127 157 -127 178 0 8 18 12 55 12 54 0 55 0 55 30 0 20 5 30 15 30 10 0 15 -10 15 -30z"/>
 <path d="M220 430 l0 -40 55 0 c43 0 56 4 65 19 13 25 13 27 -6 45 -10 10 -33 16 -65 16 l-49 0 0 -40z"/>
 <path d="M690 514 c0 -7 62 -94 67 -94 2 0 3 23 3 50 l0 50 -35 0 c-19 0 -35 -3 -35 -6z"/>
 <path d="M111 729 c-38 -52 -47 -79 -30 -90 25 -16 36 -9 54 31 10 22 24 45 32 51 18 16 16 26 -7 39 -17 9 -24 5 -49 -31z"/>
 <path d="M847 678 c-16 -12 -16 -17 4 -68 11 -30 22 -56 24 -58 1 -2 15 0 29 4 29 7 29 9 -1 92 -16 44 -28 50 -56 30z"/>
 <path d="M53 443 c-17 -6 -16 -34 3 -99 17 -61 24 -68 47 -51 14 11 14 19 -3 82 -17 69 -24 78 -47 68z"/>
 <path d="M942 372 c-19 -90 -58 -160 -126 -227 -70 -67 -142 -108 -231 -129 -58 -14 -53 -14 158 -15 l217 -1 0 215 c0 118 -1 215 -3 215 -2 0 -8 -26 -15 -58z"/>
 <path d="M859 361 c-5 -14 -17 -43 -26 -63 -13 -31 -13 -40 -3 -53 22 -27 37 -16 64 46 32 75 32 85 0 92 -21 4 -27 0 -35 -22z"/>
 <path d="M217 139 c-17 -10 -16 -12 5 -28 28 -22 83 -51 98 -51 5 0 10 10 10 23 0 16 -12 28 -42 45 -49 25 -47 25 -71 11z"/>
 <path d="M640 110 c-8 -5 -39 -15 -68 -21 -39 -9 -51 -16 -47 -27 3 -7 5 -18 5 -23 0 -5 8 -9 18 -9 29 0 115 28 137 44 20 15 20 15 0 30 -24 18 -26 18 -45 6z"/>
 </g>
<g id="layer115" fill="#929292" stroke="none">
 <path d="M0 480 l0 -480 228 1 c212 1 223 1 167 14 -120 26 -197 72 -274 165 -153 184 -137 462 36 635 226 225 609 160 747 -127 19 -40 39 -95 44 -123 8 -38 10 1 11 173 l1 222 -480 0 -480 0 0 -480z"/>
 <path d="M395 923 c-38 -8 -105 -35 -105 -42 0 -4 6 -15 13 -24 11 -15 16 -15 52 -2 22 8 48 14 58 15 12 0 17 8 17 30 0 17 -3 29 -7 29 -5 -1 -17 -3 -28 -6z"/>
 <path d="M616 883 c-7 -25 5 -42 29 -43 6 0 27 -11 47 -25 l37 -25 15 22 c8 12 13 25 10 30 -5 8 -118 68 -128 68 -2 0 -7 -12 -10 -27z"/>
 <path d="M430 853 c-143 -24 -267 -130 -305 -261 -26 -86 -17 -211 19 -280 38 -75 97 -135 169 -174 59 -31 67 -33 167 -33 95 0 110 3 162 29 67 33 151 118 178 179 11 24 24 74 31 113 31 192 -100 377 -301 423 -46 11 -75 12 -120 4z m-210 -299 l0 -55 32 3 c26 2 41 14 72 56 22 30 47 52 57 52 11 0 19 -3 19 -7 0 -7 -43 -64 -65 -87 -14 -14 -13 -16 7 -27 30 -16 38 -28 38 -61 0 -50 -30 -68 -115 -68 l-75 0 0 125 c0 104 2 125 15 125 12 0 15 -13 15 -56z m392 26 c29 -30 33 -50 10 -58 -7 -2 -16 8 -22 22 -18 48 -101 46 -128 -4 -19 -37 -9 -110 18 -132 33 -26 75 -23 99 8 11 14 25 23 31 19 35 -22 -23 -75 -82 -75 -32 0 -47 7 -74 34 -30 30 -34 40 -34 88 1 87 36 127 113 128 30 0 45 -7 69 -30z m178 0 c0 -20 5 -30 15 -30 8 0 15 -7 15 -15 0 -8 -7 -15 -15 -15 -12 0 -15 -16 -15 -80 0 -60 -3 -80 -13 -80 -15 0 -127 157 -127 178 0 8 18 12 55 12 54 0 55 0 55 30 0 20 5 30 15 30 10 0 15 -10 15 -30z"/>
 <path d="M220 430 l0 -40 55 0 c43 0 56 4 65 19 13 25 13 27 -6 45 -10 10 -33 16 -65 16 l-49 0 0 -40z"/>
 <path d="M706 492 c9 -16 25 -39 35 -53 l19 -24 0 53 0 52 -36 0 -35 0 17 -28z"/>
 <path d="M111 729 c-38 -52 -47 -79 -30 -90 25 -16 36 -9 54 31 10 22 24 45 32 51 18 16 16 26 -7 39 -17 9 -24 5 -49 -31z"/>
 <path d="M847 678 c-16 -12 -16 -17 4 -68 11 -30 22 -56 24 -58 1 -2 15 0 29 4 29 7 29 9 -1 92 -16 44 -28 50 -56 30z"/>
 <path d="M53 443 c-17 -6 -16 -34 3 -99 17 -61 24 -68 47 -51 14 11 14 19 -3 82 -17 69 -24 78 -47 68z"/>
 <path d="M942 372 c-19 -90 -58 -160 -126 -227 -70 -67 -142 -108 -231 -129 -58 -14 -53 -14 158 -15 l217 -1 0 215 c0 118 -1 215 -3 215 -2 0 -8 -26 -15 -58z"/>
 <path d="M859 361 c-5 -14 -17 -43 -26 -63 -13 -31 -13 -40 -3 -53 22 -27 37 -16 64 46 32 75 32 85 0 92 -21 4 -27 0 -35 -22z"/>
 <path d="M217 139 c-17 -10 -16 -12 5 -28 28 -22 83 -51 98 -51 5 0 10 10 10 23 0 16 -12 28 -42 45 -49 25 -47 25 -71 11z"/>
 <path d="M640 110 c-8 -5 -39 -15 -68 -21 -39 -9 -51 -16 -47 -27 3 -7 5 -18 5 -23 0 -5 8 -9 18 -9 29 0 115 28 137 44 20 15 20 15 0 30 -24 18 -26 18 -45 6z"/>
 </g>
<g id="layer116" fill="#dbb666" stroke="none">
 <path d="M0 480 l0 -480 228 1 c170 1 213 4 173 10 -135 23 -276 129 -336 253 -132 274 4 584 294 672 25 8 82 14 127 14 132 0 244 -48 338 -144 55 -57 113 -169 126 -243 5 -32 8 24 9 175 l1 222 -480 0 -480 0 0 -480z"/>
 <path d="M405 923 c-46 -10 -115 -35 -115 -41 0 -4 7 -15 14 -25 12 -16 16 -16 49 -2 20 8 46 15 57 15 16 0 20 7 20 30 0 17 -1 29 -2 29 -2 -1 -12 -3 -23 -6z"/>
 <path d="M620 891 c0 -5 -3 -16 -6 -25 -4 -10 -1 -16 8 -16 8 0 35 -13 60 -29 l47 -30 15 24 c16 24 15 25 -36 55 -53 30 -88 38 -88 21z"/>
 <path d="M405 846 c-119 -30 -211 -105 -264 -216 -23 -48 -26 -68 -26 -155 0 -93 2 -105 33 -167 38 -77 97 -134 181 -175 49 -25 68 -28 151 -28 83 0 103 4 155 28 113 53 191 157 215 284 13 76 -6 182 -45 249 -56 96 -160 166 -272 184 -68 12 -64 12 -128 -4z m-185 -292 l0 -55 32 3 c26 2 41 14 72 56 22 30 47 52 57 52 11 0 19 -3 19 -7 0 -7 -43 -64 -65 -87 -14 -14 -13 -16 7 -27 30 -16 38 -28 38 -61 0 -50 -30 -68 -115 -68 l-75 0 0 125 c0 104 2 125 15 125 12 0 15 -13 15 -56z m392 26 c29 -30 33 -50 10 -58 -7 -2 -16 8 -22 22 -18 48 -101 46 -128 -4 -19 -37 -9 -110 18 -132 33 -26 75 -23 99 8 11 14 25 23 31 19 35 -22 -23 -75 -82 -75 -32 0 -47 7 -74 34 -30 30 -34 40 -34 88 1 87 36 127 113 128 30 0 45 -7 69 -30z m178 0 c0 -20 5 -30 15 -30 8 0 15 -7 15 -15 0 -8 -7 -15 -15 -15 -12 0 -15 -16 -15 -80 0 -60 -3 -80 -13 -80 -15 0 -127 157 -127 178 0 8 18 12 55 12 54 0 55 0 55 30 0 20 5 30 15 30 10 0 15 -10 15 -30z"/>
 <path d="M220 430 l0 -40 55 0 c43 0 56 4 65 19 13 25 13 27 -6 45 -10 10 -33 16 -65 16 l-49 0 0 -40z"/>
 <path d="M706 492 c9 -16 25 -39 35 -53 l19 -24 0 53 0 52 -36 0 -35 0 17 -28z"/>
 <path d="M123 747 c-10 -13 -27 -40 -38 -61 -17 -32 -18 -38 -5 -46 26 -17 36 -11 55 30 10 22 24 45 32 51 18 16 16 26 -6 39 -16 8 -23 5 -38 -13z"/>
 <path d="M849 677 c-15 -11 -14 -17 5 -67 18 -47 24 -55 44 -52 26 4 28 21 6 85 -16 48 -27 55 -55 34z"/>
 <path d="M41 413 c0 -34 30 -115 44 -120 28 -8 32 13 16 79 -14 59 -19 68 -38 68 -19 0 -23 -5 -22 -27z"/>
 <path d="M946 383 c-21 -163 -185 -330 -358 -368 -61 -13 -55 -13 155 -14 l217 -1 0 215 c0 118 -2 215 -4 215 -2 0 -6 -21 -10 -47z"/>
 <path d="M863 371 c-2 -9 -14 -38 -26 -64 -19 -44 -19 -49 -4 -64 22 -23 41 -5 67 63 25 69 25 71 -6 77 -18 3 -27 0 -31 -12z"/>
 <path d="M220 135 c-10 -12 -4 -19 36 -45 57 -36 74 -38 74 -7 0 16 -12 28 -42 45 -51 26 -52 26 -68 7z"/>
 <path d="M630 105 c-14 -8 -44 -17 -68 -21 -38 -6 -42 -9 -36 -28 4 -11 8 -23 11 -25 5 -6 83 15 130 34 35 15 35 16 18 35 -21 23 -22 24 -55 5z"/>
 </g>
<g id="layer117" fill="#66b6fc" stroke="none">
 <path d="M0 480 l0 -480 228 1 c170 1 213 4 173 10 -135 23 -276 129 -336 253 -132 274 4 584 294 672 25 8 82 14 127 14 132 0 244 -48 338 -144 55 -57 113 -169 126 -243 5 -32 8 24 9 175 l1 222 -480 0 -480 0 0 -480z"/>
 <path d="M405 923 c-46 -10 -115 -35 -115 -41 0 -4 7 -15 14 -25 12 -16 16 -16 49 -2 20 8 46 15 57 15 16 0 20 7 20 30 0 17 -1 29 -2 29 -2 -1 -12 -3 -23 -6z"/>
 <path d="M620 891 c0 -5 -3 -16 -6 -25 -4 -10 -1 -16 8 -16 8 0 35 -13 60 -29 l47 -30 15 24 c16 24 15 25 -36 55 -53 30 -88 38 -88 21z"/>
 <path d="M405 846 c-119 -30 -211 -105 -264 -216 -23 -48 -26 -68 -26 -155 0 -93 2 -105 33 -167 38 -77 97 -134 181 -175 49 -25 68 -28 151 -28 83 0 103 4 155 28 113 53 191 157 215 284 13 76 -6 182 -45 249 -56 96 -160 166 -272 184 -68 12 -64 12 -128 -4z m-185 -292 l0 -55 32 3 c26 2 41 14 72 56 22 30 47 52 57 52 11 0 19 -3 19 -7 0 -7 -43 -64 -65 -87 -14 -14 -13 -16 7 -27 30 -16 38 -28 38 -61 0 -50 -30 -68 -115 -68 l-75 0 0 125 c0 104 2 125 15 125 12 0 15 -13 15 -56z m391 27 c16 -16 29 -34 29 -40 0 -24 -23 -20 -49 8 -34 36 -68 40 -102 12 -20 -16 -24 -28 -24 -76 0 -48 4 -60 24 -76 32 -26 67 -24 97 6 14 14 30 23 35 20 32 -20 -25 -75 -78 -75 -75 0 -113 43 -113 128 1 81 39 121 113 122 30 0 45 -7 68 -29z m179 -1 c0 -20 5 -30 15 -30 8 0 15 -7 15 -15 0 -8 -7 -15 -15 -15 -12 0 -15 -16 -15 -80 0 -60 -3 -80 -13 -80 -15 0 -127 157 -127 178 0 8 18 12 55 12 54 0 55 0 55 30 0 20 5 30 15 30 10 0 15 -10 15 -30z"/>
 <path d="M220 430 l0 -40 55 0 c43 0 56 4 65 19 13 25 13 27 -6 45 -10 10 -33 16 -65 16 l-49 0 0 -40z"/>
 <path d="M706 492 c9 -16 25 -39 35 -53 l19 -24 0 53 0 52 -36 0 -35 0 17 -28z"/>
 <path d="M123 747 c-10 -13 -27 -40 -38 -61 -17 -32 -18 -38 -5 -46 26 -17 36 -11 55 30 10 22 24 45 32 51 18 16 16 26 -6 39 -16 8 -23 5 -38 -13z"/>
 <path d="M849 677 c-15 -11 -14 -17 5 -67 18 -47 24 -55 44 -52 26 4 28 21 6 85 -16 48 -27 55 -55 34z"/>
 <path d="M41 413 c0 -34 30 -115 44 -120 28 -8 32 13 16 79 -14 59 -19 68 -38 68 -19 0 -23 -5 -22 -27z"/>
 <path d="M946 383 c-21 -163 -185 -330 -358 -368 -61 -13 -55 -13 155 -14 l217 -1 0 215 c0 118 -2 215 -4 215 -2 0 -6 -21 -10 -47z"/>
 <path d="M863 371 c-2 -9 -14 -38 -26 -64 -19 -44 -19 -49 -4 -64 22 -23 41 -5 67 63 25 69 25 71 -6 77 -18 3 -27 0 -31 -12z"/>
 <path d="M220 135 c-10 -12 -4 -19 36 -45 57 -36 74 -38 74 -7 0 16 -12 28 -42 45 -51 26 -52 26 -68 7z"/>
 <path d="M630 105 c-14 -8 -44 -17 -68 -21 -38 -6 -42 -9 -36 -28 4 -11 8 -23 11 -25 5 -6 83 15 130 34 35 15 35 16 18 35 -21 23 -22 24 -55 5z"/>
 </g>
<g id="layer118" fill="#a5bec6" stroke="none">
 <path d="M0 480 l0 -480 228 1 c170 1 213 4 173 10 -135 23 -276 129 -336 253 -132 274 4 584 294 672 25 8 82 14 127 14 132 0 244 -48 338 -144 55 -57 113 -169 126 -243 5 -32 8 24 9 175 l1 222 -480 0 -480 0 0 -480z"/>
 <path d="M405 923 c-46 -10 -115 -35 -115 -41 0 -4 7 -15 14 -25 12 -16 16 -16 49 -2 20 8 46 15 57 15 16 0 20 7 20 30 0 17 -1 29 -2 29 -2 -1 -12 -3 -23 -6z"/>
 <path d="M620 891 c0 -5 -3 -16 -6 -25 -4 -10 -1 -16 8 -16 8 0 35 -13 60 -29 l47 -30 15 24 c16 24 15 25 -36 55 -53 30 -88 38 -88 21z"/>
 <path d="M405 846 c-119 -30 -211 -105 -264 -216 -23 -48 -26 -68 -26 -155 0 -93 2 -105 33 -167 38 -77 97 -134 181 -175 49 -25 68 -28 151 -28 83 0 103 4 155 28 113 53 191 157 215 284 13 76 -6 182 -45 249 -56 96 -160 166 -272 184 -68 12 -64 12 -128 -4z m-185 -292 l0 -55 32 3 c26 2 41 14 72 56 22 30 47 52 57 52 11 0 19 -3 19 -6 0 -11 -60 -92 -72 -97 -8 -3 -2 -9 13 -15 29 -12 39 -30 39 -72 0 -44 -31 -60 -117 -60 l-73 0 0 125 c0 104 2 125 15 125 12 0 15 -13 15 -56z m391 27 c16 -16 29 -34 29 -40 0 -24 -23 -20 -49 8 -67 72 -149 1 -120 -103 17 -60 72 -74 116 -30 30 30 60 26 43 -5 -36 -69 -156 -66 -188 4 -16 34 -15 114 2 144 32 58 119 69 167 22z m179 -1 c0 -23 4 -30 20 -30 11 0 20 -7 20 -15 0 -8 -9 -15 -20 -15 -18 0 -20 -7 -20 -80 0 -60 -3 -80 -13 -80 -15 0 -127 157 -127 178 0 8 18 12 55 12 54 0 55 0 55 30 0 20 5 30 15 30 10 0 15 -10 15 -30z"/>
 <path d="M220 430 l0 -40 55 0 c43 0 56 4 65 19 13 25 13 27 -6 45 -10 10 -33 16 -65 16 l-49 0 0 -40z"/>
 <path d="M699 503 c5 -10 21 -33 35 -52 l26 -35 0 52 0 52 -35 0 c-31 0 -34 -2 -26 -17z"/>
 <path d="M123 747 c-10 -13 -27 -40 -38 -61 -17 -32 -18 -38 -5 -46 26 -17 36 -11 55 30 10 22 24 45 32 51 18 16 16 26 -6 39 -16 8 -23 5 -38 -13z"/>
 <path d="M849 677 c-15 -11 -14 -17 5 -67 18 -47 24 -55 44 -52 26 4 28 21 6 85 -16 48 -27 55 -55 34z"/>
 <path d="M41 413 c0 -34 30 -115 44 -120 28 -8 32 13 16 79 -14 59 -19 68 -38 68 -19 0 -23 -5 -22 -27z"/>
 <path d="M946 383 c-21 -163 -185 -330 -358 -368 -61 -13 -55 -13 155 -14 l217 -1 0 215 c0 118 -2 215 -4 215 -2 0 -6 -21 -10 -47z"/>
 <path d="M863 371 c-2 -9 -14 -38 -26 -64 -19 -44 -19 -49 -4 -64 22 -23 41 -5 67 63 25 69 25 71 -6 77 -18 3 -27 0 -31 -12z"/>
 <path d="M220 135 c-10 -12 -4 -19 36 -45 57 -36 74 -38 74 -7 0 16 -12 28 -42 45 -51 26 -52 26 -68 7z"/>
 <path d="M630 105 c-14 -8 -44 -17 -68 -21 -38 -6 -42 -9 -36 -28 4 -11 8 -23 11 -25 5 -6 83 15 130 34 35 15 35 16 18 35 -21 23 -22 24 -55 5z"/>
 </g>
<g id="layer119" fill="#d1d1d1" stroke="none">
 <path d="M0 480 l0 -480 228 1 c170 1 213 4 173 10 -135 23 -276 129 -336 253 -132 274 4 584 294 672 25 8 82 14 127 14 132 0 244 -48 338 -144 55 -57 113 -169 126 -243 5 -32 8 24 9 175 l1 222 -480 0 -480 0 0 -480z"/>
 <path d="M405 923 c-46 -10 -115 -35 -115 -41 0 -4 7 -15 14 -25 12 -16 16 -16 49 -2 20 8 46 15 57 15 16 0 20 7 20 30 0 17 -1 29 -2 29 -2 -1 -12 -3 -23 -6z"/>
 <path d="M620 891 c0 -5 -3 -16 -6 -25 -4 -10 -1 -16 8 -16 8 0 35 -13 60 -29 l47 -30 15 24 c16 24 15 25 -36 55 -53 30 -88 38 -88 21z"/>
 <path d="M405 846 c-119 -30 -211 -105 -264 -216 -23 -48 -26 -68 -26 -155 0 -93 2 -105 33 -167 38 -77 97 -134 181 -175 49 -25 68 -28 151 -28 83 0 103 4 155 28 113 53 191 157 215 284 13 76 -6 182 -45 249 -56 96 -160 166 -272 184 -68 12 -64 12 -128 -4z m-185 -292 l0 -55 32 3 c26 2 41 14 72 56 22 30 47 52 57 52 26 0 24 -5 -15 -59 l-33 -47 23 -21 c17 -15 24 -32 24 -57 0 -51 -27 -66 -117 -66 l-73 0 0 125 c0 104 2 125 15 125 12 0 15 -13 15 -56z m391 27 c29 -30 39 -61 18 -61 -6 0 -24 14 -39 30 -33 35 -57 38 -92 10 -48 -37 -42 -141 8 -160 39 -15 53 -12 81 16 30 30 60 26 43 -5 -36 -69 -156 -66 -188 4 -16 34 -15 114 2 144 32 58 119 69 167 22z m179 -1 c0 -23 4 -30 20 -30 11 0 20 -7 20 -15 0 -8 -9 -15 -20 -15 -18 0 -20 -7 -20 -80 0 -60 -3 -80 -13 -80 -15 0 -127 157 -127 178 0 8 18 12 55 12 54 0 55 0 55 30 0 20 5 30 15 30 10 0 15 -10 15 -30z"/>
 <path d="M220 430 l0 -40 55 0 c43 0 56 4 65 19 13 25 13 27 -6 45 -10 10 -33 16 -65 16 l-49 0 0 -40z"/>
 <path d="M699 503 c5 -10 21 -33 35 -52 l26 -35 0 52 0 52 -35 0 c-31 0 -34 -2 -26 -17z"/>
 <path d="M123 747 c-25 -32 -58 -95 -53 -100 3 -3 14 -7 26 -11 17 -5 24 1 39 34 10 22 24 45 32 51 18 16 16 26 -6 39 -16 8 -23 5 -38 -13z"/>
 <path d="M849 677 c-15 -11 -14 -17 5 -67 18 -47 24 -55 44 -52 26 4 28 21 6 85 -16 48 -27 55 -55 34z"/>
 <path d="M41 413 c0 -34 30 -115 44 -120 28 -8 32 13 16 79 -14 59 -19 68 -38 68 -19 0 -23 -5 -22 -27z"/>
 <path d="M946 383 c-21 -163 -185 -330 -358 -368 -61 -13 -55 -13 155 -14 l217 -1 0 215 c0 118 -2 215 -4 215 -2 0 -6 -21 -10 -47z"/>
 <path d="M863 371 c-2 -9 -14 -38 -26 -64 -19 -44 -19 -49 -4 -64 22 -23 41 -5 67 63 25 69 25 71 -6 77 -18 3 -27 0 -31 -12z"/>
 <path d="M220 135 c-10 -12 -4 -19 36 -45 57 -36 74 -38 74 -7 0 16 -12 28 -42 45 -51 26 -52 26 -68 7z"/>
 <path d="M630 105 c-14 -8 -44 -17 -68 -21 -38 -6 -42 -9 -36 -28 4 -11 8 -23 11 -25 5 -6 83 15 130 34 35 15 35 16 18 35 -21 23 -22 24 -55 5z"/>
 </g>
<g id="layer120" fill="#f9f7e1" stroke="none">
 <path d="M0 480 l0 -480 213 1 c164 1 202 3 167 11 -25 5 -49 14 -54 19 -6 5 -16 9 -23 9 -7 0 -44 20 -81 45 -124 83 -199 213 -209 365 -16 230 154 451 381 496 55 11 39 12 -166 13 l-228 1 0 -480z"/>
 <path d="M575 945 c77 -16 108 -29 171 -71 91 -60 157 -152 195 -274 l17 -55 1 208 1 207 -222 -1 c-206 -1 -218 -2 -163 -14z"/>
 <path d="M338 903 c-51 -15 -57 -23 -33 -43 23 -19 125 14 125 40 0 24 -23 25 -92 3z"/>
 <path d="M620 875 c0 -14 6 -25 13 -25 7 0 30 -12 51 -26 35 -24 39 -25 54 -10 19 19 10 32 -51 65 -50 28 -67 27 -67 -4z"/>
 <path d="M405 845 c-134 -33 -226 -116 -276 -249 -30 -81 -24 -198 14 -277 55 -114 180 -204 301 -216 157 -16 310 74 376 222 37 83 42 144 22 234 -23 94 -65 163 -133 214 -59 43 -82 54 -159 72 -75 17 -78 17 -145 0z m-185 -291 l0 -55 32 3 c26 2 41 14 72 56 22 30 47 52 57 52 26 0 24 -5 -15 -59 l-33 -47 23 -21 c17 -15 24 -32 24 -57 0 -51 -27 -66 -117 -66 l-73 0 0 125 c0 104 2 125 15 125 12 0 15 -13 15 -56z m391 27 c29 -30 39 -61 18 -61 -6 0 -24 14 -39 30 -33 35 -57 38 -92 10 -48 -37 -42 -141 8 -160 39 -15 53 -12 81 16 30 30 60 26 43 -5 -26 -49 -93 -65 -149 -37 -34 18 -51 54 -51 112 0 80 38 123 108 124 35 0 49 -6 73 -29z m179 -1 c0 -23 4 -30 20 -30 11 0 20 -7 20 -15 0 -8 -9 -15 -20 -15 -18 0 -20 -7 -20 -80 0 -60 -3 -80 -13 -80 -15 0 -127 157 -127 178 0 8 18 12 55 12 54 0 55 0 55 30 0 20 5 30 15 30 10 0 15 -10 15 -30z"/>
 <path d="M220 430 l0 -40 55 0 c43 0 56 4 65 19 21 40 -7 61 -82 61 -38 0 -38 0 -38 -40z"/>
 <path d="M696 508 c21 -36 46 -68 55 -68 5 0 9 18 9 40 0 39 -1 40 -36 40 -25 0 -33 -3 -28 -12z"/>
 <path d="M100 713 c-35 -56 -37 -69 -11 -76 24 -6 99 102 79 115 -25 15 -38 8 -68 -39z"/>
 <path d="M852 678 c-14 -14 -16 -44 -3 -53 5 -3 12 -19 16 -35 5 -23 12 -30 31 -30 28 0 29 5 8 76 -15 54 -29 65 -52 42z"/>
 <path d="M46 398 c9 -60 31 -111 46 -105 14 4 14 21 2 100 -6 41 -10 47 -30 47 -23 0 -24 -3 -18 -42z"/>
 <path d="M946 369 c-10 -60 -68 -169 -118 -221 -53 -54 -162 -117 -232 -134 -46 -11 -30 -12 157 -13 l207 -1 0 205 c0 113 -2 205 -4 205 -2 0 -6 -18 -10 -41z"/>
 <path d="M865 382 c-3 -3 -5 -13 -5 -23 0 -10 -9 -33 -20 -51 -25 -41 -25 -50 0 -66 20 -12 23 -8 50 52 17 36 30 70 30 75 0 10 -47 21 -55 13z"/>
 <path d="M221 136 c-13 -16 -6 -24 56 -55 36 -18 42 -19 47 -5 8 22 2 29 -44 53 -48 25 -45 24 -59 7z"/>
 <path d="M626 103 c-15 -8 -46 -18 -68 -20 -29 -4 -38 -10 -34 -20 4 -8 6 -19 6 -24 0 -12 54 -1 118 23 51 20 52 21 36 39 -20 22 -20 22 -58 2z"/>
 </g>
<g id="layer121" fill="#ffffff" stroke="none">
 <path d="M0 480 l0 -480 208 1 c149 1 197 3 172 10 -47 13 -94 33 -152 65 -43 23 -125 111 -158 169 -104 181 -70 416 83 572 57 59 164 117 242 131 38 8 -2 10 -172 11 l-223 1 0 -480z"/>
 <path d="M573 949 c43 -9 112 -37 177 -74 73 -41 168 -177 195 -280 12 -46 13 -33 14 158 l1 207 -217 -1 c-163 -1 -206 -4 -170 -10z"/>
 <path d="M343 903 c-41 -14 -55 -35 -33 -48 5 -3 34 1 65 10 42 13 55 21 55 36 0 23 -26 24 -87 2z"/>
 <path d="M620 881 c0 -11 20 -30 52 -50 45 -28 53 -30 66 -18 19 20 10 33 -48 62 -59 30 -70 31 -70 6z"/>
 <path d="M415 848 c-122 -30 -219 -111 -272 -225 -29 -62 -33 -82 -33 -152 0 -44 5 -83 10 -86 6 -3 10 -15 10 -26 0 -26 62 -122 103 -161 52 -49 149 -90 225 -95 125 -9 257 56 324 160 44 68 54 91 67 158 11 54 4 108 -26 199 -35 105 -144 195 -272 223 -81 19 -79 19 -136 5z m-195 -293 c0 -54 1 -55 29 -55 22 0 36 11 67 53 23 30 49 53 62 55 29 4 28 -2 -12 -57 l-33 -47 23 -21 c17 -15 24 -32 24 -57 0 -51 -27 -66 -117 -66 l-73 0 0 125 c0 104 2 125 15 125 12 0 15 -13 15 -55z m391 26 c30 -30 38 -61 17 -61 -7 0 -21 11 -33 25 -29 35 -65 41 -97 16 -48 -38 -43 -142 8 -161 32 -13 72 -3 87 21 7 11 17 19 24 19 25 0 23 -21 -6 -50 -24 -24 -38 -30 -73 -30 -69 1 -111 48 -113 125 -1 74 45 124 113 125 35 0 49 -6 73 -29z m179 -1 c0 -23 4 -30 20 -30 11 0 20 -7 20 -15 0 -8 -9 -15 -20 -15 -18 0 -20 -7 -20 -80 0 -95 -13 -104 -59 -37 -17 23 -39 54 -50 68 -11 14 -23 38 -26 52 -7 27 -7 27 49 27 56 0 56 0 56 30 0 20 5 30 15 30 10 0 15 -10 15 -30z"/>
 <path d="M220 430 l0 -42 56 4 c49 4 74 17 74 38 0 21 -25 34 -74 38 l-56 4 0 -42z"/>
 <path d="M696 508 c21 -36 46 -68 55 -68 5 0 9 18 9 40 0 39 -1 40 -36 40 -25 0 -33 -3 -28 -12z"/>
 <path d="M108 719 c-31 -43 -36 -74 -14 -82 9 -4 26 15 49 53 27 47 32 60 20 64 -23 9 -27 7 -55 -35z"/>
 <path d="M857 675 c-18 -13 -23 -40 -8 -50 5 -3 12 -19 16 -35 5 -23 12 -30 31 -30 27 0 29 11 12 61 -19 57 -31 69 -51 54z"/>
 <path d="M47 398 c10 -65 30 -108 48 -102 18 7 18 1 -1 79 -13 51 -20 65 -35 65 -17 0 -18 -5 -12 -42z"/>
 <path d="M945 363 c-12 -68 -66 -163 -127 -223 -60 -61 -132 -102 -215 -125 -44 -12 -32 -13 155 -14 l202 -1 0 200 c0 110 -2 200 -4 200 -2 0 -7 -17 -11 -37z"/>
 <path d="M870 376 c0 -6 -12 -33 -26 -60 -26 -48 -26 -49 -6 -68 20 -20 20 -20 51 46 18 36 30 70 27 75 -9 14 -46 20 -46 7z"/>
 <path d="M225 136 c-16 -11 -12 -16 36 -44 45 -26 55 -28 62 -16 11 19 4 28 -42 52 -32 17 -42 18 -56 8z"/>
 <path d="M620 99 c-19 -10 -50 -18 -69 -19 -26 0 -32 -3 -27 -16 3 -9 6 -20 6 -25 0 -12 54 -1 118 23 52 20 53 21 33 39 -11 11 -21 19 -23 18 -2 -1 -19 -9 -38 -20z"/>
 </g>

</svg>