<!DOCTYPE svg PUBLIC "-//W3C//DTD SVG 20010904//EN" "http://www.w3.org/TR/2001/REC-SVG-20010904/DTD/svg10.dtd">
<svg version="1.0" xmlns="http://www.w3.org/2000/svg" width="106px" height="104px" viewBox="0 0 1060 1040" preserveAspectRatio="xMidYMid meet">
<g id="layer101" fill="#231815" stroke="none">
 <path d="M0 520 l0 -520 530 0 530 0 0 520 0 520 -530 0 -530 0 0 -520z"/>
 </g>
<g id="layer102" fill="#2c221f" stroke="none">
 <path d="M0 521 l0 -519 530 0 530 0 0 519 0 519 -530 0 -530 0 0 -519z m689 474 c44 -14 83 -30 86 -35 9 -15 -23 -12 -48 5 -16 10 -64 16 -159 20 -130 5 -140 4 -207 -21 -39 -14 -71 -30 -71 -35 0 -18 21 -18 70 1 65 26 205 36 284 21 83 -15 157 -52 215 -106 78 -73 134 -209 134 -325 1 -241 -154 -431 -377 -462 -119 -17 -247 10 -349 73 -27 16 -55 29 -63 29 -8 0 -14 6 -14 13 0 8 -9 22 -20 32 -11 10 -20 23 -20 28 0 6 -6 18 -14 26 -37 43 -65 288 -42 378 20 81 42 137 55 141 6 2 11 10 11 18 0 14 34 54 47 54 13 0 43 33 43 48 0 14 44 62 57 62 3 0 29 11 57 24 72 34 72 34 163 35 62 1 102 -5 162 -24z m218 -122 c119 -118 171 -317 127 -486 -18 -71 -76 -190 -101 -209 -10 -7 -26 -25 -35 -39 -18 -28 -115 -95 -124 -86 -3 3 5 11 17 18 36 19 138 119 167 164 23 37 39 83 62 190 34 155 -25 322 -160 451 -33 31 -60 61 -60 66 0 16 58 -22 107 -69z m-838 -528 c5 -22 13 -49 17 -60 4 -13 4 -17 -3 -10 -20 21 -45 108 -49 173 l-4 67 15 -65 c8 -36 19 -83 24 -105z m305 -317 c-3 -5 -12 -4 -20 3 -19 16 -18 18 6 12 11 -3 17 -9 14 -15z m371 12 c-27 -12 -43 -12 -25 0 8 5 22 9 30 9 10 0 8 -3 -5 -9z m-60 -20 c-11 -5 -33 -8 -50 -8 -29 0 -29 0 -5 8 14 4 36 8 50 8 23 1 23 0 5 -8z m-268 -7 c-4 -3 -10 -3 -14 0 -3 4 0 7 7 7 7 0 10 -3 7 -7z"/>
 <path d="M200 760 c0 -7 3 -10 7 -7 3 4 3 10 0 14 -4 3 -7 0 -7 -7z"/>
 <path d="M160 495 l0 -145 90 0 c83 0 93 2 115 25 33 32 33 78 0 110 -13 14 -29 25 -36 25 -6 0 3 16 20 35 17 19 38 49 46 65 15 29 15 30 -9 30 -18 0 -30 -9 -41 -30 -8 -16 -29 -46 -46 -65 -24 -27 -39 -35 -65 -35 l-34 0 0 65 c0 58 -2 65 -20 65 -19 0 -20 -7 -20 -145z m164 -35 c16 -6 26 -17 26 -30 0 -26 -35 -40 -101 -40 l-49 0 0 40 0 40 49 0 c27 0 61 -4 75 -10z"/>
 <path d="M488 624 c-29 -15 -48 -42 -48 -68 0 -23 37 -20 43 3 7 27 73 46 110 32 53 -21 44 -64 -16 -76 -87 -17 -127 -45 -127 -87 0 -76 121 -108 181 -49 16 16 29 37 29 45 0 24 -30 19 -52 -9 -30 -38 -118 -28 -118 14 0 20 25 32 97 46 44 9 86 60 78 94 -10 44 -50 71 -103 71 -26 -1 -59 -7 -74 -16z"/>
 <path d="M690 638 c0 -2 24 -66 53 -143 48 -126 55 -140 77 -140 21 0 30 15 81 143 56 138 57 142 35 142 -18 0 -27 -10 -40 -45 l-18 -45 -58 0 -58 0 -14 43 c-11 30 -21 43 -36 45 -12 2 -22 2 -22 0z m170 -131 c0 -15 -34 -97 -40 -97 -6 0 -40 82 -40 97 0 2 18 3 40 3 22 0 40 -1 40 -3z"/>
 </g>
<g id="layer103" fill="#372d2a" stroke="none">
 <path d="M0 520 l0 -520 208 1 c431 1 545 24 660 133 96 91 117 132 152 291 34 153 -24 316 -159 450 -34 33 -61 63 -61 68 0 16 82 -38 122 -81 52 -57 107 -173 123 -264 13 -69 13 -61 14 185 l1 257 -530 0 -530 0 0 -520z m655 486 c77 -20 127 -44 120 -56 -5 -7 -19 -4 -42 10 -29 17 -56 21 -167 24 -123 4 -139 3 -202 -20 -79 -29 -81 -31 -67 -45 6 -6 25 -3 59 12 34 14 79 22 144 26 167 9 269 -24 368 -118 28 -28 52 -54 52 -59 0 -4 13 -36 29 -70 43 -91 55 -176 38 -275 -21 -114 -65 -202 -135 -266 -74 -68 -144 -99 -248 -112 -98 -12 -213 6 -292 46 -26 14 -64 33 -84 43 -21 11 -37 22 -38 26 0 4 -15 28 -34 52 -20 27 -37 63 -41 88 -4 24 -12 48 -17 55 -5 7 -11 72 -11 145 -2 118 1 138 21 182 12 27 22 55 22 63 0 7 7 16 15 19 9 4 14 11 13 18 -3 13 42 61 57 61 6 0 17 14 25 30 16 31 55 75 68 75 4 0 34 14 67 30 52 26 71 30 145 30 47 0 108 -6 135 -14z m-585 -661 c5 -22 12 -49 16 -60 4 -11 3 -17 -2 -12 -20 18 -45 107 -49 172 l-4 70 15 -65 c8 -36 19 -83 24 -105z m65 -145 c3 -5 4 -10 1 -10 -3 0 -8 5 -11 10 -3 6 -4 10 -1 10 3 0 8 -4 11 -10z m237 -172 c-11 -11 -32 -3 -32 12 0 4 9 6 21 3 13 -4 17 -9 11 -15z m45 -15 c-4 -3 -10 -3 -14 0 -3 4 0 7 7 7 7 0 10 -3 7 -7z"/>
 <path d="M160 495 l0 -145 90 0 c83 0 93 2 115 25 33 32 33 78 0 110 -13 14 -29 25 -36 25 -6 0 3 16 20 35 17 19 38 49 46 65 15 29 15 30 -9 30 -18 0 -30 -9 -41 -30 -8 -16 -29 -46 -46 -65 -24 -27 -39 -35 -65 -35 l-34 0 0 65 c0 58 -2 65 -20 65 -19 0 -20 -7 -20 -145z m164 -35 c16 -6 26 -17 26 -30 0 -26 -35 -40 -101 -40 l-49 0 0 40 0 40 49 0 c27 0 61 -4 75 -10z"/>
 <path d="M488 624 c-29 -15 -48 -42 -48 -68 0 -23 37 -20 43 3 7 27 73 46 110 32 53 -21 44 -64 -16 -76 -87 -17 -127 -45 -127 -87 0 -76 121 -108 181 -49 16 16 29 37 29 45 0 24 -30 19 -52 -9 -30 -38 -118 -28 -118 14 0 20 25 32 97 46 44 9 86 60 78 94 -10 44 -50 71 -103 71 -26 -1 -59 -7 -74 -16z"/>
 <path d="M690 638 c0 -2 24 -66 53 -143 48 -126 55 -140 77 -140 21 0 30 15 81 143 56 138 57 142 35 142 -18 0 -27 -10 -40 -45 l-18 -45 -58 0 -58 0 -14 43 c-11 30 -21 43 -36 45 -12 2 -22 2 -22 0z m170 -131 c0 -15 -34 -97 -40 -97 -6 0 -40 82 -40 97 0 2 18 3 40 3 22 0 40 -1 40 -3z"/>
 <path d="M1050 472 c0 -76 -64 -238 -116 -292 -13 -14 -35 -39 -49 -57 -31 -38 -110 -79 -203 -104 l-67 -18 223 0 222 -1 0 250 c0 138 -2 250 -5 250 -3 0 -5 -13 -5 -28z"/>
 </g>
<g id="layer104" fill="#453c3a" stroke="none">
 <path d="M0 520 l0 -520 203 1 c448 1 547 23 674 146 93 90 107 117 143 278 23 100 2 222 -55 318 -25 44 -45 60 -45 37 0 -6 11 -33 25 -60 118 -232 21 -524 -210 -631 -121 -56 -308 -47 -435 21 -30 16 -67 35 -82 42 -16 7 -28 18 -28 25 0 6 -6 16 -14 20 -21 12 -66 102 -66 132 0 15 -5 32 -11 38 -7 7 -12 63 -13 145 -1 141 -3 130 60 273 13 31 52 70 69 70 6 0 17 15 26 33 19 37 64 82 83 82 6 0 36 12 64 26 49 24 60 26 155 22 131 -6 254 -45 228 -71 -6 -6 -20 -2 -40 12 -26 19 -45 22 -167 24 -128 3 -143 2 -204 -22 -78 -30 -73 -27 -66 -40 5 -7 25 -4 59 10 66 26 229 36 309 20 76 -16 142 -52 200 -108 25 -25 51 -44 57 -42 7 3 -18 33 -54 68 -62 61 -76 81 -56 81 16 0 107 -77 137 -116 49 -64 85 -151 108 -259 2 -11 4 89 5 223 l1 242 -530 0 -530 0 0 -520z m60 -128 c0 -18 7 -49 15 -69 17 -41 20 -62 6 -48 -21 22 -51 132 -50 185 l0 55 15 -45 c7 -25 14 -60 14 -78z m74 -188 c3 -8 2 -12 -4 -9 -6 3 -10 10 -10 16 0 14 7 11 14 -7z m246 -175 c0 -16 -26 -10 -45 11 -18 20 -18 20 13 9 18 -6 32 -15 32 -20z m37 -16 c-4 -3 -10 -3 -14 0 -3 4 0 7 7 7 7 0 10 -3 7 -7z"/>
 <path d="M160 495 l0 -145 90 0 c83 0 93 2 115 25 33 32 33 78 0 110 -13 14 -29 25 -36 25 -6 0 3 16 20 35 17 19 38 49 46 65 15 29 15 30 -9 30 -18 0 -30 -9 -41 -30 -8 -16 -29 -46 -46 -65 -24 -27 -39 -35 -65 -35 l-34 0 0 65 c0 58 -2 65 -20 65 -19 0 -20 -7 -20 -145z m164 -35 c16 -6 26 -17 26 -30 0 -26 -35 -40 -101 -40 l-49 0 0 40 0 40 49 0 c27 0 61 -4 75 -10z"/>
 <path d="M488 624 c-29 -15 -48 -42 -48 -68 0 -23 37 -20 43 3 7 27 73 46 110 32 53 -21 44 -64 -16 -76 -87 -17 -127 -45 -127 -87 0 -76 121 -108 181 -49 16 16 29 37 29 45 0 24 -30 19 -52 -9 -30 -38 -118 -28 -118 14 0 20 25 32 97 46 44 9 86 60 78 94 -10 44 -50 71 -103 71 -26 -1 -59 -7 -74 -16z"/>
 <path d="M690 638 c0 -2 24 -66 53 -143 48 -126 55 -140 77 -140 21 0 30 15 81 143 56 138 57 142 35 142 -18 0 -27 -10 -40 -45 l-18 -45 -58 0 -58 0 -14 43 c-11 30 -21 43 -36 45 -12 2 -22 2 -22 0z m170 -131 c0 -15 -34 -97 -40 -97 -6 0 -40 82 -40 97 0 2 18 3 40 3 22 0 40 -1 40 -3z"/>
 <path d="M1038 397 c-25 -102 -68 -184 -135 -254 -66 -69 -110 -94 -214 -122 l-74 -20 223 0 222 -1 0 235 c0 129 -1 235 -2 235 -2 0 -11 -33 -20 -73z"/>
 </g>
<g id="layer105" fill="#554d4b" stroke="none">
 <path d="M0 518 l0 -521 288 6 c396 8 457 22 577 135 87 82 117 133 143 238 27 112 28 169 3 256 -20 68 -66 158 -82 158 -12 0 -12 -23 0 -36 19 -21 60 -143 66 -199 7 -63 -15 -196 -40 -245 -7 -14 -18 -37 -25 -52 -17 -37 -56 -77 -120 -124 -74 -55 -122 -72 -227 -80 -126 -9 -204 11 -360 94 -38 21 -101 114 -109 162 -3 19 -9 42 -14 51 -4 9 -11 61 -15 115 -8 105 5 201 31 239 8 11 14 30 14 42 0 13 5 23 10 23 6 0 10 6 10 13 0 13 49 62 62 62 11 0 37 38 38 55 0 17 48 51 100 70 19 8 38 18 42 24 4 6 53 12 110 14 86 3 117 0 178 -18 83 -24 106 -38 91 -53 -6 -6 -20 -2 -40 12 -28 20 -44 22 -168 24 -123 1 -145 -1 -205 -23 -38 -14 -68 -28 -68 -32 0 -13 38 -9 82 10 34 13 72 17 173 17 161 0 215 -18 305 -102 33 -30 64 -53 70 -51 6 2 -18 32 -54 66 -62 59 -78 82 -57 82 16 0 107 -76 139 -118 41 -51 80 -140 97 -217 12 -56 13 -43 14 183 l1 242 -530 0 -530 0 0 -522z m48 -53 c7 -25 12 -59 12 -75 0 -17 7 -47 15 -67 15 -35 20 -72 10 -61 -27 27 -75 248 -55 248 3 0 11 -20 18 -45z m86 -261 c3 -8 2 -12 -4 -9 -6 3 -10 10 -10 16 0 14 7 11 14 -7z m246 -175 c0 -16 -26 -10 -45 11 -18 20 -18 20 13 9 18 -6 32 -15 32 -20z m53 -16 c-7 -2 -19 -2 -25 0 -7 3 -2 5 12 5 14 0 19 -2 13 -5z"/>
 <path d="M160 495 l0 -145 90 0 c83 0 93 2 115 25 33 32 33 78 0 110 -13 14 -29 25 -36 25 -6 0 3 16 20 35 17 19 38 49 46 65 15 29 15 30 -9 30 -18 0 -30 -9 -41 -30 -8 -16 -29 -46 -46 -65 -24 -27 -39 -35 -65 -35 l-34 0 0 65 c0 58 -2 65 -20 65 -19 0 -20 -7 -20 -145z m164 -35 c16 -6 26 -17 26 -30 0 -26 -35 -40 -101 -40 l-49 0 0 40 0 40 49 0 c27 0 61 -4 75 -10z"/>
 <path d="M488 624 c-29 -15 -48 -42 -48 -68 0 -23 37 -20 43 3 7 27 73 46 110 32 53 -21 44 -64 -16 -76 -87 -17 -127 -45 -127 -87 0 -76 121 -108 181 -49 16 16 29 37 29 45 0 24 -30 19 -52 -9 -30 -38 -118 -28 -118 14 0 16 12 24 52 36 28 8 57 15 64 15 7 0 24 14 39 32 31 37 28 71 -11 106 -30 26 -103 30 -146 6z"/>
 <path d="M690 638 c0 -2 24 -66 53 -143 48 -126 55 -140 77 -140 21 0 30 15 81 143 56 138 57 142 35 142 -18 0 -27 -10 -40 -45 l-18 -45 -58 0 -58 0 -14 43 c-11 30 -21 43 -36 45 -12 2 -22 2 -22 0z m170 -131 c0 -15 -34 -97 -40 -97 -6 0 -40 82 -40 97 0 2 18 3 40 3 22 0 40 -1 40 -3z"/>
 <path d="M1038 399 c-25 -105 -68 -186 -134 -256 -70 -73 -157 -118 -264 -136 -14 -2 75 -5 198 -6 l222 -1 0 235 c0 129 -1 235 -2 235 -2 0 -11 -32 -20 -71z"/>
 </g>
<g id="layer106" fill="#65595c" stroke="none">
 <path d="M0 520 l0 -520 218 1 c119 0 209 4 199 8 -10 4 23 6 75 5 104 -2 213 17 273 47 51 27 151 120 190 178 34 51 61 146 71 247 5 58 3 85 -14 141 -23 75 -68 163 -83 163 -14 0 -11 -16 15 -64 27 -52 56 -156 56 -205 0 -48 -30 -183 -46 -208 -8 -12 -14 -27 -14 -33 0 -24 -55 -91 -111 -135 -79 -62 -138 -83 -251 -91 -107 -6 -219 17 -292 61 -22 14 -53 30 -68 37 -33 15 -96 111 -104 158 -3 19 -9 43 -14 52 -9 17 -24 153 -21 198 2 48 23 135 37 155 8 11 14 30 14 42 0 13 5 23 10 23 6 0 10 7 10 15 0 8 9 20 20 27 11 7 20 18 20 25 0 7 6 13 13 13 17 0 47 32 47 50 0 18 23 34 100 72 82 40 197 53 280 31 90 -22 150 -44 150 -53 0 -20 -23 -20 -55 0 -31 19 -50 21 -172 22 -120 1 -145 -2 -193 -21 -107 -43 -84 -53 40 -16 40 12 86 15 170 13 108 -3 120 -5 183 -36 38 -19 87 -54 112 -80 24 -25 47 -43 51 -39 4 3 -21 33 -55 66 -82 79 -84 110 -4 52 88 -64 157 -174 188 -299 13 -54 13 -43 14 181 l1 237 -530 0 -530 0 0 -520z m49 -54 c6 -25 11 -58 11 -74 0 -16 7 -46 16 -67 8 -20 14 -44 12 -53 -7 -31 -58 122 -60 181 -2 31 0 57 3 57 4 0 12 -20 18 -44z m91 -267 c0 -6 -4 -7 -10 -4 -5 3 -10 11 -10 16 0 6 5 7 10 4 6 -3 10 -11 10 -16z m240 -170 c0 -16 -26 -10 -45 11 -18 20 -18 20 13 9 18 -6 32 -15 32 -20z"/>
 <path d="M160 495 l0 -145 90 0 c83 0 93 2 115 25 33 32 33 78 0 110 -13 14 -29 25 -36 25 -6 0 3 16 20 35 17 19 38 49 46 65 15 29 15 30 -9 30 -18 0 -30 -9 -41 -30 -8 -16 -29 -46 -46 -65 -24 -27 -39 -35 -65 -35 l-34 0 0 65 c0 58 -2 65 -20 65 -19 0 -20 -7 -20 -145z m164 -35 c31 -11 35 -45 7 -60 -11 -5 -45 -10 -75 -10 l-56 0 0 40 0 40 49 0 c27 0 61 -4 75 -10z"/>
 <path d="M488 624 c-47 -25 -66 -84 -28 -84 11 0 20 6 20 14 0 20 44 46 79 46 41 0 79 -33 65 -56 -6 -10 -24 -22 -40 -26 -114 -33 -134 -46 -134 -90 0 -76 121 -108 181 -49 16 16 29 37 29 45 0 24 -30 19 -52 -9 -34 -43 -118 -31 -118 17 0 12 15 22 52 33 28 8 57 15 64 15 7 0 24 14 39 32 31 37 28 71 -11 106 -30 26 -103 30 -146 6z"/>
 <path d="M690 638 c0 -2 24 -66 53 -143 48 -126 55 -140 77 -140 21 0 30 15 81 143 56 138 57 142 35 142 -18 0 -27 -10 -40 -45 l-18 -45 -58 0 -58 0 -14 43 c-11 30 -21 43 -36 45 -12 2 -22 2 -22 0z m170 -131 c0 -15 -34 -97 -40 -97 -6 0 -40 82 -40 97 0 2 18 3 40 3 22 0 40 -1 40 -3z"/>
 <path d="M1041 408 c-22 -109 -72 -202 -150 -278 -60 -60 -78 -70 -147 -93 -44 -14 -88 -28 -99 -30 -11 -3 78 -5 198 -6 l217 -1 0 235 c0 129 -1 235 -3 235 -2 0 -9 -28 -16 -62z"/>
 </g>
<g id="layer107" fill="#756e6c" stroke="none">
 <path d="M0 520 l0 -520 213 0 c119 0 206 4 199 9 -8 5 25 8 79 7 83 -2 167 9 239 30 37 11 89 48 135 94 22 22 43 40 47 40 14 0 76 117 88 165 28 117 34 185 22 243 -13 62 -77 202 -93 202 -13 0 -12 -1 20 -70 58 -123 63 -288 11 -396 -11 -22 -20 -44 -20 -48 0 -21 -65 -97 -114 -135 -79 -59 -130 -78 -233 -86 -129 -10 -270 23 -349 82 -17 13 -35 23 -40 23 -16 0 -78 103 -91 153 -6 26 -15 52 -18 58 -4 5 -9 42 -11 80 -2 39 -6 74 -8 78 -8 13 21 155 38 186 9 17 16 38 16 48 0 9 5 17 10 17 6 0 10 7 10 15 0 8 9 20 20 27 11 7 20 18 20 25 0 7 6 13 13 13 17 0 47 32 47 49 0 15 50 60 68 61 7 0 34 11 60 25 71 37 206 37 320 1 45 -15 82 -31 82 -36 0 -19 -21 -19 -59 1 -34 17 -59 21 -168 21 -110 1 -137 -2 -191 -22 -59 -22 -87 -40 -62 -40 7 0 43 9 81 21 58 18 89 20 187 18 110 -4 122 -6 187 -38 42 -21 87 -53 112 -80 23 -25 45 -42 49 -38 4 3 -21 33 -55 66 -57 55 -74 81 -52 81 11 0 90 -59 121 -90 36 -36 89 -144 110 -221 l19 -74 0 238 1 237 -530 0 -530 0 0 -520z m49 -52 c6 -24 13 -61 15 -83 2 -22 9 -53 15 -68 23 -59 8 -59 -19 0 -19 42 -30 83 -33 128 -4 74 5 85 22 23z m91 -269 c0 -6 -4 -7 -10 -4 -5 3 -10 11 -10 16 0 6 5 7 10 4 6 -3 10 -11 10 -16z m240 -170 c0 -16 -26 -10 -45 11 -18 20 -18 20 13 9 18 -6 32 -15 32 -20z"/>
 <path d="M160 495 l0 -145 90 0 c83 0 93 2 115 25 33 32 33 78 0 110 -13 14 -29 25 -36 25 -6 0 3 16 20 35 17 19 38 49 46 65 15 29 15 30 -9 30 -18 0 -30 -9 -41 -30 -8 -16 -29 -46 -46 -65 -24 -27 -39 -35 -65 -35 l-34 0 0 65 c0 58 -2 65 -20 65 -19 0 -20 -7 -20 -145z m171 -35 c10 -6 19 -19 19 -30 0 -27 -30 -40 -94 -40 l-56 0 0 40 0 40 56 0 c30 0 64 -5 75 -10z"/>
 <path d="M488 625 c-47 -26 -66 -85 -28 -85 11 0 20 6 20 14 0 20 44 46 79 46 16 0 39 -9 52 -19 35 -29 16 -52 -62 -74 -73 -22 -99 -40 -99 -73 0 -54 39 -84 110 -84 33 0 48 6 71 29 16 16 29 37 29 45 0 24 -30 19 -52 -9 -33 -42 -118 -31 -118 16 0 17 22 28 97 48 77 21 102 85 53 135 -25 26 -115 32 -152 11z"/>
 <path d="M690 638 c0 -2 24 -66 53 -143 48 -126 55 -140 77 -140 21 0 30 15 81 143 56 138 57 142 35 142 -18 0 -27 -10 -40 -45 l-18 -45 -58 0 -58 0 -14 43 c-11 30 -21 43 -36 45 -12 2 -22 2 -22 0z m170 -131 c0 -15 -34 -97 -40 -97 -6 0 -40 82 -40 97 0 2 18 3 40 3 22 0 40 -1 40 -3z"/>
 <path d="M1041 399 c-23 -103 -74 -195 -150 -269 -60 -59 -78 -70 -147 -93 -44 -14 -88 -28 -99 -30 -11 -3 78 -5 198 -6 l217 -1 0 230 c0 127 -1 230 -3 230 -2 0 -9 -27 -16 -61z"/>
 </g>
<g id="layer108" fill="#8e796c" stroke="none">
 <path d="M0 520 l0 -520 206 0 c117 0 203 4 200 9 -3 5 33 9 82 9 193 -1 275 26 375 121 104 99 119 128 157 296 14 63 11 125 -9 191 -19 64 -70 164 -83 164 -12 0 -10 -7 17 -60 54 -107 66 -199 40 -324 -30 -145 -113 -254 -241 -317 -56 -28 -73 -31 -176 -34 -117 -4 -149 1 -248 41 -25 10 -59 28 -76 41 -17 13 -36 23 -41 23 -20 0 -93 128 -93 163 0 10 -5 28 -12 40 -6 12 -13 47 -14 77 -2 30 -6 69 -9 85 -6 36 16 149 39 192 9 18 16 39 16 48 0 8 5 15 10 15 6 0 10 7 10 15 0 8 9 20 20 27 11 7 20 18 20 24 0 7 9 14 20 17 11 3 25 18 31 34 10 28 55 72 75 73 5 0 33 11 60 25 89 44 222 40 362 -12 23 -9 42 -22 42 -29 0 -19 -13 -18 -58 6 -58 30 -267 30 -357 0 -63 -21 -92 -40 -61 -40 9 0 35 8 58 18 34 13 73 17 183 17 137 0 141 -1 209 -33 43 -20 85 -50 112 -79 24 -26 47 -44 50 -40 3 3 -21 31 -55 63 -56 51 -76 84 -52 84 12 0 99 -66 128 -97 33 -34 100 -179 111 -238 7 -38 10 8 11 188 l1 237 -530 0 -530 0 0 -520z m49 -47 c6 -21 12 -58 15 -83 2 -25 11 -64 20 -88 24 -66 -1 -46 -29 23 -24 58 -40 185 -24 185 4 0 13 -17 18 -37z m91 -274 c0 -6 -4 -7 -10 -4 -5 3 -10 11 -10 16 0 6 5 7 10 4 6 -3 10 -11 10 -16z m209 -150 c30 -11 39 -23 23 -32 -4 -3 -20 6 -35 19 -32 27 -32 28 12 13z"/>
 <path d="M160 495 l0 -145 90 0 c83 0 93 2 115 25 33 32 33 78 0 110 -13 14 -29 25 -36 25 -6 0 3 16 20 35 17 19 38 49 46 65 15 29 15 30 -9 30 -18 0 -30 -9 -41 -30 -8 -16 -29 -46 -46 -65 -24 -27 -39 -35 -65 -35 l-34 0 0 65 c0 58 -2 65 -20 65 -19 0 -20 -7 -20 -145z m171 -35 c10 -6 19 -19 19 -30 0 -27 -30 -40 -94 -40 l-56 0 0 40 0 40 56 0 c30 0 64 -5 75 -10z"/>
 <path d="M488 625 c-47 -26 -66 -85 -28 -85 11 0 20 6 20 14 0 20 44 46 79 46 16 0 39 -9 52 -19 35 -29 16 -52 -62 -74 -73 -22 -99 -40 -99 -73 0 -54 39 -84 110 -84 33 0 48 6 71 29 16 16 29 37 29 45 0 24 -30 19 -52 -9 -33 -42 -118 -31 -118 16 0 17 22 28 97 48 77 21 102 85 53 135 -25 26 -115 32 -152 11z"/>
 <path d="M690 638 c0 -2 24 -66 53 -143 48 -126 55 -140 77 -140 21 0 30 15 81 143 56 138 57 142 35 142 -18 0 -27 -10 -40 -45 l-18 -45 -58 0 -58 0 -14 43 c-11 30 -21 43 -36 45 -12 2 -22 2 -22 0z m170 -131 c0 -15 -34 -97 -40 -97 -6 0 -40 82 -40 97 0 2 18 3 40 3 22 0 40 -1 40 -3z"/>
 <path d="M1042 402 c-15 -71 -75 -198 -110 -233 -15 -15 -40 -41 -56 -58 -34 -36 -91 -65 -178 -91 l-63 -18 213 -1 212 -1 0 230 c0 127 -1 230 -3 230 -2 0 -8 -26 -15 -58z"/>
 </g>
<g id="layer109" fill="#95908f" stroke="none">
 <path d="M0 520 l0 -520 206 0 c116 0 203 4 200 9 -3 5 41 9 97 10 189 2 266 28 365 124 103 100 127 150 155 320 9 59 8 80 -7 140 -18 70 -73 187 -88 187 -11 0 -11 -1 22 -73 46 -96 56 -170 41 -275 -24 -167 -105 -283 -249 -354 -61 -30 -68 -31 -195 -32 -124 0 -136 2 -202 29 -78 32 -129 62 -162 95 -29 29 -73 114 -73 140 0 12 -6 33 -13 48 -8 15 -15 52 -16 82 -1 30 -4 66 -6 80 -7 32 17 146 39 187 9 18 16 39 16 48 0 8 5 15 10 15 6 0 10 7 10 15 0 8 9 20 20 27 11 7 20 18 20 24 0 7 9 14 20 17 11 3 25 18 31 34 10 28 55 72 75 73 5 0 34 12 63 27 45 22 68 26 140 27 130 1 289 -49 257 -81 -3 -4 -26 3 -50 15 -37 19 -61 22 -171 23 -108 0 -137 -3 -189 -22 -34 -12 -65 -26 -71 -31 -14 -13 20 -10 62 6 60 22 83 26 194 27 148 1 240 -34 321 -124 20 -23 40 -38 44 -35 3 4 -21 32 -55 64 -54 50 -76 84 -53 84 26 0 119 -78 155 -131 31 -46 76 -154 86 -209 6 -31 9 28 10 193 l1 237 -530 0 -530 0 0 -520z m50 -49 c5 -21 12 -59 14 -85 3 -25 8 -51 11 -56 14 -23 24 -71 14 -68 -19 6 -58 122 -62 185 -5 71 7 83 23 24z m90 -272 c0 -6 -4 -7 -10 -4 -5 3 -10 11 -10 16 0 6 5 7 10 4 6 -3 10 -11 10 -16z m209 -150 c30 -11 39 -23 23 -32 -4 -3 -20 6 -35 19 -32 27 -32 28 12 13z"/>
 <path d="M160 495 l0 -145 90 0 c83 0 93 2 115 25 41 40 29 106 -22 126 l-25 9 31 35 c17 20 38 49 46 65 15 29 15 30 -9 30 -18 0 -30 -9 -41 -30 -8 -16 -29 -46 -46 -65 -24 -27 -39 -35 -65 -35 l-34 0 0 65 c0 58 -2 65 -20 65 -19 0 -20 -7 -20 -145z m171 -35 c10 -6 19 -19 19 -30 0 -27 -30 -40 -94 -40 l-56 0 0 40 0 40 56 0 c30 0 64 -5 75 -10z"/>
 <path d="M488 625 c-47 -26 -66 -85 -28 -85 11 0 20 6 20 14 0 42 90 60 131 27 35 -29 16 -52 -62 -74 -76 -23 -99 -40 -99 -79 0 -53 56 -86 128 -75 38 6 82 45 82 73 0 23 -30 16 -52 -11 -35 -45 -126 -28 -116 22 2 12 22 23 68 35 104 28 136 85 80 142 -25 26 -115 32 -152 11z"/>
 <path d="M690 638 c0 -2 24 -66 53 -143 48 -126 55 -140 77 -140 21 0 30 15 81 143 56 138 57 142 35 142 -18 0 -27 -10 -40 -45 l-18 -45 -58 0 -58 0 -14 43 c-11 30 -21 43 -36 45 -12 2 -22 2 -22 0z m170 -131 c0 -15 -34 -97 -40 -97 -6 0 -40 82 -40 97 0 2 18 3 40 3 22 0 40 -1 40 -3z"/>
 <path d="M1050 437 c0 -57 -74 -224 -119 -268 -14 -15 -39 -41 -55 -58 -34 -36 -91 -65 -178 -91 l-63 -18 213 -1 212 -1 0 230 c0 127 -2 230 -5 230 -3 0 -5 -11 -5 -23z"/>
 </g>
<g id="layer110" fill="#7696ad" stroke="none">
 <path d="M0 520 l0 -520 206 0 c125 0 203 4 199 9 -3 6 42 11 112 14 150 5 182 10 240 38 54 25 149 112 195 178 60 85 87 289 54 400 -16 55 -66 151 -78 151 -12 0 -10 -7 19 -63 72 -143 71 -289 -4 -445 -41 -84 -105 -146 -198 -193 -52 -25 -75 -30 -172 -36 -98 -5 -120 -3 -180 16 -37 12 -88 33 -113 47 -25 13 -57 30 -72 36 -15 7 -29 19 -33 27 -7 20 -27 54 -42 72 -10 13 -39 107 -48 159 -3 14 -6 68 -7 120 -1 71 3 106 16 140 10 25 23 60 29 78 7 17 15 32 19 32 5 0 8 7 8 15 0 16 40 59 64 68 9 4 21 19 27 34 11 30 56 72 76 73 7 0 34 12 60 27 42 23 60 27 138 27 135 1 294 -49 261 -82 -4 -4 -22 2 -39 13 -26 16 -56 20 -167 23 -122 4 -142 2 -202 -19 -38 -13 -68 -27 -68 -31 0 -12 16 -10 55 6 65 28 214 39 300 23 74 -13 153 -54 213 -110 28 -28 52 -47 52 -44 0 3 -27 31 -60 63 -77 73 -83 107 -12 64 88 -54 166 -172 197 -299 12 -52 13 -41 14 177 l1 232 -530 0 -530 0 0 -520z m65 -131 c2 -25 12 -62 20 -83 16 -38 15 -53 -3 -42 -29 18 -73 220 -54 250 8 14 32 -65 37 -125z m75 -190 c0 -5 -4 -9 -10 -9 -5 0 -10 7 -10 16 0 8 5 12 10 9 6 -3 10 -10 10 -16z m137 -126 c-4 -3 -10 -3 -14 0 -3 4 0 7 7 7 7 0 10 -3 7 -7z m102 -38 c2 -3 0 -9 -5 -14 -5 -6 -23 3 -44 21 l-35 30 39 -16 c22 -9 42 -19 45 -21z"/>
 <path d="M160 495 l0 -145 90 0 c83 0 93 2 115 25 41 40 29 106 -22 126 l-25 9 31 35 c17 20 38 49 46 65 15 29 15 30 -9 30 -18 0 -30 -9 -41 -30 -8 -16 -29 -46 -46 -65 -24 -27 -39 -35 -65 -35 l-34 0 0 65 c0 58 -2 65 -20 65 -19 0 -20 -7 -20 -145z m171 -35 c10 -6 19 -19 19 -30 0 -27 -30 -40 -94 -40 l-56 0 0 40 0 40 56 0 c30 0 64 -5 75 -10z"/>
 <path d="M488 625 c-47 -26 -66 -85 -28 -85 11 0 20 6 20 14 0 42 90 60 131 27 35 -29 16 -52 -62 -74 -76 -23 -99 -40 -99 -79 0 -53 56 -86 128 -75 38 6 82 45 82 73 0 23 -30 16 -52 -11 -35 -45 -126 -28 -116 22 2 12 22 23 68 35 104 28 136 85 80 142 -25 26 -115 32 -152 11z"/>
 <path d="M690 638 c0 -2 24 -66 53 -143 48 -126 55 -140 77 -140 21 0 30 15 81 143 56 138 57 142 35 142 -18 0 -27 -10 -40 -45 l-18 -45 -58 0 -58 0 -14 43 c-11 30 -21 43 -36 45 -12 2 -22 2 -22 0z m170 -131 c0 -15 -34 -97 -40 -97 -6 0 -40 82 -40 97 0 2 18 3 40 3 22 0 40 -1 40 -3z"/>
 <path d="M1050 433 c-1 -61 -70 -216 -118 -264 -15 -15 -40 -41 -57 -59 -37 -40 -84 -64 -172 -89 l-68 -20 213 0 212 -1 0 225 c0 124 -2 225 -5 225 -3 0 -5 -8 -5 -17z"/>
 </g>
<g id="layer111" fill="#a5a19e" stroke="none">
 <path d="M0 520 l0 -520 206 0 c125 0 203 4 199 9 -3 6 42 11 112 14 150 5 182 10 240 38 54 25 149 112 195 178 60 85 87 289 54 400 -16 55 -66 151 -78 151 -12 0 -10 -7 19 -63 72 -143 71 -289 -4 -445 -41 -84 -105 -146 -198 -193 -52 -25 -75 -30 -172 -36 -98 -5 -120 -3 -180 16 -37 12 -88 33 -113 47 -25 13 -57 30 -72 36 -15 7 -29 19 -33 27 -7 20 -27 54 -42 72 -10 13 -39 107 -48 159 -3 14 -6 68 -7 120 -1 71 3 106 16 140 10 25 23 60 29 78 7 17 15 32 19 32 5 0 8 7 8 15 0 16 40 59 64 68 9 4 21 19 27 34 11 30 56 72 76 73 7 0 34 12 60 27 42 23 60 27 138 27 135 1 294 -49 261 -82 -4 -4 -22 2 -39 13 -26 16 -56 20 -167 23 -122 4 -142 2 -202 -19 -38 -13 -68 -27 -68 -31 0 -12 16 -10 55 6 65 28 214 39 300 23 74 -13 153 -54 213 -110 28 -28 52 -47 52 -44 0 3 -27 31 -60 63 -77 73 -83 107 -12 64 88 -54 166 -172 197 -299 12 -52 13 -41 14 177 l1 232 -530 0 -530 0 0 -520z m65 -131 c2 -25 12 -62 20 -83 16 -38 15 -53 -3 -42 -29 18 -73 220 -54 250 8 14 32 -65 37 -125z m75 -190 c0 -5 -4 -9 -10 -9 -5 0 -10 7 -10 16 0 8 5 12 10 9 6 -3 10 -10 10 -16z m137 -126 c-4 -3 -10 -3 -14 0 -3 4 0 7 7 7 7 0 10 -3 7 -7z m102 -38 c2 -3 0 -9 -5 -14 -5 -6 -23 3 -44 21 l-35 30 39 -16 c22 -9 42 -19 45 -21z"/>
 <path d="M160 495 l0 -145 90 0 c83 0 93 2 115 25 41 40 29 106 -22 126 l-25 9 31 35 c17 20 38 49 46 65 15 29 15 30 -9 30 -18 0 -30 -9 -41 -30 -8 -16 -29 -46 -46 -65 -24 -27 -39 -35 -65 -35 l-34 0 0 65 c0 58 -2 65 -20 65 -19 0 -20 -7 -20 -145z m171 -35 c21 -12 25 -40 7 -58 -7 -7 -39 -12 -75 -12 l-63 0 0 40 0 40 56 0 c30 0 64 -5 75 -10z"/>
 <path d="M493 626 c-49 -22 -74 -86 -33 -86 11 0 20 6 20 14 0 43 102 62 136 25 25 -28 9 -50 -47 -67 -103 -30 -128 -54 -115 -108 15 -59 138 -72 183 -19 13 14 23 33 23 41 0 23 -30 16 -52 -11 -35 -45 -126 -28 -116 22 2 12 22 23 68 35 103 28 136 85 80 142 -24 25 -104 31 -147 12z"/>
 <path d="M690 638 c0 -2 24 -66 53 -143 48 -126 55 -140 77 -140 21 0 30 15 81 143 56 138 57 142 35 142 -18 0 -27 -10 -40 -45 l-18 -45 -58 0 -58 0 -14 43 c-11 30 -21 43 -36 45 -12 2 -22 2 -22 0z m170 -131 c0 -15 -34 -97 -40 -97 -6 0 -40 82 -40 97 0 2 18 3 40 3 22 0 40 -1 40 -3z"/>
 <path d="M1050 433 c-1 -61 -70 -216 -118 -264 -15 -15 -40 -41 -57 -59 -37 -40 -84 -64 -172 -89 l-68 -20 213 0 212 -1 0 225 c0 124 -2 225 -5 225 -3 0 -5 -8 -5 -17z"/>
 </g>
<g id="layer112" fill="#b2afae" stroke="none">
 <path d="M0 520 l0 -520 201 0 c123 0 198 4 194 9 -3 6 44 11 117 14 155 5 186 10 244 37 53 26 153 116 194 175 41 59 65 161 65 280 0 113 -11 159 -55 229 -40 63 -49 53 -14 -16 96 -188 60 -419 -86 -558 -99 -94 -180 -122 -349 -120 -82 1 -200 38 -267 84 -21 14 -44 26 -51 26 -7 0 -13 4 -13 9 0 6 -13 29 -29 53 -46 71 -72 173 -74 301 -1 103 1 117 26 171 15 32 27 65 27 72 0 8 5 14 10 14 6 0 10 7 10 15 0 15 35 53 66 71 11 6 20 20 22 30 4 20 58 74 74 74 6 0 33 12 62 27 44 23 64 26 146 27 137 1 290 -48 256 -82 -4 -4 -22 2 -39 13 -26 16 -56 20 -167 23 -122 4 -142 2 -202 -19 -38 -13 -68 -27 -68 -31 0 -12 10 -10 72 12 67 23 201 32 278 18 79 -14 157 -54 218 -111 28 -28 52 -47 52 -44 0 3 -27 31 -60 63 -57 54 -74 84 -48 84 17 0 133 -91 145 -114 57 -110 78 -159 89 -206 11 -49 12 -30 13 178 l1 232 -530 0 -530 0 0 -520z m60 -95 c7 -38 19 -90 26 -114 14 -45 12 -63 -6 -45 -31 31 -71 218 -53 247 9 15 19 -12 33 -88z m80 -226 c0 -5 -4 -9 -10 -9 -5 0 -10 7 -10 16 0 8 5 12 10 9 6 -3 10 -10 10 -16z m137 -126 c-4 -3 -10 -3 -14 0 -3 4 0 7 7 7 7 0 10 -3 7 -7z m67 -18 c20 -8 36 -19 36 -25 0 -20 -17 -17 -50 11 -39 33 -37 35 14 14z"/>
 <path d="M160 495 l0 -145 83 0 c46 0 93 6 107 13 53 27 51 109 -3 135 l-28 13 30 35 c17 19 38 48 46 64 15 29 15 30 -9 30 -18 0 -30 -9 -41 -30 -8 -16 -29 -46 -46 -65 -24 -27 -39 -35 -65 -35 l-34 0 0 65 c0 58 -2 65 -20 65 -19 0 -20 -7 -20 -145z m171 -35 c21 -12 25 -40 7 -58 -7 -7 -39 -12 -75 -12 l-63 0 0 40 0 40 56 0 c30 0 64 -5 75 -10z"/>
 <path d="M493 626 c-49 -22 -74 -86 -33 -86 11 0 20 6 20 14 0 43 102 62 136 25 25 -28 9 -50 -47 -67 -103 -30 -128 -54 -115 -108 15 -59 138 -72 183 -19 13 14 23 33 23 41 0 23 -30 16 -52 -11 -35 -45 -126 -28 -116 22 2 12 22 23 68 35 103 28 136 85 80 142 -24 25 -104 31 -147 12z"/>
 <path d="M690 638 c0 -2 24 -66 53 -143 48 -126 55 -140 77 -140 21 0 30 15 81 143 56 138 57 142 35 142 -18 0 -27 -10 -40 -45 l-18 -45 -58 0 -58 0 -14 43 c-11 30 -21 43 -36 45 -12 2 -22 2 -22 0z m170 -131 c0 -15 -34 -97 -40 -97 -6 0 -40 82 -40 97 0 2 18 3 40 3 22 0 40 -1 40 -3z"/>
 <path d="M1050 433 c-1 -59 -69 -214 -116 -263 -76 -80 -94 -95 -139 -116 -27 -13 -75 -30 -105 -38 -53 -14 -49 -15 158 -15 l212 -1 0 225 c0 124 -2 225 -5 225 -3 0 -5 -8 -5 -17z"/>
 </g>
<g id="layer113" fill="#c3bdbc" stroke="none">
 <path d="M0 520 l0 -520 201 0 c123 0 198 4 194 9 -3 6 44 12 117 14 206 7 251 22 356 122 82 77 110 125 132 226 35 155 21 275 -44 377 -38 61 -42 47 -7 -24 40 -83 51 -128 51 -209 0 -232 -159 -435 -361 -461 -146 -18 -269 3 -371 66 -25 15 -56 31 -67 35 -12 3 -21 10 -21 15 0 5 -13 28 -28 52 -82 123 -103 373 -42 491 11 20 20 44 20 52 0 8 5 15 10 15 6 0 10 6 10 14 0 8 13 28 30 46 17 18 30 29 30 25 0 -4 7 -2 15 5 8 7 15 20 15 29 0 44 149 119 252 128 103 9 279 -34 286 -70 5 -22 -15 -21 -63 3 -33 17 -59 20 -166 20 -106 0 -137 -4 -186 -22 -66 -25 -68 -26 -61 -33 3 -4 32 3 64 14 88 29 204 36 293 17 85 -18 146 -50 216 -115 39 -35 36 -31 -13 19 -60 63 -75 90 -50 90 16 0 133 -90 144 -111 52 -98 80 -163 90 -209 11 -49 12 -30 13 178 l1 232 -530 0 -530 0 0 -520z m42 -12 c3 -7 11 -44 18 -83 7 -38 19 -90 26 -114 25 -79 -5 -67 -35 14 -22 58 -37 195 -22 195 5 0 11 -6 13 -12z m98 -309 c0 -5 -4 -9 -10 -9 -5 0 -10 7 -10 16 0 8 5 12 10 9 6 -3 10 -10 10 -16z m137 -126 c-4 -3 -10 -3 -14 0 -3 4 0 7 7 7 7 0 10 -3 7 -7z m77 -22 c31 -13 36 -19 25 -28 -11 -8 -22 -4 -49 18 -39 33 -33 35 24 10z"/>
 <path d="M160 495 l0 -145 83 0 c46 0 93 6 107 13 53 27 51 109 -3 135 l-28 13 30 35 c17 19 38 48 46 64 15 29 15 30 -9 30 -18 0 -30 -9 -41 -30 -8 -16 -29 -46 -46 -65 -24 -27 -39 -35 -65 -35 l-34 0 0 65 c0 58 -2 65 -20 65 -19 0 -20 -7 -20 -145z m171 -35 c21 -12 25 -40 7 -58 -7 -7 -39 -12 -75 -12 l-63 0 0 40 0 40 56 0 c30 0 64 -5 75 -10z"/>
 <path d="M493 626 c-49 -22 -74 -86 -33 -86 11 0 20 6 20 14 0 43 102 62 136 25 25 -28 9 -50 -47 -67 -80 -23 -114 -45 -117 -74 -2 -15 2 -36 8 -47 13 -26 78 -45 124 -37 35 7 76 45 76 72 0 23 -31 16 -52 -11 -34 -43 -118 -31 -118 17 0 22 22 34 79 43 60 10 106 54 96 93 -3 15 -15 35 -25 46 -24 25 -104 31 -147 12z"/>
 <path d="M690 638 c0 -2 24 -66 53 -143 48 -126 55 -140 77 -140 21 0 30 15 81 143 56 138 57 142 35 142 -18 0 -27 -10 -40 -45 l-18 -45 -58 0 -58 0 -14 43 c-11 30 -21 43 -36 45 -12 2 -22 2 -22 0z m170 -131 c0 -15 -34 -97 -40 -97 -6 0 -40 82 -40 97 0 2 18 3 40 3 22 0 40 -1 40 -3z"/>
 <path d="M1041 389 c-18 -79 -73 -193 -104 -213 -13 -9 -29 -27 -35 -40 -20 -45 -131 -103 -247 -129 -11 -3 76 -5 193 -6 l212 -1 0 225 c0 124 -1 225 -3 225 -2 0 -9 -27 -16 -61z"/>
 </g>
<g id="layer114" fill="#ffdd95" stroke="none">
 <path d="M0 520 l0 -520 200 0 c131 0 199 4 197 10 -1 7 43 12 118 14 195 5 254 26 352 123 82 80 112 124 123 180 5 26 14 66 20 88 25 103 2 244 -54 334 -36 57 -44 47 -11 -14 14 -27 32 -71 40 -99 28 -93 15 -255 -26 -322 -10 -17 -19 -39 -19 -48 0 -28 -131 -150 -192 -179 -136 -65 -343 -51 -480 33 -25 15 -56 31 -67 35 -12 3 -21 11 -21 16 0 6 -11 25 -25 44 -82 106 -106 388 -44 504 10 20 19 41 19 48 0 7 5 13 10 13 6 0 10 7 10 16 0 8 14 29 30 46 17 16 30 26 30 23 0 -4 7 -2 15 5 8 7 15 20 15 29 0 18 52 71 70 71 6 0 32 12 58 27 43 25 56 27 157 27 91 0 122 -4 180 -24 46 -17 71 -31 73 -42 4 -22 -20 -24 -51 -4 -26 17 -122 32 -113 18 3 -5 23 -12 45 -15 63 -8 146 -52 209 -109 l57 -52 -63 65 c-64 67 -85 112 -39 87 35 -19 123 -91 133 -108 37 -64 85 -175 92 -216 7 -37 10 7 11 184 l1 232 -530 0 -530 0 0 -520z m49 -37 c6 -21 14 -65 20 -98 5 -33 14 -73 20 -88 27 -71 -2 -55 -35 18 -14 33 -25 82 -29 129 -6 82 7 102 24 39z m89 -281 c6 -18 -15 -14 -22 4 -4 10 -1 14 6 12 6 -2 14 -10 16 -16z m139 -129 c-4 -3 -10 -3 -14 0 -3 4 0 7 7 7 7 0 10 -3 7 -7z m77 -22 c32 -14 36 -19 24 -29 -12 -9 -21 -6 -48 18 -38 34 -32 36 24 11z"/>
 <path d="M371 960 c-24 -11 -49 -20 -57 -20 -8 0 -14 -4 -14 -10 0 -14 11 -13 56 6 22 9 84 22 139 29 l100 13 -90 1 c-70 0 -100 -4 -134 -19z"/>
 <path d="M160 495 l0 -145 83 0 c46 0 93 6 107 13 55 28 51 111 -7 136 l-31 14 26 22 c15 13 37 41 50 64 l23 41 -25 0 c-18 0 -30 -9 -41 -30 -8 -16 -29 -46 -46 -65 -24 -27 -39 -35 -65 -35 l-34 0 0 65 c0 58 -2 65 -20 65 -19 0 -20 -7 -20 -145z m171 -35 c21 -12 25 -40 7 -58 -7 -7 -39 -12 -75 -12 l-63 0 0 40 0 40 56 0 c30 0 64 -5 75 -10z"/>
 <path d="M493 626 c-49 -22 -74 -86 -33 -86 11 0 20 6 20 14 0 43 102 62 136 25 25 -28 9 -50 -47 -67 -103 -30 -128 -54 -115 -108 15 -58 144 -70 186 -17 11 14 20 32 20 39 0 23 -31 16 -52 -11 -34 -43 -118 -31 -118 17 0 21 19 32 88 48 85 20 114 81 63 133 -23 24 -107 31 -148 13z"/>
 <path d="M690 638 c0 -2 24 -66 53 -143 48 -126 55 -140 77 -140 21 0 30 15 81 143 56 138 57 142 35 142 -18 0 -27 -10 -40 -45 l-18 -45 -58 0 -58 0 -14 43 c-11 30 -21 43 -36 45 -12 2 -22 2 -22 0z m170 -131 c0 -15 -34 -97 -40 -97 -6 0 -40 82 -40 97 0 2 18 3 40 3 22 0 40 -1 40 -3z"/>
 <path d="M1050 427 c0 -59 -66 -206 -113 -254 -18 -17 -42 -44 -53 -60 -25 -33 -90 -68 -177 -93 l-62 -18 208 -1 207 -1 0 225 c0 124 -2 225 -5 225 -3 0 -5 -11 -5 -23z"/>
 </g>
<g id="layer115" fill="#d2d1d0" stroke="none">
 <path d="M0 520 l0 -520 200 0 c131 0 199 4 197 10 -1 7 43 12 118 14 195 5 254 26 352 123 82 80 112 124 123 180 5 26 14 66 20 88 25 103 2 244 -54 334 -36 57 -44 47 -11 -14 14 -27 32 -71 40 -99 28 -93 15 -255 -26 -322 -10 -17 -19 -39 -19 -48 0 -28 -131 -150 -192 -179 -136 -65 -343 -51 -480 33 -25 15 -56 31 -67 35 -12 3 -21 11 -21 16 0 6 -11 25 -25 44 -82 106 -106 388 -44 504 10 20 19 41 19 48 0 7 5 13 10 13 6 0 10 7 10 16 0 8 14 29 30 46 17 16 30 26 30 23 0 -4 7 -2 15 5 8 7 15 20 15 29 0 18 52 71 70 71 6 0 32 12 58 27 43 25 56 27 157 27 91 0 122 -4 180 -24 46 -17 71 -31 73 -42 4 -22 -20 -24 -51 -4 -26 17 -122 32 -113 18 3 -5 23 -12 45 -15 63 -8 146 -52 209 -109 l57 -52 -63 65 c-64 67 -85 112 -39 87 35 -19 123 -91 133 -108 37 -64 85 -175 92 -216 7 -37 10 7 11 184 l1 232 -530 0 -530 0 0 -520z m49 -37 c6 -21 14 -65 20 -98 5 -33 14 -73 20 -88 27 -71 -2 -55 -35 18 -14 33 -25 82 -29 129 -6 82 7 102 24 39z m89 -281 c6 -18 -15 -14 -22 4 -4 10 -1 14 6 12 6 -2 14 -10 16 -16z m139 -129 c-4 -3 -10 -3 -14 0 -3 4 0 7 7 7 7 0 10 -3 7 -7z m77 -22 c32 -14 36 -19 24 -29 -12 -9 -21 -6 -48 18 -38 34 -32 36 24 11z"/>
 <path d="M371 960 c-24 -11 -49 -20 -57 -20 -8 0 -14 -4 -14 -10 0 -14 11 -13 56 6 22 9 84 22 139 29 l100 13 -90 1 c-70 0 -100 -4 -134 -19z"/>
 <path d="M160 495 l0 -145 79 0 c98 0 125 10 139 50 15 41 1 75 -40 100 -18 11 -28 20 -21 20 6 0 26 21 45 48 52 73 52 72 24 72 -18 0 -30 -9 -41 -30 -8 -16 -29 -46 -46 -65 -26 -29 -38 -35 -70 -35 l-39 0 0 65 c0 51 -3 65 -15 65 -13 0 -15 -23 -15 -145z m171 -35 c21 -12 25 -40 7 -58 -7 -7 -40 -12 -80 -12 l-68 0 0 40 0 40 61 0 c33 0 69 -5 80 -10z"/>
 <path d="M493 626 c-32 -15 -53 -42 -53 -70 0 -24 15 -19 48 14 38 37 98 42 128 9 25 -28 9 -50 -47 -67 -103 -30 -128 -54 -115 -108 15 -58 144 -70 185 -18 19 25 19 54 -1 54 -6 0 -19 -11 -30 -25 -32 -41 -118 -33 -118 11 0 27 16 37 88 54 57 13 98 54 88 88 -19 57 -108 87 -173 58z"/>
 <path d="M690 638 c0 -2 24 -66 53 -143 44 -117 56 -141 75 -143 14 -2 24 3 28 15 7 20 16 45 33 86 6 15 16 39 22 55 7 15 16 38 22 52 5 14 16 37 24 53 14 26 13 27 -10 27 -20 0 -28 -9 -41 -45 l-18 -45 -57 0 -58 0 -19 45 c-12 30 -24 45 -36 45 -10 0 -18 -1 -18 -2z m170 -131 c0 -15 -34 -97 -40 -97 -4 0 -13 12 -19 28 -6 15 -15 37 -21 50 -9 21 -7 22 35 22 25 0 45 -1 45 -3z"/>
 <path d="M1050 427 c0 -59 -66 -206 -113 -254 -18 -17 -42 -44 -53 -60 -25 -33 -90 -68 -177 -93 l-62 -18 208 -1 207 -1 0 225 c0 124 -2 225 -5 225 -3 0 -5 -11 -5 -23z"/>
 </g>
<g id="layer116" fill="#9addff" stroke="none">
 <path d="M0 520 l0 -520 200 0 c147 0 199 3 197 12 -1 8 26 11 96 9 167 -4 273 31 369 122 84 79 107 114 130 196 31 112 34 217 10 297 -12 38 -33 87 -46 109 -31 49 -34 35 -5 -20 50 -92 64 -233 34 -344 -44 -166 -191 -309 -335 -327 -25 -3 -66 -8 -92 -11 -61 -7 -177 19 -253 58 -33 17 -75 38 -92 47 -18 9 -33 22 -33 29 0 6 -6 16 -12 20 -19 12 -55 83 -68 133 -24 92 -32 244 -16 307 18 74 39 130 54 145 7 7 12 18 12 25 0 7 9 17 20 23 11 6 20 18 20 26 0 11 6 14 16 10 11 -4 20 5 31 34 9 22 22 40 28 40 7 0 15 7 19 15 3 8 11 15 18 15 7 0 36 12 63 27 46 25 60 27 160 27 92 0 122 -4 180 -24 46 -17 71 -31 73 -42 4 -22 -25 -24 -53 -4 -21 14 -118 29 -110 16 2 -4 23 -10 46 -13 23 -3 68 -19 100 -35 62 -30 70 -30 42 0 -11 12 -13 22 -7 28 15 15 131 -68 161 -116 37 -56 75 -141 87 -192 14 -54 14 -45 15 171 l1 227 -530 0 -530 0 0 -520z m58 -81 c7 -41 20 -98 29 -127 25 -92 -1 -80 -39 17 -24 62 -36 195 -17 189 8 -3 19 -34 27 -79z m82 -235 c0 -9 -5 -14 -12 -12 -18 6 -21 28 -4 28 9 0 16 -7 16 -16z m137 -131 c-4 -3 -10 -3 -14 0 -3 4 0 7 7 7 7 0 10 -3 7 -7z m68 -17 c22 -8 40 -20 40 -27 0 -25 -31 -20 -60 11 -33 34 -33 34 20 16z"/>
 <path d="M380 963 c-19 -8 -46 -19 -59 -24 -13 -5 -22 -12 -19 -14 3 -3 25 2 49 11 24 9 89 22 144 29 l100 13 -90 0 c-60 0 -102 -5 -125 -15z"/>
 <path d="M870 848 c41 -45 50 -53 50 -45 0 2 -21 23 -47 47 l-48 45 45 -47z"/>
 <path d="M160 495 l0 -145 69 0 c107 0 131 8 147 47 18 43 3 81 -41 102 -16 8 -24 16 -18 18 7 3 27 25 46 51 51 72 51 72 23 72 -18 0 -30 -9 -41 -30 -8 -16 -29 -46 -46 -65 -26 -29 -38 -35 -70 -35 l-39 0 0 65 c0 51 -3 65 -15 65 -13 0 -15 -23 -15 -145z m171 -35 c21 -12 25 -40 7 -58 -7 -7 -40 -12 -80 -12 l-68 0 0 40 0 40 61 0 c33 0 69 -5 80 -10z"/>
 <path d="M503 629 c-35 -10 -63 -42 -63 -71 0 -26 14 -22 48 12 38 37 98 42 128 9 25 -28 10 -50 -47 -68 -84 -25 -114 -44 -117 -73 -2 -15 2 -36 8 -47 13 -25 79 -44 125 -35 39 7 77 47 68 70 -8 21 -23 17 -45 -11 -32 -41 -118 -33 -118 11 0 27 16 37 88 54 57 13 98 54 88 88 -17 52 -96 82 -163 61z"/>
 <path d="M690 638 c0 -2 24 -66 53 -143 44 -117 56 -141 75 -143 14 -2 24 3 28 15 7 20 16 45 33 86 6 15 16 39 22 55 7 15 16 38 22 52 5 14 16 37 24 53 14 26 13 27 -10 27 -20 0 -28 -9 -41 -45 l-18 -45 -57 0 -58 0 -19 45 c-12 30 -24 45 -36 45 -10 0 -18 -1 -18 -2z m170 -131 c0 -15 -34 -97 -40 -97 -4 0 -13 12 -19 28 -6 15 -15 37 -21 50 -9 21 -7 22 35 22 25 0 45 -1 45 -3z"/>
 <path d="M1042 383 c-19 -83 -72 -179 -134 -244 -66 -70 -89 -85 -180 -115 l-73 -23 203 -1 202 0 0 220 c0 121 -1 220 -3 220 -1 0 -8 -26 -15 -57z"/>
 </g>
<g id="layer117" fill="#f9f3ba" stroke="none">
 <path d="M0 520 l0 -520 200 0 c147 0 199 3 197 12 -1 8 26 11 96 9 167 -4 273 31 369 122 84 79 107 114 130 196 31 112 34 217 10 297 -12 38 -33 87 -46 109 -31 49 -34 35 -5 -20 50 -92 64 -233 34 -344 -44 -166 -191 -309 -335 -327 -25 -3 -66 -8 -92 -11 -61 -7 -177 19 -253 58 -33 17 -75 38 -92 47 -18 9 -33 22 -33 29 0 6 -6 16 -12 20 -19 12 -55 83 -68 133 -24 92 -32 244 -16 307 18 74 39 130 54 145 7 7 12 18 12 25 0 7 9 17 20 23 11 6 20 18 20 26 0 11 6 14 16 10 11 -4 20 5 31 34 9 22 22 40 28 40 7 0 15 7 19 15 3 8 11 15 18 15 7 0 36 12 63 27 46 25 60 27 160 27 92 0 122 -4 180 -24 46 -17 71 -31 73 -42 4 -22 -25 -24 -53 -4 -21 14 -118 29 -110 16 2 -4 23 -10 46 -13 23 -3 68 -19 100 -35 62 -30 70 -30 42 0 -11 12 -13 22 -7 28 15 15 131 -68 161 -116 37 -56 75 -141 87 -192 14 -54 14 -45 15 171 l1 227 -530 0 -530 0 0 -520z m58 -81 c7 -41 20 -98 29 -127 25 -92 -1 -80 -39 17 -24 62 -36 195 -17 189 8 -3 19 -34 27 -79z m82 -235 c0 -9 -5 -14 -12 -12 -18 6 -21 28 -4 28 9 0 16 -7 16 -16z m137 -131 c-4 -3 -10 -3 -14 0 -3 4 0 7 7 7 7 0 10 -3 7 -7z m68 -17 c22 -8 40 -20 40 -27 0 -25 -31 -20 -60 11 -33 34 -33 34 20 16z"/>
 <path d="M380 963 c-19 -8 -46 -19 -59 -24 -13 -5 -22 -12 -19 -14 3 -3 25 2 49 11 24 9 89 22 144 29 l100 13 -90 0 c-60 0 -102 -5 -125 -15z"/>
 <path d="M870 848 c41 -45 50 -53 50 -45 0 2 -21 23 -47 47 l-48 45 45 -47z"/>
 <path d="M170 495 l0 -145 64 0 c102 0 126 8 142 47 18 43 3 81 -41 102 -16 8 -24 16 -18 18 7 3 27 25 46 51 50 71 51 72 28 72 -14 0 -36 -21 -68 -65 -45 -63 -48 -65 -90 -65 l-43 0 0 65 c0 37 -4 65 -10 65 -6 0 -10 -55 -10 -145z m174 -47 c8 -13 8 -23 0 -35 -9 -14 -28 -19 -83 -21 l-71 -3 0 41 0 41 71 -3 c55 -2 74 -7 83 -20z"/>
 <path d="M501 627 c-26 -9 -37 -21 -47 -49 -16 -46 -6 -48 34 -8 37 37 98 42 126 11 29 -32 16 -53 -39 -69 -99 -27 -130 -57 -116 -110 15 -56 140 -66 180 -15 18 22 19 53 2 53 -4 0 -18 -11 -31 -25 -38 -40 -120 -33 -120 11 0 27 16 37 88 54 57 13 98 54 88 88 -17 54 -99 83 -165 59z"/>
 <path d="M700 623 c0 -10 6 -30 14 -45 8 -15 17 -40 21 -57 4 -17 11 -33 16 -36 5 -4 9 -13 9 -22 0 -8 6 -29 14 -46 8 -18 16 -40 20 -49 7 -23 45 -23 52 0 7 19 16 44 33 85 6 15 15 37 20 50 16 43 34 82 48 110 13 25 13 27 -5 27 -25 0 -40 -19 -48 -58 -6 -32 -7 -32 -69 -32 l-62 0 -19 45 c-18 45 -44 61 -44 28z m160 -129 c0 -21 -30 -84 -40 -84 -4 0 -13 12 -19 28 -6 15 -15 37 -21 50 -9 21 -7 22 35 22 35 0 45 -4 45 -16z"/>
 <path d="M1042 383 c-19 -83 -72 -179 -134 -244 -66 -70 -89 -85 -180 -115 l-73 -23 203 -1 202 0 0 220 c0 121 -1 220 -3 220 -1 0 -8 -26 -15 -57z"/>
 </g>
<g id="layer118" fill="#bdf7fd" stroke="none">
 <path d="M0 520 l0 -520 200 0 c147 0 199 3 197 12 -1 8 26 11 96 9 167 -4 273 31 369 122 84 79 107 114 130 196 31 112 34 217 10 297 -12 38 -33 87 -46 109 -31 49 -34 35 -5 -20 50 -92 64 -233 34 -344 -44 -166 -191 -309 -335 -327 -25 -3 -66 -8 -92 -11 -61 -7 -177 19 -253 58 -33 17 -75 38 -92 47 -18 9 -33 22 -33 29 0 6 -6 16 -12 20 -19 12 -55 83 -68 133 -24 92 -32 244 -16 307 18 74 39 130 54 145 7 7 12 18 12 25 0 7 9 17 20 23 11 6 20 18 20 26 0 11 6 14 16 10 11 -4 20 5 31 34 9 22 22 40 28 40 7 0 15 7 19 15 3 8 11 15 18 15 7 0 36 12 63 27 46 25 60 27 160 27 92 0 122 -4 180 -24 46 -17 71 -31 73 -42 4 -22 -25 -24 -53 -4 -21 14 -118 29 -110 16 2 -4 23 -10 46 -13 23 -3 68 -19 100 -35 62 -30 70 -30 42 0 -11 12 -13 22 -7 28 15 15 131 -68 161 -116 37 -56 75 -141 87 -192 14 -54 14 -45 15 171 l1 227 -530 0 -530 0 0 -520z m58 -81 c7 -41 20 -98 29 -127 25 -92 -1 -80 -39 17 -24 62 -36 195 -17 189 8 -3 19 -34 27 -79z m82 -235 c0 -9 -5 -14 -12 -12 -18 6 -21 28 -4 28 9 0 16 -7 16 -16z m137 -131 c-4 -3 -10 -3 -14 0 -3 4 0 7 7 7 7 0 10 -3 7 -7z m68 -17 c22 -8 40 -20 40 -27 0 -25 -31 -20 -60 11 -33 34 -33 34 20 16z"/>
 <path d="M380 963 c-19 -8 -46 -19 -59 -24 -13 -5 -22 -12 -19 -14 3 -3 25 2 49 11 24 9 89 22 144 29 l100 13 -90 0 c-60 0 -102 -5 -125 -15z"/>
 <path d="M870 848 c41 -45 50 -53 50 -45 0 2 -21 23 -47 47 l-48 45 45 -47z"/>
 <path d="M170 494 l0 -146 84 3 c100 5 126 21 126 79 0 38 -17 60 -55 74 -18 7 -18 8 -3 17 14 8 78 101 78 114 0 3 -7 5 -15 5 -8 0 -36 -29 -62 -65 -45 -63 -48 -65 -90 -65 l-43 0 0 65 c0 37 -4 65 -10 65 -6 0 -10 -55 -10 -146z m174 -46 c8 -13 8 -23 0 -35 -9 -14 -28 -19 -83 -21 l-71 -3 0 41 0 41 71 -3 c55 -2 74 -7 83 -20z"/>
 <path d="M501 627 c-26 -9 -37 -21 -47 -49 -11 -32 -11 -38 1 -38 7 0 16 8 20 18 13 42 108 57 139 23 29 -32 16 -53 -39 -69 -99 -27 -130 -57 -116 -110 9 -32 69 -56 117 -47 40 7 87 55 74 75 -8 12 -14 10 -38 -13 -46 -44 -140 -31 -130 19 2 14 20 23 64 35 78 21 97 32 113 63 13 23 12 28 -12 59 -35 46 -82 57 -146 34z"/>
 <path d="M700 623 c0 -10 6 -30 14 -45 8 -15 17 -40 21 -57 4 -17 11 -33 16 -36 5 -4 9 -13 9 -22 0 -8 6 -29 14 -46 8 -18 16 -40 20 -49 3 -10 13 -18 23 -18 14 0 29 28 62 113 24 61 52 127 63 145 19 32 19 32 0 32 -25 0 -40 -19 -48 -58 l-6 -32 -68 0 -67 0 -13 45 c-12 44 -40 63 -40 28z m160 -130 c0 -10 -11 -39 -24 -65 l-22 -46 -21 64 -21 64 44 0 c35 0 44 -3 44 -17z"/>
 <path d="M1042 383 c-19 -83 -72 -179 -134 -244 -66 -70 -89 -85 -180 -115 l-73 -23 203 -1 202 0 0 220 c0 121 -1 220 -3 220 -1 0 -8 -26 -15 -57z"/>
 </g>
<g id="layer119" fill="#f1fbea" stroke="none">
 <path d="M0 520 l0 -520 200 0 c147 0 199 3 197 12 -1 8 26 11 96 9 167 -4 273 31 369 122 84 79 107 114 130 196 31 112 34 217 10 297 -12 38 -33 87 -46 109 -31 49 -34 35 -5 -20 50 -92 64 -233 34 -344 -44 -166 -191 -309 -335 -327 -25 -3 -66 -8 -92 -11 -61 -7 -177 19 -253 58 -33 17 -75 38 -92 47 -18 9 -33 22 -33 29 0 6 -6 16 -12 20 -19 12 -55 83 -68 133 -24 92 -32 244 -16 307 18 74 39 130 54 145 7 7 12 18 12 25 0 7 9 17 20 23 11 6 20 18 20 26 0 11 6 14 16 10 11 -4 20 5 31 34 9 22 22 40 28 40 7 0 15 7 19 15 3 8 11 15 18 15 7 0 36 12 63 27 46 25 60 27 160 27 92 0 122 -4 180 -24 46 -17 71 -31 73 -42 4 -22 -25 -24 -53 -4 -21 14 -118 29 -110 16 2 -4 23 -10 46 -13 23 -3 68 -19 100 -35 62 -30 70 -30 42 0 -11 12 -13 22 -7 28 15 15 131 -68 161 -116 37 -56 75 -141 87 -192 14 -54 14 -45 15 171 l1 227 -530 0 -530 0 0 -520z m58 -81 c7 -41 20 -98 29 -127 25 -92 -1 -80 -39 17 -24 62 -36 195 -17 189 8 -3 19 -34 27 -79z m82 -235 c0 -9 -5 -14 -12 -12 -18 6 -21 28 -4 28 9 0 16 -7 16 -16z m137 -131 c-4 -3 -10 -3 -14 0 -3 4 0 7 7 7 7 0 10 -3 7 -7z m68 -17 c22 -8 40 -20 40 -27 0 -25 -31 -20 -60 11 -33 34 -33 34 20 16z"/>
 <path d="M380 963 c-19 -8 -46 -19 -59 -24 -13 -5 -22 -12 -19 -14 3 -3 25 2 49 11 24 9 89 22 144 29 l100 13 -90 0 c-60 0 -102 -5 -125 -15z"/>
 <path d="M870 848 c41 -45 50 -53 50 -45 0 2 -21 23 -47 47 l-48 45 45 -47z"/>
 <path d="M170 494 l0 -146 84 3 c100 5 126 21 126 79 0 38 -17 60 -55 74 -18 7 -18 8 -3 17 14 8 78 101 78 114 0 3 -6 5 -14 5 -7 0 -26 -19 -41 -42 -49 -75 -66 -88 -112 -88 l-43 0 0 65 c0 37 -4 65 -10 65 -6 0 -10 -55 -10 -146z m174 -40 c9 -8 16 -19 16 -24 0 -26 -34 -40 -101 -40 l-69 0 0 40 0 40 69 0 c50 0 74 -4 85 -16z"/>
 <path d="M501 626 c-34 -12 -49 -33 -50 -68 -1 -24 16 -23 24 0 13 44 108 57 143 19 31 -33 13 -54 -63 -73 -77 -20 -95 -37 -95 -86 0 -33 4 -40 28 -50 15 -6 46 -12 69 -12 35 -1 48 5 73 29 21 22 27 34 20 45 -7 12 -13 9 -30 -13 -17 -22 -30 -27 -64 -27 -49 0 -80 18 -74 46 2 14 20 23 64 35 78 21 97 32 113 63 13 23 12 28 -12 59 -35 46 -81 57 -146 33z"/>
 <path d="M700 627 c0 -7 8 -31 18 -53 11 -21 34 -81 53 -131 22 -62 39 -93 49 -93 10 0 30 38 59 113 24 61 53 127 64 145 l20 34 -23 -4 c-17 -2 -27 -14 -38 -45 l-14 -43 -68 0 -67 0 -13 45 c-11 41 -40 64 -40 32z m167 -129 c-3 -7 -14 -37 -23 -65 -10 -29 -20 -53 -24 -53 -3 0 -15 29 -27 65 l-21 65 50 0 c36 0 48 -3 45 -12z"/>
 <path d="M1042 383 c-19 -83 -72 -179 -134 -244 -66 -70 -89 -85 -180 -115 l-73 -23 203 -1 202 0 0 220 c0 121 -1 220 -3 220 -1 0 -8 -26 -15 -57z"/>
 </g>
<g id="layer120" fill="#fefefe" stroke="none">
 <path d="M0 520 l0 -520 200 0 c137 0 199 3 197 11 -1 7 38 11 113 13 167 4 267 33 321 93 14 15 42 43 62 61 21 18 48 49 60 70 29 46 67 202 67 274 0 64 -28 160 -64 219 -34 58 -33 46 4 -32 38 -84 51 -168 39 -256 -12 -87 -14 -94 -56 -181 -27 -56 -48 -83 -91 -118 -85 -69 -141 -94 -244 -106 -136 -17 -224 4 -387 93 -75 40 -126 156 -142 324 -11 106 -4 173 22 234 10 24 19 52 19 62 0 11 5 19 10 19 6 0 15 11 20 25 5 14 17 28 25 31 8 4 15 13 15 21 0 9 6 13 14 10 9 -4 20 7 32 31 17 36 50 71 69 72 6 0 33 12 60 28 46 25 59 27 160 27 90 0 123 -4 182 -24 74 -25 97 -46 63 -59 -17 -6 -17 -9 10 -24 30 -17 40 -12 19 9 -23 23 1 33 35 15 95 -49 165 -146 207 -287 l18 -60 0 223 1 222 -530 0 -530 0 0 -520z m58 -76 c7 -38 20 -95 29 -127 16 -55 13 -81 -6 -61 -38 38 -82 273 -50 262 8 -3 19 -33 27 -74z m86 -240 c4 -11 1 -14 -11 -12 -9 2 -18 9 -21 16 -6 18 25 15 32 -4z m136 -124 c0 -5 -4 -10 -10 -10 -5 0 -10 5 -10 10 0 6 5 10 10 10 6 0 10 -4 10 -10z m74 -25 c38 -16 46 -32 21 -41 -14 -6 -73 33 -74 49 -1 11 13 9 53 -8z"/>
 <path d="M380 961 c-25 -10 -54 -21 -64 -25 -10 -3 -17 -9 -14 -11 2 -2 27 4 55 15 28 10 91 23 139 28 l89 9 -80 1 c-55 1 -94 -5 -125 -17z"/>
 <path d="M659 959 c23 -4 53 -11 65 -15 21 -6 21 -6 1 10 -12 9 -38 15 -65 15 l-45 -1 44 -9z"/>
 <path d="M905 810 c3 -5 8 -10 11 -10 3 0 2 5 -1 10 -3 6 -8 10 -11 10 -3 0 -2 -4 1 -10z"/>
 <path d="M170 494 l0 -147 85 5 c99 5 125 21 125 75 0 35 -29 73 -55 73 -20 0 -19 14 1 31 17 14 74 94 74 103 0 3 -6 6 -14 6 -7 0 -26 -19 -41 -42 -49 -75 -66 -88 -112 -88 l-43 0 0 65 c0 37 -4 65 -10 65 -6 0 -10 -55 -10 -146z m174 -40 c41 -40 10 -64 -81 -64 l-73 0 0 40 0 40 69 0 c50 0 74 -4 85 -16z"/>
 <path d="M505 626 c-32 -9 -41 -18 -49 -44 -9 -31 2 -61 12 -33 12 34 42 51 90 51 37 0 54 -5 68 -21 25 -28 9 -50 -47 -67 -68 -20 -109 -41 -115 -57 -4 -8 -3 -30 0 -49 6 -29 12 -35 50 -46 35 -10 49 -9 79 4 20 8 42 26 49 41 16 36 2 43 -23 12 -17 -22 -28 -27 -68 -27 -50 0 -71 12 -71 42 0 21 22 34 75 43 50 9 90 32 105 60 16 30 -11 72 -57 91 -38 16 -45 16 -98 0z"/>
 <path d="M702 629 c3 -8 27 -74 54 -146 33 -90 54 -133 64 -133 10 0 30 39 59 113 25 61 50 127 58 145 11 27 11 32 -1 32 -8 0 -22 -20 -32 -45 l-17 -45 -66 0 -67 0 -14 42 c-8 23 -21 44 -29 46 -9 3 -12 0 -9 -9z m166 -131 c-3 -7 -13 -37 -23 -65 -11 -29 -22 -53 -25 -53 -3 0 -14 24 -24 53 -10 28 -21 58 -23 65 -4 9 9 12 47 12 37 0 51 -4 48 -12z"/>
 <path d="M1041 375 c-18 -79 -71 -174 -132 -237 -73 -73 -79 -77 -167 -109 l-77 -28 198 0 197 -1 0 215 c0 118 -2 215 -3 215 -2 0 -9 -25 -16 -55z"/>
 </g>

</svg>