<!DOCTYPE svg PUBLIC "-//W3C//DTD SVG 20010904//EN" "http://www.w3.org/TR/2001/REC-SVG-20010904/DTD/svg10.dtd">
<svg version="1.0" xmlns="http://www.w3.org/2000/svg" width="120px" height="102px" viewBox="0 0 1200 1020" preserveAspectRatio="xMidYMid meet">
<g id="layer101" fill="#030303" stroke="none">
 <path d="M0 510 l0 -510 600 0 600 0 0 510 0 510 -600 0 -600 0 0 -510z"/>
 </g>
<g id="layer102" fill="#0c252d" stroke="none">
 <path d="M0 875 l0 -144 58 -4 57 -3 -57 -2 -58 -2 0 -360 0 -360 600 0 600 0 0 510 0 510 -600 0 -600 0 0 -145z m557 129 c-3 -3 -12 -4 -19 -1 -8 3 -5 6 6 6 11 1 17 -2 13 -5z m50 0 c-3 -3 -12 -4 -19 -1 -8 3 -5 6 6 6 11 1 17 -2 13 -5z m-158 -361 c26 -66 101 -277 101 -285 0 -4 -6 -8 -13 -8 -7 0 -35 60 -64 138 -28 75 -54 137 -58 137 -4 0 -30 -62 -58 -137 -29 -78 -57 -138 -64 -138 -7 0 -13 3 -13 8 0 4 25 76 56 160 50 135 59 152 79 152 15 0 26 -9 34 -27z m394 -5 c36 -18 37 -20 37 -73 l0 -55 -65 0 c-58 0 -65 2 -65 20 0 17 7 20 45 20 43 0 45 1 45 30 0 24 -6 33 -26 40 -43 17 -116 12 -151 -10 -38 -23 -47 -52 -41 -122 7 -72 38 -98 114 -98 48 0 59 4 86 30 35 36 54 31 33 -9 -17 -34 -66 -56 -121 -55 -85 2 -148 67 -148 153 1 132 126 195 257 129z m224 -75 c-4 -3 -7 0 -7 7 0 7 3 10 7 7 3 -4 3 -10 0 -14z m0 -120 c-4 -3 -7 0 -7 7 0 7 3 10 7 7 3 -4 3 -10 0 -14z m-520 -429 c-3 -3 -12 -4 -19 -1 -8 3 -5 6 6 6 11 1 17 -2 13 -5z m70 0 c-3 -3 -12 -4 -19 -1 -8 3 -5 6 6 6 11 1 17 -2 13 -5z"/>
 </g>
<g id="layer103" fill="#0a3a48" stroke="none">
 <path d="M0 875 l0 -145 60 0 c33 0 60 -3 60 -7 0 -5 -27 -6 -60 -5 l-60 4 0 -361 0 -361 600 0 600 0 0 510 0 510 -600 0 -600 0 0 -145z m598 128 c-16 -2 -40 -2 -55 0 -16 2 -3 4 27 4 30 0 43 -2 28 -4z m-298 -77 c0 -3 -5 -8 -12 -12 -7 -4 -8 -3 -4 4 7 12 16 16 16 8z m-40 -30 c0 -2 -8 -10 -17 -17 -16 -13 -17 -12 -4 4 13 16 21 21 21 13z m635 -6 c3 -5 4 -10 1 -10 -3 0 -8 5 -11 10 -3 6 -4 10 -1 10 3 0 8 -4 11 -10z m66 -67 c13 -16 12 -17 -3 -4 -10 7 -18 15 -18 17 0 8 8 3 21 -13z m-864 -170 c-4 -3 -7 0 -7 7 0 7 3 10 7 7 3 -4 3 -10 0 -14z m352 -10 c26 -66 101 -277 101 -285 0 -4 -6 -8 -13 -8 -7 0 -35 60 -64 138 -28 75 -54 137 -58 137 -4 0 -30 -62 -58 -137 -29 -78 -57 -138 -64 -138 -7 0 -13 3 -13 8 0 4 25 76 56 160 50 135 59 152 79 152 15 0 26 -9 34 -27z m394 -5 c36 -18 37 -20 37 -73 l0 -55 -65 0 c-58 0 -65 2 -65 20 0 17 7 20 45 20 43 0 45 1 45 30 0 24 -6 33 -26 40 -43 17 -116 12 -151 -10 -38 -23 -47 -52 -41 -122 7 -72 38 -98 114 -98 48 0 59 4 86 30 35 36 54 31 33 -9 -17 -34 -66 -56 -121 -55 -85 2 -148 67 -148 153 1 132 126 195 257 129z m-766 -80 c-3 -8 -6 -5 -6 6 -1 11 2 17 5 13 3 -3 4 -12 1 -19z m990 5 c-4 -3 -7 0 -7 7 0 7 3 10 7 7 3 -4 3 -10 0 -14z m-990 -115 c-3 -8 -6 -5 -6 6 -1 11 2 17 5 13 3 -3 4 -12 1 -19z m990 -5 c-4 -3 -7 0 -7 7 0 7 3 10 7 7 3 -4 3 -10 0 -14z m-876 -250 c13 -16 12 -17 -3 -4 -10 7 -18 15 -18 17 0 8 8 3 21 -13z m779 13 c0 -2 -8 -10 -17 -17 -16 -13 -17 -12 -4 4 13 16 21 21 21 13z m-715 -76 c3 -5 4 -10 1 -10 -3 0 -8 5 -11 10 -3 6 -4 10 -1 10 3 0 8 -4 11 -10z m645 6 c0 -3 -5 -8 -12 -12 -7 -4 -8 -3 -4 4 7 12 16 16 16 8z m-50 -40 c0 -3 -5 -8 -12 -12 -7 -4 -8 -3 -4 4 7 12 16 16 16 8z m-252 -83 c-16 -2 -40 -2 -55 0 -16 2 -3 4 27 4 30 0 43 -2 28 -4z"/>
 </g>
<g id="layer104" fill="#313131" stroke="none">
 <path d="M0 875 l0 -145 60 0 c33 0 60 -3 60 -7 0 -5 -27 -6 -60 -5 l-60 4 0 -361 0 -361 600 0 600 0 0 510 0 510 -600 0 -600 0 0 -145z m598 128 c-16 -2 -40 -2 -55 0 -16 2 -3 4 27 4 30 0 43 -2 28 -4z m-298 -77 c0 -3 -5 -8 -12 -12 -7 -4 -8 -3 -4 4 7 12 16 16 16 8z m-40 -30 c0 -2 -8 -10 -17 -17 -16 -13 -17 -12 -4 4 13 16 21 21 21 13z m635 -6 c3 -5 4 -10 1 -10 -3 0 -8 5 -11 10 -3 6 -4 10 -1 10 3 0 8 -4 11 -10z m66 -67 c13 -16 12 -17 -3 -4 -10 7 -18 15 -18 17 0 8 8 3 21 -13z m-864 -170 c-4 -3 -7 0 -7 7 0 7 3 10 7 7 3 -4 3 -10 0 -14z m357 -25 c9 -24 36 -96 60 -160 38 -103 42 -118 26 -118 -13 0 -29 31 -66 134 -27 74 -53 136 -58 138 -5 2 -31 -59 -59 -134 -38 -106 -54 -138 -67 -138 -15 0 -9 24 42 160 54 142 63 160 84 160 17 0 26 -9 38 -42z m389 10 c36 -18 37 -20 37 -73 l0 -55 -65 0 c-58 0 -65 2 -65 20 0 17 7 20 45 20 43 0 45 1 45 30 0 24 -6 33 -26 40 -38 15 -111 12 -144 -5 -38 -20 -50 -43 -50 -99 0 -87 38 -126 125 -126 40 0 52 5 76 31 34 37 56 31 34 -10 -13 -26 -36 -40 -92 -56 -37 -10 -111 15 -138 47 -46 54 -53 123 -18 190 36 73 142 93 236 46z m-766 -80 c-3 -8 -6 -5 -6 6 -1 11 2 17 5 13 3 -3 4 -12 1 -19z m990 5 c-4 -3 -7 0 -7 7 0 7 3 10 7 7 3 -4 3 -10 0 -14z m-990 -115 c-3 -8 -6 -5 -6 6 -1 11 2 17 5 13 3 -3 4 -12 1 -19z m990 -5 c-4 -3 -7 0 -7 7 0 7 3 10 7 7 3 -4 3 -10 0 -14z m-876 -250 c13 -16 12 -17 -3 -4 -10 7 -18 15 -18 17 0 8 8 3 21 -13z m779 13 c0 -2 -8 -10 -17 -17 -16 -13 -17 -12 -4 4 13 16 21 21 21 13z m-715 -76 c3 -5 4 -10 1 -10 -3 0 -8 5 -11 10 -3 6 -4 10 -1 10 3 0 8 -4 11 -10z m645 6 c0 -3 -5 -8 -12 -12 -7 -4 -8 -3 -4 4 7 12 16 16 16 8z m-50 -40 c0 -3 -5 -8 -12 -12 -7 -4 -8 -3 -4 4 7 12 16 16 16 8z m-252 -83 c-16 -2 -40 -2 -55 0 -16 2 -3 4 27 4 30 0 43 -2 28 -4z"/>
 </g>
<g id="layer105" fill="#624a00" stroke="none">
 <path d="M0 875 l0 -145 60 0 c33 0 60 -3 60 -7 0 -5 -27 -6 -60 -5 l-60 4 0 -361 0 -361 600 0 600 0 0 510 0 510 -600 0 -600 0 0 -145z m603 128 c-18 -2 -48 -2 -65 0 -18 2 -4 4 32 4 36 0 50 -2 33 -4z m-126 -9 c-3 -3 -12 -4 -19 -1 -8 3 -5 6 6 6 11 1 17 -2 13 -5z m210 0 c-3 -3 -12 -4 -19 -1 -8 3 -5 6 6 6 11 1 17 -2 13 -5z m-250 -11 c-4 -3 -10 -3 -14 0 -3 4 0 7 7 7 7 0 10 -3 7 -7z m280 0 c-4 -3 -10 -3 -14 0 -3 4 0 7 7 7 7 0 10 -3 7 -7z m-338 -17 c-10 -9 -69 -36 -69 -32 0 7 52 35 64 36 5 0 7 -2 5 -4z m406 -6 c3 -6 -1 -7 -9 -4 -18 7 -21 14 -7 14 6 0 13 -4 16 -10z m-485 -34 c0 -3 -5 -8 -12 -12 -7 -4 -8 -3 -4 4 7 12 16 16 16 8z m-30 -19 c0 -2 -12 -14 -27 -28 l-28 -24 24 28 c23 25 31 32 31 24z m655 -47 c27 -27 47 -50 44 -50 -3 0 -27 23 -54 50 -27 28 -47 50 -44 50 3 0 27 -22 54 -50z m75 -91 c15 -28 5 -23 -15 7 -9 15 -12 23 -6 20 6 -4 16 -16 21 -27z m-893 -86 c-4 -3 -7 0 -7 7 0 7 3 10 7 7 3 -4 3 -10 0 -14z m930 0 c-4 -3 -7 0 -7 7 0 7 3 10 7 7 3 -4 3 -10 0 -14z m-940 -30 c-4 -3 -7 0 -7 7 0 7 3 10 7 7 3 -4 3 -10 0 -14z m357 -25 c9 -24 36 -96 60 -160 38 -103 42 -118 26 -118 -13 0 -29 31 -66 134 -27 74 -53 136 -58 138 -5 2 -31 -59 -59 -134 -38 -106 -54 -138 -67 -138 -15 0 -9 24 42 160 54 142 63 160 84 160 17 0 26 -9 38 -42z m389 10 c36 -18 37 -20 37 -73 l0 -55 -65 0 c-58 0 -65 2 -65 20 0 17 7 20 45 20 43 0 45 1 45 30 0 24 -6 33 -26 40 -38 15 -111 12 -144 -5 -38 -20 -50 -43 -50 -99 0 -87 38 -126 125 -126 40 0 52 5 76 31 34 37 56 31 34 -10 -13 -26 -36 -40 -92 -56 -37 -10 -111 15 -138 47 -46 54 -53 123 -18 190 36 73 142 93 236 46z m204 15 c-4 -3 -7 0 -7 7 0 7 3 10 7 7 3 -4 3 -10 0 -14z m-960 -35 c-3 -8 -6 -5 -6 6 -1 11 2 17 5 13 3 -3 4 -12 1 -19z m976 2 c3 -11 1 -18 -4 -14 -5 3 -9 12 -9 20 0 20 7 17 13 -6z m-986 -67 c-3 -10 -5 -4 -5 12 0 17 2 24 5 18 2 -7 2 -21 0 -30z m990 0 c-3 -10 -5 -4 -5 12 0 17 2 24 5 18 2 -7 2 -21 0 -30z m-990 -110 c-3 -10 -5 -4 -5 12 0 17 2 24 5 18 2 -7 2 -21 0 -30z m990 0 c-3 -10 -5 -4 -5 12 0 17 2 24 5 18 2 -7 2 -21 0 -30z m-980 -55 c-3 -8 -6 -5 -6 6 -1 11 2 17 5 13 3 -3 4 -12 1 -19z m970 0 c-3 -8 -6 -5 -6 6 -1 11 2 17 5 13 3 -3 4 -12 1 -19z m-960 -35 c-4 -3 -7 0 -7 7 0 7 3 10 7 7 3 -4 3 -10 0 -14z m950 0 c-4 -3 -7 0 -7 7 0 7 3 10 7 7 3 -4 3 -10 0 -14z m-10 -30 c-4 -3 -7 0 -7 7 0 7 3 10 7 7 3 -4 3 -10 0 -14z m-37 -72 c-5 -11 -15 -23 -21 -27 -6 -3 -3 5 6 20 20 30 30 35 15 7z m-835 -21 c3 -5 4 -10 1 -10 -3 0 -8 5 -11 10 -3 6 -4 10 -1 10 3 0 8 -4 11 -10z m60 -70 c27 -27 47 -50 44 -50 -3 0 -27 23 -54 50 -27 28 -47 50 -44 50 3 0 27 -22 54 -50z m745 47 c0 -1 -24 -25 -52 -52 l-53 -50 50 53 c46 48 55 57 55 49z m-675 -107 c3 -5 4 -10 1 -10 -3 0 -8 5 -11 10 -3 6 -4 10 -1 10 3 0 8 -4 11 -10z m560 1 c-3 -6 19 -12 52 -14 l58 -3 -69 -2 c-60 -2 -67 0 -56 13 14 17 25 20 15 6z m-479 -49 c-5 -4 -66 26 -66 33 0 3 16 -3 35 -12 19 -9 33 -18 31 -21z m61 -19 c-4 -3 -10 -3 -14 0 -3 4 0 7 7 7 7 0 10 -3 7 -7z m40 -9 c-3 -3 -12 -4 -19 -1 -8 3 -5 6 6 6 11 1 17 -2 13 -5z m126 -11 c-18 -2 -48 -2 -65 0 -18 2 -4 4 32 4 36 0 50 -2 33 -4z"/>
 </g>
<g id="layer106" fill="#04536c" stroke="none">
 <path d="M0 875 l0 -145 60 0 c33 0 60 -3 60 -7 0 -5 -27 -6 -60 -5 l-60 4 0 -361 0 -361 600 0 600 0 0 510 0 510 -600 0 -600 0 0 -145z m603 128 c-18 -2 -48 -2 -65 0 -18 2 -4 4 32 4 36 0 50 -2 33 -4z m-126 -9 c-3 -3 -12 -4 -19 -1 -8 3 -5 6 6 6 11 1 17 -2 13 -5z m210 0 c-3 -3 -12 -4 -19 -1 -8 3 -5 6 6 6 11 1 17 -2 13 -5z m-250 -11 c-4 -3 -10 -3 -14 0 -3 4 0 7 7 7 7 0 10 -3 7 -7z m280 0 c-4 -3 -10 -3 -14 0 -3 4 0 7 7 7 7 0 10 -3 7 -7z m-338 -17 c-10 -9 -69 -36 -69 -32 0 7 52 35 64 36 5 0 7 -2 5 -4z m406 -6 c3 -6 -1 -7 -9 -4 -18 7 -21 14 -7 14 6 0 13 -4 16 -10z m-485 -34 c0 -3 -5 -8 -12 -12 -7 -4 -8 -3 -4 4 7 12 16 16 16 8z m-30 -19 c0 -2 -12 -14 -27 -28 l-28 -24 24 28 c23 25 31 32 31 24z m655 -47 c27 -27 47 -50 44 -50 -3 0 -27 23 -54 50 -27 28 -47 50 -44 50 3 0 27 -22 54 -50z m75 -91 c15 -28 5 -23 -15 7 -9 15 -12 23 -6 20 6 -4 16 -16 21 -27z m-893 -86 c-4 -3 -7 0 -7 7 0 7 3 10 7 7 3 -4 3 -10 0 -14z m930 0 c-4 -3 -7 0 -7 7 0 7 3 10 7 7 3 -4 3 -10 0 -14z m-940 -30 c-4 -3 -7 0 -7 7 0 7 3 10 7 7 3 -4 3 -10 0 -14z m356 -5 c6 -30 93 -273 101 -287 4 -7 -1 -11 -12 -11 -15 0 -26 17 -47 78 -15 42 -32 81 -36 86 -5 6 -9 17 -10 25 0 9 -8 34 -18 55 l-17 40 -54 -142 c-40 -105 -58 -142 -70 -142 -14 0 -9 22 32 138 69 193 63 182 97 182 22 0 30 -5 34 -22z m390 -6 c29 -16 32 -23 35 -75 l3 -57 -66 0 c-58 0 -65 2 -65 20 0 17 7 20 45 20 43 0 45 1 45 29 0 24 -6 31 -31 40 -98 34 -177 -5 -186 -92 -10 -90 32 -137 122 -137 40 0 52 5 76 31 34 37 56 31 34 -10 -13 -26 -36 -40 -92 -56 -37 -10 -111 15 -138 47 -31 36 -49 101 -40 145 8 43 55 97 97 111 44 15 122 7 161 -16z m204 11 c-4 -3 -7 0 -7 7 0 7 3 10 7 7 3 -4 3 -10 0 -14z m-960 -35 c-3 -8 -6 -5 -6 6 -1 11 2 17 5 13 3 -3 4 -12 1 -19z m976 2 c3 -11 1 -18 -4 -14 -5 3 -9 12 -9 20 0 20 7 17 13 -6z m-986 -67 c-3 -10 -5 -4 -5 12 0 17 2 24 5 18 2 -7 2 -21 0 -30z m990 0 c-3 -10 -5 -4 -5 12 0 17 2 24 5 18 2 -7 2 -21 0 -30z m-990 -110 c-3 -10 -5 -4 -5 12 0 17 2 24 5 18 2 -7 2 -21 0 -30z m990 0 c-3 -10 -5 -4 -5 12 0 17 2 24 5 18 2 -7 2 -21 0 -30z m-980 -55 c-3 -8 -6 -5 -6 6 -1 11 2 17 5 13 3 -3 4 -12 1 -19z m970 0 c-3 -8 -6 -5 -6 6 -1 11 2 17 5 13 3 -3 4 -12 1 -19z m-960 -35 c-4 -3 -7 0 -7 7 0 7 3 10 7 7 3 -4 3 -10 0 -14z m950 0 c-4 -3 -7 0 -7 7 0 7 3 10 7 7 3 -4 3 -10 0 -14z m-10 -30 c-4 -3 -7 0 -7 7 0 7 3 10 7 7 3 -4 3 -10 0 -14z m-37 -72 c-5 -11 -15 -23 -21 -27 -6 -3 -3 5 6 20 20 30 30 35 15 7z m-835 -21 c3 -5 4 -10 1 -10 -3 0 -8 5 -11 10 -3 6 -4 10 -1 10 3 0 8 -4 11 -10z m60 -70 c27 -27 47 -50 44 -50 -3 0 -27 23 -54 50 -27 28 -47 50 -44 50 3 0 27 -22 54 -50z m745 47 c0 -1 -24 -25 -52 -52 l-53 -50 50 53 c46 48 55 57 55 49z m-675 -107 c3 -5 4 -10 1 -10 -3 0 -8 5 -11 10 -3 6 -4 10 -1 10 3 0 8 -4 11 -10z m560 1 c-3 -6 19 -12 52 -14 l58 -3 -69 -2 c-60 -2 -67 0 -56 13 14 17 25 20 15 6z m-479 -49 c-5 -4 -66 26 -66 33 0 3 16 -3 35 -12 19 -9 33 -18 31 -21z m61 -19 c-4 -3 -10 -3 -14 0 -3 4 0 7 7 7 7 0 10 -3 7 -7z m40 -9 c-3 -3 -12 -4 -19 -1 -8 3 -5 6 6 6 11 1 17 -2 13 -5z m126 -11 c-18 -2 -48 -2 -65 0 -18 2 -4 4 32 4 36 0 50 -2 33 -4z"/>
 </g>
<g id="layer107" fill="#4e4e4e" stroke="none">
 <path d="M0 875 l0 -145 60 0 c33 0 60 -3 60 -7 0 -5 -27 -6 -60 -5 l-60 4 0 -361 0 -361 600 0 600 0 0 510 0 510 -600 0 -600 0 0 -145z m603 128 c-18 -2 -48 -2 -65 0 -18 2 -4 4 32 4 36 0 50 -2 33 -4z m-126 -9 c-3 -3 -12 -4 -19 -1 -8 3 -5 6 6 6 11 1 17 -2 13 -5z m210 0 c-3 -3 -12 -4 -19 -1 -8 3 -5 6 6 6 11 1 17 -2 13 -5z m-250 -11 c-4 -3 -10 -3 -14 0 -3 4 0 7 7 7 7 0 10 -3 7 -7z m280 0 c-4 -3 -10 -3 -14 0 -3 4 0 7 7 7 7 0 10 -3 7 -7z m-338 -17 c-10 -9 -69 -36 -69 -32 0 7 52 35 64 36 5 0 7 -2 5 -4z m406 -6 c3 -6 -1 -7 -9 -4 -18 7 -21 14 -7 14 6 0 13 -4 16 -10z m-485 -34 c0 -3 -5 -8 -12 -12 -7 -4 -8 -3 -4 4 7 12 16 16 16 8z m-30 -19 c0 -2 -12 -14 -27 -28 l-28 -24 24 28 c23 25 31 32 31 24z m655 -47 c27 -27 47 -50 44 -50 -3 0 -27 23 -54 50 -27 28 -47 50 -44 50 3 0 27 -22 54 -50z m75 -91 c15 -28 5 -23 -15 7 -9 15 -12 23 -6 20 6 -4 16 -16 21 -27z m-893 -86 c-4 -3 -7 0 -7 7 0 7 3 10 7 7 3 -4 3 -10 0 -14z m930 0 c-4 -3 -7 0 -7 7 0 7 3 10 7 7 3 -4 3 -10 0 -14z m-940 -30 c-4 -3 -7 0 -7 7 0 7 3 10 7 7 3 -4 3 -10 0 -14z m356 -5 c3 -13 14 -48 26 -78 75 -200 80 -220 61 -220 -18 0 -23 11 -96 209 -13 36 -26 66 -28 68 -2 2 -27 -60 -56 -137 -41 -108 -57 -140 -70 -140 -17 0 -15 8 12 83 16 45 41 113 55 152 31 88 29 85 62 85 22 0 30 -6 34 -22z m390 -6 c29 -16 32 -23 35 -75 l3 -57 -66 0 c-58 0 -65 2 -65 20 0 17 7 20 45 20 43 0 45 1 45 29 0 24 -6 31 -31 40 -59 20 -115 14 -150 -17 -27 -24 -33 -37 -37 -85 -4 -54 -3 -58 31 -92 31 -31 41 -35 87 -35 45 0 56 4 80 30 30 32 50 39 50 17 0 -41 -70 -87 -132 -87 -49 1 -114 34 -131 67 -68 132 13 261 156 248 27 -2 63 -13 80 -23z m204 11 c-4 -3 -7 0 -7 7 0 7 3 10 7 7 3 -4 3 -10 0 -14z m-960 -35 c-3 -8 -6 -5 -6 6 -1 11 2 17 5 13 3 -3 4 -12 1 -19z m976 2 c3 -11 1 -18 -4 -14 -5 3 -9 12 -9 20 0 20 7 17 13 -6z m-986 -67 c-3 -10 -5 -4 -5 12 0 17 2 24 5 18 2 -7 2 -21 0 -30z m990 0 c-3 -10 -5 -4 -5 12 0 17 2 24 5 18 2 -7 2 -21 0 -30z m-990 -110 c-3 -10 -5 -4 -5 12 0 17 2 24 5 18 2 -7 2 -21 0 -30z m990 0 c-3 -10 -5 -4 -5 12 0 17 2 24 5 18 2 -7 2 -21 0 -30z m-980 -55 c-3 -8 -6 -5 -6 6 -1 11 2 17 5 13 3 -3 4 -12 1 -19z m970 0 c-3 -8 -6 -5 -6 6 -1 11 2 17 5 13 3 -3 4 -12 1 -19z m-960 -35 c-4 -3 -7 0 -7 7 0 7 3 10 7 7 3 -4 3 -10 0 -14z m950 0 c-4 -3 -7 0 -7 7 0 7 3 10 7 7 3 -4 3 -10 0 -14z m-10 -30 c-4 -3 -7 0 -7 7 0 7 3 10 7 7 3 -4 3 -10 0 -14z m-37 -72 c-5 -11 -15 -23 -21 -27 -6 -3 -3 5 6 20 20 30 30 35 15 7z m-835 -21 c3 -5 4 -10 1 -10 -3 0 -8 5 -11 10 -3 6 -4 10 -1 10 3 0 8 -4 11 -10z m60 -70 c27 -27 47 -50 44 -50 -3 0 -27 23 -54 50 -27 28 -47 50 -44 50 3 0 27 -22 54 -50z m745 47 c0 -1 -24 -25 -52 -52 l-53 -50 50 53 c46 48 55 57 55 49z m-675 -107 c3 -5 4 -10 1 -10 -3 0 -8 5 -11 10 -3 6 -4 10 -1 10 3 0 8 -4 11 -10z m560 1 c-3 -6 19 -12 52 -14 l58 -3 -69 -2 c-60 -2 -67 0 -56 13 14 17 25 20 15 6z m-479 -49 c-5 -4 -66 26 -66 33 0 3 16 -3 35 -12 19 -9 33 -18 31 -21z m61 -19 c-4 -3 -10 -3 -14 0 -3 4 0 7 7 7 7 0 10 -3 7 -7z m40 -9 c-3 -3 -12 -4 -19 -1 -8 3 -5 6 6 6 11 1 17 -2 13 -5z m126 -11 c-18 -2 -48 -2 -65 0 -18 2 -4 4 32 4 36 0 50 -2 33 -4z"/>
 </g>
<g id="layer108" fill="#606161" stroke="none">
 <path d="M0 875 l0 -145 60 0 c62 0 72 -8 49 -40 -8 -12 -9 -10 -4 8 6 21 4 22 -49 22 l-56 0 0 -360 0 -360 600 0 600 0 0 510 0 510 -600 0 -600 0 0 -145z m608 128 c-21 -2 -55 -2 -75 0 -21 2 -4 4 37 4 41 0 58 -2 38 -4z m-131 -9 c-3 -3 -12 -4 -19 -1 -8 3 -5 6 6 6 11 1 17 -2 13 -5z m210 0 c-3 -3 -12 -4 -19 -1 -8 3 -5 6 6 6 11 1 17 -2 13 -5z m-262 -14 c-27 -12 -43 -12 -25 0 8 5 22 9 30 9 10 0 8 -3 -5 -9z m315 0 c18 -12 2 -12 -25 0 -13 6 -15 9 -5 9 8 0 22 -4 30 -9z m-361 -14 c-10 -9 -69 -36 -69 -32 0 7 52 35 64 36 5 0 7 -2 5 -4z m406 -6 c3 -6 -1 -7 -9 -4 -18 7 -21 14 -7 14 6 0 13 -4 16 -10z m-485 -34 c0 -3 -5 -8 -12 -12 -7 -4 -8 -3 -4 4 7 12 16 16 16 8z m-30 -19 c0 -2 -12 -14 -27 -28 l-28 -24 24 28 c23 25 31 32 31 24z m729 -138 c12 -21 20 -39 17 -39 -3 0 -13 14 -22 32 -9 18 -42 60 -73 93 l-55 60 55 -53 c31 -30 66 -71 78 -93z m-826 84 c-18 -2 -48 -2 -65 0 -18 2 -4 4 32 4 36 0 50 -2 33 -4z m867 -168 c0 -5 -5 -3 -10 5 -5 8 -10 20 -10 25 0 6 5 3 10 -5 5 -8 10 -19 10 -25z m-943 -32 c-4 -3 -7 0 -7 7 0 7 3 10 7 7 3 -4 3 -10 0 -14z m356 -5 c3 -13 14 -48 26 -78 75 -200 80 -220 61 -220 -18 0 -23 11 -96 209 -13 36 -26 66 -28 68 -2 2 -27 -60 -56 -137 -41 -108 -57 -140 -70 -140 -17 0 -15 8 12 83 16 45 41 113 55 152 31 88 29 85 62 85 22 0 30 -6 34 -22z m390 -6 c29 -16 32 -23 35 -75 l3 -57 -66 0 c-58 0 -65 2 -65 20 0 17 7 20 45 20 43 0 45 1 45 29 0 24 -6 31 -31 40 -59 20 -115 14 -150 -17 -27 -24 -33 -37 -37 -85 -4 -54 -3 -58 31 -92 31 -31 41 -35 87 -35 45 0 56 4 80 30 30 32 50 39 50 17 0 -41 -70 -87 -132 -87 -49 1 -114 34 -131 67 -68 132 13 261 156 248 27 -2 63 -13 80 -23z m204 11 c-4 -3 -7 0 -7 7 0 7 3 10 7 7 3 -4 3 -10 0 -14z m-960 -35 c-3 -8 -6 -5 -6 6 -1 11 2 17 5 13 3 -3 4 -12 1 -19z m1041 -10 l67 -2 -62 -3 -63 -4 0 -41 c0 -58 -6 -44 -12 27 -3 33 -3 52 -1 43 4 -15 17 -18 71 -20z m-1051 -140 c-2 -24 -4 -5 -4 42 0 47 2 66 4 43 2 -24 2 -62 0 -85z m990 -20 c-2 -13 -4 -5 -4 17 -1 22 1 32 4 23 2 -10 2 -28 0 -40z m-980 -60 c-3 -8 -6 -5 -6 6 -1 11 2 17 5 13 3 -3 4 -12 1 -19z m970 0 c-3 -8 -6 -5 -6 6 -1 11 2 17 5 13 3 -3 4 -12 1 -19z m-960 -35 c-4 -3 -7 0 -7 7 0 7 3 10 7 7 3 -4 3 -10 0 -14z m950 0 c-4 -3 -7 0 -7 7 0 7 3 10 7 7 3 -4 3 -10 0 -14z m-16 -40 c-12 -20 -14 -14 -5 12 4 9 9 14 11 11 3 -2 0 -13 -6 -23z m-38 -73 c-9 -16 -42 -54 -72 -82 l-55 -53 55 60 c31 33 61 70 68 83 6 12 14 22 17 22 3 0 -3 -13 -13 -30z m-774 -76 c26 -28 19 -22 -16 13 -35 35 -63 69 -63 75 0 7 7 1 16 -12 10 -14 38 -48 63 -76z m76 -64 c3 -5 4 -10 1 -10 -3 0 -8 5 -11 10 -3 6 -4 10 -1 10 3 0 8 -4 11 -10z m560 1 c-3 -6 19 -12 52 -14 l58 -3 -69 -2 c-60 -2 -67 0 -56 13 14 17 25 20 15 6z m-479 -49 c-5 -4 -66 26 -66 33 0 3 16 -3 35 -12 19 -9 33 -18 31 -21z m49 -12 c13 -6 15 -9 5 -9 -8 0 -22 4 -30 9 -18 12 -2 12 25 0z m315 0 c-8 -5 -19 -10 -25 -10 -5 0 -3 5 5 10 8 5 20 10 25 10 6 0 3 -5 -5 -10z m-263 -16 c-3 -3 -12 -4 -19 -1 -8 3 -5 6 6 6 11 1 17 -2 13 -5z m120 -11 c-20 -2 -52 -2 -70 0 -17 2 0 4 38 4 39 0 53 -2 32 -4z"/>
 </g>
<g id="layer109" fill="#717171" stroke="none">
 <path d="M0 875 l0 -145 60 0 c62 0 72 -8 49 -40 -8 -12 -9 -10 -4 8 6 21 4 22 -49 22 l-56 0 0 -360 0 -360 600 0 600 0 0 510 0 510 -600 0 -600 0 0 -145z m608 128 c-21 -2 -55 -2 -75 0 -21 2 -4 4 37 4 41 0 58 -2 38 -4z m-125 -10 c-7 -2 -19 -2 -25 0 -7 3 -2 5 12 5 14 0 19 -2 13 -5z m200 0 c-7 -2 -19 -2 -25 0 -7 3 -2 5 12 5 14 0 19 -2 13 -5z m-294 -27 c-56 -22 -101 -50 -149 -90 -19 -16 -18 -14 5 12 30 33 154 102 184 102 9 0 -9 -11 -40 -24z m366 10 c19 -8 35 -17 35 -20 0 -3 -15 1 -32 8 -18 7 -40 16 -48 19 -10 3 -10 6 -2 6 7 1 28 -6 47 -13z m172 -119 c52 -54 121 -162 111 -172 -2 -2 -18 25 -37 60 -20 40 -56 86 -93 120 -32 30 -55 55 -50 55 5 0 36 -28 69 -63z m-754 -4 c-18 -2 -48 -2 -65 0 -18 2 -4 4 32 4 36 0 50 -2 33 -4z m-76 -200 c-4 -3 -7 0 -7 7 0 7 3 10 7 7 3 -4 3 -10 0 -14z m356 -5 c3 -13 14 -48 26 -78 75 -200 80 -220 61 -220 -18 0 -23 11 -96 209 -13 36 -26 66 -28 68 -2 2 -27 -60 -56 -137 -41 -108 -57 -140 -70 -140 -17 0 -15 8 12 83 16 45 41 113 55 152 31 88 29 85 62 85 22 0 30 -6 34 -22z m390 -6 c29 -16 32 -23 35 -75 l3 -57 -66 0 c-58 0 -65 2 -65 20 0 17 7 20 45 20 43 0 45 1 45 29 0 24 -6 31 -31 40 -59 20 -115 14 -150 -17 -27 -24 -33 -37 -37 -85 -4 -54 -3 -58 31 -92 31 -31 41 -35 87 -35 45 0 56 4 80 30 30 32 50 39 50 17 0 -41 -70 -87 -132 -87 -49 1 -114 34 -131 67 -68 132 13 261 156 248 27 -2 63 -13 80 -23z m204 11 c-4 -3 -7 0 -7 7 0 7 3 10 7 7 3 -4 3 -10 0 -14z m-962 -144 c0 -71 -3 -120 -7 -107 -11 42 -7 238 6 238 0 0 1 -59 1 -131z m1043 99 l67 -2 -62 -3 -63 -4 -1 -92 c-1 -118 -6 -102 -11 33 -3 58 -3 97 0 88 3 -15 16 -18 70 -20z m-71 -220 c-3 -8 -6 -5 -6 6 -1 11 2 17 5 13 3 -3 4 -12 1 -19z m-960 -35 c-4 -3 -7 0 -7 7 0 7 3 10 7 7 3 -4 3 -10 0 -14z m950 0 c-4 -3 -7 0 -7 7 0 7 3 10 7 7 3 -4 3 -10 0 -14z m-37 -82 c-18 -33 -60 -87 -95 -120 l-62 -60 56 -4 c55 -3 54 -3 -14 -5 l-69 -2 71 65 c48 44 81 84 104 129 18 36 35 63 37 61 2 -2 -11 -31 -28 -64z m-772 -123 c54 -49 81 -66 149 -94 32 -13 51 -24 42 -24 -9 0 -48 16 -87 35 -50 25 -89 55 -136 105 -36 39 -66 75 -66 82 0 6 13 -7 28 -28 16 -21 47 -56 70 -76z m527 -97 c-6 -5 -21 -11 -35 -15 -21 -5 -20 -3 5 9 35 17 42 18 30 6z m-282 -28 c-7 -2 -19 -2 -25 0 -7 3 -2 5 12 5 14 0 19 -2 13 -5z m114 -10 c-20 -2 -52 -2 -70 0 -17 2 0 4 38 4 39 0 53 -2 32 -4z"/>
 </g>
<g id="layer110" fill="#01b7f0" stroke="none">
 <path d="M0 875 l0 -145 60 0 c33 0 60 -3 60 -7 0 -5 -9 -37 -20 -71 -24 -77 -26 -197 -5 -267 16 -54 12 -74 -6 -29 -6 16 -14 72 -16 124 -5 89 5 157 32 223 6 15 1 17 -49 17 l-56 0 0 -360 0 -360 600 0 600 0 0 510 0 510 -600 0 -600 0 0 -145z m732 110 c27 -9 50 -20 53 -24 2 -4 -22 1 -53 12 -165 57 -374 14 -494 -101 -16 -14 -28 -23 -28 -19 0 30 143 117 231 142 69 19 225 14 291 -10z m180 -109 c63 -60 113 -137 135 -207 l18 -59 65 -2 65 -2 -61 -3 -61 -4 -5 -107 c-7 -152 -49 -246 -157 -349 -69 -67 -67 -51 4 20 98 98 145 210 145 347 0 137 -47 249 -145 347 -71 71 -73 87 -3 19z m-739 -23 c-18 -2 -48 -2 -65 0 -18 2 -4 4 32 4 36 0 50 -2 33 -4z m280 -205 c3 -13 14 -48 26 -78 75 -200 80 -220 61 -220 -18 0 -23 11 -96 209 -13 36 -26 66 -28 68 -2 2 -27 -60 -56 -137 -41 -108 -57 -140 -70 -140 -17 0 -15 8 12 83 16 45 41 113 55 152 31 88 29 85 62 85 22 0 30 -6 34 -22z m390 -6 c29 -16 32 -23 35 -75 l3 -57 -66 0 c-58 0 -65 2 -65 20 0 17 7 20 45 20 43 0 45 1 45 29 0 24 -6 31 -31 40 -59 20 -115 14 -150 -17 -27 -24 -33 -37 -37 -85 -4 -54 -3 -58 31 -92 31 -31 41 -35 87 -35 45 0 56 4 80 30 30 32 50 39 50 17 0 -41 -70 -87 -132 -87 -49 1 -114 34 -131 67 -68 132 13 261 156 248 27 -2 63 -13 80 -23z m-594 -505 c86 -72 172 -106 296 -116 88 -8 89 -8 25 -10 -110 -2 -225 38 -315 109 -41 32 -115 118 -115 133 0 5 17 -13 39 -40 21 -27 53 -61 70 -76z m716 -52 c6 -2 -25 -4 -68 -4 -43 -1 -76 3 -73 7 5 8 118 5 141 -3z m-200 -34 c-6 -5 -21 -11 -35 -15 -21 -5 -20 -3 5 9 35 17 42 18 30 6z"/>
 </g>
<g id="layer111" fill="#929292" stroke="none">
 <path d="M0 875 l0 -145 60 0 c33 0 60 -3 60 -7 0 -5 -9 -37 -20 -71 -24 -77 -26 -197 -5 -267 16 -54 12 -74 -6 -29 -6 16 -14 72 -16 124 -5 89 5 157 32 223 6 15 1 17 -49 17 l-56 0 0 -360 0 -360 600 0 600 0 0 510 0 510 -600 0 -600 0 0 -145z m732 110 c27 -9 50 -20 53 -24 2 -4 -22 1 -53 12 -165 57 -374 14 -494 -101 -16 -14 -28 -23 -28 -19 0 30 143 117 231 142 69 19 225 14 291 -10z m180 -109 c63 -60 113 -137 135 -207 l18 -59 65 -2 65 -2 -61 -3 -61 -4 -5 -107 c-7 -152 -49 -246 -157 -349 -69 -67 -67 -51 4 20 98 98 145 210 145 347 0 137 -47 249 -145 347 -71 71 -73 87 -3 19z m-739 -23 c-18 -2 -48 -2 -65 0 -18 2 -4 4 32 4 36 0 50 -2 33 -4z m280 -205 c3 -13 14 -48 25 -78 20 -53 22 -55 60 -58 38 -3 40 -2 46 33 20 107 161 157 264 95 30 -18 32 -24 32 -75 l0 -55 70 0 70 0 0 -39 c0 -65 -37 -165 -85 -229 -104 -138 -284 -206 -458 -173 -185 34 -333 197 -354 388 l-6 52 108 3 107 3 20 55 c35 99 35 100 67 100 22 0 30 -6 34 -22z m-204 -511 c86 -72 172 -106 296 -116 88 -8 89 -8 25 -10 -110 -2 -225 38 -315 109 -41 32 -115 118 -115 133 0 5 17 -13 39 -40 21 -27 53 -61 70 -76z m716 -52 c6 -2 -25 -4 -68 -4 -43 -1 -76 3 -73 7 5 8 118 5 141 -3z m-200 -34 c-6 -5 -21 -11 -35 -15 -21 -5 -20 -3 5 9 35 17 42 18 30 6z"/>
 <path d="M392 576 c-12 -32 -22 -60 -22 -62 0 -2 20 -4 44 -4 44 0 44 0 37 28 -5 15 -15 42 -23 61 l-14 35 -22 -58z"/>
 <path d="M660 603 c-16 -16 -33 -43 -36 -60 l-6 -33 66 0 c59 0 66 2 66 20 0 17 7 20 45 20 43 0 45 1 45 29 0 24 -6 31 -31 40 -59 20 -115 14 -149 -16z"/>
 </g>
<g id="layer112" fill="#fec000" stroke="none">
 <path d="M0 875 l0 -145 61 0 c59 0 61 -1 55 -22 -41 -144 -46 -224 -22 -318 16 -61 13 -79 -5 -34 -7 16 -14 75 -17 130 -4 95 5 151 34 222 4 9 -9 12 -50 12 l-56 0 0 -360 0 -360 600 0 600 0 0 300 0 300 -65 0 -65 0 0 -88 c0 -101 -18 -172 -62 -251 -32 -55 -130 -161 -150 -161 -6 0 11 19 37 42 219 193 219 547 -1 736 -27 23 -43 42 -37 42 21 0 118 -104 151 -162 17 -29 37 -75 44 -101 l12 -47 68 0 68 0 0 205 0 205 -600 0 -600 0 0 -145z m732 110 c27 -9 50 -21 53 -25 3 -5 -20 0 -52 11 -158 56 -338 25 -470 -80 -29 -23 -53 -38 -53 -33 0 11 87 76 138 101 77 39 140 51 242 47 54 -2 116 -11 142 -21z m-559 -132 c-18 -2 -48 -2 -65 0 -18 2 -4 4 32 4 36 0 50 -2 33 -4z m280 -205 c3 -13 14 -48 25 -78 20 -53 22 -55 60 -58 38 -3 40 -2 46 33 20 107 161 157 264 95 30 -18 32 -24 32 -75 l0 -55 70 0 70 0 0 -39 c0 -65 -37 -165 -85 -229 -104 -138 -284 -206 -458 -173 -185 34 -333 197 -354 388 l-6 52 108 3 107 3 20 55 c35 99 35 100 67 100 22 0 30 -6 34 -22z m-245 -469 c80 -90 199 -145 342 -159 l85 -9 -90 3 c-105 4 -173 26 -264 87 -58 39 -142 130 -140 153 0 6 8 0 17 -14 9 -14 32 -41 50 -61z m757 -94 c6 -2 -25 -4 -68 -4 -43 -1 -76 3 -73 7 5 8 118 5 141 -3z m-200 -34 c-6 -5 -21 -12 -35 -15 l-25 -7 25 15 c28 17 50 21 35 7z"/>
 <path d="M392 576 c-12 -32 -22 -60 -22 -62 0 -2 20 -4 44 -4 44 0 44 0 37 28 -5 15 -15 42 -23 61 l-14 35 -22 -58z"/>
 <path d="M660 603 c-16 -16 -33 -43 -36 -60 l-6 -33 66 0 c59 0 66 2 66 20 0 17 7 20 45 20 43 0 45 1 45 29 0 24 -6 31 -31 40 -59 20 -115 14 -149 -16z"/>
 </g>
<g id="layer113" fill="#a0a1a1" stroke="none">
 <path d="M0 875 l0 -145 61 0 c59 0 61 -1 55 -22 -41 -144 -46 -224 -22 -318 16 -61 13 -79 -5 -34 -7 16 -14 75 -17 130 -4 95 5 151 34 222 4 9 -9 12 -50 12 l-56 0 0 -360 0 -360 600 0 600 0 0 300 0 300 -65 0 -65 0 0 -88 c0 -101 -18 -172 -62 -251 -32 -55 -130 -161 -150 -161 -6 0 11 19 37 42 219 193 219 547 -1 736 -27 23 -43 42 -37 42 21 0 118 -104 151 -162 17 -29 37 -75 44 -101 l12 -47 68 0 68 0 0 205 0 205 -600 0 -600 0 0 -145z m732 110 c27 -9 50 -21 53 -25 3 -5 -20 0 -52 11 -158 56 -338 25 -470 -80 -29 -23 -53 -38 -53 -33 0 11 87 76 138 101 77 39 140 51 242 47 54 -2 116 -11 142 -21z m-33 -44 c33 -10 80 -30 103 -44 65 -38 145 -128 181 -204 43 -92 50 -217 18 -321 -52 -171 -212 -295 -396 -309 -165 -12 -300 49 -400 183 -48 63 -71 125 -85 227 -29 205 116 413 330 473 69 19 179 17 249 -5z m-526 -88 c-18 -2 -48 -2 -65 0 -18 2 -4 4 32 4 36 0 50 -2 33 -4z m35 -674 c80 -90 199 -145 342 -159 l85 -9 -90 3 c-105 4 -173 26 -264 87 -58 39 -142 130 -140 153 0 6 8 0 17 -14 9 -14 32 -41 50 -61z m757 -94 c6 -2 -25 -4 -68 -4 -43 -1 -76 3 -73 7 5 8 118 5 141 -3z m-200 -34 c-6 -5 -21 -12 -35 -15 l-25 -7 25 15 c28 17 50 21 35 7z"/>
 </g>
<g id="layer114" fill="#b1b2b2" stroke="none">
 <path d="M0 875 l0 -145 61 0 c59 0 61 -1 55 -22 -45 -159 -48 -243 -11 -357 4 -15 3 -21 -3 -17 -35 22 -44 226 -14 324 l20 62 -54 0 -54 0 0 -360 0 -360 600 0 600 0 0 300 0 300 -64 0 -64 0 0 -87 c-1 -152 -64 -294 -170 -381 l-45 -37 59 -6 c59 -6 58 -6 -21 -7 l-80 -1 30 21 c136 97 215 247 215 408 0 136 -48 248 -147 348 -70 69 -73 81 -7 27 56 -46 121 -145 142 -217 l17 -58 68 0 67 0 0 205 0 205 -600 0 -600 0 0 -145z m720 116 c20 -6 45 -18 55 -26 14 -10 3 -9 -40 6 -164 56 -348 23 -482 -88 -24 -19 -43 -30 -43 -25 0 26 149 115 230 138 52 15 226 12 280 -5z m-21 -50 c33 -10 80 -30 103 -44 65 -38 145 -128 181 -204 43 -92 50 -217 18 -321 -52 -171 -212 -295 -396 -309 -165 -12 -300 49 -400 183 -48 63 -71 125 -85 227 -29 205 116 413 330 473 69 19 179 17 249 -5z m-526 -88 c-18 -2 -48 -2 -65 0 -18 2 -4 4 32 4 36 0 50 -2 33 -4z m18 -652 c87 -107 209 -168 364 -181 l80 -7 -70 -2 c-109 -2 -190 24 -290 95 -52 36 -77 62 -139 143 -8 10 -8 13 0 10 6 -2 31 -28 55 -58z m565 -156 c-19 -15 -46 -20 -46 -10 0 6 40 24 55 24 6 0 1 -6 -9 -14z"/>
 </g>
<g id="layer115" fill="#fbd561" stroke="none">
 <path d="M0 875 l0 -145 61 0 c59 0 61 -1 56 -22 -3 -13 -13 -50 -21 -83 -19 -75 -20 -152 -2 -230 15 -64 13 -85 -4 -41 -33 89 -32 222 5 325 l14 41 -54 0 -55 0 0 -360 0 -360 600 0 600 0 0 300 0 300 -63 0 -63 0 0 -87 c0 -147 -66 -294 -171 -381 l-44 -37 58 -6 c57 -6 56 -6 -22 -7 l-80 -1 30 21 c56 40 134 128 160 182 98 201 63 418 -92 574 -36 35 -63 65 -61 67 2 2 24 -13 49 -35 60 -51 115 -132 144 -211 l23 -64 66 -3 66 -3 0 206 0 205 -600 0 -600 0 0 -145z m743 109 c26 -10 47 -22 47 -26 0 -10 3 -11 -58 12 -149 57 -324 27 -467 -79 -45 -34 -57 -38 -117 -40 -43 -2 -68 2 -68 8 0 7 26 11 66 11 59 0 69 3 111 35 52 40 134 81 190 95 60 15 240 5 296 -16z m-44 -43 c33 -10 80 -30 103 -44 65 -38 145 -128 181 -204 43 -92 50 -217 18 -321 -52 -171 -212 -295 -396 -309 -165 -12 -300 49 -400 183 -48 63 -71 125 -85 227 -29 205 116 413 330 473 69 19 179 17 249 -5z m-520 -726 c39 -54 100 -104 166 -137 74 -37 115 -48 207 -57 l83 -8 -70 -1 c-38 -1 -90 3 -115 9 -64 15 -157 63 -210 108 -47 40 -118 131 -102 131 5 0 23 -20 41 -45z m577 -170 c-19 -15 -46 -20 -46 -10 0 6 40 24 55 24 6 0 1 -6 -9 -14z"/>
 </g>
<g id="layer116" fill="#73d7f5" stroke="none">
 <path d="M0 875 l0 -145 61 0 c59 0 61 -1 56 -22 -3 -13 -13 -50 -21 -83 -19 -75 -20 -152 -2 -230 15 -64 13 -85 -4 -41 -33 89 -32 222 5 325 l14 41 -54 0 -55 0 0 -360 0 -360 600 0 600 0 0 300 0 300 -63 0 -63 0 0 -87 c0 -147 -66 -294 -171 -381 l-44 -37 58 -6 c57 -6 56 -6 -22 -7 l-80 -1 30 21 c56 40 134 128 160 182 98 201 63 418 -92 574 -36 35 -63 65 -61 67 2 2 24 -13 49 -35 60 -51 115 -132 144 -211 l23 -64 66 -3 66 -3 0 206 0 205 -600 0 -600 0 0 -145z m743 109 c26 -10 47 -22 47 -26 0 -10 3 -11 -58 12 -149 57 -324 27 -467 -79 -45 -34 -57 -38 -117 -40 -43 -2 -68 2 -68 8 0 7 26 11 66 11 59 0 69 3 111 35 52 40 134 81 190 95 60 15 240 5 296 -16z m-31 -45 c208 -70 334 -267 307 -480 -27 -220 -194 -380 -414 -396 -165 -12 -300 49 -400 183 -48 64 -71 125 -86 228 -28 200 106 402 309 467 81 26 205 25 284 -2z m-533 -724 c39 -54 100 -104 166 -137 74 -37 115 -48 207 -57 l83 -8 -70 -1 c-38 -1 -90 3 -115 9 -64 15 -157 63 -210 108 -47 40 -118 131 -102 131 5 0 23 -20 41 -45z m577 -170 c-19 -15 -46 -20 -46 -10 0 6 40 24 55 24 6 0 1 -6 -9 -14z"/>
 </g>
<g id="layer117" fill="#cdcdcd" stroke="none">
 <path d="M0 875 l0 -145 54 0 c30 0 58 5 61 10 4 6 10 8 15 5 4 -3 0 -22 -10 -43 -49 -103 -51 -250 -5 -377 5 -14 4 -16 -3 -6 -8 11 -11 11 -15 0 -5 -11 -6 -10 -5 1 1 8 -4 40 -12 70 -19 76 -16 192 8 268 l20 62 -54 0 -54 0 0 -360 0 -360 600 0 600 0 0 300 0 300 -63 0 -63 0 0 -87 c0 -147 -66 -294 -171 -381 l-44 -37 58 -6 58 -6 -70 -1 c-39 -1 -76 -7 -82 -13 -6 -6 -13 -7 -17 -1 -3 5 17 23 44 41 126 82 210 242 210 401 0 135 -51 252 -153 353 -38 37 -68 70 -65 72 2 2 26 -16 54 -40 65 -56 119 -135 149 -216 l23 -64 66 -3 66 -3 0 206 0 205 -600 0 -600 0 0 -145z m745 108 c27 -11 51 -25 53 -31 1 -5 -24 1 -57 14 -161 65 -377 23 -501 -97 -22 -21 -42 -34 -45 -29 -4 6 -31 10 -61 10 -30 0 -54 5 -54 10 0 6 29 10 66 10 59 0 69 3 111 35 52 40 134 81 190 95 64 16 241 6 298 -17z m-33 -44 c219 -74 349 -294 304 -514 -25 -120 -74 -199 -168 -271 -238 -184 -580 -94 -699 183 -103 241 27 523 279 604 81 26 205 25 284 -2z m-537 -719 c44 -60 102 -109 170 -142 76 -38 119 -49 218 -58 l92 -7 -80 -1 c-126 -2 -220 28 -318 103 -47 36 -146 155 -128 155 5 0 26 -23 46 -50z m570 -182 c-26 -10 -49 -17 -52 -15 -7 7 81 45 91 39 5 -3 -12 -14 -39 -24z"/>
 </g>
<g id="layer118" fill="#9de1f6" stroke="none">
 <path d="M0 875 l0 -145 54 0 c30 0 58 5 61 10 4 6 10 8 15 5 4 -3 -3 -33 -17 -67 -43 -104 -42 -222 2 -353 5 -15 4 -16 -3 -6 -8 11 -10 11 -14 0 -2 -7 -12 30 -22 83 -20 106 -17 178 13 266 l18 52 -54 0 -53 0 0 -360 0 -360 283 1 c163 1 259 5 227 9 -149 19 -268 92 -365 223 -18 24 -23 37 -14 37 8 -1 30 -23 49 -51 38 -54 110 -114 179 -149 52 -26 170 -52 226 -50 61 3 75 -2 30 -10 -22 -4 101 -8 273 -9 l312 -1 0 295 0 295 -65 0 -65 0 6 -44 c17 -122 -47 -289 -150 -392 l-64 -64 56 0 c84 0 51 -18 -38 -21 -41 -1 -74 1 -73 5 1 4 29 27 62 52 141 105 217 306 182 477 -23 109 -97 228 -184 295 -16 12 -27 27 -25 34 2 6 35 -18 75 -58 69 -68 114 -139 138 -219 l12 -40 67 -3 66 -3 0 206 0 205 -600 0 -600 0 0 -145z m729 112 c36 -12 67 -28 69 -34 2 -8 -12 -6 -41 7 -74 33 -180 45 -265 30 -89 -15 -192 -64 -249 -119 -23 -23 -45 -36 -48 -31 -3 6 -33 10 -66 10 -38 0 -58 4 -54 10 3 6 35 10 71 10 58 0 68 3 110 35 100 76 183 104 314 104 72 0 110 -5 159 -22z m-17 -48 c219 -74 349 -294 304 -514 -25 -120 -74 -199 -168 -271 -238 -184 -580 -94 -699 183 -103 241 27 523 279 604 81 26 205 25 284 -2z m72 -878 c6 -9 -83 -45 -91 -37 -3 2 69 42 84 46 1 0 4 -4 7 -9z"/>
 </g>
<g id="layer119" fill="#fbe59f" stroke="none">
 <path d="M0 875 l0 -145 55 0 c30 0 55 5 55 10 0 6 7 10 15 10 8 0 15 -5 15 -11 0 -5 -5 -7 -12 -3 -6 4 -8 3 -5 -3 3 -5 -3 -34 -14 -64 -29 -76 -36 -188 -15 -267 9 -35 13 -69 9 -74 -3 -7 -1 -8 5 -4 7 4 12 2 12 -3 0 -6 -6 -11 -13 -11 -9 0 -20 31 -32 94 -19 104 -15 176 14 264 l18 52 -54 0 -53 0 0 -360 0 -360 283 1 c191 1 263 4 222 10 -145 19 -254 85 -351 210 -31 40 -41 60 -32 65 6 4 14 2 16 -4 2 -7 21 -36 43 -64 71 -95 171 -159 288 -184 78 -16 147 -18 156 -4 9 15 25 12 25 -4 0 -10 -13 -16 -38 -19 -20 -2 104 -4 276 -5 l312 -2 0 295 0 295 -65 0 -65 0 6 -44 c17 -122 -47 -289 -150 -392 l-64 -64 56 0 c84 0 51 -18 -37 -21 -80 -2 -99 8 -51 29 81 36 184 178 215 297 46 177 -24 381 -168 492 -23 18 -48 37 -54 43 -7 6 -16 11 -20 12 -5 1 -27 10 -49 20 -159 70 -386 29 -511 -91 -23 -23 -45 -36 -48 -31 -3 6 -33 10 -66 10 -38 0 -58 4 -54 10 3 6 37 10 75 10 39 0 72 5 76 11 15 24 131 90 192 109 96 30 220 27 322 -6 44 -15 80 -31 80 -36 0 -5 4 -7 9 -3 5 3 43 -27 84 -67 74 -72 118 -141 142 -223 l12 -40 67 -3 66 -3 0 206 0 205 -600 0 -600 0 0 -145z m712 64 c171 -57 284 -195 310 -378 42 -300 -246 -563 -545 -497 -237 53 -399 286 -359 518 29 168 149 307 310 359 81 26 205 25 284 -2z m78 -878 c0 -10 -91 -44 -98 -36 -7 7 -4 9 43 27 49 20 55 21 55 9z"/>
 </g>
<g id="layer120" fill="#d1f2fb" stroke="none">
 <path d="M0 875 l0 -145 55 0 c30 0 55 5 55 10 0 6 7 10 15 10 8 0 15 -5 15 -11 0 -5 -5 -7 -12 -3 -6 4 -8 3 -5 -3 3 -5 -3 -34 -14 -64 -29 -76 -36 -188 -15 -267 9 -35 13 -69 9 -74 -3 -7 -1 -8 5 -4 7 4 12 2 12 -3 0 -6 -6 -11 -13 -11 -9 0 -20 31 -32 94 -19 104 -15 176 14 264 l18 52 -54 0 -53 0 0 -360 0 -360 283 1 c191 1 263 4 222 10 -145 19 -254 85 -351 210 -31 40 -41 60 -32 65 6 4 14 2 16 -4 2 -7 21 -36 43 -64 71 -95 171 -159 288 -184 78 -16 147 -18 156 -4 9 15 25 12 25 -4 0 -10 -13 -16 -38 -19 -20 -2 104 -4 276 -5 l312 -2 0 295 0 295 -65 0 -65 0 6 -44 c17 -122 -47 -289 -150 -392 l-64 -64 56 0 c84 0 51 -18 -37 -21 -80 -2 -99 8 -51 29 81 36 184 178 215 297 46 177 -24 381 -168 492 -23 18 -48 37 -54 43 -7 6 -16 11 -20 12 -5 1 -27 10 -49 20 -159 70 -386 29 -511 -91 -23 -23 -45 -36 -48 -31 -3 6 -33 10 -66 10 -38 0 -58 4 -54 10 3 6 37 10 75 10 39 0 72 5 76 11 15 24 131 90 192 109 96 30 220 27 322 -6 44 -15 80 -31 80 -36 0 -5 4 -7 9 -3 5 3 43 -27 84 -67 74 -72 118 -141 142 -223 l12 -40 67 -3 66 -3 0 206 0 205 -600 0 -600 0 0 -145z m705 70 c66 -19 161 -80 209 -136 86 -99 130 -251 108 -371 -48 -257 -298 -429 -545 -374 -305 68 -459 413 -304 678 37 64 128 145 199 178 107 50 215 58 333 25z m85 -884 c0 -10 -91 -44 -98 -36 -7 7 -4 9 43 27 49 20 55 21 55 9z"/>
 </g>
<g id="layer121" fill="#faf3d5" stroke="none">
 <path d="M0 875 l0 -145 55 0 c30 0 55 5 55 10 0 6 7 10 15 10 19 0 19 -14 1 -43 -23 -34 -46 -135 -46 -197 0 -31 7 -83 16 -115 20 -76 21 -84 9 -85 -5 -1 -18 36 -28 82 -21 96 -17 190 12 274 l18 54 -54 0 -53 0 0 -360 0 -360 283 1 c163 1 259 5 227 9 -119 15 -240 76 -310 157 -77 88 -90 105 -84 114 10 17 23 9 40 -26 24 -52 114 -137 183 -174 92 -49 260 -78 288 -50 6 6 16 8 22 5 22 -14 10 -25 -32 -29 -23 -2 99 -4 271 -5 l312 -2 0 295 0 295 -65 0 -65 0 6 -44 c17 -122 -47 -289 -150 -392 l-64 -64 56 0 c33 0 52 -4 47 -9 -13 -12 -155 -19 -148 -7 3 5 1 6 -5 2 -7 -4 -12 -4 -12 1 0 4 13 14 30 21 46 21 132 112 167 178 82 155 83 313 1 466 -34 64 -117 154 -154 168 -25 10 -31 25 -14 35 5 3 43 -27 84 -67 72 -72 117 -143 141 -223 l12 -40 67 -3 66 -3 0 206 0 205 -600 0 -600 0 0 -145z m726 113 c38 -12 73 -22 78 -22 14 -1 19 -23 6 -31 -5 -3 -17 1 -26 9 -8 9 -37 22 -65 30 -159 48 -320 19 -451 -81 -26 -21 -48 -43 -48 -50 0 -7 -7 -13 -15 -13 -8 0 -15 5 -15 10 0 6 -27 10 -61 10 -37 0 -58 4 -54 10 3 6 35 10 71 10 58 0 68 3 110 35 99 75 183 104 310 104 68 1 110 -5 160 -21z m-21 -43 c66 -19 161 -80 209 -136 86 -98 130 -251 109 -374 -36 -207 -206 -362 -421 -381 -308 -28 -565 289 -473 585 26 84 60 137 125 199 122 115 284 154 451 107z m90 -885 c0 -8 -15 -17 -32 -21 -18 -3 -40 -12 -48 -19 -11 -9 -19 -10 -27 -2 -15 15 -2 29 28 30 14 0 33 7 42 16 19 18 37 16 37 -4z"/>
 </g>
<g id="layer122" fill="#fefefe" stroke="none">
 <path d="M0 875 l0 -145 55 0 c30 0 55 5 55 10 0 6 7 10 15 10 19 0 19 -19 0 -44 -8 -10 -22 -53 -31 -94 -19 -84 -14 -180 11 -252 10 -29 12 -47 6 -53 -7 -7 -12 -5 -15 4 -12 33 -36 171 -36 201 0 30 19 129 36 186 6 21 4 22 -45 22 l-51 0 0 -360 0 -360 273 1 c189 1 256 4 220 10 -69 12 -150 43 -205 79 -63 42 -183 174 -172 191 10 16 24 9 34 -17 14 -36 117 -141 166 -170 68 -40 154 -65 229 -66 39 -1 79 0 89 3 10 2 21 -1 23 -8 3 -7 -9 -13 -29 -16 -18 -2 103 -5 270 -5 l302 -2 0 295 0 295 -63 0 -63 0 4 -57 c9 -130 -48 -273 -149 -375 l-67 -68 54 0 c30 0 54 -4 54 -10 0 -6 -28 -10 -64 -10 -35 0 -72 -3 -82 -7 -13 -5 -15 -3 -9 7 5 9 4 11 -3 6 -7 -4 -12 -2 -12 3 0 6 7 11 15 11 8 0 46 30 85 66 204 193 212 488 19 690 -34 35 -68 64 -75 64 -18 0 -28 20 -17 31 14 14 135 -101 173 -162 16 -27 38 -75 49 -106 l20 -58 65 -3 66 -3 0 206 0 205 -307 -1 c-181 -1 -287 -5 -257 -9 28 -4 75 -16 105 -26 30 -10 59 -18 64 -19 14 0 12 -28 -2 -32 -7 -3 -13 0 -13 5 0 6 -30 21 -67 33 -164 55 -383 7 -482 -106 -30 -34 -51 -45 -51 -25 0 6 -27 10 -60 10 -33 0 -60 4 -60 10 0 6 31 10 74 10 44 0 78 5 82 11 13 21 125 88 176 105 28 9 74 20 102 24 31 5 -59 8 -226 9 l-278 1 0 -145z m651 85 c126 -24 257 -117 319 -225 98 -171 74 -386 -58 -528 -88 -93 -186 -142 -310 -153 -224 -20 -438 145 -482 374 -47 240 102 469 343 528 66 16 120 17 188 4z m144 -900 c0 -8 -15 -17 -32 -21 -18 -3 -40 -12 -48 -19 -11 -9 -19 -10 -27 -2 -13 13 0 35 17 29 7 -3 25 3 41 13 32 20 49 20 49 0z"/>
 </g>

</svg>